%TF.GenerationSoftware,KiCad,Pcbnew,8.0.8*%
%TF.CreationDate,2025-12-19T19:10:27+00:00*%
%TF.ProjectId,MACRO,4d414352-4f2e-46b6-9963-61645f706362,rev?*%
%TF.SameCoordinates,Original*%
%TF.FileFunction,Soldermask,Bot*%
%TF.FilePolarity,Negative*%
%FSLAX46Y46*%
G04 Gerber Fmt 4.6, Leading zero omitted, Abs format (unit mm)*
G04 Created by KiCad (PCBNEW 8.0.8) date 2025-12-19 19:10:27*
%MOMM*%
%LPD*%
G01*
G04 APERTURE LIST*
G04 Aperture macros list*
%AMRoundRect*
0 Rectangle with rounded corners*
0 $1 Rounding radius*
0 $2 $3 $4 $5 $6 $7 $8 $9 X,Y pos of 4 corners*
0 Add a 4 corners polygon primitive as box body*
4,1,4,$2,$3,$4,$5,$6,$7,$8,$9,$2,$3,0*
0 Add four circle primitives for the rounded corners*
1,1,$1+$1,$2,$3*
1,1,$1+$1,$4,$5*
1,1,$1+$1,$6,$7*
1,1,$1+$1,$8,$9*
0 Add four rect primitives between the rounded corners*
20,1,$1+$1,$2,$3,$4,$5,0*
20,1,$1+$1,$4,$5,$6,$7,0*
20,1,$1+$1,$6,$7,$8,$9,0*
20,1,$1+$1,$8,$9,$2,$3,0*%
G04 Aperture macros list end*
%ADD10C,2.500000*%
%ADD11C,1.750000*%
%ADD12C,4.000000*%
%ADD13R,2.000000X2.000000*%
%ADD14C,2.000000*%
%ADD15R,3.200000X2.000000*%
%ADD16C,2.404000*%
%ADD17RoundRect,0.102000X-0.754000X-0.754000X0.754000X-0.754000X0.754000X0.754000X-0.754000X0.754000X0*%
%ADD18C,1.712000*%
%ADD19R,1.600000X1.600000*%
%ADD20O,1.600000X1.600000*%
%ADD21O,2.500000X1.500000*%
%ADD22O,1.500000X2.500000*%
G04 APERTURE END LIST*
D10*
%TO.C,S9*%
X113997500Y-106695000D03*
X107647500Y-109235000D03*
D11*
X116537500Y-111775000D03*
D12*
X111457500Y-111775000D03*
D11*
X106377500Y-111775000D03*
%TD*%
D10*
%TO.C,S3*%
X113997500Y-68595000D03*
X107647500Y-71135000D03*
D11*
X116537500Y-73675000D03*
D12*
X111457500Y-73675000D03*
D11*
X106377500Y-73675000D03*
%TD*%
D10*
%TO.C,S1*%
X75897500Y-68595000D03*
X69547500Y-71135000D03*
D11*
X78437500Y-73675000D03*
D12*
X73357500Y-73675000D03*
D11*
X68277500Y-73675000D03*
%TD*%
D13*
%TO.C,SW1*%
X101382982Y-44115046D03*
D14*
X101382982Y-49115046D03*
X101382982Y-46615046D03*
D15*
X108882982Y-41015046D03*
X108882982Y-52215046D03*
D14*
X115882982Y-49115046D03*
X115882982Y-44115046D03*
%TD*%
D10*
%TO.C,S4*%
X75897500Y-87645000D03*
X69547500Y-90185000D03*
D11*
X78437500Y-92725000D03*
D12*
X73357500Y-92725000D03*
D11*
X68277500Y-92725000D03*
%TD*%
D16*
%TO.C,J1*%
X73452500Y-36602500D03*
X73452500Y-58602500D03*
X95452500Y-36602500D03*
X95452500Y-58602500D03*
D17*
X80642500Y-36102500D03*
D18*
X83182500Y-36102500D03*
X85722500Y-36102500D03*
X88262500Y-36102500D03*
%TD*%
D10*
%TO.C,S6*%
X113997500Y-87645000D03*
X107647500Y-90185000D03*
D11*
X116537500Y-92725000D03*
D12*
X111457500Y-92725000D03*
D11*
X106377500Y-92725000D03*
%TD*%
D10*
%TO.C,S2*%
X94947500Y-68595000D03*
X88597500Y-71135000D03*
D11*
X97487500Y-73675000D03*
D12*
X92407500Y-73675000D03*
D11*
X87327500Y-73675000D03*
%TD*%
D10*
%TO.C,S8*%
X94947500Y-106695000D03*
X88597500Y-109235000D03*
D11*
X97487500Y-111775000D03*
D12*
X92407500Y-111775000D03*
D11*
X87327500Y-111775000D03*
%TD*%
D10*
%TO.C,S5*%
X94947500Y-87645000D03*
X88597500Y-90185000D03*
D11*
X97487500Y-92725000D03*
D12*
X92407500Y-92725000D03*
D11*
X87327500Y-92725000D03*
%TD*%
D10*
%TO.C,S7*%
X75897500Y-106695000D03*
X69547500Y-109235000D03*
D11*
X78437500Y-111775000D03*
D12*
X73357500Y-111775000D03*
D11*
X68277500Y-111775000D03*
%TD*%
D19*
%TO.C,D7*%
X82882500Y-114632500D03*
D20*
X82882500Y-107012500D03*
%TD*%
D19*
%TO.C,D9*%
X120982500Y-114632500D03*
D20*
X120982500Y-107012500D03*
%TD*%
D19*
%TO.C,D5*%
X101932500Y-95582500D03*
D20*
X101932500Y-87962500D03*
%TD*%
D21*
%TO.C,U1*%
X76332500Y-36192500D03*
X76332500Y-38732500D03*
X76332500Y-41272500D03*
X76332500Y-43812500D03*
X76332500Y-46352500D03*
X76332500Y-48892500D03*
X76332500Y-51432500D03*
X76332500Y-53972500D03*
X76332500Y-56512500D03*
D22*
X79372500Y-57012500D03*
X81912500Y-57012500D03*
X84452500Y-57012500D03*
X86992500Y-57012500D03*
X89532500Y-57012500D03*
D21*
X92572500Y-56512500D03*
X92572500Y-53972500D03*
X92572500Y-51432500D03*
X92572500Y-48892500D03*
X92572500Y-46352500D03*
X92572500Y-43812500D03*
X92572500Y-41272500D03*
X92572500Y-38732500D03*
X92572500Y-36192500D03*
%TD*%
D19*
%TO.C,D1*%
X82882500Y-76532500D03*
D20*
X82882500Y-68912500D03*
%TD*%
D19*
%TO.C,D3*%
X120982500Y-76532500D03*
D20*
X120982500Y-68912500D03*
%TD*%
D19*
%TO.C,D8*%
X101932500Y-114632500D03*
D20*
X101932500Y-107012500D03*
%TD*%
D19*
%TO.C,D2*%
X101932500Y-76532500D03*
D20*
X101932500Y-68912500D03*
%TD*%
D19*
%TO.C,D4*%
X82882500Y-95582500D03*
D20*
X82882500Y-87962500D03*
%TD*%
D19*
%TO.C,D6*%
X120982500Y-95582500D03*
D20*
X120982500Y-87962500D03*
%TD*%
M02*
