%TF.GenerationSoftware,KiCad,Pcbnew,8.0.8*%
%TF.CreationDate,2025-12-19T19:10:27+00:00*%
%TF.ProjectId,MACRO,4d414352-4f2e-46b6-9963-61645f706362,rev?*%
%TF.SameCoordinates,Original*%
%TF.FileFunction,Legend,Top*%
%TF.FilePolarity,Positive*%
%FSLAX46Y46*%
G04 Gerber Fmt 4.6, Leading zero omitted, Abs format (unit mm)*
G04 Created by KiCad (PCBNEW 8.0.8) date 2025-12-19 19:10:27*
%MOMM*%
%LPD*%
G01*
G04 APERTURE LIST*
%ADD10C,0.100000*%
%ADD11C,0.150000*%
%ADD12C,0.120000*%
%ADD13C,0.000000*%
G04 APERTURE END LIST*
D10*
X85657515Y-123487157D02*
X85657515Y-122587157D01*
X85657515Y-122587157D02*
X85854181Y-123230014D01*
X85854181Y-123230014D02*
X86050848Y-122587157D01*
X86050848Y-122587157D02*
X86050848Y-123487157D01*
X86303705Y-123230014D02*
X86584658Y-123230014D01*
X86247515Y-123487157D02*
X86444182Y-122587157D01*
X86444182Y-122587157D02*
X86640848Y-123487157D01*
X86837515Y-123487157D02*
X86837515Y-122587157D01*
X86837515Y-122587157D02*
X86977991Y-122587157D01*
X86977991Y-122587157D02*
X87062277Y-122630014D01*
X87062277Y-122630014D02*
X87118467Y-122715728D01*
X87118467Y-122715728D02*
X87146562Y-122801442D01*
X87146562Y-122801442D02*
X87174658Y-122972871D01*
X87174658Y-122972871D02*
X87174658Y-123101442D01*
X87174658Y-123101442D02*
X87146562Y-123272871D01*
X87146562Y-123272871D02*
X87118467Y-123358585D01*
X87118467Y-123358585D02*
X87062277Y-123444300D01*
X87062277Y-123444300D02*
X86977991Y-123487157D01*
X86977991Y-123487157D02*
X86837515Y-123487157D01*
X87427515Y-123015728D02*
X87624181Y-123015728D01*
X87708467Y-123487157D02*
X87427515Y-123487157D01*
X87427515Y-123487157D02*
X87427515Y-122587157D01*
X87427515Y-122587157D02*
X87708467Y-122587157D01*
X88354658Y-122587157D02*
X88495134Y-123487157D01*
X88495134Y-123487157D02*
X88607515Y-122844300D01*
X88607515Y-122844300D02*
X88719896Y-123487157D01*
X88719896Y-123487157D02*
X88860373Y-122587157D01*
X89085135Y-123487157D02*
X89085135Y-122587157D01*
X89281801Y-122587157D02*
X89618944Y-122587157D01*
X89450372Y-123487157D02*
X89450372Y-122587157D01*
X89815611Y-123487157D02*
X89815611Y-122587157D01*
X89815611Y-123015728D02*
X90152754Y-123015728D01*
X90152754Y-123487157D02*
X90152754Y-122587157D01*
X91164182Y-123487157D02*
X90883230Y-123487157D01*
X90883230Y-123487157D02*
X90883230Y-122587157D01*
X91473230Y-122587157D02*
X91585611Y-122587157D01*
X91585611Y-122587157D02*
X91641801Y-122630014D01*
X91641801Y-122630014D02*
X91697992Y-122715728D01*
X91697992Y-122715728D02*
X91726087Y-122887157D01*
X91726087Y-122887157D02*
X91726087Y-123187157D01*
X91726087Y-123187157D02*
X91697992Y-123358585D01*
X91697992Y-123358585D02*
X91641801Y-123444300D01*
X91641801Y-123444300D02*
X91585611Y-123487157D01*
X91585611Y-123487157D02*
X91473230Y-123487157D01*
X91473230Y-123487157D02*
X91417039Y-123444300D01*
X91417039Y-123444300D02*
X91360849Y-123358585D01*
X91360849Y-123358585D02*
X91332753Y-123187157D01*
X91332753Y-123187157D02*
X91332753Y-122887157D01*
X91332753Y-122887157D02*
X91360849Y-122715728D01*
X91360849Y-122715728D02*
X91417039Y-122630014D01*
X91417039Y-122630014D02*
X91473230Y-122587157D01*
X91894658Y-122587157D02*
X92091325Y-123487157D01*
X92091325Y-123487157D02*
X92287991Y-122587157D01*
X92484658Y-123015728D02*
X92681324Y-123015728D01*
X92765610Y-123487157D02*
X92484658Y-123487157D01*
X92484658Y-123487157D02*
X92484658Y-122587157D01*
X92484658Y-122587157D02*
X92765610Y-122587157D01*
X93664658Y-123015728D02*
X93748944Y-123058585D01*
X93748944Y-123058585D02*
X93777039Y-123101442D01*
X93777039Y-123101442D02*
X93805135Y-123187157D01*
X93805135Y-123187157D02*
X93805135Y-123315728D01*
X93805135Y-123315728D02*
X93777039Y-123401442D01*
X93777039Y-123401442D02*
X93748944Y-123444300D01*
X93748944Y-123444300D02*
X93692754Y-123487157D01*
X93692754Y-123487157D02*
X93467992Y-123487157D01*
X93467992Y-123487157D02*
X93467992Y-122587157D01*
X93467992Y-122587157D02*
X93664658Y-122587157D01*
X93664658Y-122587157D02*
X93720849Y-122630014D01*
X93720849Y-122630014D02*
X93748944Y-122672871D01*
X93748944Y-122672871D02*
X93777039Y-122758585D01*
X93777039Y-122758585D02*
X93777039Y-122844300D01*
X93777039Y-122844300D02*
X93748944Y-122930014D01*
X93748944Y-122930014D02*
X93720849Y-122972871D01*
X93720849Y-122972871D02*
X93664658Y-123015728D01*
X93664658Y-123015728D02*
X93467992Y-123015728D01*
X94170373Y-123058585D02*
X94170373Y-123487157D01*
X93973706Y-122587157D02*
X94170373Y-123058585D01*
X94170373Y-123058585D02*
X94367039Y-122587157D01*
X94928944Y-122587157D02*
X95266087Y-122587157D01*
X95097515Y-123487157D02*
X95097515Y-122587157D01*
X95799897Y-123487157D02*
X95603230Y-123058585D01*
X95462754Y-123487157D02*
X95462754Y-122587157D01*
X95462754Y-122587157D02*
X95687516Y-122587157D01*
X95687516Y-122587157D02*
X95743706Y-122630014D01*
X95743706Y-122630014D02*
X95771801Y-122672871D01*
X95771801Y-122672871D02*
X95799897Y-122758585D01*
X95799897Y-122758585D02*
X95799897Y-122887157D01*
X95799897Y-122887157D02*
X95771801Y-122972871D01*
X95771801Y-122972871D02*
X95743706Y-123015728D01*
X95743706Y-123015728D02*
X95687516Y-123058585D01*
X95687516Y-123058585D02*
X95462754Y-123058585D01*
X96165135Y-122587157D02*
X96277516Y-122587157D01*
X96277516Y-122587157D02*
X96333706Y-122630014D01*
X96333706Y-122630014D02*
X96389897Y-122715728D01*
X96389897Y-122715728D02*
X96417992Y-122887157D01*
X96417992Y-122887157D02*
X96417992Y-123187157D01*
X96417992Y-123187157D02*
X96389897Y-123358585D01*
X96389897Y-123358585D02*
X96333706Y-123444300D01*
X96333706Y-123444300D02*
X96277516Y-123487157D01*
X96277516Y-123487157D02*
X96165135Y-123487157D01*
X96165135Y-123487157D02*
X96108944Y-123444300D01*
X96108944Y-123444300D02*
X96052754Y-123358585D01*
X96052754Y-123358585D02*
X96024658Y-123187157D01*
X96024658Y-123187157D02*
X96024658Y-122887157D01*
X96024658Y-122887157D02*
X96052754Y-122715728D01*
X96052754Y-122715728D02*
X96108944Y-122630014D01*
X96108944Y-122630014D02*
X96165135Y-122587157D01*
X97007992Y-123401442D02*
X96979896Y-123444300D01*
X96979896Y-123444300D02*
X96895611Y-123487157D01*
X96895611Y-123487157D02*
X96839420Y-123487157D01*
X96839420Y-123487157D02*
X96755134Y-123444300D01*
X96755134Y-123444300D02*
X96698944Y-123358585D01*
X96698944Y-123358585D02*
X96670849Y-123272871D01*
X96670849Y-123272871D02*
X96642753Y-123101442D01*
X96642753Y-123101442D02*
X96642753Y-122972871D01*
X96642753Y-122972871D02*
X96670849Y-122801442D01*
X96670849Y-122801442D02*
X96698944Y-122715728D01*
X96698944Y-122715728D02*
X96755134Y-122630014D01*
X96755134Y-122630014D02*
X96839420Y-122587157D01*
X96839420Y-122587157D02*
X96895611Y-122587157D01*
X96895611Y-122587157D02*
X96979896Y-122630014D01*
X96979896Y-122630014D02*
X97007992Y-122672871D01*
X97232753Y-123230014D02*
X97513706Y-123230014D01*
X97176563Y-123487157D02*
X97373230Y-122587157D01*
X97373230Y-122587157D02*
X97569896Y-123487157D01*
X97682277Y-122587157D02*
X98019420Y-122587157D01*
X97850848Y-123487157D02*
X97850848Y-122587157D01*
X98216087Y-123487157D02*
X98216087Y-122587157D01*
X98497039Y-123487157D02*
X98497039Y-122587157D01*
X98497039Y-122587157D02*
X98834182Y-123487157D01*
X98834182Y-123487157D02*
X98834182Y-122587157D01*
X99030848Y-122587157D02*
X99367991Y-122587157D01*
X99199419Y-123487157D02*
X99199419Y-122587157D01*
X99536562Y-123230014D02*
X99817515Y-123230014D01*
X99480372Y-123487157D02*
X99677039Y-122587157D01*
X99677039Y-122587157D02*
X99873705Y-123487157D01*
X100042276Y-123444300D02*
X100126562Y-123487157D01*
X100126562Y-123487157D02*
X100267038Y-123487157D01*
X100267038Y-123487157D02*
X100323229Y-123444300D01*
X100323229Y-123444300D02*
X100351324Y-123401442D01*
X100351324Y-123401442D02*
X100379419Y-123315728D01*
X100379419Y-123315728D02*
X100379419Y-123230014D01*
X100379419Y-123230014D02*
X100351324Y-123144300D01*
X100351324Y-123144300D02*
X100323229Y-123101442D01*
X100323229Y-123101442D02*
X100267038Y-123058585D01*
X100267038Y-123058585D02*
X100154657Y-123015728D01*
X100154657Y-123015728D02*
X100098467Y-122972871D01*
X100098467Y-122972871D02*
X100070372Y-122930014D01*
X100070372Y-122930014D02*
X100042276Y-122844300D01*
X100042276Y-122844300D02*
X100042276Y-122758585D01*
X100042276Y-122758585D02*
X100070372Y-122672871D01*
X100070372Y-122672871D02*
X100098467Y-122630014D01*
X100098467Y-122630014D02*
X100154657Y-122587157D01*
X100154657Y-122587157D02*
X100295134Y-122587157D01*
X100295134Y-122587157D02*
X100379419Y-122630014D01*
D11*
X106848934Y-83119865D02*
X106372744Y-83119865D01*
X106372744Y-83119865D02*
X106372744Y-82119865D01*
X107182268Y-82596055D02*
X107515601Y-82596055D01*
X107658458Y-83119865D02*
X107182268Y-83119865D01*
X107182268Y-83119865D02*
X107182268Y-82119865D01*
X107182268Y-82119865D02*
X107658458Y-82119865D01*
X108087030Y-83119865D02*
X108087030Y-82119865D01*
X108087030Y-82119865D02*
X108325125Y-82119865D01*
X108325125Y-82119865D02*
X108467982Y-82167484D01*
X108467982Y-82167484D02*
X108563220Y-82262722D01*
X108563220Y-82262722D02*
X108610839Y-82357960D01*
X108610839Y-82357960D02*
X108658458Y-82548436D01*
X108658458Y-82548436D02*
X108658458Y-82691293D01*
X108658458Y-82691293D02*
X108610839Y-82881769D01*
X108610839Y-82881769D02*
X108563220Y-82977007D01*
X108563220Y-82977007D02*
X108467982Y-83072246D01*
X108467982Y-83072246D02*
X108325125Y-83119865D01*
X108325125Y-83119865D02*
X108087030Y-83119865D01*
X108991792Y-82119865D02*
X109610839Y-82119865D01*
X109610839Y-82119865D02*
X109277506Y-82500817D01*
X109277506Y-82500817D02*
X109420363Y-82500817D01*
X109420363Y-82500817D02*
X109515601Y-82548436D01*
X109515601Y-82548436D02*
X109563220Y-82596055D01*
X109563220Y-82596055D02*
X109610839Y-82691293D01*
X109610839Y-82691293D02*
X109610839Y-82929388D01*
X109610839Y-82929388D02*
X109563220Y-83024626D01*
X109563220Y-83024626D02*
X109515601Y-83072246D01*
X109515601Y-83072246D02*
X109420363Y-83119865D01*
X109420363Y-83119865D02*
X109134649Y-83119865D01*
X109134649Y-83119865D02*
X109039411Y-83072246D01*
X109039411Y-83072246D02*
X108991792Y-83024626D01*
X110695595Y-104182200D02*
X110838452Y-104229819D01*
X110838452Y-104229819D02*
X111076547Y-104229819D01*
X111076547Y-104229819D02*
X111171785Y-104182200D01*
X111171785Y-104182200D02*
X111219404Y-104134580D01*
X111219404Y-104134580D02*
X111267023Y-104039342D01*
X111267023Y-104039342D02*
X111267023Y-103944104D01*
X111267023Y-103944104D02*
X111219404Y-103848866D01*
X111219404Y-103848866D02*
X111171785Y-103801247D01*
X111171785Y-103801247D02*
X111076547Y-103753628D01*
X111076547Y-103753628D02*
X110886071Y-103706009D01*
X110886071Y-103706009D02*
X110790833Y-103658390D01*
X110790833Y-103658390D02*
X110743214Y-103610771D01*
X110743214Y-103610771D02*
X110695595Y-103515533D01*
X110695595Y-103515533D02*
X110695595Y-103420295D01*
X110695595Y-103420295D02*
X110743214Y-103325057D01*
X110743214Y-103325057D02*
X110790833Y-103277438D01*
X110790833Y-103277438D02*
X110886071Y-103229819D01*
X110886071Y-103229819D02*
X111124166Y-103229819D01*
X111124166Y-103229819D02*
X111267023Y-103277438D01*
X111743214Y-104229819D02*
X111933690Y-104229819D01*
X111933690Y-104229819D02*
X112028928Y-104182200D01*
X112028928Y-104182200D02*
X112076547Y-104134580D01*
X112076547Y-104134580D02*
X112171785Y-103991723D01*
X112171785Y-103991723D02*
X112219404Y-103801247D01*
X112219404Y-103801247D02*
X112219404Y-103420295D01*
X112219404Y-103420295D02*
X112171785Y-103325057D01*
X112171785Y-103325057D02*
X112124166Y-103277438D01*
X112124166Y-103277438D02*
X112028928Y-103229819D01*
X112028928Y-103229819D02*
X111838452Y-103229819D01*
X111838452Y-103229819D02*
X111743214Y-103277438D01*
X111743214Y-103277438D02*
X111695595Y-103325057D01*
X111695595Y-103325057D02*
X111647976Y-103420295D01*
X111647976Y-103420295D02*
X111647976Y-103658390D01*
X111647976Y-103658390D02*
X111695595Y-103753628D01*
X111695595Y-103753628D02*
X111743214Y-103801247D01*
X111743214Y-103801247D02*
X111838452Y-103848866D01*
X111838452Y-103848866D02*
X112028928Y-103848866D01*
X112028928Y-103848866D02*
X112124166Y-103801247D01*
X112124166Y-103801247D02*
X112171785Y-103753628D01*
X112171785Y-103753628D02*
X112219404Y-103658390D01*
X106848934Y-102619865D02*
X106372744Y-102619865D01*
X106372744Y-102619865D02*
X106372744Y-101619865D01*
X107182268Y-102096055D02*
X107515601Y-102096055D01*
X107658458Y-102619865D02*
X107182268Y-102619865D01*
X107182268Y-102619865D02*
X107182268Y-101619865D01*
X107182268Y-101619865D02*
X107658458Y-101619865D01*
X108087030Y-102619865D02*
X108087030Y-101619865D01*
X108087030Y-101619865D02*
X108325125Y-101619865D01*
X108325125Y-101619865D02*
X108467982Y-101667484D01*
X108467982Y-101667484D02*
X108563220Y-101762722D01*
X108563220Y-101762722D02*
X108610839Y-101857960D01*
X108610839Y-101857960D02*
X108658458Y-102048436D01*
X108658458Y-102048436D02*
X108658458Y-102191293D01*
X108658458Y-102191293D02*
X108610839Y-102381769D01*
X108610839Y-102381769D02*
X108563220Y-102477007D01*
X108563220Y-102477007D02*
X108467982Y-102572246D01*
X108467982Y-102572246D02*
X108325125Y-102619865D01*
X108325125Y-102619865D02*
X108087030Y-102619865D01*
X109515601Y-101953198D02*
X109515601Y-102619865D01*
X109277506Y-101572246D02*
X109039411Y-102286531D01*
X109039411Y-102286531D02*
X109658458Y-102286531D01*
X110695595Y-66082200D02*
X110838452Y-66129819D01*
X110838452Y-66129819D02*
X111076547Y-66129819D01*
X111076547Y-66129819D02*
X111171785Y-66082200D01*
X111171785Y-66082200D02*
X111219404Y-66034580D01*
X111219404Y-66034580D02*
X111267023Y-65939342D01*
X111267023Y-65939342D02*
X111267023Y-65844104D01*
X111267023Y-65844104D02*
X111219404Y-65748866D01*
X111219404Y-65748866D02*
X111171785Y-65701247D01*
X111171785Y-65701247D02*
X111076547Y-65653628D01*
X111076547Y-65653628D02*
X110886071Y-65606009D01*
X110886071Y-65606009D02*
X110790833Y-65558390D01*
X110790833Y-65558390D02*
X110743214Y-65510771D01*
X110743214Y-65510771D02*
X110695595Y-65415533D01*
X110695595Y-65415533D02*
X110695595Y-65320295D01*
X110695595Y-65320295D02*
X110743214Y-65225057D01*
X110743214Y-65225057D02*
X110790833Y-65177438D01*
X110790833Y-65177438D02*
X110886071Y-65129819D01*
X110886071Y-65129819D02*
X111124166Y-65129819D01*
X111124166Y-65129819D02*
X111267023Y-65177438D01*
X111600357Y-65129819D02*
X112219404Y-65129819D01*
X112219404Y-65129819D02*
X111886071Y-65510771D01*
X111886071Y-65510771D02*
X112028928Y-65510771D01*
X112028928Y-65510771D02*
X112124166Y-65558390D01*
X112124166Y-65558390D02*
X112171785Y-65606009D01*
X112171785Y-65606009D02*
X112219404Y-65701247D01*
X112219404Y-65701247D02*
X112219404Y-65939342D01*
X112219404Y-65939342D02*
X112171785Y-66034580D01*
X112171785Y-66034580D02*
X112124166Y-66082200D01*
X112124166Y-66082200D02*
X112028928Y-66129819D01*
X112028928Y-66129819D02*
X111743214Y-66129819D01*
X111743214Y-66129819D02*
X111647976Y-66082200D01*
X111647976Y-66082200D02*
X111600357Y-66034580D01*
X87933934Y-121669865D02*
X87457744Y-121669865D01*
X87457744Y-121669865D02*
X87457744Y-120669865D01*
X88267268Y-121146055D02*
X88600601Y-121146055D01*
X88743458Y-121669865D02*
X88267268Y-121669865D01*
X88267268Y-121669865D02*
X88267268Y-120669865D01*
X88267268Y-120669865D02*
X88743458Y-120669865D01*
X89172030Y-121669865D02*
X89172030Y-120669865D01*
X89172030Y-120669865D02*
X89410125Y-120669865D01*
X89410125Y-120669865D02*
X89552982Y-120717484D01*
X89552982Y-120717484D02*
X89648220Y-120812722D01*
X89648220Y-120812722D02*
X89695839Y-120907960D01*
X89695839Y-120907960D02*
X89743458Y-121098436D01*
X89743458Y-121098436D02*
X89743458Y-121241293D01*
X89743458Y-121241293D02*
X89695839Y-121431769D01*
X89695839Y-121431769D02*
X89648220Y-121527007D01*
X89648220Y-121527007D02*
X89552982Y-121622246D01*
X89552982Y-121622246D02*
X89410125Y-121669865D01*
X89410125Y-121669865D02*
X89172030Y-121669865D01*
X90314887Y-121098436D02*
X90219649Y-121050817D01*
X90219649Y-121050817D02*
X90172030Y-121003198D01*
X90172030Y-121003198D02*
X90124411Y-120907960D01*
X90124411Y-120907960D02*
X90124411Y-120860341D01*
X90124411Y-120860341D02*
X90172030Y-120765103D01*
X90172030Y-120765103D02*
X90219649Y-120717484D01*
X90219649Y-120717484D02*
X90314887Y-120669865D01*
X90314887Y-120669865D02*
X90505363Y-120669865D01*
X90505363Y-120669865D02*
X90600601Y-120717484D01*
X90600601Y-120717484D02*
X90648220Y-120765103D01*
X90648220Y-120765103D02*
X90695839Y-120860341D01*
X90695839Y-120860341D02*
X90695839Y-120907960D01*
X90695839Y-120907960D02*
X90648220Y-121003198D01*
X90648220Y-121003198D02*
X90600601Y-121050817D01*
X90600601Y-121050817D02*
X90505363Y-121098436D01*
X90505363Y-121098436D02*
X90314887Y-121098436D01*
X90314887Y-121098436D02*
X90219649Y-121146055D01*
X90219649Y-121146055D02*
X90172030Y-121193674D01*
X90172030Y-121193674D02*
X90124411Y-121288912D01*
X90124411Y-121288912D02*
X90124411Y-121479388D01*
X90124411Y-121479388D02*
X90172030Y-121574626D01*
X90172030Y-121574626D02*
X90219649Y-121622246D01*
X90219649Y-121622246D02*
X90314887Y-121669865D01*
X90314887Y-121669865D02*
X90505363Y-121669865D01*
X90505363Y-121669865D02*
X90600601Y-121622246D01*
X90600601Y-121622246D02*
X90648220Y-121574626D01*
X90648220Y-121574626D02*
X90695839Y-121479388D01*
X90695839Y-121479388D02*
X90695839Y-121288912D01*
X90695839Y-121288912D02*
X90648220Y-121193674D01*
X90648220Y-121193674D02*
X90600601Y-121146055D01*
X90600601Y-121146055D02*
X90505363Y-121098436D01*
X68933934Y-83169865D02*
X68457744Y-83169865D01*
X68457744Y-83169865D02*
X68457744Y-82169865D01*
X69267268Y-82646055D02*
X69600601Y-82646055D01*
X69743458Y-83169865D02*
X69267268Y-83169865D01*
X69267268Y-83169865D02*
X69267268Y-82169865D01*
X69267268Y-82169865D02*
X69743458Y-82169865D01*
X70172030Y-83169865D02*
X70172030Y-82169865D01*
X70172030Y-82169865D02*
X70410125Y-82169865D01*
X70410125Y-82169865D02*
X70552982Y-82217484D01*
X70552982Y-82217484D02*
X70648220Y-82312722D01*
X70648220Y-82312722D02*
X70695839Y-82407960D01*
X70695839Y-82407960D02*
X70743458Y-82598436D01*
X70743458Y-82598436D02*
X70743458Y-82741293D01*
X70743458Y-82741293D02*
X70695839Y-82931769D01*
X70695839Y-82931769D02*
X70648220Y-83027007D01*
X70648220Y-83027007D02*
X70552982Y-83122246D01*
X70552982Y-83122246D02*
X70410125Y-83169865D01*
X70410125Y-83169865D02*
X70172030Y-83169865D01*
X71695839Y-83169865D02*
X71124411Y-83169865D01*
X71410125Y-83169865D02*
X71410125Y-82169865D01*
X71410125Y-82169865D02*
X71314887Y-82312722D01*
X71314887Y-82312722D02*
X71219649Y-82407960D01*
X71219649Y-82407960D02*
X71124411Y-82455579D01*
X87763934Y-102619865D02*
X87287744Y-102619865D01*
X87287744Y-102619865D02*
X87287744Y-101619865D01*
X88097268Y-102096055D02*
X88430601Y-102096055D01*
X88573458Y-102619865D02*
X88097268Y-102619865D01*
X88097268Y-102619865D02*
X88097268Y-101619865D01*
X88097268Y-101619865D02*
X88573458Y-101619865D01*
X89002030Y-102619865D02*
X89002030Y-101619865D01*
X89002030Y-101619865D02*
X89240125Y-101619865D01*
X89240125Y-101619865D02*
X89382982Y-101667484D01*
X89382982Y-101667484D02*
X89478220Y-101762722D01*
X89478220Y-101762722D02*
X89525839Y-101857960D01*
X89525839Y-101857960D02*
X89573458Y-102048436D01*
X89573458Y-102048436D02*
X89573458Y-102191293D01*
X89573458Y-102191293D02*
X89525839Y-102381769D01*
X89525839Y-102381769D02*
X89478220Y-102477007D01*
X89478220Y-102477007D02*
X89382982Y-102572246D01*
X89382982Y-102572246D02*
X89240125Y-102619865D01*
X89240125Y-102619865D02*
X89002030Y-102619865D01*
X90478220Y-101619865D02*
X90002030Y-101619865D01*
X90002030Y-101619865D02*
X89954411Y-102096055D01*
X89954411Y-102096055D02*
X90002030Y-102048436D01*
X90002030Y-102048436D02*
X90097268Y-102000817D01*
X90097268Y-102000817D02*
X90335363Y-102000817D01*
X90335363Y-102000817D02*
X90430601Y-102048436D01*
X90430601Y-102048436D02*
X90478220Y-102096055D01*
X90478220Y-102096055D02*
X90525839Y-102191293D01*
X90525839Y-102191293D02*
X90525839Y-102429388D01*
X90525839Y-102429388D02*
X90478220Y-102524626D01*
X90478220Y-102524626D02*
X90430601Y-102572246D01*
X90430601Y-102572246D02*
X90335363Y-102619865D01*
X90335363Y-102619865D02*
X90097268Y-102619865D01*
X90097268Y-102619865D02*
X90002030Y-102572246D01*
X90002030Y-102572246D02*
X89954411Y-102524626D01*
X72595595Y-66082200D02*
X72738452Y-66129819D01*
X72738452Y-66129819D02*
X72976547Y-66129819D01*
X72976547Y-66129819D02*
X73071785Y-66082200D01*
X73071785Y-66082200D02*
X73119404Y-66034580D01*
X73119404Y-66034580D02*
X73167023Y-65939342D01*
X73167023Y-65939342D02*
X73167023Y-65844104D01*
X73167023Y-65844104D02*
X73119404Y-65748866D01*
X73119404Y-65748866D02*
X73071785Y-65701247D01*
X73071785Y-65701247D02*
X72976547Y-65653628D01*
X72976547Y-65653628D02*
X72786071Y-65606009D01*
X72786071Y-65606009D02*
X72690833Y-65558390D01*
X72690833Y-65558390D02*
X72643214Y-65510771D01*
X72643214Y-65510771D02*
X72595595Y-65415533D01*
X72595595Y-65415533D02*
X72595595Y-65320295D01*
X72595595Y-65320295D02*
X72643214Y-65225057D01*
X72643214Y-65225057D02*
X72690833Y-65177438D01*
X72690833Y-65177438D02*
X72786071Y-65129819D01*
X72786071Y-65129819D02*
X73024166Y-65129819D01*
X73024166Y-65129819D02*
X73167023Y-65177438D01*
X74119404Y-66129819D02*
X73547976Y-66129819D01*
X73833690Y-66129819D02*
X73833690Y-65129819D01*
X73833690Y-65129819D02*
X73738452Y-65272676D01*
X73738452Y-65272676D02*
X73643214Y-65367914D01*
X73643214Y-65367914D02*
X73547976Y-65415533D01*
X72595595Y-85132200D02*
X72738452Y-85179819D01*
X72738452Y-85179819D02*
X72976547Y-85179819D01*
X72976547Y-85179819D02*
X73071785Y-85132200D01*
X73071785Y-85132200D02*
X73119404Y-85084580D01*
X73119404Y-85084580D02*
X73167023Y-84989342D01*
X73167023Y-84989342D02*
X73167023Y-84894104D01*
X73167023Y-84894104D02*
X73119404Y-84798866D01*
X73119404Y-84798866D02*
X73071785Y-84751247D01*
X73071785Y-84751247D02*
X72976547Y-84703628D01*
X72976547Y-84703628D02*
X72786071Y-84656009D01*
X72786071Y-84656009D02*
X72690833Y-84608390D01*
X72690833Y-84608390D02*
X72643214Y-84560771D01*
X72643214Y-84560771D02*
X72595595Y-84465533D01*
X72595595Y-84465533D02*
X72595595Y-84370295D01*
X72595595Y-84370295D02*
X72643214Y-84275057D01*
X72643214Y-84275057D02*
X72690833Y-84227438D01*
X72690833Y-84227438D02*
X72786071Y-84179819D01*
X72786071Y-84179819D02*
X73024166Y-84179819D01*
X73024166Y-84179819D02*
X73167023Y-84227438D01*
X74024166Y-84513152D02*
X74024166Y-85179819D01*
X73786071Y-84132200D02*
X73547976Y-84846485D01*
X73547976Y-84846485D02*
X74167023Y-84846485D01*
X68763934Y-121669865D02*
X68287744Y-121669865D01*
X68287744Y-121669865D02*
X68287744Y-120669865D01*
X69097268Y-121146055D02*
X69430601Y-121146055D01*
X69573458Y-121669865D02*
X69097268Y-121669865D01*
X69097268Y-121669865D02*
X69097268Y-120669865D01*
X69097268Y-120669865D02*
X69573458Y-120669865D01*
X70002030Y-121669865D02*
X70002030Y-120669865D01*
X70002030Y-120669865D02*
X70240125Y-120669865D01*
X70240125Y-120669865D02*
X70382982Y-120717484D01*
X70382982Y-120717484D02*
X70478220Y-120812722D01*
X70478220Y-120812722D02*
X70525839Y-120907960D01*
X70525839Y-120907960D02*
X70573458Y-121098436D01*
X70573458Y-121098436D02*
X70573458Y-121241293D01*
X70573458Y-121241293D02*
X70525839Y-121431769D01*
X70525839Y-121431769D02*
X70478220Y-121527007D01*
X70478220Y-121527007D02*
X70382982Y-121622246D01*
X70382982Y-121622246D02*
X70240125Y-121669865D01*
X70240125Y-121669865D02*
X70002030Y-121669865D01*
X70906792Y-120669865D02*
X71573458Y-120669865D01*
X71573458Y-120669865D02*
X71144887Y-121669865D01*
X110695595Y-85132200D02*
X110838452Y-85179819D01*
X110838452Y-85179819D02*
X111076547Y-85179819D01*
X111076547Y-85179819D02*
X111171785Y-85132200D01*
X111171785Y-85132200D02*
X111219404Y-85084580D01*
X111219404Y-85084580D02*
X111267023Y-84989342D01*
X111267023Y-84989342D02*
X111267023Y-84894104D01*
X111267023Y-84894104D02*
X111219404Y-84798866D01*
X111219404Y-84798866D02*
X111171785Y-84751247D01*
X111171785Y-84751247D02*
X111076547Y-84703628D01*
X111076547Y-84703628D02*
X110886071Y-84656009D01*
X110886071Y-84656009D02*
X110790833Y-84608390D01*
X110790833Y-84608390D02*
X110743214Y-84560771D01*
X110743214Y-84560771D02*
X110695595Y-84465533D01*
X110695595Y-84465533D02*
X110695595Y-84370295D01*
X110695595Y-84370295D02*
X110743214Y-84275057D01*
X110743214Y-84275057D02*
X110790833Y-84227438D01*
X110790833Y-84227438D02*
X110886071Y-84179819D01*
X110886071Y-84179819D02*
X111124166Y-84179819D01*
X111124166Y-84179819D02*
X111267023Y-84227438D01*
X112124166Y-84179819D02*
X111933690Y-84179819D01*
X111933690Y-84179819D02*
X111838452Y-84227438D01*
X111838452Y-84227438D02*
X111790833Y-84275057D01*
X111790833Y-84275057D02*
X111695595Y-84417914D01*
X111695595Y-84417914D02*
X111647976Y-84608390D01*
X111647976Y-84608390D02*
X111647976Y-84989342D01*
X111647976Y-84989342D02*
X111695595Y-85084580D01*
X111695595Y-85084580D02*
X111743214Y-85132200D01*
X111743214Y-85132200D02*
X111838452Y-85179819D01*
X111838452Y-85179819D02*
X112028928Y-85179819D01*
X112028928Y-85179819D02*
X112124166Y-85132200D01*
X112124166Y-85132200D02*
X112171785Y-85084580D01*
X112171785Y-85084580D02*
X112219404Y-84989342D01*
X112219404Y-84989342D02*
X112219404Y-84751247D01*
X112219404Y-84751247D02*
X112171785Y-84656009D01*
X112171785Y-84656009D02*
X112124166Y-84608390D01*
X112124166Y-84608390D02*
X112028928Y-84560771D01*
X112028928Y-84560771D02*
X111838452Y-84560771D01*
X111838452Y-84560771D02*
X111743214Y-84608390D01*
X111743214Y-84608390D02*
X111695595Y-84656009D01*
X111695595Y-84656009D02*
X111647976Y-84751247D01*
X91645595Y-66082200D02*
X91788452Y-66129819D01*
X91788452Y-66129819D02*
X92026547Y-66129819D01*
X92026547Y-66129819D02*
X92121785Y-66082200D01*
X92121785Y-66082200D02*
X92169404Y-66034580D01*
X92169404Y-66034580D02*
X92217023Y-65939342D01*
X92217023Y-65939342D02*
X92217023Y-65844104D01*
X92217023Y-65844104D02*
X92169404Y-65748866D01*
X92169404Y-65748866D02*
X92121785Y-65701247D01*
X92121785Y-65701247D02*
X92026547Y-65653628D01*
X92026547Y-65653628D02*
X91836071Y-65606009D01*
X91836071Y-65606009D02*
X91740833Y-65558390D01*
X91740833Y-65558390D02*
X91693214Y-65510771D01*
X91693214Y-65510771D02*
X91645595Y-65415533D01*
X91645595Y-65415533D02*
X91645595Y-65320295D01*
X91645595Y-65320295D02*
X91693214Y-65225057D01*
X91693214Y-65225057D02*
X91740833Y-65177438D01*
X91740833Y-65177438D02*
X91836071Y-65129819D01*
X91836071Y-65129819D02*
X92074166Y-65129819D01*
X92074166Y-65129819D02*
X92217023Y-65177438D01*
X92597976Y-65225057D02*
X92645595Y-65177438D01*
X92645595Y-65177438D02*
X92740833Y-65129819D01*
X92740833Y-65129819D02*
X92978928Y-65129819D01*
X92978928Y-65129819D02*
X93074166Y-65177438D01*
X93074166Y-65177438D02*
X93121785Y-65225057D01*
X93121785Y-65225057D02*
X93169404Y-65320295D01*
X93169404Y-65320295D02*
X93169404Y-65415533D01*
X93169404Y-65415533D02*
X93121785Y-65558390D01*
X93121785Y-65558390D02*
X92550357Y-66129819D01*
X92550357Y-66129819D02*
X93169404Y-66129819D01*
X106933934Y-121669865D02*
X106457744Y-121669865D01*
X106457744Y-121669865D02*
X106457744Y-120669865D01*
X107267268Y-121146055D02*
X107600601Y-121146055D01*
X107743458Y-121669865D02*
X107267268Y-121669865D01*
X107267268Y-121669865D02*
X107267268Y-120669865D01*
X107267268Y-120669865D02*
X107743458Y-120669865D01*
X108172030Y-121669865D02*
X108172030Y-120669865D01*
X108172030Y-120669865D02*
X108410125Y-120669865D01*
X108410125Y-120669865D02*
X108552982Y-120717484D01*
X108552982Y-120717484D02*
X108648220Y-120812722D01*
X108648220Y-120812722D02*
X108695839Y-120907960D01*
X108695839Y-120907960D02*
X108743458Y-121098436D01*
X108743458Y-121098436D02*
X108743458Y-121241293D01*
X108743458Y-121241293D02*
X108695839Y-121431769D01*
X108695839Y-121431769D02*
X108648220Y-121527007D01*
X108648220Y-121527007D02*
X108552982Y-121622246D01*
X108552982Y-121622246D02*
X108410125Y-121669865D01*
X108410125Y-121669865D02*
X108172030Y-121669865D01*
X109219649Y-121669865D02*
X109410125Y-121669865D01*
X109410125Y-121669865D02*
X109505363Y-121622246D01*
X109505363Y-121622246D02*
X109552982Y-121574626D01*
X109552982Y-121574626D02*
X109648220Y-121431769D01*
X109648220Y-121431769D02*
X109695839Y-121241293D01*
X109695839Y-121241293D02*
X109695839Y-120860341D01*
X109695839Y-120860341D02*
X109648220Y-120765103D01*
X109648220Y-120765103D02*
X109600601Y-120717484D01*
X109600601Y-120717484D02*
X109505363Y-120669865D01*
X109505363Y-120669865D02*
X109314887Y-120669865D01*
X109314887Y-120669865D02*
X109219649Y-120717484D01*
X109219649Y-120717484D02*
X109172030Y-120765103D01*
X109172030Y-120765103D02*
X109124411Y-120860341D01*
X109124411Y-120860341D02*
X109124411Y-121098436D01*
X109124411Y-121098436D02*
X109172030Y-121193674D01*
X109172030Y-121193674D02*
X109219649Y-121241293D01*
X109219649Y-121241293D02*
X109314887Y-121288912D01*
X109314887Y-121288912D02*
X109505363Y-121288912D01*
X109505363Y-121288912D02*
X109600601Y-121241293D01*
X109600601Y-121241293D02*
X109648220Y-121193674D01*
X109648220Y-121193674D02*
X109695839Y-121098436D01*
X87763934Y-83169865D02*
X87287744Y-83169865D01*
X87287744Y-83169865D02*
X87287744Y-82169865D01*
X88097268Y-82646055D02*
X88430601Y-82646055D01*
X88573458Y-83169865D02*
X88097268Y-83169865D01*
X88097268Y-83169865D02*
X88097268Y-82169865D01*
X88097268Y-82169865D02*
X88573458Y-82169865D01*
X89002030Y-83169865D02*
X89002030Y-82169865D01*
X89002030Y-82169865D02*
X89240125Y-82169865D01*
X89240125Y-82169865D02*
X89382982Y-82217484D01*
X89382982Y-82217484D02*
X89478220Y-82312722D01*
X89478220Y-82312722D02*
X89525839Y-82407960D01*
X89525839Y-82407960D02*
X89573458Y-82598436D01*
X89573458Y-82598436D02*
X89573458Y-82741293D01*
X89573458Y-82741293D02*
X89525839Y-82931769D01*
X89525839Y-82931769D02*
X89478220Y-83027007D01*
X89478220Y-83027007D02*
X89382982Y-83122246D01*
X89382982Y-83122246D02*
X89240125Y-83169865D01*
X89240125Y-83169865D02*
X89002030Y-83169865D01*
X89954411Y-82265103D02*
X90002030Y-82217484D01*
X90002030Y-82217484D02*
X90097268Y-82169865D01*
X90097268Y-82169865D02*
X90335363Y-82169865D01*
X90335363Y-82169865D02*
X90430601Y-82217484D01*
X90430601Y-82217484D02*
X90478220Y-82265103D01*
X90478220Y-82265103D02*
X90525839Y-82360341D01*
X90525839Y-82360341D02*
X90525839Y-82455579D01*
X90525839Y-82455579D02*
X90478220Y-82598436D01*
X90478220Y-82598436D02*
X89906792Y-83169865D01*
X89906792Y-83169865D02*
X90525839Y-83169865D01*
X91645595Y-104182200D02*
X91788452Y-104229819D01*
X91788452Y-104229819D02*
X92026547Y-104229819D01*
X92026547Y-104229819D02*
X92121785Y-104182200D01*
X92121785Y-104182200D02*
X92169404Y-104134580D01*
X92169404Y-104134580D02*
X92217023Y-104039342D01*
X92217023Y-104039342D02*
X92217023Y-103944104D01*
X92217023Y-103944104D02*
X92169404Y-103848866D01*
X92169404Y-103848866D02*
X92121785Y-103801247D01*
X92121785Y-103801247D02*
X92026547Y-103753628D01*
X92026547Y-103753628D02*
X91836071Y-103706009D01*
X91836071Y-103706009D02*
X91740833Y-103658390D01*
X91740833Y-103658390D02*
X91693214Y-103610771D01*
X91693214Y-103610771D02*
X91645595Y-103515533D01*
X91645595Y-103515533D02*
X91645595Y-103420295D01*
X91645595Y-103420295D02*
X91693214Y-103325057D01*
X91693214Y-103325057D02*
X91740833Y-103277438D01*
X91740833Y-103277438D02*
X91836071Y-103229819D01*
X91836071Y-103229819D02*
X92074166Y-103229819D01*
X92074166Y-103229819D02*
X92217023Y-103277438D01*
X92788452Y-103658390D02*
X92693214Y-103610771D01*
X92693214Y-103610771D02*
X92645595Y-103563152D01*
X92645595Y-103563152D02*
X92597976Y-103467914D01*
X92597976Y-103467914D02*
X92597976Y-103420295D01*
X92597976Y-103420295D02*
X92645595Y-103325057D01*
X92645595Y-103325057D02*
X92693214Y-103277438D01*
X92693214Y-103277438D02*
X92788452Y-103229819D01*
X92788452Y-103229819D02*
X92978928Y-103229819D01*
X92978928Y-103229819D02*
X93074166Y-103277438D01*
X93074166Y-103277438D02*
X93121785Y-103325057D01*
X93121785Y-103325057D02*
X93169404Y-103420295D01*
X93169404Y-103420295D02*
X93169404Y-103467914D01*
X93169404Y-103467914D02*
X93121785Y-103563152D01*
X93121785Y-103563152D02*
X93074166Y-103610771D01*
X93074166Y-103610771D02*
X92978928Y-103658390D01*
X92978928Y-103658390D02*
X92788452Y-103658390D01*
X92788452Y-103658390D02*
X92693214Y-103706009D01*
X92693214Y-103706009D02*
X92645595Y-103753628D01*
X92645595Y-103753628D02*
X92597976Y-103848866D01*
X92597976Y-103848866D02*
X92597976Y-104039342D01*
X92597976Y-104039342D02*
X92645595Y-104134580D01*
X92645595Y-104134580D02*
X92693214Y-104182200D01*
X92693214Y-104182200D02*
X92788452Y-104229819D01*
X92788452Y-104229819D02*
X92978928Y-104229819D01*
X92978928Y-104229819D02*
X93074166Y-104182200D01*
X93074166Y-104182200D02*
X93121785Y-104134580D01*
X93121785Y-104134580D02*
X93169404Y-104039342D01*
X93169404Y-104039342D02*
X93169404Y-103848866D01*
X93169404Y-103848866D02*
X93121785Y-103753628D01*
X93121785Y-103753628D02*
X93074166Y-103706009D01*
X93074166Y-103706009D02*
X92978928Y-103658390D01*
X91645595Y-85132200D02*
X91788452Y-85179819D01*
X91788452Y-85179819D02*
X92026547Y-85179819D01*
X92026547Y-85179819D02*
X92121785Y-85132200D01*
X92121785Y-85132200D02*
X92169404Y-85084580D01*
X92169404Y-85084580D02*
X92217023Y-84989342D01*
X92217023Y-84989342D02*
X92217023Y-84894104D01*
X92217023Y-84894104D02*
X92169404Y-84798866D01*
X92169404Y-84798866D02*
X92121785Y-84751247D01*
X92121785Y-84751247D02*
X92026547Y-84703628D01*
X92026547Y-84703628D02*
X91836071Y-84656009D01*
X91836071Y-84656009D02*
X91740833Y-84608390D01*
X91740833Y-84608390D02*
X91693214Y-84560771D01*
X91693214Y-84560771D02*
X91645595Y-84465533D01*
X91645595Y-84465533D02*
X91645595Y-84370295D01*
X91645595Y-84370295D02*
X91693214Y-84275057D01*
X91693214Y-84275057D02*
X91740833Y-84227438D01*
X91740833Y-84227438D02*
X91836071Y-84179819D01*
X91836071Y-84179819D02*
X92074166Y-84179819D01*
X92074166Y-84179819D02*
X92217023Y-84227438D01*
X93121785Y-84179819D02*
X92645595Y-84179819D01*
X92645595Y-84179819D02*
X92597976Y-84656009D01*
X92597976Y-84656009D02*
X92645595Y-84608390D01*
X92645595Y-84608390D02*
X92740833Y-84560771D01*
X92740833Y-84560771D02*
X92978928Y-84560771D01*
X92978928Y-84560771D02*
X93074166Y-84608390D01*
X93074166Y-84608390D02*
X93121785Y-84656009D01*
X93121785Y-84656009D02*
X93169404Y-84751247D01*
X93169404Y-84751247D02*
X93169404Y-84989342D01*
X93169404Y-84989342D02*
X93121785Y-85084580D01*
X93121785Y-85084580D02*
X93074166Y-85132200D01*
X93074166Y-85132200D02*
X92978928Y-85179819D01*
X92978928Y-85179819D02*
X92740833Y-85179819D01*
X92740833Y-85179819D02*
X92645595Y-85132200D01*
X92645595Y-85132200D02*
X92597976Y-85084580D01*
X68848934Y-102619865D02*
X68372744Y-102619865D01*
X68372744Y-102619865D02*
X68372744Y-101619865D01*
X69182268Y-102096055D02*
X69515601Y-102096055D01*
X69658458Y-102619865D02*
X69182268Y-102619865D01*
X69182268Y-102619865D02*
X69182268Y-101619865D01*
X69182268Y-101619865D02*
X69658458Y-101619865D01*
X70087030Y-102619865D02*
X70087030Y-101619865D01*
X70087030Y-101619865D02*
X70325125Y-101619865D01*
X70325125Y-101619865D02*
X70467982Y-101667484D01*
X70467982Y-101667484D02*
X70563220Y-101762722D01*
X70563220Y-101762722D02*
X70610839Y-101857960D01*
X70610839Y-101857960D02*
X70658458Y-102048436D01*
X70658458Y-102048436D02*
X70658458Y-102191293D01*
X70658458Y-102191293D02*
X70610839Y-102381769D01*
X70610839Y-102381769D02*
X70563220Y-102477007D01*
X70563220Y-102477007D02*
X70467982Y-102572246D01*
X70467982Y-102572246D02*
X70325125Y-102619865D01*
X70325125Y-102619865D02*
X70087030Y-102619865D01*
X71515601Y-101619865D02*
X71325125Y-101619865D01*
X71325125Y-101619865D02*
X71229887Y-101667484D01*
X71229887Y-101667484D02*
X71182268Y-101715103D01*
X71182268Y-101715103D02*
X71087030Y-101857960D01*
X71087030Y-101857960D02*
X71039411Y-102048436D01*
X71039411Y-102048436D02*
X71039411Y-102429388D01*
X71039411Y-102429388D02*
X71087030Y-102524626D01*
X71087030Y-102524626D02*
X71134649Y-102572246D01*
X71134649Y-102572246D02*
X71229887Y-102619865D01*
X71229887Y-102619865D02*
X71420363Y-102619865D01*
X71420363Y-102619865D02*
X71515601Y-102572246D01*
X71515601Y-102572246D02*
X71563220Y-102524626D01*
X71563220Y-102524626D02*
X71610839Y-102429388D01*
X71610839Y-102429388D02*
X71610839Y-102191293D01*
X71610839Y-102191293D02*
X71563220Y-102096055D01*
X71563220Y-102096055D02*
X71515601Y-102048436D01*
X71515601Y-102048436D02*
X71420363Y-102000817D01*
X71420363Y-102000817D02*
X71229887Y-102000817D01*
X71229887Y-102000817D02*
X71134649Y-102048436D01*
X71134649Y-102048436D02*
X71087030Y-102096055D01*
X71087030Y-102096055D02*
X71039411Y-102191293D01*
X72595595Y-104182200D02*
X72738452Y-104229819D01*
X72738452Y-104229819D02*
X72976547Y-104229819D01*
X72976547Y-104229819D02*
X73071785Y-104182200D01*
X73071785Y-104182200D02*
X73119404Y-104134580D01*
X73119404Y-104134580D02*
X73167023Y-104039342D01*
X73167023Y-104039342D02*
X73167023Y-103944104D01*
X73167023Y-103944104D02*
X73119404Y-103848866D01*
X73119404Y-103848866D02*
X73071785Y-103801247D01*
X73071785Y-103801247D02*
X72976547Y-103753628D01*
X72976547Y-103753628D02*
X72786071Y-103706009D01*
X72786071Y-103706009D02*
X72690833Y-103658390D01*
X72690833Y-103658390D02*
X72643214Y-103610771D01*
X72643214Y-103610771D02*
X72595595Y-103515533D01*
X72595595Y-103515533D02*
X72595595Y-103420295D01*
X72595595Y-103420295D02*
X72643214Y-103325057D01*
X72643214Y-103325057D02*
X72690833Y-103277438D01*
X72690833Y-103277438D02*
X72786071Y-103229819D01*
X72786071Y-103229819D02*
X73024166Y-103229819D01*
X73024166Y-103229819D02*
X73167023Y-103277438D01*
X73500357Y-103229819D02*
X74167023Y-103229819D01*
X74167023Y-103229819D02*
X73738452Y-104229819D01*
D12*
%TO.C,LED3*%
X113067982Y-81515046D02*
X113067982Y-83515046D01*
X113067982Y-81515046D02*
X109867982Y-81515046D01*
X112767982Y-83815046D02*
X113067982Y-83515046D01*
X112767982Y-83815046D02*
X109867982Y-83815046D01*
X109867982Y-83815046D02*
X109867982Y-81515046D01*
%TO.C,S9*%
X118557500Y-118875000D02*
X118557500Y-104675000D01*
X118557500Y-104675000D02*
X104357500Y-104675000D01*
X104357500Y-118875000D02*
X118557500Y-118875000D01*
X104357500Y-104675000D02*
X104357500Y-118875000D01*
D13*
%TO.C,G\u002A\u002A\u002A*%
G36*
X104242430Y-57874555D02*
G01*
X104254584Y-57993833D01*
X104290040Y-58131414D01*
X104339250Y-58163167D01*
X104421457Y-58227596D01*
X104423917Y-58247833D01*
X104359488Y-58330040D01*
X104339250Y-58332500D01*
X104257044Y-58268071D01*
X104254584Y-58247833D01*
X104183671Y-58179043D01*
X104085250Y-58163167D01*
X103939755Y-58138465D01*
X103944188Y-58052987D01*
X104036869Y-57945452D01*
X104176121Y-57836391D01*
X104242430Y-57874555D01*
G37*
G36*
X106136870Y-57860137D02*
G01*
X106200482Y-58036309D01*
X106201917Y-58078500D01*
X106226441Y-58256842D01*
X106285530Y-58332480D01*
X106286584Y-58332500D01*
X106361698Y-58401076D01*
X106371250Y-58459500D01*
X106325533Y-58572172D01*
X106286584Y-58586500D01*
X106211469Y-58517923D01*
X106201917Y-58459500D01*
X106126189Y-58358674D01*
X105947917Y-58332500D01*
X105749082Y-58283829D01*
X105691366Y-58156362D01*
X105784332Y-57977918D01*
X105814869Y-57945452D01*
X105999060Y-57826663D01*
X106136870Y-57860137D01*
G37*
G36*
X116929550Y-60198354D02*
G01*
X117105051Y-60216834D01*
X117185387Y-60263981D01*
X117207639Y-60353172D01*
X117208584Y-60406833D01*
X117192792Y-60537448D01*
X117115170Y-60599332D01*
X116930347Y-60617691D01*
X116827584Y-60618500D01*
X116446584Y-60618500D01*
X116446584Y-61422833D01*
X116446584Y-62227167D01*
X116023250Y-62227167D01*
X115599917Y-62227167D01*
X115599917Y-61428722D01*
X115602150Y-61056742D01*
X115613909Y-60821202D01*
X115642782Y-60689222D01*
X115696356Y-60627919D01*
X115782219Y-60604413D01*
X115790417Y-60603222D01*
X115961583Y-60506807D01*
X116007972Y-60385667D01*
X116035626Y-60285305D01*
X116108581Y-60228118D01*
X116265490Y-60202110D01*
X116545006Y-60195285D01*
X116621805Y-60195167D01*
X116929550Y-60198354D01*
G37*
G36*
X117462584Y-58205500D02*
G01*
X117462584Y-59009833D01*
X117843584Y-59009833D01*
X118224584Y-59009833D01*
X118224584Y-58205500D01*
X118224584Y-57401167D01*
X118605584Y-57401167D01*
X118986584Y-57401167D01*
X118986584Y-58205500D01*
X118984027Y-58579336D01*
X118971947Y-58815276D01*
X118943732Y-58944728D01*
X118892769Y-58999105D01*
X118817250Y-59009833D01*
X118684465Y-59059442D01*
X118647917Y-59221500D01*
X118642331Y-59319557D01*
X118604429Y-59381401D01*
X118502491Y-59415376D01*
X118304800Y-59429831D01*
X117979637Y-59433113D01*
X117843584Y-59433167D01*
X117470965Y-59431697D01*
X117235961Y-59421722D01*
X117106853Y-59394897D01*
X117051924Y-59342873D01*
X117039454Y-59257303D01*
X117039250Y-59221500D01*
X117004281Y-59060378D01*
X116866590Y-59010727D01*
X116827584Y-59009833D01*
X116729526Y-59004248D01*
X116667683Y-58966345D01*
X116633707Y-58864408D01*
X116619252Y-58666716D01*
X116615970Y-58341553D01*
X116615917Y-58205500D01*
X116615917Y-57401167D01*
X117039250Y-57401167D01*
X117462584Y-57401167D01*
X117462584Y-58205500D01*
G37*
G36*
X116078886Y-56980946D02*
G01*
X116256097Y-56999069D01*
X116337782Y-57045380D01*
X116360838Y-57133059D01*
X116361917Y-57189500D01*
X116346125Y-57320115D01*
X116268503Y-57381999D01*
X116083681Y-57400358D01*
X115980917Y-57401167D01*
X115745810Y-57409940D01*
X115634418Y-57453063D01*
X115601372Y-57555742D01*
X115599917Y-57612833D01*
X115615708Y-57743448D01*
X115693330Y-57805332D01*
X115878153Y-57823691D01*
X115980917Y-57824500D01*
X116216024Y-57833273D01*
X116327415Y-57876396D01*
X116360462Y-57979075D01*
X116361917Y-58036167D01*
X116346125Y-58166782D01*
X116268503Y-58228666D01*
X116083681Y-58247025D01*
X115980917Y-58247833D01*
X115599917Y-58247833D01*
X115599917Y-58840500D01*
X115599917Y-59433167D01*
X115176584Y-59433167D01*
X114753250Y-59433167D01*
X114753250Y-58417167D01*
X114753250Y-57401167D01*
X114964917Y-57401167D01*
X115126039Y-57366197D01*
X115175690Y-57228507D01*
X115176584Y-57189500D01*
X115185299Y-57078916D01*
X115236043Y-57015626D01*
X115365716Y-56986453D01*
X115611215Y-56978219D01*
X115769250Y-56977833D01*
X116078886Y-56980946D01*
G37*
G36*
X112636584Y-60406833D02*
G01*
X112595787Y-60573984D01*
X112473139Y-60618500D01*
X112326355Y-60689888D01*
X112282639Y-60809000D01*
X112186224Y-60980166D01*
X112065084Y-61026555D01*
X111905819Y-61110424D01*
X111874584Y-61217055D01*
X111821751Y-61346125D01*
X111662917Y-61380500D01*
X111501795Y-61415469D01*
X111452144Y-61553160D01*
X111451250Y-61592167D01*
X111459965Y-61702751D01*
X111510710Y-61766040D01*
X111640383Y-61795213D01*
X111885881Y-61803448D01*
X112043917Y-61803833D01*
X112353553Y-61806946D01*
X112530764Y-61825069D01*
X112612448Y-61871380D01*
X112635505Y-61959059D01*
X112636584Y-62015500D01*
X112636584Y-62227167D01*
X111451250Y-62227167D01*
X110265917Y-62227167D01*
X110265917Y-62015500D01*
X110300886Y-61854378D01*
X110438577Y-61804727D01*
X110477584Y-61803833D01*
X110638705Y-61768864D01*
X110688356Y-61631173D01*
X110689250Y-61592167D01*
X110728937Y-61426185D01*
X110858584Y-61380500D01*
X110991368Y-61330891D01*
X111027917Y-61168833D01*
X111062886Y-61007711D01*
X111200577Y-60958060D01*
X111239584Y-60957167D01*
X111405565Y-60917480D01*
X111451250Y-60787833D01*
X111435261Y-60698843D01*
X111363154Y-60647862D01*
X111198722Y-60624545D01*
X110905760Y-60618547D01*
X110858584Y-60618500D01*
X110548948Y-60615387D01*
X110371737Y-60597264D01*
X110290052Y-60550953D01*
X110266996Y-60463274D01*
X110265917Y-60406833D01*
X110265917Y-60195167D01*
X111451250Y-60195167D01*
X112636584Y-60195167D01*
X112636584Y-60406833D01*
G37*
G36*
X111305357Y-56986606D02*
G01*
X111416749Y-57029730D01*
X111449795Y-57132409D01*
X111451250Y-57189500D01*
X111486220Y-57350622D01*
X111623910Y-57400273D01*
X111662917Y-57401167D01*
X111824039Y-57436136D01*
X111873690Y-57573826D01*
X111874584Y-57612833D01*
X111839614Y-57773955D01*
X111701924Y-57823606D01*
X111662917Y-57824500D01*
X111552333Y-57833215D01*
X111489043Y-57883960D01*
X111459870Y-58013632D01*
X111451636Y-58259131D01*
X111451250Y-58417167D01*
X111454363Y-58726802D01*
X111472486Y-58904013D01*
X111518797Y-58985698D01*
X111606476Y-59008754D01*
X111662917Y-59009833D01*
X111824039Y-59044803D01*
X111873690Y-59182493D01*
X111874584Y-59221500D01*
X111860858Y-59347122D01*
X111790813Y-59409792D01*
X111621144Y-59431161D01*
X111451250Y-59433167D01*
X111200006Y-59426304D01*
X111074666Y-59391281D01*
X111031927Y-59306447D01*
X111027917Y-59221500D01*
X110988230Y-59055519D01*
X110858584Y-59009833D01*
X110769594Y-58993844D01*
X110718613Y-58921737D01*
X110695295Y-58757305D01*
X110689297Y-58464343D01*
X110689250Y-58417167D01*
X110686138Y-58107531D01*
X110668014Y-57930320D01*
X110621703Y-57848635D01*
X110534025Y-57825579D01*
X110477584Y-57824500D01*
X110316462Y-57789530D01*
X110266811Y-57651840D01*
X110265917Y-57612833D01*
X110300886Y-57451711D01*
X110438577Y-57402060D01*
X110477584Y-57401167D01*
X110638705Y-57366197D01*
X110688356Y-57228507D01*
X110689250Y-57189500D01*
X110705042Y-57058885D01*
X110782664Y-56997001D01*
X110967486Y-56978642D01*
X111070250Y-56977833D01*
X111305357Y-56986606D01*
G37*
G36*
X113733120Y-57402664D02*
G01*
X113966603Y-57412783D01*
X114094423Y-57439964D01*
X114148415Y-57492645D01*
X114160413Y-57579265D01*
X114160584Y-57612833D01*
X114200270Y-57778814D01*
X114329917Y-57824500D01*
X114418907Y-57840489D01*
X114469888Y-57912596D01*
X114493205Y-58077028D01*
X114499203Y-58369990D01*
X114499250Y-58417167D01*
X114494682Y-58728631D01*
X114474080Y-58907065D01*
X114427099Y-58988675D01*
X114343396Y-59009668D01*
X114329917Y-59009833D01*
X114197132Y-59059442D01*
X114160584Y-59221500D01*
X114154998Y-59319557D01*
X114117096Y-59381401D01*
X114015158Y-59415376D01*
X113817467Y-59429831D01*
X113492304Y-59433113D01*
X113356250Y-59433167D01*
X112983631Y-59431697D01*
X112748627Y-59421722D01*
X112619520Y-59394897D01*
X112564590Y-59342873D01*
X112552120Y-59257303D01*
X112551917Y-59221500D01*
X112516947Y-59060378D01*
X112379257Y-59010727D01*
X112340250Y-59009833D01*
X112975250Y-59009833D01*
X113356250Y-59009833D01*
X113737250Y-59009833D01*
X113737250Y-58417167D01*
X113737250Y-57824500D01*
X113356250Y-57824500D01*
X112975250Y-57824500D01*
X112975250Y-58417167D01*
X112975250Y-59009833D01*
X112340250Y-59009833D01*
X112229239Y-59000997D01*
X112165931Y-58949767D01*
X112136951Y-58819066D01*
X112128924Y-58571814D01*
X112128584Y-58423055D01*
X112128667Y-58417167D01*
X112132934Y-58113303D01*
X112153982Y-57934167D01*
X112203724Y-57846993D01*
X112294156Y-57813128D01*
X112319084Y-57809222D01*
X112490250Y-57712807D01*
X112536639Y-57591667D01*
X112558593Y-57502992D01*
X112615803Y-57447193D01*
X112741150Y-57416683D01*
X112967514Y-57403872D01*
X113327779Y-57401173D01*
X113362139Y-57401167D01*
X113733120Y-57402664D01*
G37*
G36*
X118982454Y-60196664D02*
G01*
X119215937Y-60206783D01*
X119343757Y-60233964D01*
X119397748Y-60286645D01*
X119409747Y-60373265D01*
X119409917Y-60406833D01*
X119449604Y-60572814D01*
X119579250Y-60618500D01*
X119668240Y-60634489D01*
X119719221Y-60706596D01*
X119742538Y-60871028D01*
X119748536Y-61163990D01*
X119748584Y-61211167D01*
X119744015Y-61522631D01*
X119723413Y-61701065D01*
X119676433Y-61782675D01*
X119592729Y-61803668D01*
X119579250Y-61803833D01*
X119446465Y-61853442D01*
X119409917Y-62015500D01*
X119404331Y-62113557D01*
X119366429Y-62175401D01*
X119264491Y-62209376D01*
X119066800Y-62223831D01*
X118741637Y-62227113D01*
X118605584Y-62227167D01*
X118232965Y-62225697D01*
X117997961Y-62215722D01*
X117868853Y-62188897D01*
X117813924Y-62136873D01*
X117801454Y-62051303D01*
X117801250Y-62015500D01*
X117766281Y-61854378D01*
X117628590Y-61804727D01*
X117589584Y-61803833D01*
X118224584Y-61803833D01*
X118605584Y-61803833D01*
X118986584Y-61803833D01*
X118986584Y-61211167D01*
X118986584Y-60618500D01*
X118605584Y-60618500D01*
X118224584Y-60618500D01*
X118224584Y-61211167D01*
X118224584Y-61803833D01*
X117589584Y-61803833D01*
X117478572Y-61794997D01*
X117415264Y-61743767D01*
X117386284Y-61613066D01*
X117378257Y-61365814D01*
X117377917Y-61217055D01*
X117378000Y-61211167D01*
X117382267Y-60907303D01*
X117403316Y-60728167D01*
X117453058Y-60640993D01*
X117543489Y-60607128D01*
X117568417Y-60603222D01*
X117739583Y-60506807D01*
X117785972Y-60385667D01*
X117807927Y-60296992D01*
X117865137Y-60241193D01*
X117990483Y-60210683D01*
X118216848Y-60197872D01*
X118577112Y-60195173D01*
X118611472Y-60195167D01*
X118982454Y-60196664D01*
G37*
G36*
X114495120Y-60196664D02*
G01*
X114728603Y-60206783D01*
X114856423Y-60233964D01*
X114910415Y-60286645D01*
X114922413Y-60373265D01*
X114922584Y-60406833D01*
X114962270Y-60572814D01*
X115091917Y-60618500D01*
X115224702Y-60668109D01*
X115261250Y-60830167D01*
X115221563Y-60996148D01*
X115091917Y-61041833D01*
X114950413Y-61101702D01*
X114922584Y-61211167D01*
X114906594Y-61300156D01*
X114834487Y-61351137D01*
X114670056Y-61374455D01*
X114377093Y-61380453D01*
X114329917Y-61380500D01*
X114020281Y-61383612D01*
X113843070Y-61401736D01*
X113761385Y-61448047D01*
X113738329Y-61535725D01*
X113737250Y-61592167D01*
X113745965Y-61702751D01*
X113796710Y-61766040D01*
X113926383Y-61795213D01*
X114171881Y-61803448D01*
X114329917Y-61803833D01*
X114639553Y-61806946D01*
X114816764Y-61825069D01*
X114898448Y-61871380D01*
X114921505Y-61959059D01*
X114922584Y-62015500D01*
X114916998Y-62113557D01*
X114879096Y-62175401D01*
X114777158Y-62209376D01*
X114579467Y-62223831D01*
X114254304Y-62227113D01*
X114118250Y-62227167D01*
X113745631Y-62225697D01*
X113510627Y-62215722D01*
X113381520Y-62188897D01*
X113326590Y-62136873D01*
X113314120Y-62051303D01*
X113313917Y-62015500D01*
X113278947Y-61854378D01*
X113141257Y-61804727D01*
X113102250Y-61803833D01*
X112991239Y-61794997D01*
X112927931Y-61743767D01*
X112898951Y-61613066D01*
X112890924Y-61365814D01*
X112890584Y-61217055D01*
X112894934Y-60907303D01*
X112908971Y-60787833D01*
X113737250Y-60787833D01*
X113762179Y-60893653D01*
X113865692Y-60943692D01*
X114090880Y-60957102D01*
X114118250Y-60957167D01*
X114356345Y-60946087D01*
X114468933Y-60900081D01*
X114499105Y-60799998D01*
X114499250Y-60787833D01*
X114474321Y-60682013D01*
X114370808Y-60631974D01*
X114145621Y-60618564D01*
X114118250Y-60618500D01*
X113880155Y-60629579D01*
X113767567Y-60675585D01*
X113737396Y-60775669D01*
X113737250Y-60787833D01*
X112908971Y-60787833D01*
X112915982Y-60728167D01*
X112965724Y-60640993D01*
X113056156Y-60607128D01*
X113081084Y-60603222D01*
X113252250Y-60506807D01*
X113298639Y-60385667D01*
X113320593Y-60296992D01*
X113377803Y-60241193D01*
X113503150Y-60210683D01*
X113729514Y-60197872D01*
X114089779Y-60195173D01*
X114124139Y-60195167D01*
X114495120Y-60196664D01*
G37*
G36*
X106414683Y-55993171D02*
G01*
X106512885Y-56173235D01*
X106540584Y-56336786D01*
X106568831Y-56498771D01*
X106625250Y-56554500D01*
X106684460Y-56628133D01*
X106709899Y-56805802D01*
X106709917Y-56811157D01*
X106749636Y-57018807D01*
X106836917Y-57116549D01*
X106915103Y-57202085D01*
X106954990Y-57401883D01*
X106963917Y-57664225D01*
X106970720Y-57945705D01*
X106999493Y-58096695D01*
X107062786Y-58155773D01*
X107126195Y-58163167D01*
X107279187Y-58115076D01*
X107326270Y-58057333D01*
X107396659Y-57995724D01*
X107428072Y-58010968D01*
X107430513Y-58104889D01*
X107334557Y-58223221D01*
X107192706Y-58313547D01*
X107106023Y-58332500D01*
X106969863Y-58400902D01*
X106933299Y-58459500D01*
X106846786Y-58579457D01*
X106762521Y-58551907D01*
X106713086Y-58395935D01*
X106709917Y-58328651D01*
X106644350Y-58073828D01*
X106479494Y-57842211D01*
X106263118Y-57688083D01*
X106117250Y-57655167D01*
X105882090Y-57726086D01*
X105691828Y-57906256D01*
X105570004Y-58146789D01*
X105540155Y-58398800D01*
X105625817Y-58613403D01*
X105645536Y-58634881D01*
X105782384Y-58701491D01*
X105997314Y-58742463D01*
X106232862Y-58755468D01*
X106431561Y-58738176D01*
X106535949Y-58688258D01*
X106540584Y-58671167D01*
X106582488Y-58592519D01*
X106713645Y-58642394D01*
X106900417Y-58786954D01*
X107078715Y-58957243D01*
X107116992Y-59052457D01*
X107016505Y-59090870D01*
X106921584Y-59094500D01*
X106749947Y-59139715D01*
X106709917Y-59225348D01*
X106639539Y-59405168D01*
X106467237Y-59589507D01*
X106251253Y-59727932D01*
X106078765Y-59771833D01*
X105917819Y-59800344D01*
X105863250Y-59856500D01*
X105934163Y-59925290D01*
X106032584Y-59941167D01*
X106170164Y-59976623D01*
X106201917Y-60025833D01*
X106137488Y-60108040D01*
X106117250Y-60110500D01*
X106042136Y-60179076D01*
X106032584Y-60237500D01*
X105986866Y-60350172D01*
X105947917Y-60364500D01*
X105879127Y-60435412D01*
X105863250Y-60533833D01*
X105890939Y-60671525D01*
X105929226Y-60703167D01*
X106023940Y-60642033D01*
X106117250Y-60533833D01*
X106247373Y-60421287D01*
X106401050Y-60364596D01*
X106516031Y-60378958D01*
X106540584Y-60430476D01*
X106479450Y-60525190D01*
X106371250Y-60618500D01*
X106239003Y-60770647D01*
X106201917Y-60891191D01*
X106228975Y-61021732D01*
X106317500Y-61007235D01*
X106467690Y-60858926D01*
X106599619Y-60748852D01*
X106689287Y-60743517D01*
X106686139Y-60825615D01*
X106646417Y-60848813D01*
X106544209Y-60928537D01*
X106584092Y-61008218D01*
X106733559Y-61041833D01*
X106932423Y-60976653D01*
X107048584Y-60872500D01*
X107200731Y-60740253D01*
X107321274Y-60703167D01*
X107448364Y-60663816D01*
X107471917Y-60618500D01*
X107541232Y-60545196D01*
X107610233Y-60533833D01*
X107781385Y-60462007D01*
X107957165Y-60284000D01*
X108094208Y-60056022D01*
X108149147Y-59835333D01*
X108122657Y-59666364D01*
X108064584Y-59602500D01*
X107995793Y-59531587D01*
X107979917Y-59433167D01*
X107944461Y-59295586D01*
X107895250Y-59263833D01*
X107829362Y-59193038D01*
X107811002Y-59019631D01*
X107835472Y-58802078D01*
X107898073Y-58598845D01*
X107956400Y-58502801D01*
X108086755Y-58375409D01*
X108165147Y-58332500D01*
X108279649Y-58393355D01*
X108442147Y-58540938D01*
X108604219Y-58722769D01*
X108717446Y-58886373D01*
X108741917Y-58957591D01*
X108804064Y-59091568D01*
X108847750Y-59118186D01*
X108907405Y-59190342D01*
X108890621Y-59223483D01*
X108798150Y-59216688D01*
X108669023Y-59108074D01*
X108514212Y-58989639D01*
X108337730Y-58929270D01*
X108197265Y-58937870D01*
X108149250Y-59009833D01*
X108220328Y-59078110D01*
X108322432Y-59094500D01*
X108499037Y-59151906D01*
X108692067Y-59291199D01*
X108703432Y-59302318D01*
X108847580Y-59488408D01*
X108909716Y-59654832D01*
X108878354Y-59757803D01*
X108826584Y-59771833D01*
X108744377Y-59707404D01*
X108741917Y-59687167D01*
X108671228Y-59617694D01*
X108577580Y-59602500D01*
X108415499Y-59641378D01*
X108360917Y-59687167D01*
X108389218Y-59751546D01*
X108504887Y-59771833D01*
X108703639Y-59838133D01*
X108803702Y-59935990D01*
X108855803Y-60049833D01*
X108796592Y-60102893D01*
X108633568Y-60126490D01*
X108433728Y-60175400D01*
X108365640Y-60250956D01*
X108440680Y-60322312D01*
X108551417Y-60349222D01*
X108675446Y-60418451D01*
X108744699Y-60542668D01*
X108740223Y-60658491D01*
X108657250Y-60703167D01*
X108575044Y-60638737D01*
X108572584Y-60618500D01*
X108500127Y-60554854D01*
X108360917Y-60533833D01*
X108201802Y-60562816D01*
X108149250Y-60618500D01*
X108220420Y-60686487D01*
X108324631Y-60703167D01*
X108484869Y-60741677D01*
X108628970Y-60831565D01*
X108714199Y-60934364D01*
X108697818Y-61011608D01*
X108677661Y-61020918D01*
X108588169Y-61123920D01*
X108572584Y-61209164D01*
X108506300Y-61365788D01*
X108435915Y-61414828D01*
X108336859Y-61526243D01*
X108340783Y-61684559D01*
X108333064Y-61878541D01*
X108265785Y-61946565D01*
X108183056Y-62058386D01*
X108149288Y-62276381D01*
X108149250Y-62284606D01*
X108112688Y-62553021D01*
X107986020Y-62718851D01*
X107743779Y-62801199D01*
X107435631Y-62819833D01*
X107134428Y-62807189D01*
X106991917Y-62764158D01*
X106998992Y-62683090D01*
X107133250Y-62565833D01*
X107264504Y-62429734D01*
X107302584Y-62331627D01*
X107243573Y-62195922D01*
X107103772Y-62023804D01*
X106939022Y-61873735D01*
X106805165Y-61804176D01*
X106798432Y-61803833D01*
X106733760Y-61730912D01*
X106709917Y-61575233D01*
X106693140Y-61425218D01*
X106634158Y-61424282D01*
X106613258Y-61443292D01*
X106567319Y-61557146D01*
X106616560Y-61744889D01*
X106659564Y-61841225D01*
X106769098Y-62032930D01*
X106864432Y-62136540D01*
X106883222Y-62142500D01*
X106961600Y-62207049D01*
X106963917Y-62227167D01*
X106898419Y-62308025D01*
X106870886Y-62311833D01*
X106758829Y-62369017D01*
X106593384Y-62511610D01*
X106540583Y-62565833D01*
X106401846Y-62699860D01*
X106264587Y-62776095D01*
X106075601Y-62810661D01*
X105781684Y-62819677D01*
X105702281Y-62819833D01*
X105395070Y-62808788D01*
X105182417Y-62779121D01*
X105101278Y-62736040D01*
X105101250Y-62735167D01*
X105170212Y-62660976D01*
X105233956Y-62650500D01*
X105326321Y-62602440D01*
X105312917Y-62481167D01*
X105306997Y-62343843D01*
X105391878Y-62311833D01*
X105495295Y-62244255D01*
X105524584Y-62057833D01*
X105488988Y-61859473D01*
X105392587Y-61803833D01*
X105303109Y-61765395D01*
X105309301Y-61725017D01*
X105300009Y-61615599D01*
X105277815Y-61596636D01*
X105167119Y-61605084D01*
X105148053Y-61627268D01*
X105157842Y-61737271D01*
X105184536Y-61760646D01*
X105245389Y-61868421D01*
X105268422Y-62044478D01*
X105253451Y-62215699D01*
X105200293Y-62308961D01*
X105185917Y-62311833D01*
X105111781Y-62380817D01*
X105101250Y-62444881D01*
X105025425Y-62647161D01*
X104819442Y-62779267D01*
X104556964Y-62819833D01*
X104355226Y-62806390D01*
X104271413Y-62737534D01*
X104254587Y-62570478D01*
X104254584Y-62565833D01*
X104279108Y-62387491D01*
X104338197Y-62311853D01*
X104339250Y-62311833D01*
X104408040Y-62240921D01*
X104423917Y-62142500D01*
X104388461Y-62004919D01*
X104339250Y-61973167D01*
X104286939Y-61897895D01*
X104257182Y-61709173D01*
X104254584Y-61623264D01*
X104292694Y-61327794D01*
X104420675Y-61129866D01*
X104437491Y-61114727D01*
X104547564Y-60982798D01*
X104552900Y-60893129D01*
X104470802Y-60896278D01*
X104447603Y-60936000D01*
X104356544Y-61016329D01*
X104214531Y-61039853D01*
X104103522Y-61001784D01*
X104085250Y-60957167D01*
X104149679Y-60874960D01*
X104169917Y-60872500D01*
X104241161Y-60808504D01*
X104248218Y-60670047D01*
X104223196Y-60606940D01*
X104631490Y-60606940D01*
X104679256Y-60723131D01*
X104694437Y-60740878D01*
X104831789Y-60854172D01*
X104918730Y-60847688D01*
X104931917Y-60794889D01*
X104865828Y-60696173D01*
X104826084Y-60674334D01*
X104771278Y-60616756D01*
X104844798Y-60544883D01*
X104923119Y-60446619D01*
X104912330Y-60401357D01*
X104817140Y-60407754D01*
X104719635Y-60480020D01*
X104631490Y-60606940D01*
X104223196Y-60606940D01*
X104195632Y-60537422D01*
X104148750Y-60498555D01*
X104086486Y-60442952D01*
X104148750Y-60399778D01*
X104246732Y-60290970D01*
X104254584Y-60249135D01*
X104316879Y-60125925D01*
X104423917Y-60025833D01*
X104568468Y-59888101D01*
X104570246Y-59797512D01*
X104463428Y-59771833D01*
X104319303Y-59710310D01*
X104127226Y-59558052D01*
X103935661Y-59363526D01*
X103801423Y-59186222D01*
X104762584Y-59186222D01*
X104811729Y-59260154D01*
X104906463Y-59230964D01*
X104956611Y-59158000D01*
X105013147Y-59094625D01*
X105107600Y-59158000D01*
X105256912Y-59240990D01*
X105416635Y-59259797D01*
X105516640Y-59210860D01*
X105524584Y-59179167D01*
X105452127Y-59115521D01*
X105312917Y-59094500D01*
X105137752Y-59070438D01*
X105125942Y-59009833D01*
X105863250Y-59009833D01*
X105934163Y-59078623D01*
X106032584Y-59094500D01*
X106170164Y-59129956D01*
X106201917Y-59179167D01*
X106266346Y-59261373D01*
X106286584Y-59263833D01*
X106369007Y-59226504D01*
X106371250Y-59215452D01*
X106318710Y-59123072D01*
X106250298Y-59046119D01*
X106099205Y-58950949D01*
X105949385Y-58929431D01*
X105866157Y-58987689D01*
X105863250Y-59009833D01*
X105125942Y-59009833D01*
X105122937Y-58994414D01*
X105249417Y-58873693D01*
X105326368Y-58800868D01*
X105282866Y-58767902D01*
X105095194Y-58758667D01*
X105080084Y-58758526D01*
X104859741Y-58781798D01*
X104763241Y-58844144D01*
X104809690Y-58927335D01*
X104868417Y-58960444D01*
X104930681Y-59016047D01*
X104868417Y-59059222D01*
X104770742Y-59152615D01*
X104762584Y-59186222D01*
X103801423Y-59186222D01*
X103793077Y-59175198D01*
X103746584Y-59054989D01*
X103726594Y-59009833D01*
X103915917Y-59009833D01*
X103986829Y-59078623D01*
X104085250Y-59094500D01*
X104222831Y-59059044D01*
X104254584Y-59009833D01*
X104183671Y-58941043D01*
X104085250Y-58925167D01*
X103947670Y-58960623D01*
X103915917Y-59009833D01*
X103726594Y-59009833D01*
X103695192Y-58938901D01*
X103587910Y-58950691D01*
X103534917Y-59009833D01*
X103431403Y-59074024D01*
X103281930Y-59093021D01*
X103169908Y-59062423D01*
X103153917Y-59029929D01*
X103214993Y-58939719D01*
X103363307Y-58808220D01*
X103376208Y-58798424D01*
X103521341Y-58682923D01*
X103537635Y-58627722D01*
X103432279Y-58592270D01*
X103413545Y-58587828D01*
X103260593Y-58511355D01*
X103246659Y-58417078D01*
X103316445Y-58382173D01*
X103752378Y-58382173D01*
X103840539Y-58614997D01*
X103852417Y-58629186D01*
X104028030Y-58722348D01*
X104277515Y-58748396D01*
X104519024Y-58706737D01*
X104641631Y-58634881D01*
X104750469Y-58417770D01*
X104730843Y-58154076D01*
X104589049Y-57899750D01*
X104554765Y-57862985D01*
X104389587Y-57722328D01*
X104263365Y-57655945D01*
X104254584Y-57655167D01*
X104136896Y-57710340D01*
X103972754Y-57844978D01*
X103954402Y-57862985D01*
X103792908Y-58112156D01*
X103752378Y-58382173D01*
X103316445Y-58382173D01*
X103377660Y-58351555D01*
X103383396Y-58350599D01*
X103455281Y-58321956D01*
X103497476Y-58242360D01*
X103515113Y-58078882D01*
X103513324Y-57798592D01*
X103505347Y-57568000D01*
X103495546Y-57196490D01*
X103504128Y-56960840D01*
X103535389Y-56828163D01*
X103593624Y-56765575D01*
X103611181Y-56757675D01*
X103728897Y-56650710D01*
X103746584Y-56583926D01*
X103802578Y-56445808D01*
X103939388Y-56269867D01*
X103959350Y-56249370D01*
X104111132Y-56115099D01*
X104210436Y-56096211D01*
X104298016Y-56162504D01*
X104402770Y-56326729D01*
X104423917Y-56421452D01*
X104467816Y-56537952D01*
X104508584Y-56554500D01*
X104565304Y-56627197D01*
X104591088Y-56803750D01*
X104587616Y-57021853D01*
X104556566Y-57219198D01*
X104499616Y-57333479D01*
X104487417Y-57340186D01*
X104425808Y-57410575D01*
X104441052Y-57441988D01*
X104535295Y-57445261D01*
X104652762Y-57348360D01*
X104742778Y-57203468D01*
X104762584Y-57110881D01*
X104799578Y-56991205D01*
X104879159Y-57004396D01*
X104954220Y-57139689D01*
X104958677Y-57155685D01*
X105027561Y-57274282D01*
X105091854Y-57279974D01*
X105143007Y-57166706D01*
X105130827Y-57102122D01*
X105146850Y-56995014D01*
X105211265Y-56977833D01*
X105302143Y-57033864D01*
X105293923Y-57151729D01*
X105322637Y-57359286D01*
X105425309Y-57490395D01*
X105589603Y-57625875D01*
X105670374Y-57631859D01*
X105693731Y-57507905D01*
X105693917Y-57485833D01*
X105658461Y-57348253D01*
X105609250Y-57316500D01*
X105535339Y-57248415D01*
X105519303Y-57084218D01*
X105553630Y-56883999D01*
X105630811Y-56707846D01*
X105693917Y-56639167D01*
X105825170Y-56503068D01*
X105863250Y-56404960D01*
X105918985Y-56273746D01*
X106055250Y-56101337D01*
X106076016Y-56080037D01*
X106227798Y-55945766D01*
X106327102Y-55926877D01*
X106414683Y-55993171D01*
G37*
D12*
%TO.C,LED4*%
X113067982Y-100515046D02*
X113067982Y-102515046D01*
X113067982Y-100515046D02*
X109867982Y-100515046D01*
X112767982Y-102815046D02*
X113067982Y-102515046D01*
X112767982Y-102815046D02*
X109867982Y-102815046D01*
X109867982Y-102815046D02*
X109867982Y-100515046D01*
%TO.C,S3*%
X118557500Y-80775000D02*
X118557500Y-66575000D01*
X118557500Y-66575000D02*
X104357500Y-66575000D01*
X104357500Y-80775000D02*
X118557500Y-80775000D01*
X104357500Y-66575000D02*
X104357500Y-80775000D01*
%TO.C,LED8*%
X94067982Y-119515046D02*
X94067982Y-121515046D01*
X94067982Y-119515046D02*
X90867982Y-119515046D01*
X93767982Y-121815046D02*
X94067982Y-121515046D01*
X93767982Y-121815046D02*
X90867982Y-121815046D01*
X90867982Y-121815046D02*
X90867982Y-119515046D01*
%TO.C,LED1*%
X75067982Y-81515046D02*
X75067982Y-83515046D01*
X75067982Y-81515046D02*
X71867982Y-81515046D01*
X74767982Y-83815046D02*
X75067982Y-83515046D01*
X74767982Y-83815046D02*
X71867982Y-83815046D01*
X71867982Y-83815046D02*
X71867982Y-81515046D01*
%TO.C,LED5*%
X93982982Y-100515046D02*
X93982982Y-102515046D01*
X93982982Y-100515046D02*
X90782982Y-100515046D01*
X93682982Y-102815046D02*
X93982982Y-102515046D01*
X93682982Y-102815046D02*
X90782982Y-102815046D01*
X90782982Y-102815046D02*
X90782982Y-100515046D01*
%TO.C,S1*%
X80457500Y-80775000D02*
X80457500Y-66575000D01*
X80457500Y-66575000D02*
X66257500Y-66575000D01*
X66257500Y-80775000D02*
X80457500Y-80775000D01*
X66257500Y-66575000D02*
X66257500Y-80775000D01*
%TO.C,S4*%
X80457500Y-99825000D02*
X80457500Y-85625000D01*
X80457500Y-85625000D02*
X66257500Y-85625000D01*
X66257500Y-99825000D02*
X80457500Y-99825000D01*
X66257500Y-85625000D02*
X66257500Y-99825000D01*
%TO.C,LED7*%
X75067982Y-119515046D02*
X75067982Y-121515046D01*
X75067982Y-119515046D02*
X71867982Y-119515046D01*
X74767982Y-121815046D02*
X75067982Y-121515046D01*
X74767982Y-121815046D02*
X71867982Y-121815046D01*
X71867982Y-121815046D02*
X71867982Y-119515046D01*
%TO.C,S6*%
X118557500Y-99825000D02*
X118557500Y-85625000D01*
X118557500Y-85625000D02*
X104357500Y-85625000D01*
X104357500Y-99825000D02*
X118557500Y-99825000D01*
X104357500Y-85625000D02*
X104357500Y-99825000D01*
%TO.C,S2*%
X99507500Y-80775000D02*
X99507500Y-66575000D01*
X99507500Y-66575000D02*
X85307500Y-66575000D01*
X85307500Y-80775000D02*
X99507500Y-80775000D01*
X85307500Y-66575000D02*
X85307500Y-80775000D01*
%TO.C,LED9*%
X113067982Y-119515046D02*
X113067982Y-121515046D01*
X113067982Y-119515046D02*
X109867982Y-119515046D01*
X112767982Y-121815046D02*
X113067982Y-121515046D01*
X112767982Y-121815046D02*
X109867982Y-121815046D01*
X109867982Y-121815046D02*
X109867982Y-119515046D01*
%TO.C,LED2*%
X94067982Y-81515046D02*
X94067982Y-83515046D01*
X94067982Y-81515046D02*
X90867982Y-81515046D01*
X93767982Y-83815046D02*
X94067982Y-83515046D01*
X93767982Y-83815046D02*
X90867982Y-83815046D01*
X90867982Y-83815046D02*
X90867982Y-81515046D01*
%TO.C,S8*%
X99507500Y-118875000D02*
X99507500Y-104675000D01*
X99507500Y-104675000D02*
X85307500Y-104675000D01*
X85307500Y-118875000D02*
X99507500Y-118875000D01*
X85307500Y-104675000D02*
X85307500Y-118875000D01*
%TO.C,S5*%
X99507500Y-99825000D02*
X99507500Y-85625000D01*
X99507500Y-85625000D02*
X85307500Y-85625000D01*
X85307500Y-99825000D02*
X99507500Y-99825000D01*
X85307500Y-85625000D02*
X85307500Y-99825000D01*
%TO.C,LED6*%
X75067982Y-100515046D02*
X75067982Y-102515046D01*
X75067982Y-100515046D02*
X71867982Y-100515046D01*
X74767982Y-102815046D02*
X75067982Y-102515046D01*
X74767982Y-102815046D02*
X71867982Y-102815046D01*
X71867982Y-102815046D02*
X71867982Y-100515046D01*
%TO.C,S7*%
X80457500Y-118875000D02*
X80457500Y-104675000D01*
X80457500Y-104675000D02*
X66257500Y-104675000D01*
X66257500Y-118875000D02*
X80457500Y-118875000D01*
X66257500Y-104675000D02*
X66257500Y-118875000D01*
%TD*%
M02*
