%TF.GenerationSoftware,KiCad,Pcbnew,8.0.8*%
%TF.CreationDate,2025-12-19T19:10:27+00:00*%
%TF.ProjectId,MACRO,4d414352-4f2e-46b6-9963-61645f706362,rev?*%
%TF.SameCoordinates,Original*%
%TF.FileFunction,Copper,L2,Bot*%
%TF.FilePolarity,Positive*%
%FSLAX46Y46*%
G04 Gerber Fmt 4.6, Leading zero omitted, Abs format (unit mm)*
G04 Created by KiCad (PCBNEW 8.0.8) date 2025-12-19 19:10:27*
%MOMM*%
%LPD*%
G01*
G04 APERTURE LIST*
%TA.AperFunction,ComponentPad*%
%ADD10C,2.500000*%
%TD*%
%TA.AperFunction,ComponentPad*%
%ADD11R,2.000000X2.000000*%
%TD*%
%TA.AperFunction,ComponentPad*%
%ADD12C,2.000000*%
%TD*%
%TA.AperFunction,ComponentPad*%
%ADD13R,3.200000X2.000000*%
%TD*%
%TA.AperFunction,ComponentPad*%
%ADD14R,1.508000X1.508000*%
%TD*%
%TA.AperFunction,ComponentPad*%
%ADD15C,1.508000*%
%TD*%
%TA.AperFunction,ComponentPad*%
%ADD16R,1.600000X1.600000*%
%TD*%
%TA.AperFunction,ComponentPad*%
%ADD17O,1.600000X1.600000*%
%TD*%
%TA.AperFunction,ComponentPad*%
%ADD18O,2.500000X1.500000*%
%TD*%
%TA.AperFunction,ComponentPad*%
%ADD19O,1.500000X2.500000*%
%TD*%
%TA.AperFunction,ViaPad*%
%ADD20C,0.600000*%
%TD*%
%TA.AperFunction,Conductor*%
%ADD21C,0.200000*%
%TD*%
G04 APERTURE END LIST*
D10*
%TO.P,S9,2,2*%
%TO.N,Net-(D9-A)*%
X113997500Y-106695000D03*
%TO.P,S9,1,1*%
%TO.N,Column 2*%
X107647500Y-109235000D03*
%TD*%
%TO.P,S3,2,2*%
%TO.N,Net-(D3-A)*%
X113997500Y-68595000D03*
%TO.P,S3,1,1*%
%TO.N,Column 2*%
X107647500Y-71135000D03*
%TD*%
%TO.P,S1,2,2*%
%TO.N,Net-(D1-A)*%
X75897500Y-68595000D03*
%TO.P,S1,1,1*%
%TO.N,Column 0*%
X69547500Y-71135000D03*
%TD*%
D11*
%TO.P,SW1,A,A*%
%TO.N,encoder PIN A*%
X101382982Y-44115046D03*
D12*
%TO.P,SW1,B,B*%
%TO.N,encoder PIN B*%
X101382982Y-49115046D03*
%TO.P,SW1,C,C*%
%TO.N,Ground*%
X101382982Y-46615046D03*
D13*
%TO.P,SW1,MP*%
%TO.N,N/C*%
X108882982Y-41015046D03*
X108882982Y-52215046D03*
D12*
%TO.P,SW1,S1,S1*%
%TO.N,encoder key S1*%
X115882982Y-49115046D03*
%TO.P,SW1,S2,S2*%
%TO.N,Ground*%
X115882982Y-44115046D03*
%TD*%
D10*
%TO.P,S4,2,2*%
%TO.N,Net-(D4-A)*%
X75897500Y-87645000D03*
%TO.P,S4,1,1*%
%TO.N,Column 0*%
X69547500Y-90185000D03*
%TD*%
D14*
%TO.P,J1,1,GND*%
%TO.N,Ground*%
X80642500Y-36102500D03*
D15*
%TO.P,J1,2,VCC*%
%TO.N,VCC*%
X83182500Y-36102500D03*
%TO.P,J1,3,SCL*%
%TO.N,Oled SCL*%
X85722500Y-36102500D03*
%TO.P,J1,4,SDA*%
%TO.N,Oled SDA*%
X88262500Y-36102500D03*
%TD*%
D10*
%TO.P,S6,2,2*%
%TO.N,Net-(D6-A)*%
X113997500Y-87645000D03*
%TO.P,S6,1,1*%
%TO.N,Column 2*%
X107647500Y-90185000D03*
%TD*%
%TO.P,S2,2,2*%
%TO.N,Net-(D2-A)*%
X94947500Y-68595000D03*
%TO.P,S2,1,1*%
%TO.N,Column 1*%
X88597500Y-71135000D03*
%TD*%
%TO.P,S8,2,2*%
%TO.N,Net-(D8-A)*%
X94947500Y-106695000D03*
%TO.P,S8,1,1*%
%TO.N,Column 1*%
X88597500Y-109235000D03*
%TD*%
%TO.P,S5,2,2*%
%TO.N,Net-(D5-A)*%
X94947500Y-87645000D03*
%TO.P,S5,1,1*%
%TO.N,Column 1*%
X88597500Y-90185000D03*
%TD*%
%TO.P,S7,2,2*%
%TO.N,Net-(D7-A)*%
X75897500Y-106695000D03*
%TO.P,S7,1,1*%
%TO.N,Column 0*%
X69547500Y-109235000D03*
%TD*%
D16*
%TO.P,D7,1,K*%
%TO.N,Row 2*%
X82882500Y-114632500D03*
D17*
%TO.P,D7,2,A*%
%TO.N,Net-(D7-A)*%
X82882500Y-107012500D03*
%TD*%
D16*
%TO.P,D9,1,K*%
%TO.N,Row 2*%
X120982500Y-114632500D03*
D17*
%TO.P,D9,2,A*%
%TO.N,Net-(D9-A)*%
X120982500Y-107012500D03*
%TD*%
D16*
%TO.P,D5,1,K*%
%TO.N,Row 1*%
X101932500Y-95582500D03*
D17*
%TO.P,D5,2,A*%
%TO.N,Net-(D5-A)*%
X101932500Y-87962500D03*
%TD*%
D18*
%TO.P,U1,1,0*%
%TO.N,unconnected-(U1-0-Pad1)*%
X76332500Y-36192500D03*
%TO.P,U1,2,1*%
%TO.N,Row 0*%
X76332500Y-38732500D03*
%TO.P,U1,3,2*%
%TO.N,Row 1*%
X76332500Y-41272500D03*
%TO.P,U1,4,3*%
%TO.N,Row 2*%
X76332500Y-43812500D03*
%TO.P,U1,5,4*%
%TO.N,Column 0*%
X76332500Y-46352500D03*
%TO.P,U1,6,5*%
%TO.N,Column 1*%
X76332500Y-48892500D03*
%TO.P,U1,7,6*%
%TO.N,Column 2*%
X76332500Y-51432500D03*
%TO.P,U1,8,7*%
%TO.N,DIN LED*%
X76332500Y-53972500D03*
%TO.P,U1,9,8*%
%TO.N,unconnected-(U1-8-Pad9)*%
X76332500Y-56512500D03*
D19*
%TO.P,U1,10,9*%
%TO.N,unconnected-(U1-9-Pad10)*%
X79372500Y-57012500D03*
%TO.P,U1,11,10*%
%TO.N,unconnected-(U1-10-Pad11)*%
X81912500Y-57012500D03*
%TO.P,U1,12,11*%
%TO.N,unconnected-(U1-11-Pad12)*%
X84452500Y-57012500D03*
%TO.P,U1,13,12*%
%TO.N,unconnected-(U1-12-Pad13)*%
X86992500Y-57012500D03*
%TO.P,U1,14,13*%
%TO.N,unconnected-(U1-13-Pad14)*%
X89532500Y-57012500D03*
D18*
%TO.P,U1,15,14*%
%TO.N,unconnected-(U1-14-Pad15)*%
X92572500Y-56512500D03*
%TO.P,U1,16,15*%
%TO.N,encoder key S1*%
X92572500Y-53972500D03*
%TO.P,U1,17,26*%
%TO.N,Oled SDA*%
X92572500Y-51432500D03*
%TO.P,U1,18,27*%
%TO.N,Oled SCL*%
X92572500Y-48892500D03*
%TO.P,U1,19,28*%
%TO.N,encoder PIN A*%
X92572500Y-46352500D03*
%TO.P,U1,20,29*%
%TO.N,encoder PIN B*%
X92572500Y-43812500D03*
%TO.P,U1,21,3V3*%
%TO.N,VCC*%
X92572500Y-41272500D03*
%TO.P,U1,22,GND*%
%TO.N,Ground*%
X92572500Y-38732500D03*
%TO.P,U1,23,5V*%
%TO.N,VDD 5V LEDS*%
X92572500Y-36192500D03*
%TD*%
D16*
%TO.P,D1,1,K*%
%TO.N,Row 0*%
X82882500Y-76532500D03*
D17*
%TO.P,D1,2,A*%
%TO.N,Net-(D1-A)*%
X82882500Y-68912500D03*
%TD*%
D16*
%TO.P,D3,1,K*%
%TO.N,Row 0*%
X120982500Y-76532500D03*
D17*
%TO.P,D3,2,A*%
%TO.N,Net-(D3-A)*%
X120982500Y-68912500D03*
%TD*%
D16*
%TO.P,D8,1,K*%
%TO.N,Row 2*%
X101932500Y-114632500D03*
D17*
%TO.P,D8,2,A*%
%TO.N,Net-(D8-A)*%
X101932500Y-107012500D03*
%TD*%
D16*
%TO.P,D2,1,K*%
%TO.N,Row 0*%
X101932500Y-76532500D03*
D17*
%TO.P,D2,2,A*%
%TO.N,Net-(D2-A)*%
X101932500Y-68912500D03*
%TD*%
D16*
%TO.P,D4,1,K*%
%TO.N,Row 1*%
X82882500Y-95582500D03*
D17*
%TO.P,D4,2,A*%
%TO.N,Net-(D4-A)*%
X82882500Y-87962500D03*
%TD*%
D16*
%TO.P,D6,1,K*%
%TO.N,Row 1*%
X120982500Y-95582500D03*
D17*
%TO.P,D6,2,A*%
%TO.N,Net-(D6-A)*%
X120982500Y-87962500D03*
%TD*%
D20*
%TO.N,Oled SDA*%
X96106734Y-42542764D03*
%TO.N,Oled SCL*%
X95382982Y-43515046D03*
X97170000Y-35575000D03*
%TO.N,encoder PIN B*%
X94882982Y-45115046D03*
%TO.N,DIN LED*%
X66882982Y-53115046D03*
%TO.N,Net-(D12-DOUT)*%
X106882982Y-101115046D03*
X103382982Y-94115046D03*
%TO.N,Net-(D13-DOUT)*%
X91467982Y-101115046D03*
X107047500Y-106569055D03*
%TO.N,Net-(D14-DOUT)*%
X94882982Y-102615046D03*
X90882982Y-97615046D03*
X72552982Y-101115046D03*
X70782982Y-101115046D03*
%TO.N,VDD 5V LEDS*%
X97882982Y-39615046D03*
X89882982Y-102615046D03*
X99382982Y-84615046D03*
X98882982Y-54615046D03*
X96005952Y-39332500D03*
X96955264Y-43391294D03*
X98882982Y-48115046D03*
X107382982Y-121115046D03*
X89382982Y-99115046D03*
X104382982Y-114032500D03*
%TD*%
D21*
%TO.N,Row 1*%
X77882500Y-40222500D02*
X76832500Y-41272500D01*
X77882500Y-38297576D02*
X77882500Y-40222500D01*
X63432500Y-49647576D02*
X75397576Y-37682500D01*
X63432500Y-60664564D02*
X63432500Y-49647576D01*
X72382982Y-70491550D02*
X72382982Y-69615046D01*
X70189532Y-72685000D02*
X72382982Y-70491550D01*
X72382982Y-69615046D02*
X63432500Y-60664564D01*
X77267424Y-37682500D02*
X77882500Y-38297576D01*
X70189532Y-86209444D02*
X70189532Y-72685000D01*
X79562588Y-95582500D02*
X70189532Y-86209444D01*
X82882500Y-95582500D02*
X79562588Y-95582500D01*
X75397576Y-37682500D02*
X77267424Y-37682500D01*
%TO.N,Row 2*%
X78520000Y-38369390D02*
X78520000Y-42125000D01*
X78520000Y-42125000D02*
X76832500Y-43812500D01*
X75231890Y-37282500D02*
X77433110Y-37282500D01*
X63032500Y-49481890D02*
X75231890Y-37282500D01*
X63032500Y-110183750D02*
X63032500Y-49481890D01*
X67481250Y-114632500D02*
X63032500Y-110183750D01*
X82882500Y-114632500D02*
X67481250Y-114632500D01*
X77433110Y-37282500D02*
X78520000Y-38369390D01*
%TO.N,Row 0*%
X63832500Y-51732500D02*
X76832500Y-38732500D01*
X63832500Y-52983750D02*
X63832500Y-51732500D01*
X82882500Y-72033750D02*
X63832500Y-52983750D01*
X82882500Y-76532500D02*
X82882500Y-72033750D01*
%TO.N,Column 0*%
X69547500Y-71135000D02*
X69547500Y-109235000D01*
%TO.N,Column 1*%
X88597500Y-71135000D02*
X88597500Y-109235000D01*
%TO.N,Column 2*%
X107647500Y-71135000D02*
X107647500Y-109235000D01*
%TO.N,Oled SDA*%
X96106734Y-42542764D02*
X96106734Y-47398266D01*
X96106734Y-47398266D02*
X92072500Y-51432500D01*
%TO.N,Oled SCL*%
X86776500Y-35048500D02*
X96643500Y-35048500D01*
X94882982Y-44015046D02*
X94882982Y-44266517D01*
X96643500Y-35048500D02*
X97170000Y-35575000D01*
X95482982Y-44866517D02*
X95482982Y-45482018D01*
X94882982Y-44266517D02*
X95482982Y-44866517D01*
X95382982Y-43515046D02*
X94882982Y-44015046D01*
X95482982Y-45482018D02*
X92072500Y-48892500D01*
X85722500Y-36102500D02*
X86776500Y-35048500D01*
%TO.N,Ground*%
X100451250Y-36602500D02*
X99001250Y-38052500D01*
X97555264Y-43142765D02*
X93144999Y-38732500D01*
X99001250Y-38052500D02*
X94851890Y-38052500D01*
X94171890Y-38732500D02*
X92072500Y-38732500D01*
X115265000Y-37416250D02*
X114451250Y-36602500D01*
X93144999Y-38732500D02*
X92072500Y-38732500D01*
X100765000Y-46352500D02*
X99201250Y-46352500D01*
X80642500Y-36102500D02*
X83272500Y-38732500D01*
X114451250Y-36602500D02*
X100451250Y-36602500D01*
X94851890Y-38052500D02*
X94171890Y-38732500D01*
X97555264Y-44706514D02*
X97555264Y-43142765D01*
X83272500Y-38732500D02*
X92072500Y-38732500D01*
X99201250Y-46352500D02*
X97555264Y-44706514D01*
X115265000Y-43852500D02*
X115265000Y-37416250D01*
%TO.N,encoder key S1*%
X115382982Y-52615046D02*
X114025528Y-53972500D01*
X115382982Y-48970482D02*
X115382982Y-52615046D01*
X114025528Y-53972500D02*
X92072500Y-53972500D01*
X115265000Y-48852500D02*
X115382982Y-48970482D01*
%TO.N,encoder PIN B*%
X93375046Y-45115046D02*
X92072500Y-43812500D01*
X94882982Y-45115046D02*
X93375046Y-45115046D01*
X91741030Y-43812500D02*
X92072500Y-43812500D01*
%TO.N,DIN LED*%
X66882982Y-53115046D02*
X75975046Y-53115046D01*
X75975046Y-53115046D02*
X76832500Y-53972500D01*
%TO.N,Net-(D12-DOUT)*%
X103382982Y-97615046D02*
X106882982Y-101115046D01*
X103382982Y-94115046D02*
X103382982Y-97615046D01*
%TO.N,Net-(D13-DOUT)*%
X104496029Y-104017584D02*
X94370520Y-104017584D01*
X94370520Y-104017584D02*
X91467982Y-101115046D01*
X107047500Y-106569055D02*
X104496029Y-104017584D01*
%TO.N,Net-(D14-DOUT)*%
X70782982Y-101115046D02*
X72552982Y-101115046D01*
X94882982Y-102615046D02*
X94882982Y-101615046D01*
X94882982Y-101615046D02*
X90882982Y-97615046D01*
%TO.N,VDD 5V LEDS*%
X100382982Y-81115046D02*
X100382982Y-56115046D01*
X99382982Y-84615046D02*
X99382982Y-82115046D01*
X96288498Y-39615046D02*
X96005952Y-39332500D01*
X89882982Y-99615046D02*
X89882982Y-102615046D01*
X100382982Y-56115046D02*
X98882982Y-54615046D01*
X99382982Y-82115046D02*
X100382982Y-81115046D01*
X96955264Y-46187328D02*
X96955264Y-43391294D01*
X98882982Y-48115046D02*
X96955264Y-46187328D01*
X104382982Y-118115046D02*
X107382982Y-121115046D01*
X89382982Y-99115046D02*
X89882982Y-99615046D01*
X97882982Y-39615046D02*
X96288498Y-39615046D01*
X104382982Y-114032500D02*
X104382982Y-118115046D01*
%TD*%
%TA.AperFunction,NonConductor*%
G36*
X123893789Y-34122685D02*
G01*
X123939544Y-34175489D01*
X123950750Y-34227000D01*
X123950750Y-123978000D01*
X123931065Y-124045039D01*
X123878261Y-124090794D01*
X123826750Y-124102000D01*
X61075750Y-124102000D01*
X61008711Y-124082315D01*
X60962956Y-124029511D01*
X60951750Y-123978000D01*
X60951750Y-121602500D01*
X62545801Y-121602500D01*
X62565567Y-121853651D01*
X62624376Y-122098610D01*
X62720783Y-122331359D01*
X62852410Y-122546153D01*
X62852411Y-122546156D01*
X62852414Y-122546159D01*
X63016026Y-122737724D01*
X63164316Y-122864375D01*
X63207593Y-122901338D01*
X63207596Y-122901339D01*
X63422390Y-123032966D01*
X63655139Y-123129373D01*
X63900102Y-123188183D01*
X64151250Y-123207949D01*
X64402398Y-123188183D01*
X64647361Y-123129373D01*
X64880109Y-123032966D01*
X65094909Y-122901336D01*
X65286474Y-122737724D01*
X65450086Y-122546159D01*
X65581716Y-122331359D01*
X65678123Y-122098611D01*
X65736933Y-121853648D01*
X65756699Y-121602500D01*
X65736933Y-121351352D01*
X65678123Y-121106389D01*
X65635298Y-121003000D01*
X65581716Y-120873640D01*
X65450089Y-120658846D01*
X65450088Y-120658843D01*
X65410749Y-120612783D01*
X65286474Y-120467276D01*
X65159821Y-120359104D01*
X65094906Y-120303661D01*
X65094903Y-120303660D01*
X64880109Y-120172033D01*
X64647360Y-120075626D01*
X64402401Y-120016817D01*
X64151250Y-119997051D01*
X63900098Y-120016817D01*
X63655139Y-120075626D01*
X63422390Y-120172033D01*
X63207596Y-120303660D01*
X63207593Y-120303661D01*
X63016026Y-120467276D01*
X62852411Y-120658843D01*
X62852410Y-120658846D01*
X62720783Y-120873640D01*
X62624376Y-121106389D01*
X62565567Y-121351348D01*
X62545801Y-121602500D01*
X60951750Y-121602500D01*
X60951750Y-110262804D01*
X62431998Y-110262804D01*
X62472923Y-110415536D01*
X62472924Y-110415537D01*
X62495540Y-110454709D01*
X62551980Y-110552466D01*
X62551982Y-110552468D01*
X62670849Y-110671335D01*
X62670854Y-110671339D01*
X67112534Y-115113020D01*
X67112536Y-115113021D01*
X67112540Y-115113024D01*
X67249459Y-115192073D01*
X67249466Y-115192077D01*
X67402193Y-115233001D01*
X67402195Y-115233001D01*
X67567904Y-115233001D01*
X67567920Y-115233000D01*
X81458001Y-115233000D01*
X81525040Y-115252685D01*
X81570795Y-115305489D01*
X81582001Y-115357000D01*
X81582001Y-115480376D01*
X81588408Y-115539983D01*
X81638702Y-115674828D01*
X81638706Y-115674835D01*
X81724952Y-115790044D01*
X81724955Y-115790047D01*
X81840164Y-115876293D01*
X81840171Y-115876297D01*
X81975017Y-115926591D01*
X81975016Y-115926591D01*
X81981944Y-115927335D01*
X82034627Y-115933000D01*
X83730372Y-115932999D01*
X83789983Y-115926591D01*
X83924831Y-115876296D01*
X84040046Y-115790046D01*
X84126296Y-115674831D01*
X84176591Y-115539983D01*
X84183000Y-115480373D01*
X84182999Y-113784628D01*
X84176591Y-113725017D01*
X84160911Y-113682978D01*
X84126297Y-113590171D01*
X84126293Y-113590164D01*
X84040047Y-113474955D01*
X84040044Y-113474952D01*
X83924835Y-113388706D01*
X83924828Y-113388702D01*
X83789982Y-113338408D01*
X83789983Y-113338408D01*
X83730383Y-113332001D01*
X83730381Y-113332000D01*
X83730373Y-113332000D01*
X83730364Y-113332000D01*
X82034629Y-113332000D01*
X82034623Y-113332001D01*
X81975016Y-113338408D01*
X81840171Y-113388702D01*
X81840164Y-113388706D01*
X81724955Y-113474952D01*
X81724952Y-113474955D01*
X81638706Y-113590164D01*
X81638702Y-113590171D01*
X81588408Y-113725017D01*
X81582001Y-113784616D01*
X81582001Y-113784623D01*
X81582000Y-113784635D01*
X81582000Y-113908000D01*
X81562315Y-113975039D01*
X81509511Y-114020794D01*
X81458000Y-114032000D01*
X74411788Y-114032000D01*
X74344749Y-114012315D01*
X74298994Y-113959511D01*
X74289050Y-113890353D01*
X74318075Y-113826797D01*
X74351979Y-113800618D01*
X74351491Y-113799773D01*
X74377744Y-113784616D01*
X74610494Y-113650238D01*
X74844542Y-113470646D01*
X75053146Y-113262042D01*
X75232738Y-113027994D01*
X75380243Y-112772507D01*
X75493139Y-112499952D01*
X75569493Y-112214993D01*
X75608000Y-111922506D01*
X75608000Y-111686421D01*
X77312000Y-111686421D01*
X77312000Y-111863578D01*
X77339714Y-112038556D01*
X77394456Y-112207039D01*
X77394457Y-112207042D01*
X77474886Y-112364890D01*
X77579017Y-112508214D01*
X77704286Y-112633483D01*
X77847610Y-112737614D01*
X77916077Y-112772500D01*
X78005457Y-112818042D01*
X78005460Y-112818043D01*
X78089701Y-112845414D01*
X78173945Y-112872786D01*
X78348921Y-112900500D01*
X78348922Y-112900500D01*
X78526078Y-112900500D01*
X78526079Y-112900500D01*
X78701055Y-112872786D01*
X78869542Y-112818042D01*
X79027390Y-112737614D01*
X79170714Y-112633483D01*
X79295983Y-112508214D01*
X79400114Y-112364890D01*
X79480542Y-112207042D01*
X79535286Y-112038555D01*
X79563000Y-111863579D01*
X79563000Y-111686421D01*
X79535286Y-111511445D01*
X79480542Y-111342958D01*
X79480542Y-111342957D01*
X79400113Y-111185109D01*
X79389701Y-111170778D01*
X79295983Y-111041786D01*
X79170714Y-110916517D01*
X79027390Y-110812386D01*
X78869542Y-110731957D01*
X78869539Y-110731956D01*
X78701056Y-110677214D01*
X78613567Y-110663357D01*
X78526079Y-110649500D01*
X78348921Y-110649500D01*
X78290595Y-110658738D01*
X78173943Y-110677214D01*
X78005460Y-110731956D01*
X78005457Y-110731957D01*
X77847609Y-110812386D01*
X77769604Y-110869061D01*
X77704286Y-110916517D01*
X77704284Y-110916519D01*
X77704283Y-110916519D01*
X77579019Y-111041783D01*
X77579019Y-111041784D01*
X77579017Y-111041786D01*
X77534296Y-111103338D01*
X77474886Y-111185109D01*
X77394457Y-111342957D01*
X77394456Y-111342960D01*
X77339714Y-111511443D01*
X77312000Y-111686421D01*
X75608000Y-111686421D01*
X75608000Y-111627494D01*
X75569493Y-111335007D01*
X75493139Y-111050048D01*
X75380243Y-110777493D01*
X75367388Y-110755228D01*
X75232738Y-110522006D01*
X75053147Y-110287959D01*
X75053141Y-110287952D01*
X74844547Y-110079358D01*
X74844540Y-110079352D01*
X74610493Y-109899761D01*
X74355010Y-109752258D01*
X74355000Y-109752254D01*
X74082461Y-109639364D01*
X74082454Y-109639362D01*
X74082452Y-109639361D01*
X73797493Y-109563007D01*
X73748613Y-109556571D01*
X73505013Y-109524500D01*
X73505006Y-109524500D01*
X73209994Y-109524500D01*
X73209986Y-109524500D01*
X72931585Y-109561153D01*
X72917507Y-109563007D01*
X72632548Y-109639361D01*
X72632538Y-109639364D01*
X72359999Y-109752254D01*
X72359989Y-109752258D01*
X72104506Y-109899761D01*
X71870459Y-110079352D01*
X71870452Y-110079358D01*
X71661858Y-110287952D01*
X71661852Y-110287959D01*
X71482261Y-110522006D01*
X71334758Y-110777489D01*
X71334754Y-110777499D01*
X71221864Y-111050038D01*
X71221861Y-111050048D01*
X71185672Y-111185110D01*
X71145508Y-111335004D01*
X71145506Y-111335015D01*
X71107000Y-111627486D01*
X71107000Y-111922513D01*
X71122278Y-112038555D01*
X71145507Y-112214993D01*
X71221861Y-112499951D01*
X71221864Y-112499961D01*
X71334754Y-112772500D01*
X71334758Y-112772510D01*
X71482261Y-113027993D01*
X71661852Y-113262040D01*
X71661858Y-113262047D01*
X71870452Y-113470641D01*
X71870459Y-113470647D01*
X72104506Y-113650238D01*
X72363509Y-113799773D01*
X72362744Y-113801097D01*
X72409481Y-113844102D01*
X72427157Y-113911699D01*
X72405481Y-113978121D01*
X72351336Y-114022281D01*
X72303212Y-114032000D01*
X67781348Y-114032000D01*
X67714309Y-114012315D01*
X67693667Y-113995681D01*
X63669319Y-109971333D01*
X63635834Y-109910010D01*
X63633000Y-109883652D01*
X63633000Y-62013661D01*
X63652685Y-61946622D01*
X63705489Y-61900867D01*
X63774647Y-61890923D01*
X63838203Y-61919948D01*
X63844681Y-61925980D01*
X71746163Y-69827462D01*
X71779648Y-69888785D01*
X71782482Y-69915143D01*
X71782482Y-70191451D01*
X71762797Y-70258490D01*
X71746163Y-70279132D01*
X71410357Y-70614937D01*
X71349034Y-70648422D01*
X71279342Y-70643438D01*
X71223409Y-70601566D01*
X71207250Y-70572561D01*
X71129068Y-70373357D01*
X70997886Y-70146143D01*
X70834305Y-69941019D01*
X70834304Y-69941018D01*
X70834301Y-69941014D01*
X70641979Y-69762567D01*
X70425204Y-69614772D01*
X70425200Y-69614770D01*
X70425197Y-69614768D01*
X70425196Y-69614767D01*
X70188825Y-69500938D01*
X70188827Y-69500938D01*
X69938123Y-69423606D01*
X69938119Y-69423605D01*
X69938115Y-69423604D01*
X69813323Y-69404794D01*
X69678687Y-69384500D01*
X69678682Y-69384500D01*
X69416318Y-69384500D01*
X69416312Y-69384500D01*
X69254747Y-69408853D01*
X69156885Y-69423604D01*
X69156882Y-69423605D01*
X69156876Y-69423606D01*
X68906173Y-69500938D01*
X68669803Y-69614767D01*
X68669802Y-69614768D01*
X68453020Y-69762567D01*
X68260698Y-69941014D01*
X68097114Y-70146143D01*
X67965932Y-70373356D01*
X67870082Y-70617578D01*
X67870076Y-70617597D01*
X67811697Y-70873374D01*
X67811696Y-70873379D01*
X67792092Y-71134995D01*
X67792092Y-71135004D01*
X67811696Y-71396620D01*
X67811697Y-71396625D01*
X67870076Y-71652402D01*
X67870078Y-71652411D01*
X67870080Y-71652416D01*
X67965932Y-71896643D01*
X68097114Y-72123857D01*
X68148233Y-72187958D01*
X68260697Y-72328984D01*
X68266877Y-72334717D01*
X68302633Y-72394744D01*
X68300260Y-72464574D01*
X68260511Y-72522035D01*
X68196006Y-72548884D01*
X68192288Y-72549234D01*
X68188928Y-72549498D01*
X68013943Y-72577214D01*
X67845460Y-72631956D01*
X67845457Y-72631957D01*
X67687609Y-72712386D01*
X67629072Y-72754916D01*
X67544286Y-72816517D01*
X67544284Y-72816519D01*
X67544283Y-72816519D01*
X67419019Y-72941783D01*
X67419019Y-72941784D01*
X67419017Y-72941786D01*
X67387550Y-72985097D01*
X67314886Y-73085109D01*
X67234457Y-73242957D01*
X67234456Y-73242960D01*
X67179714Y-73411443D01*
X67152000Y-73586421D01*
X67152000Y-73763578D01*
X67179714Y-73938556D01*
X67234456Y-74107039D01*
X67234457Y-74107042D01*
X67314886Y-74264890D01*
X67419017Y-74408214D01*
X67544286Y-74533483D01*
X67687610Y-74637614D01*
X67756077Y-74672500D01*
X67845457Y-74718042D01*
X67845460Y-74718043D01*
X67929701Y-74745414D01*
X68013945Y-74772786D01*
X68188921Y-74800500D01*
X68188922Y-74800500D01*
X68366078Y-74800500D01*
X68366079Y-74800500D01*
X68541055Y-74772786D01*
X68709542Y-74718042D01*
X68766705Y-74688915D01*
X68835373Y-74676019D01*
X68900113Y-74702294D01*
X68940371Y-74759400D01*
X68947000Y-74799400D01*
X68947000Y-88453363D01*
X68927315Y-88520402D01*
X68876802Y-88565083D01*
X68669800Y-88664769D01*
X68453020Y-88812567D01*
X68260698Y-88991014D01*
X68097114Y-89196143D01*
X67965932Y-89423356D01*
X67870082Y-89667578D01*
X67870076Y-89667597D01*
X67811697Y-89923374D01*
X67811696Y-89923379D01*
X67792092Y-90184995D01*
X67792092Y-90185004D01*
X67811696Y-90446620D01*
X67811697Y-90446625D01*
X67870076Y-90702402D01*
X67870078Y-90702411D01*
X67870080Y-90702416D01*
X67965932Y-90946643D01*
X68097114Y-91173857D01*
X68148233Y-91237958D01*
X68260697Y-91378984D01*
X68266877Y-91384717D01*
X68302633Y-91444744D01*
X68300260Y-91514574D01*
X68260511Y-91572035D01*
X68196006Y-91598884D01*
X68192288Y-91599234D01*
X68188928Y-91599498D01*
X68013943Y-91627214D01*
X67845460Y-91681956D01*
X67845457Y-91681957D01*
X67687609Y-91762386D01*
X67629072Y-91804916D01*
X67544286Y-91866517D01*
X67544284Y-91866519D01*
X67544283Y-91866519D01*
X67419019Y-91991783D01*
X67419019Y-91991784D01*
X67419017Y-91991786D01*
X67374296Y-92053338D01*
X67314886Y-92135109D01*
X67234457Y-92292957D01*
X67234456Y-92292960D01*
X67179714Y-92461443D01*
X67152000Y-92636421D01*
X67152000Y-92813578D01*
X67179714Y-92988556D01*
X67234456Y-93157039D01*
X67234457Y-93157042D01*
X67312130Y-93309481D01*
X67314886Y-93314890D01*
X67419017Y-93458214D01*
X67544286Y-93583483D01*
X67687610Y-93687614D01*
X67756077Y-93722500D01*
X67845457Y-93768042D01*
X67845460Y-93768043D01*
X67929701Y-93795414D01*
X68013945Y-93822786D01*
X68188921Y-93850500D01*
X68188922Y-93850500D01*
X68366078Y-93850500D01*
X68366079Y-93850500D01*
X68541055Y-93822786D01*
X68709542Y-93768042D01*
X68766705Y-93738915D01*
X68835373Y-93726019D01*
X68900113Y-93752294D01*
X68940371Y-93809400D01*
X68947000Y-93849400D01*
X68947000Y-107503363D01*
X68927315Y-107570402D01*
X68876802Y-107615083D01*
X68669800Y-107714769D01*
X68453020Y-107862567D01*
X68260698Y-108041014D01*
X68097114Y-108246143D01*
X67965932Y-108473356D01*
X67870082Y-108717578D01*
X67870076Y-108717597D01*
X67811697Y-108973374D01*
X67811696Y-108973379D01*
X67792092Y-109234995D01*
X67792092Y-109235004D01*
X67811696Y-109496620D01*
X67811697Y-109496625D01*
X67870076Y-109752402D01*
X67870078Y-109752411D01*
X67870080Y-109752416D01*
X67965932Y-109996643D01*
X68097114Y-110223857D01*
X68148233Y-110287958D01*
X68260697Y-110428984D01*
X68266877Y-110434717D01*
X68302633Y-110494744D01*
X68300260Y-110564574D01*
X68260511Y-110622035D01*
X68196006Y-110648884D01*
X68192288Y-110649234D01*
X68188928Y-110649498D01*
X68013943Y-110677214D01*
X67845460Y-110731956D01*
X67845457Y-110731957D01*
X67687609Y-110812386D01*
X67609604Y-110869061D01*
X67544286Y-110916517D01*
X67544284Y-110916519D01*
X67544283Y-110916519D01*
X67419019Y-111041783D01*
X67419019Y-111041784D01*
X67419017Y-111041786D01*
X67374296Y-111103338D01*
X67314886Y-111185109D01*
X67234457Y-111342957D01*
X67234456Y-111342960D01*
X67179714Y-111511443D01*
X67152000Y-111686421D01*
X67152000Y-111863578D01*
X67179714Y-112038556D01*
X67234456Y-112207039D01*
X67234457Y-112207042D01*
X67314886Y-112364890D01*
X67419017Y-112508214D01*
X67544286Y-112633483D01*
X67687610Y-112737614D01*
X67756077Y-112772500D01*
X67845457Y-112818042D01*
X67845460Y-112818043D01*
X67929701Y-112845414D01*
X68013945Y-112872786D01*
X68188921Y-112900500D01*
X68188922Y-112900500D01*
X68366078Y-112900500D01*
X68366079Y-112900500D01*
X68541055Y-112872786D01*
X68709542Y-112818042D01*
X68867390Y-112737614D01*
X69010714Y-112633483D01*
X69135983Y-112508214D01*
X69240114Y-112364890D01*
X69320542Y-112207042D01*
X69375286Y-112038555D01*
X69403000Y-111863579D01*
X69403000Y-111686421D01*
X69375286Y-111511445D01*
X69320542Y-111342958D01*
X69320542Y-111342957D01*
X69292690Y-111288295D01*
X69240114Y-111185110D01*
X69239029Y-111183617D01*
X69229702Y-111170778D01*
X69206222Y-111104972D01*
X69222048Y-111036918D01*
X69272154Y-110988223D01*
X69340632Y-110974348D01*
X69348492Y-110975276D01*
X69416318Y-110985500D01*
X69678682Y-110985500D01*
X69938115Y-110946396D01*
X70188823Y-110869063D01*
X70425204Y-110755228D01*
X70641979Y-110607433D01*
X70834305Y-110428981D01*
X70997886Y-110223857D01*
X71129068Y-109996643D01*
X71224920Y-109752416D01*
X71283302Y-109496630D01*
X71302908Y-109235000D01*
X71283302Y-108973370D01*
X71224920Y-108717584D01*
X71129068Y-108473357D01*
X70997886Y-108246143D01*
X70834305Y-108041019D01*
X70834304Y-108041018D01*
X70834301Y-108041014D01*
X70641979Y-107862567D01*
X70425204Y-107714772D01*
X70425201Y-107714771D01*
X70425199Y-107714769D01*
X70218198Y-107615083D01*
X70166339Y-107568261D01*
X70148000Y-107503363D01*
X70148000Y-106694995D01*
X74142092Y-106694995D01*
X74142092Y-106695004D01*
X74161696Y-106956620D01*
X74161697Y-106956625D01*
X74220076Y-107212402D01*
X74220078Y-107212411D01*
X74220080Y-107212416D01*
X74315932Y-107456643D01*
X74447114Y-107683857D01*
X74579236Y-107849533D01*
X74610698Y-107888985D01*
X74774548Y-108041014D01*
X74803021Y-108067433D01*
X75019796Y-108215228D01*
X75019801Y-108215230D01*
X75019802Y-108215231D01*
X75019803Y-108215232D01*
X75145343Y-108275688D01*
X75256173Y-108329061D01*
X75256174Y-108329061D01*
X75256177Y-108329063D01*
X75506885Y-108406396D01*
X75766318Y-108445500D01*
X76028682Y-108445500D01*
X76288115Y-108406396D01*
X76538823Y-108329063D01*
X76775204Y-108215228D01*
X76991979Y-108067433D01*
X77184305Y-107888981D01*
X77347886Y-107683857D01*
X77479068Y-107456643D01*
X77574920Y-107212416D01*
X77620550Y-107012498D01*
X81577032Y-107012498D01*
X81577032Y-107012501D01*
X81596864Y-107239186D01*
X81596866Y-107239197D01*
X81655758Y-107458988D01*
X81655761Y-107458997D01*
X81751931Y-107665232D01*
X81751932Y-107665234D01*
X81882454Y-107851641D01*
X82043358Y-108012545D01*
X82043361Y-108012547D01*
X82229766Y-108143068D01*
X82436004Y-108239239D01*
X82655808Y-108298135D01*
X82817730Y-108312301D01*
X82882498Y-108317968D01*
X82882500Y-108317968D01*
X82882502Y-108317968D01*
X82939173Y-108313009D01*
X83109192Y-108298135D01*
X83328996Y-108239239D01*
X83535234Y-108143068D01*
X83721639Y-108012547D01*
X83882547Y-107851639D01*
X84013068Y-107665234D01*
X84109239Y-107458996D01*
X84168135Y-107239192D01*
X84187968Y-107012500D01*
X84168135Y-106785808D01*
X84109239Y-106566004D01*
X84013068Y-106359766D01*
X83882547Y-106173361D01*
X83882545Y-106173358D01*
X83721641Y-106012454D01*
X83535234Y-105881932D01*
X83535232Y-105881931D01*
X83328997Y-105785761D01*
X83328988Y-105785758D01*
X83109197Y-105726866D01*
X83109193Y-105726865D01*
X83109192Y-105726865D01*
X83109191Y-105726864D01*
X83109186Y-105726864D01*
X82882502Y-105707032D01*
X82882498Y-105707032D01*
X82655813Y-105726864D01*
X82655802Y-105726866D01*
X82436011Y-105785758D01*
X82436002Y-105785761D01*
X82229767Y-105881931D01*
X82229765Y-105881932D01*
X82043358Y-106012454D01*
X81882454Y-106173358D01*
X81751932Y-106359765D01*
X81751931Y-106359767D01*
X81655761Y-106566002D01*
X81655758Y-106566011D01*
X81596866Y-106785802D01*
X81596864Y-106785813D01*
X81577032Y-107012498D01*
X77620550Y-107012498D01*
X77633302Y-106956630D01*
X77646103Y-106785808D01*
X77652908Y-106695004D01*
X77652908Y-106694995D01*
X77633303Y-106433379D01*
X77633302Y-106433374D01*
X77633302Y-106433370D01*
X77574920Y-106177584D01*
X77479068Y-105933357D01*
X77347886Y-105706143D01*
X77184305Y-105501019D01*
X77184304Y-105501018D01*
X77184301Y-105501014D01*
X76991979Y-105322567D01*
X76775204Y-105174772D01*
X76775200Y-105174770D01*
X76775197Y-105174768D01*
X76775196Y-105174767D01*
X76538825Y-105060938D01*
X76538827Y-105060938D01*
X76288123Y-104983606D01*
X76288119Y-104983605D01*
X76288115Y-104983604D01*
X76163323Y-104964794D01*
X76028687Y-104944500D01*
X76028682Y-104944500D01*
X75766318Y-104944500D01*
X75766312Y-104944500D01*
X75604747Y-104968853D01*
X75506885Y-104983604D01*
X75506882Y-104983605D01*
X75506876Y-104983606D01*
X75256173Y-105060938D01*
X75019803Y-105174767D01*
X75019802Y-105174768D01*
X74803020Y-105322567D01*
X74610698Y-105501014D01*
X74447114Y-105706143D01*
X74315932Y-105933356D01*
X74220082Y-106177578D01*
X74220076Y-106177597D01*
X74161697Y-106433374D01*
X74161696Y-106433379D01*
X74142092Y-106694995D01*
X70148000Y-106694995D01*
X70148000Y-102602500D01*
X80845801Y-102602500D01*
X80865567Y-102853651D01*
X80924376Y-103098610D01*
X81020783Y-103331359D01*
X81152410Y-103546153D01*
X81152411Y-103546156D01*
X81152414Y-103546159D01*
X81316026Y-103737724D01*
X81464316Y-103864375D01*
X81507593Y-103901338D01*
X81507596Y-103901339D01*
X81722390Y-104032966D01*
X81955139Y-104129373D01*
X82200102Y-104188183D01*
X82451250Y-104207949D01*
X82702398Y-104188183D01*
X82947361Y-104129373D01*
X83180109Y-104032966D01*
X83394909Y-103901336D01*
X83586474Y-103737724D01*
X83750086Y-103546159D01*
X83881716Y-103331359D01*
X83978123Y-103098611D01*
X84036933Y-102853648D01*
X84056699Y-102602500D01*
X84036933Y-102351352D01*
X83978123Y-102106389D01*
X83958372Y-102058705D01*
X83881716Y-101873640D01*
X83750089Y-101658846D01*
X83750088Y-101658843D01*
X83647695Y-101538957D01*
X83586474Y-101467276D01*
X83459821Y-101359104D01*
X83394906Y-101303661D01*
X83394903Y-101303660D01*
X83180109Y-101172033D01*
X82947360Y-101075626D01*
X82702401Y-101016817D01*
X82451250Y-100997051D01*
X82200098Y-101016817D01*
X81955139Y-101075626D01*
X81722390Y-101172033D01*
X81507596Y-101303660D01*
X81507593Y-101303661D01*
X81316026Y-101467276D01*
X81152411Y-101658843D01*
X81152410Y-101658846D01*
X81020783Y-101873640D01*
X80924376Y-102106389D01*
X80865567Y-102351348D01*
X80845801Y-102602500D01*
X70148000Y-102602500D01*
X70148000Y-101885829D01*
X70167685Y-101818790D01*
X70220489Y-101773035D01*
X70289647Y-101763091D01*
X70337971Y-101780835D01*
X70371576Y-101801951D01*
X70433457Y-101840834D01*
X70603727Y-101900414D01*
X70603732Y-101900415D01*
X70782978Y-101920611D01*
X70782982Y-101920611D01*
X70782986Y-101920611D01*
X70962231Y-101900415D01*
X70962234Y-101900414D01*
X70962237Y-101900414D01*
X71132504Y-101840835D01*
X71285244Y-101744862D01*
X71285249Y-101744856D01*
X71288079Y-101742601D01*
X71290257Y-101741711D01*
X71291140Y-101741157D01*
X71291237Y-101741311D01*
X71352765Y-101716191D01*
X71365394Y-101715546D01*
X71970570Y-101715546D01*
X72037609Y-101735231D01*
X72047885Y-101742601D01*
X72050718Y-101744860D01*
X72050720Y-101744862D01*
X72203460Y-101840835D01*
X72340493Y-101888785D01*
X72373727Y-101900414D01*
X72373732Y-101900415D01*
X72552978Y-101920611D01*
X72552982Y-101920611D01*
X72552986Y-101920611D01*
X72732231Y-101900415D01*
X72732234Y-101900414D01*
X72732237Y-101900414D01*
X72902504Y-101840835D01*
X73055244Y-101744862D01*
X73182798Y-101617308D01*
X73278771Y-101464568D01*
X73338350Y-101294301D01*
X73348144Y-101207376D01*
X73358547Y-101115049D01*
X73358547Y-101115042D01*
X73338351Y-100935796D01*
X73338350Y-100935791D01*
X73325316Y-100898542D01*
X73278771Y-100765524D01*
X73182798Y-100612784D01*
X73055244Y-100485230D01*
X72995815Y-100447888D01*
X72902505Y-100389257D01*
X72732236Y-100329677D01*
X72732231Y-100329676D01*
X72552986Y-100309481D01*
X72552978Y-100309481D01*
X72373732Y-100329676D01*
X72373727Y-100329677D01*
X72203458Y-100389257D01*
X72050718Y-100485231D01*
X72047885Y-100487491D01*
X72045706Y-100488380D01*
X72044824Y-100488935D01*
X72044726Y-100488780D01*
X71983199Y-100513901D01*
X71970570Y-100514546D01*
X71365394Y-100514546D01*
X71298355Y-100494861D01*
X71288079Y-100487491D01*
X71285245Y-100485231D01*
X71285244Y-100485230D01*
X71225815Y-100447888D01*
X71132505Y-100389257D01*
X70962236Y-100329677D01*
X70962231Y-100329676D01*
X70782986Y-100309481D01*
X70782978Y-100309481D01*
X70603732Y-100329676D01*
X70603727Y-100329677D01*
X70433458Y-100389257D01*
X70337972Y-100449256D01*
X70270735Y-100468256D01*
X70203900Y-100447888D01*
X70158686Y-100394620D01*
X70148000Y-100344262D01*
X70148000Y-91916636D01*
X70167685Y-91849597D01*
X70218198Y-91804916D01*
X70425204Y-91705228D01*
X70641979Y-91557433D01*
X70834305Y-91378981D01*
X70997886Y-91173857D01*
X71129068Y-90946643D01*
X71224920Y-90702416D01*
X71283302Y-90446630D01*
X71283303Y-90446620D01*
X71302908Y-90185004D01*
X71302908Y-90184995D01*
X71283303Y-89923379D01*
X71283302Y-89923374D01*
X71283302Y-89923370D01*
X71224920Y-89667584D01*
X71129068Y-89423357D01*
X70997886Y-89196143D01*
X70834305Y-88991019D01*
X70834304Y-88991018D01*
X70834301Y-88991014D01*
X70641979Y-88812567D01*
X70425204Y-88664772D01*
X70425201Y-88664771D01*
X70425199Y-88664769D01*
X70218198Y-88565083D01*
X70166339Y-88518261D01*
X70148000Y-88453363D01*
X70148000Y-87316509D01*
X70167685Y-87249470D01*
X70220489Y-87203715D01*
X70289647Y-87193771D01*
X70353203Y-87222796D01*
X70359681Y-87228828D01*
X73393672Y-90262819D01*
X73427157Y-90324142D01*
X73422173Y-90393834D01*
X73380301Y-90449767D01*
X73314837Y-90474184D01*
X73305991Y-90474500D01*
X73209986Y-90474500D01*
X72931585Y-90511153D01*
X72917507Y-90513007D01*
X72632548Y-90589361D01*
X72632538Y-90589364D01*
X72359999Y-90702254D01*
X72359989Y-90702258D01*
X72104506Y-90849761D01*
X71870459Y-91029352D01*
X71870452Y-91029358D01*
X71661858Y-91237952D01*
X71661852Y-91237959D01*
X71482261Y-91472006D01*
X71334758Y-91727489D01*
X71334754Y-91727499D01*
X71221864Y-92000038D01*
X71221861Y-92000048D01*
X71185672Y-92135110D01*
X71145508Y-92285004D01*
X71145506Y-92285015D01*
X71107000Y-92577486D01*
X71107000Y-92872513D01*
X71122278Y-92988555D01*
X71145507Y-93164993D01*
X71189634Y-93329677D01*
X71221861Y-93449951D01*
X71221864Y-93449961D01*
X71334754Y-93722500D01*
X71334758Y-93722510D01*
X71482261Y-93977993D01*
X71661852Y-94212040D01*
X71661858Y-94212047D01*
X71870452Y-94420641D01*
X71870459Y-94420647D01*
X72104506Y-94600238D01*
X72359989Y-94747741D01*
X72359990Y-94747741D01*
X72359993Y-94747743D01*
X72632548Y-94860639D01*
X72917507Y-94936993D01*
X73209994Y-94975500D01*
X73210001Y-94975500D01*
X73504999Y-94975500D01*
X73505006Y-94975500D01*
X73797493Y-94936993D01*
X74082452Y-94860639D01*
X74355007Y-94747743D01*
X74610494Y-94600238D01*
X74844542Y-94420646D01*
X75053146Y-94212042D01*
X75232738Y-93977994D01*
X75380243Y-93722507D01*
X75493139Y-93449952D01*
X75569493Y-93164993D01*
X75608000Y-92872506D01*
X75608000Y-92776509D01*
X75627685Y-92709470D01*
X75680489Y-92663715D01*
X75749647Y-92653771D01*
X75813203Y-92682796D01*
X75819681Y-92688828D01*
X79077727Y-95946874D01*
X79077737Y-95946885D01*
X79082067Y-95951215D01*
X79082068Y-95951216D01*
X79193872Y-96063020D01*
X79280683Y-96113139D01*
X79280685Y-96113141D01*
X79318739Y-96135111D01*
X79330803Y-96142077D01*
X79483531Y-96183001D01*
X79483534Y-96183001D01*
X79649241Y-96183001D01*
X79649257Y-96183000D01*
X81458001Y-96183000D01*
X81525040Y-96202685D01*
X81570795Y-96255489D01*
X81582001Y-96307000D01*
X81582001Y-96430376D01*
X81588408Y-96489983D01*
X81638702Y-96624828D01*
X81638706Y-96624835D01*
X81724952Y-96740044D01*
X81724955Y-96740047D01*
X81840164Y-96826293D01*
X81840171Y-96826297D01*
X81975017Y-96876591D01*
X81975016Y-96876591D01*
X81981944Y-96877335D01*
X82034627Y-96883000D01*
X83730372Y-96882999D01*
X83789983Y-96876591D01*
X83924831Y-96826296D01*
X84040046Y-96740046D01*
X84126296Y-96624831D01*
X84176591Y-96489983D01*
X84183000Y-96430373D01*
X84182999Y-94734628D01*
X84176591Y-94675017D01*
X84156124Y-94620143D01*
X84126297Y-94540171D01*
X84126293Y-94540164D01*
X84040047Y-94424955D01*
X84040044Y-94424952D01*
X83924835Y-94338706D01*
X83924828Y-94338702D01*
X83789982Y-94288408D01*
X83789983Y-94288408D01*
X83730383Y-94282001D01*
X83730381Y-94282000D01*
X83730373Y-94282000D01*
X83730364Y-94282000D01*
X82034629Y-94282000D01*
X82034623Y-94282001D01*
X81975016Y-94288408D01*
X81840171Y-94338702D01*
X81840164Y-94338706D01*
X81724955Y-94424952D01*
X81724952Y-94424955D01*
X81638706Y-94540164D01*
X81638702Y-94540171D01*
X81588408Y-94675017D01*
X81585996Y-94697458D01*
X81582001Y-94734623D01*
X81582000Y-94734635D01*
X81582000Y-94858000D01*
X81562315Y-94925039D01*
X81509511Y-94970794D01*
X81458000Y-94982000D01*
X79862685Y-94982000D01*
X79795646Y-94962315D01*
X79775004Y-94945681D01*
X78807195Y-93977872D01*
X78773710Y-93916549D01*
X78778694Y-93846857D01*
X78820566Y-93790924D01*
X78856562Y-93772259D01*
X78869542Y-93768042D01*
X79027390Y-93687614D01*
X79170714Y-93583483D01*
X79295983Y-93458214D01*
X79400114Y-93314890D01*
X79480542Y-93157042D01*
X79535286Y-92988555D01*
X79563000Y-92813579D01*
X79563000Y-92636421D01*
X79535286Y-92461445D01*
X79480542Y-92292958D01*
X79480542Y-92292957D01*
X79400113Y-92135109D01*
X79295983Y-91991786D01*
X79170714Y-91866517D01*
X79027390Y-91762386D01*
X78869542Y-91681957D01*
X78869539Y-91681956D01*
X78701056Y-91627214D01*
X78613567Y-91613357D01*
X78526079Y-91599500D01*
X78348921Y-91599500D01*
X78290595Y-91608738D01*
X78173943Y-91627214D01*
X78005460Y-91681956D01*
X78005457Y-91681957D01*
X77847609Y-91762386D01*
X77789072Y-91804916D01*
X77704286Y-91866517D01*
X77704284Y-91866519D01*
X77704283Y-91866519D01*
X77579019Y-91991783D01*
X77579019Y-91991784D01*
X77579017Y-91991786D01*
X77534296Y-92053338D01*
X77474886Y-92135109D01*
X77394457Y-92292957D01*
X77390239Y-92305942D01*
X77350800Y-92363617D01*
X77286442Y-92390815D01*
X77217595Y-92378900D01*
X77184627Y-92355304D01*
X72474318Y-87644995D01*
X74142092Y-87644995D01*
X74142092Y-87645004D01*
X74161696Y-87906620D01*
X74161697Y-87906625D01*
X74220076Y-88162402D01*
X74220078Y-88162411D01*
X74220080Y-88162416D01*
X74315932Y-88406643D01*
X74447114Y-88633857D01*
X74579236Y-88799533D01*
X74610698Y-88838985D01*
X74774548Y-88991014D01*
X74803021Y-89017433D01*
X75019796Y-89165228D01*
X75019801Y-89165230D01*
X75019802Y-89165231D01*
X75019803Y-89165232D01*
X75145343Y-89225688D01*
X75256173Y-89279061D01*
X75256174Y-89279061D01*
X75256177Y-89279063D01*
X75506885Y-89356396D01*
X75766318Y-89395500D01*
X76028682Y-89395500D01*
X76288115Y-89356396D01*
X76538823Y-89279063D01*
X76775204Y-89165228D01*
X76991979Y-89017433D01*
X77184305Y-88838981D01*
X77347886Y-88633857D01*
X77479068Y-88406643D01*
X77574920Y-88162416D01*
X77620550Y-87962498D01*
X81577032Y-87962498D01*
X81577032Y-87962501D01*
X81596864Y-88189186D01*
X81596866Y-88189197D01*
X81655758Y-88408988D01*
X81655761Y-88408997D01*
X81751931Y-88615232D01*
X81751932Y-88615234D01*
X81882454Y-88801641D01*
X82043358Y-88962545D01*
X82043361Y-88962547D01*
X82229766Y-89093068D01*
X82436004Y-89189239D01*
X82655808Y-89248135D01*
X82817730Y-89262301D01*
X82882498Y-89267968D01*
X82882500Y-89267968D01*
X82882502Y-89267968D01*
X82939173Y-89263009D01*
X83109192Y-89248135D01*
X83328996Y-89189239D01*
X83535234Y-89093068D01*
X83721639Y-88962547D01*
X83882547Y-88801639D01*
X84013068Y-88615234D01*
X84109239Y-88408996D01*
X84168135Y-88189192D01*
X84187968Y-87962500D01*
X84168135Y-87735808D01*
X84109239Y-87516004D01*
X84013068Y-87309766D01*
X83882547Y-87123361D01*
X83882545Y-87123358D01*
X83721641Y-86962454D01*
X83535234Y-86831932D01*
X83535232Y-86831931D01*
X83328997Y-86735761D01*
X83328988Y-86735758D01*
X83109197Y-86676866D01*
X83109193Y-86676865D01*
X83109192Y-86676865D01*
X83109191Y-86676864D01*
X83109186Y-86676864D01*
X82882502Y-86657032D01*
X82882498Y-86657032D01*
X82655813Y-86676864D01*
X82655802Y-86676866D01*
X82436011Y-86735758D01*
X82436002Y-86735761D01*
X82229767Y-86831931D01*
X82229765Y-86831932D01*
X82043358Y-86962454D01*
X81882454Y-87123358D01*
X81751932Y-87309765D01*
X81751931Y-87309767D01*
X81655761Y-87516002D01*
X81655758Y-87516011D01*
X81596866Y-87735802D01*
X81596864Y-87735813D01*
X81577032Y-87962498D01*
X77620550Y-87962498D01*
X77633302Y-87906630D01*
X77646103Y-87735808D01*
X77652908Y-87645004D01*
X77652908Y-87644995D01*
X77633303Y-87383379D01*
X77633302Y-87383374D01*
X77633302Y-87383370D01*
X77574920Y-87127584D01*
X77479068Y-86883357D01*
X77347886Y-86656143D01*
X77184305Y-86451019D01*
X77184304Y-86451018D01*
X77184301Y-86451014D01*
X76991979Y-86272567D01*
X76775204Y-86124772D01*
X76775200Y-86124770D01*
X76775197Y-86124768D01*
X76775196Y-86124767D01*
X76538825Y-86010938D01*
X76538827Y-86010938D01*
X76288123Y-85933606D01*
X76288119Y-85933605D01*
X76288115Y-85933604D01*
X76163323Y-85914794D01*
X76028687Y-85894500D01*
X76028682Y-85894500D01*
X75766318Y-85894500D01*
X75766312Y-85894500D01*
X75604747Y-85918853D01*
X75506885Y-85933604D01*
X75506882Y-85933605D01*
X75506876Y-85933606D01*
X75256173Y-86010938D01*
X75019803Y-86124767D01*
X75019802Y-86124768D01*
X74803020Y-86272567D01*
X74610698Y-86451014D01*
X74447114Y-86656143D01*
X74315932Y-86883356D01*
X74220082Y-87127578D01*
X74220076Y-87127597D01*
X74161697Y-87383374D01*
X74161696Y-87383379D01*
X74142092Y-87644995D01*
X72474318Y-87644995D01*
X70826351Y-85997028D01*
X70792866Y-85935705D01*
X70790032Y-85909347D01*
X70790032Y-72985097D01*
X70809717Y-72918058D01*
X70826351Y-72897416D01*
X70954704Y-72769063D01*
X71097943Y-72625823D01*
X71159264Y-72592340D01*
X71228955Y-72597324D01*
X71284889Y-72639195D01*
X71309306Y-72704660D01*
X71300183Y-72760958D01*
X71221866Y-72950032D01*
X71221861Y-72950048D01*
X71185672Y-73085110D01*
X71145508Y-73235004D01*
X71145506Y-73235015D01*
X71107000Y-73527486D01*
X71107000Y-73822513D01*
X71122278Y-73938555D01*
X71145507Y-74114993D01*
X71221861Y-74399951D01*
X71221864Y-74399961D01*
X71334754Y-74672500D01*
X71334758Y-74672510D01*
X71482261Y-74927993D01*
X71661852Y-75162040D01*
X71661858Y-75162047D01*
X71870452Y-75370641D01*
X71870459Y-75370647D01*
X72104506Y-75550238D01*
X72359989Y-75697741D01*
X72359990Y-75697741D01*
X72359993Y-75697743D01*
X72632548Y-75810639D01*
X72917507Y-75886993D01*
X73209994Y-75925500D01*
X73210001Y-75925500D01*
X73504999Y-75925500D01*
X73505006Y-75925500D01*
X73797493Y-75886993D01*
X74082452Y-75810639D01*
X74355007Y-75697743D01*
X74610494Y-75550238D01*
X74844542Y-75370646D01*
X75053146Y-75162042D01*
X75232738Y-74927994D01*
X75380243Y-74672507D01*
X75493139Y-74399952D01*
X75569493Y-74114993D01*
X75608000Y-73822506D01*
X75608000Y-73586421D01*
X77312000Y-73586421D01*
X77312000Y-73763578D01*
X77339714Y-73938556D01*
X77394456Y-74107039D01*
X77394457Y-74107042D01*
X77474886Y-74264890D01*
X77579017Y-74408214D01*
X77704286Y-74533483D01*
X77847610Y-74637614D01*
X77916077Y-74672500D01*
X78005457Y-74718042D01*
X78005460Y-74718043D01*
X78089701Y-74745414D01*
X78173945Y-74772786D01*
X78348921Y-74800500D01*
X78348922Y-74800500D01*
X78526078Y-74800500D01*
X78526079Y-74800500D01*
X78701055Y-74772786D01*
X78869542Y-74718042D01*
X79027390Y-74637614D01*
X79170714Y-74533483D01*
X79295983Y-74408214D01*
X79400114Y-74264890D01*
X79480542Y-74107042D01*
X79535286Y-73938555D01*
X79563000Y-73763579D01*
X79563000Y-73586421D01*
X79535286Y-73411445D01*
X79480542Y-73242958D01*
X79480542Y-73242957D01*
X79400113Y-73085109D01*
X79295983Y-72941786D01*
X79170714Y-72816517D01*
X79027390Y-72712386D01*
X79012227Y-72704660D01*
X78869542Y-72631957D01*
X78869539Y-72631956D01*
X78701056Y-72577214D01*
X78613567Y-72563357D01*
X78526079Y-72549500D01*
X78348921Y-72549500D01*
X78290595Y-72558738D01*
X78173943Y-72577214D01*
X78005460Y-72631956D01*
X78005457Y-72631957D01*
X77847609Y-72712386D01*
X77789072Y-72754916D01*
X77704286Y-72816517D01*
X77704284Y-72816519D01*
X77704283Y-72816519D01*
X77579019Y-72941783D01*
X77579019Y-72941784D01*
X77579017Y-72941786D01*
X77547550Y-72985097D01*
X77474886Y-73085109D01*
X77394457Y-73242957D01*
X77394456Y-73242960D01*
X77339714Y-73411443D01*
X77312000Y-73586421D01*
X75608000Y-73586421D01*
X75608000Y-73527494D01*
X75569493Y-73235007D01*
X75493139Y-72950048D01*
X75493132Y-72950032D01*
X75437829Y-72816519D01*
X75380243Y-72677493D01*
X75367388Y-72655228D01*
X75232738Y-72422006D01*
X75053147Y-72187959D01*
X75053141Y-72187952D01*
X74844547Y-71979358D01*
X74844540Y-71979352D01*
X74610493Y-71799761D01*
X74355010Y-71652258D01*
X74355000Y-71652254D01*
X74082461Y-71539364D01*
X74082454Y-71539362D01*
X74082452Y-71539361D01*
X73797493Y-71463007D01*
X73748613Y-71456571D01*
X73505013Y-71424500D01*
X73505006Y-71424500D01*
X73209994Y-71424500D01*
X73209986Y-71424500D01*
X72931585Y-71461153D01*
X72917507Y-71463007D01*
X72653347Y-71533788D01*
X72632548Y-71539361D01*
X72632532Y-71539366D01*
X72443459Y-71617683D01*
X72373990Y-71625152D01*
X72311511Y-71593877D01*
X72275859Y-71533788D01*
X72278353Y-71463963D01*
X72308324Y-71415442D01*
X72863502Y-70860266D01*
X72942559Y-70723334D01*
X72983483Y-70570607D01*
X72983483Y-70412492D01*
X72983483Y-70404897D01*
X72983482Y-70404879D01*
X72983482Y-69704105D01*
X72983483Y-69704092D01*
X72983483Y-69535991D01*
X72983483Y-69535989D01*
X72942559Y-69383261D01*
X72913621Y-69333141D01*
X72863502Y-69246330D01*
X72751698Y-69134526D01*
X72751697Y-69134525D01*
X72747367Y-69130195D01*
X72747356Y-69130185D01*
X64069319Y-60452148D01*
X64035834Y-60390825D01*
X64033000Y-60364467D01*
X64033000Y-54332847D01*
X64052685Y-54265808D01*
X64105489Y-54220053D01*
X64174647Y-54210109D01*
X64238203Y-54239134D01*
X64244681Y-54245166D01*
X76836056Y-66836541D01*
X76869541Y-66897864D01*
X76864557Y-66967556D01*
X76822685Y-67023489D01*
X76757221Y-67047906D01*
X76694574Y-67035942D01*
X76538825Y-66960938D01*
X76538827Y-66960938D01*
X76288123Y-66883606D01*
X76288119Y-66883605D01*
X76288115Y-66883604D01*
X76163323Y-66864794D01*
X76028687Y-66844500D01*
X76028682Y-66844500D01*
X75766318Y-66844500D01*
X75766312Y-66844500D01*
X75604747Y-66868853D01*
X75506885Y-66883604D01*
X75506882Y-66883605D01*
X75506876Y-66883606D01*
X75256173Y-66960938D01*
X75019803Y-67074767D01*
X75019802Y-67074768D01*
X74803020Y-67222567D01*
X74610698Y-67401014D01*
X74447114Y-67606143D01*
X74315932Y-67833356D01*
X74220082Y-68077578D01*
X74220076Y-68077597D01*
X74161697Y-68333374D01*
X74161696Y-68333379D01*
X74142092Y-68594995D01*
X74142092Y-68595004D01*
X74161696Y-68856620D01*
X74161697Y-68856625D01*
X74220076Y-69112402D01*
X74220078Y-69112411D01*
X74220080Y-69112416D01*
X74315932Y-69356643D01*
X74447114Y-69583857D01*
X74535035Y-69694106D01*
X74610698Y-69788985D01*
X74774548Y-69941014D01*
X74803021Y-69967433D01*
X75019796Y-70115228D01*
X75019801Y-70115230D01*
X75019802Y-70115231D01*
X75019803Y-70115232D01*
X75145343Y-70175688D01*
X75256173Y-70229061D01*
X75256174Y-70229061D01*
X75256177Y-70229063D01*
X75506885Y-70306396D01*
X75766318Y-70345500D01*
X76028682Y-70345500D01*
X76288115Y-70306396D01*
X76538823Y-70229063D01*
X76775204Y-70115228D01*
X76991979Y-69967433D01*
X77184305Y-69788981D01*
X77347886Y-69583857D01*
X77479068Y-69356643D01*
X77574920Y-69112416D01*
X77633302Y-68856630D01*
X77646103Y-68685808D01*
X77652908Y-68595004D01*
X77652908Y-68594995D01*
X77633303Y-68333379D01*
X77633302Y-68333374D01*
X77633302Y-68333370D01*
X77574920Y-68077584D01*
X77479068Y-67833357D01*
X77479067Y-67833356D01*
X77479068Y-67833356D01*
X77466699Y-67811933D01*
X77450226Y-67744033D01*
X77473078Y-67678006D01*
X77528000Y-67634815D01*
X77597553Y-67628174D01*
X77659656Y-67660190D01*
X77661767Y-67662252D01*
X82245681Y-72246166D01*
X82279166Y-72307489D01*
X82282000Y-72333847D01*
X82282000Y-75108000D01*
X82262315Y-75175039D01*
X82209511Y-75220794D01*
X82158001Y-75232000D01*
X82034630Y-75232000D01*
X82034623Y-75232001D01*
X81975016Y-75238408D01*
X81840171Y-75288702D01*
X81840164Y-75288706D01*
X81724955Y-75374952D01*
X81724952Y-75374955D01*
X81638706Y-75490164D01*
X81638702Y-75490171D01*
X81588408Y-75625017D01*
X81582001Y-75684616D01*
X81582001Y-75684623D01*
X81582000Y-75684635D01*
X81582000Y-77380370D01*
X81582001Y-77380376D01*
X81588408Y-77439983D01*
X81638702Y-77574828D01*
X81638706Y-77574835D01*
X81724952Y-77690044D01*
X81724955Y-77690047D01*
X81840164Y-77776293D01*
X81840171Y-77776297D01*
X81975017Y-77826591D01*
X81975016Y-77826591D01*
X81981944Y-77827335D01*
X82034627Y-77833000D01*
X83730372Y-77832999D01*
X83789983Y-77826591D01*
X83924831Y-77776296D01*
X84040046Y-77690046D01*
X84126296Y-77574831D01*
X84176591Y-77439983D01*
X84183000Y-77380373D01*
X84182999Y-75684628D01*
X84176591Y-75625017D01*
X84148700Y-75550238D01*
X84126297Y-75490171D01*
X84126293Y-75490164D01*
X84040047Y-75374955D01*
X84040044Y-75374952D01*
X83924835Y-75288706D01*
X83924828Y-75288702D01*
X83789982Y-75238408D01*
X83789983Y-75238408D01*
X83730383Y-75232001D01*
X83730381Y-75232000D01*
X83730373Y-75232000D01*
X83730365Y-75232000D01*
X83607000Y-75232000D01*
X83539961Y-75212315D01*
X83494206Y-75159511D01*
X83483000Y-75108000D01*
X83483000Y-73586421D01*
X86202000Y-73586421D01*
X86202000Y-73763578D01*
X86229714Y-73938556D01*
X86284456Y-74107039D01*
X86284457Y-74107042D01*
X86364886Y-74264890D01*
X86469017Y-74408214D01*
X86594286Y-74533483D01*
X86737610Y-74637614D01*
X86806077Y-74672500D01*
X86895457Y-74718042D01*
X86895460Y-74718043D01*
X86979701Y-74745414D01*
X87063945Y-74772786D01*
X87238921Y-74800500D01*
X87238922Y-74800500D01*
X87416078Y-74800500D01*
X87416079Y-74800500D01*
X87591055Y-74772786D01*
X87759542Y-74718042D01*
X87816705Y-74688915D01*
X87885373Y-74676019D01*
X87950113Y-74702294D01*
X87990371Y-74759400D01*
X87997000Y-74799400D01*
X87997000Y-88453363D01*
X87977315Y-88520402D01*
X87926802Y-88565083D01*
X87719800Y-88664769D01*
X87503020Y-88812567D01*
X87310698Y-88991014D01*
X87147114Y-89196143D01*
X87015932Y-89423356D01*
X86920082Y-89667578D01*
X86920076Y-89667597D01*
X86861697Y-89923374D01*
X86861696Y-89923379D01*
X86842092Y-90184995D01*
X86842092Y-90185004D01*
X86861696Y-90446620D01*
X86861697Y-90446625D01*
X86920076Y-90702402D01*
X86920078Y-90702411D01*
X86920080Y-90702416D01*
X87015932Y-90946643D01*
X87147114Y-91173857D01*
X87198233Y-91237958D01*
X87310697Y-91378984D01*
X87316877Y-91384717D01*
X87352633Y-91444744D01*
X87350260Y-91514574D01*
X87310511Y-91572035D01*
X87246006Y-91598884D01*
X87242288Y-91599234D01*
X87238928Y-91599498D01*
X87063943Y-91627214D01*
X86895460Y-91681956D01*
X86895457Y-91681957D01*
X86737609Y-91762386D01*
X86679072Y-91804916D01*
X86594286Y-91866517D01*
X86594284Y-91866519D01*
X86594283Y-91866519D01*
X86469019Y-91991783D01*
X86469019Y-91991784D01*
X86469017Y-91991786D01*
X86424296Y-92053338D01*
X86364886Y-92135109D01*
X86284457Y-92292957D01*
X86284456Y-92292960D01*
X86229714Y-92461443D01*
X86202000Y-92636421D01*
X86202000Y-92813578D01*
X86229714Y-92988556D01*
X86284456Y-93157039D01*
X86284457Y-93157042D01*
X86362130Y-93309481D01*
X86364886Y-93314890D01*
X86469017Y-93458214D01*
X86594286Y-93583483D01*
X86737610Y-93687614D01*
X86806077Y-93722500D01*
X86895457Y-93768042D01*
X86895460Y-93768043D01*
X86979701Y-93795414D01*
X87063945Y-93822786D01*
X87238921Y-93850500D01*
X87238922Y-93850500D01*
X87416078Y-93850500D01*
X87416079Y-93850500D01*
X87591055Y-93822786D01*
X87759542Y-93768042D01*
X87816705Y-93738915D01*
X87885373Y-93726019D01*
X87950113Y-93752294D01*
X87990371Y-93809400D01*
X87997000Y-93849400D01*
X87997000Y-107503363D01*
X87977315Y-107570402D01*
X87926802Y-107615083D01*
X87719800Y-107714769D01*
X87503020Y-107862567D01*
X87310698Y-108041014D01*
X87147114Y-108246143D01*
X87015932Y-108473356D01*
X86920082Y-108717578D01*
X86920076Y-108717597D01*
X86861697Y-108973374D01*
X86861696Y-108973379D01*
X86842092Y-109234995D01*
X86842092Y-109235004D01*
X86861696Y-109496620D01*
X86861697Y-109496625D01*
X86920076Y-109752402D01*
X86920078Y-109752411D01*
X86920080Y-109752416D01*
X87015932Y-109996643D01*
X87147114Y-110223857D01*
X87198233Y-110287958D01*
X87310697Y-110428984D01*
X87316877Y-110434717D01*
X87352633Y-110494744D01*
X87350260Y-110564574D01*
X87310511Y-110622035D01*
X87246006Y-110648884D01*
X87242288Y-110649234D01*
X87238928Y-110649498D01*
X87063943Y-110677214D01*
X86895460Y-110731956D01*
X86895457Y-110731957D01*
X86737609Y-110812386D01*
X86659604Y-110869061D01*
X86594286Y-110916517D01*
X86594284Y-110916519D01*
X86594283Y-110916519D01*
X86469019Y-111041783D01*
X86469019Y-111041784D01*
X86469017Y-111041786D01*
X86424296Y-111103338D01*
X86364886Y-111185109D01*
X86284457Y-111342957D01*
X86284456Y-111342960D01*
X86229714Y-111511443D01*
X86202000Y-111686421D01*
X86202000Y-111863578D01*
X86229714Y-112038556D01*
X86284456Y-112207039D01*
X86284457Y-112207042D01*
X86364886Y-112364890D01*
X86469017Y-112508214D01*
X86594286Y-112633483D01*
X86737610Y-112737614D01*
X86806077Y-112772500D01*
X86895457Y-112818042D01*
X86895460Y-112818043D01*
X86979701Y-112845414D01*
X87063945Y-112872786D01*
X87238921Y-112900500D01*
X87238922Y-112900500D01*
X87416078Y-112900500D01*
X87416079Y-112900500D01*
X87591055Y-112872786D01*
X87759542Y-112818042D01*
X87917390Y-112737614D01*
X88060714Y-112633483D01*
X88185983Y-112508214D01*
X88290114Y-112364890D01*
X88370542Y-112207042D01*
X88425286Y-112038555D01*
X88453000Y-111863579D01*
X88453000Y-111686421D01*
X88443665Y-111627486D01*
X90157000Y-111627486D01*
X90157000Y-111922513D01*
X90172278Y-112038555D01*
X90195507Y-112214993D01*
X90271861Y-112499951D01*
X90271864Y-112499961D01*
X90384754Y-112772500D01*
X90384758Y-112772510D01*
X90532261Y-113027993D01*
X90711852Y-113262040D01*
X90711858Y-113262047D01*
X90920452Y-113470641D01*
X90920459Y-113470647D01*
X91154506Y-113650238D01*
X91409989Y-113797741D01*
X91409990Y-113797741D01*
X91409993Y-113797743D01*
X91682548Y-113910639D01*
X91967507Y-113986993D01*
X92259994Y-114025500D01*
X92260001Y-114025500D01*
X92554999Y-114025500D01*
X92555006Y-114025500D01*
X92847493Y-113986993D01*
X93132452Y-113910639D01*
X93405007Y-113797743D01*
X93427711Y-113784635D01*
X100632000Y-113784635D01*
X100632000Y-115480370D01*
X100632001Y-115480376D01*
X100638408Y-115539983D01*
X100688702Y-115674828D01*
X100688706Y-115674835D01*
X100774952Y-115790044D01*
X100774955Y-115790047D01*
X100890164Y-115876293D01*
X100890171Y-115876297D01*
X101025017Y-115926591D01*
X101025016Y-115926591D01*
X101031944Y-115927335D01*
X101084627Y-115933000D01*
X102780372Y-115932999D01*
X102839983Y-115926591D01*
X102974831Y-115876296D01*
X103090046Y-115790046D01*
X103176296Y-115674831D01*
X103226591Y-115539983D01*
X103233000Y-115480373D01*
X103232999Y-114032496D01*
X103577417Y-114032496D01*
X103577417Y-114032503D01*
X103597612Y-114211749D01*
X103597613Y-114211754D01*
X103657193Y-114382023D01*
X103753167Y-114534763D01*
X103755427Y-114537597D01*
X103756316Y-114539775D01*
X103756871Y-114540658D01*
X103756716Y-114540755D01*
X103781837Y-114602283D01*
X103782482Y-114614912D01*
X103782482Y-118028376D01*
X103782481Y-118028394D01*
X103782481Y-118194100D01*
X103782480Y-118194100D01*
X103823405Y-118346831D01*
X103852340Y-118396946D01*
X103852341Y-118396950D01*
X103852342Y-118396950D01*
X103902461Y-118483760D01*
X103902463Y-118483763D01*
X104021331Y-118602631D01*
X104021337Y-118602636D01*
X106552280Y-121133580D01*
X106585765Y-121194903D01*
X106587819Y-121207377D01*
X106597612Y-121294295D01*
X106657192Y-121464567D01*
X106753166Y-121617308D01*
X106880720Y-121744862D01*
X107033460Y-121840835D01*
X107203727Y-121900414D01*
X107203732Y-121900415D01*
X107382978Y-121920611D01*
X107382982Y-121920611D01*
X107382986Y-121920611D01*
X107562231Y-121900415D01*
X107562234Y-121900414D01*
X107562237Y-121900414D01*
X107732504Y-121840835D01*
X107885244Y-121744862D01*
X108012798Y-121617308D01*
X108022102Y-121602500D01*
X118845801Y-121602500D01*
X118865567Y-121853651D01*
X118924376Y-122098610D01*
X119020783Y-122331359D01*
X119152410Y-122546153D01*
X119152411Y-122546156D01*
X119152414Y-122546159D01*
X119316026Y-122737724D01*
X119464316Y-122864375D01*
X119507593Y-122901338D01*
X119507596Y-122901339D01*
X119722390Y-123032966D01*
X119955139Y-123129373D01*
X120200102Y-123188183D01*
X120451250Y-123207949D01*
X120702398Y-123188183D01*
X120947361Y-123129373D01*
X121180109Y-123032966D01*
X121394909Y-122901336D01*
X121586474Y-122737724D01*
X121750086Y-122546159D01*
X121881716Y-122331359D01*
X121978123Y-122098611D01*
X122036933Y-121853648D01*
X122056699Y-121602500D01*
X122036933Y-121351352D01*
X121978123Y-121106389D01*
X121935298Y-121003000D01*
X121881716Y-120873640D01*
X121750089Y-120658846D01*
X121750088Y-120658843D01*
X121710749Y-120612783D01*
X121586474Y-120467276D01*
X121459821Y-120359104D01*
X121394906Y-120303661D01*
X121394903Y-120303660D01*
X121180109Y-120172033D01*
X120947360Y-120075626D01*
X120702401Y-120016817D01*
X120451250Y-119997051D01*
X120200098Y-120016817D01*
X119955139Y-120075626D01*
X119722390Y-120172033D01*
X119507596Y-120303660D01*
X119507593Y-120303661D01*
X119316026Y-120467276D01*
X119152411Y-120658843D01*
X119152410Y-120658846D01*
X119020783Y-120873640D01*
X118924376Y-121106389D01*
X118865567Y-121351348D01*
X118845801Y-121602500D01*
X108022102Y-121602500D01*
X108108771Y-121464568D01*
X108168350Y-121294301D01*
X108178144Y-121207377D01*
X108188547Y-121115049D01*
X108188547Y-121115042D01*
X108168351Y-120935796D01*
X108168350Y-120935791D01*
X108108770Y-120765522D01*
X108041739Y-120658843D01*
X108012798Y-120612784D01*
X107885244Y-120485230D01*
X107732503Y-120389256D01*
X107562231Y-120329676D01*
X107475313Y-120319883D01*
X107410899Y-120292816D01*
X107401516Y-120284344D01*
X105019801Y-117902629D01*
X104986316Y-117841306D01*
X104983482Y-117814948D01*
X104983482Y-114614912D01*
X105003167Y-114547873D01*
X105010537Y-114537597D01*
X105012792Y-114534767D01*
X105012798Y-114534762D01*
X105108771Y-114382022D01*
X105168350Y-114211755D01*
X105188547Y-114032500D01*
X105187758Y-114025500D01*
X105168351Y-113853250D01*
X105168350Y-113853245D01*
X105144340Y-113784628D01*
X105108771Y-113682978D01*
X105012798Y-113530238D01*
X104885244Y-113402684D01*
X104862992Y-113388702D01*
X104732505Y-113306711D01*
X104562236Y-113247131D01*
X104562231Y-113247130D01*
X104382986Y-113226935D01*
X104382978Y-113226935D01*
X104203732Y-113247130D01*
X104203727Y-113247131D01*
X104033458Y-113306711D01*
X103880719Y-113402684D01*
X103753166Y-113530237D01*
X103657193Y-113682976D01*
X103597613Y-113853245D01*
X103597612Y-113853250D01*
X103577417Y-114032496D01*
X103232999Y-114032496D01*
X103232999Y-113784628D01*
X103226591Y-113725017D01*
X103210911Y-113682978D01*
X103176297Y-113590171D01*
X103176293Y-113590164D01*
X103090047Y-113474955D01*
X103090044Y-113474952D01*
X102974835Y-113388706D01*
X102974828Y-113388702D01*
X102839982Y-113338408D01*
X102839983Y-113338408D01*
X102780383Y-113332001D01*
X102780381Y-113332000D01*
X102780373Y-113332000D01*
X102780364Y-113332000D01*
X101084629Y-113332000D01*
X101084623Y-113332001D01*
X101025016Y-113338408D01*
X100890171Y-113388702D01*
X100890164Y-113388706D01*
X100774955Y-113474952D01*
X100774952Y-113474955D01*
X100688706Y-113590164D01*
X100688702Y-113590171D01*
X100638408Y-113725017D01*
X100632001Y-113784616D01*
X100632001Y-113784623D01*
X100632000Y-113784635D01*
X93427711Y-113784635D01*
X93660494Y-113650238D01*
X93894542Y-113470646D01*
X94103146Y-113262042D01*
X94282738Y-113027994D01*
X94430243Y-112772507D01*
X94543139Y-112499952D01*
X94619493Y-112214993D01*
X94658000Y-111922506D01*
X94658000Y-111686421D01*
X96362000Y-111686421D01*
X96362000Y-111863578D01*
X96389714Y-112038556D01*
X96444456Y-112207039D01*
X96444457Y-112207042D01*
X96524886Y-112364890D01*
X96629017Y-112508214D01*
X96754286Y-112633483D01*
X96897610Y-112737614D01*
X96966077Y-112772500D01*
X97055457Y-112818042D01*
X97055460Y-112818043D01*
X97139701Y-112845414D01*
X97223945Y-112872786D01*
X97398921Y-112900500D01*
X97398922Y-112900500D01*
X97576078Y-112900500D01*
X97576079Y-112900500D01*
X97751055Y-112872786D01*
X97919542Y-112818042D01*
X98077390Y-112737614D01*
X98220714Y-112633483D01*
X98345983Y-112508214D01*
X98450114Y-112364890D01*
X98530542Y-112207042D01*
X98585286Y-112038555D01*
X98613000Y-111863579D01*
X98613000Y-111686421D01*
X98585286Y-111511445D01*
X98530542Y-111342958D01*
X98530542Y-111342957D01*
X98450113Y-111185109D01*
X98439701Y-111170778D01*
X98345983Y-111041786D01*
X98220714Y-110916517D01*
X98077390Y-110812386D01*
X97919542Y-110731957D01*
X97919539Y-110731956D01*
X97751056Y-110677214D01*
X97663567Y-110663357D01*
X97576079Y-110649500D01*
X97398921Y-110649500D01*
X97340595Y-110658738D01*
X97223943Y-110677214D01*
X97055460Y-110731956D01*
X97055457Y-110731957D01*
X96897609Y-110812386D01*
X96819604Y-110869061D01*
X96754286Y-110916517D01*
X96754284Y-110916519D01*
X96754283Y-110916519D01*
X96629019Y-111041783D01*
X96629019Y-111041784D01*
X96629017Y-111041786D01*
X96584296Y-111103338D01*
X96524886Y-111185109D01*
X96444457Y-111342957D01*
X96444456Y-111342960D01*
X96389714Y-111511443D01*
X96362000Y-111686421D01*
X94658000Y-111686421D01*
X94658000Y-111627494D01*
X94619493Y-111335007D01*
X94543139Y-111050048D01*
X94430243Y-110777493D01*
X94417388Y-110755228D01*
X94282738Y-110522006D01*
X94103147Y-110287959D01*
X94103141Y-110287952D01*
X93894547Y-110079358D01*
X93894540Y-110079352D01*
X93660493Y-109899761D01*
X93405010Y-109752258D01*
X93405000Y-109752254D01*
X93132461Y-109639364D01*
X93132454Y-109639362D01*
X93132452Y-109639361D01*
X92847493Y-109563007D01*
X92798613Y-109556571D01*
X92555013Y-109524500D01*
X92555006Y-109524500D01*
X92259994Y-109524500D01*
X92259986Y-109524500D01*
X91981585Y-109561153D01*
X91967507Y-109563007D01*
X91682548Y-109639361D01*
X91682538Y-109639364D01*
X91409999Y-109752254D01*
X91409989Y-109752258D01*
X91154506Y-109899761D01*
X90920459Y-110079352D01*
X90920452Y-110079358D01*
X90711858Y-110287952D01*
X90711852Y-110287959D01*
X90532261Y-110522006D01*
X90384758Y-110777489D01*
X90384754Y-110777499D01*
X90271864Y-111050038D01*
X90271861Y-111050048D01*
X90235672Y-111185110D01*
X90195508Y-111335004D01*
X90195506Y-111335015D01*
X90157000Y-111627486D01*
X88443665Y-111627486D01*
X88425286Y-111511445D01*
X88370542Y-111342958D01*
X88370542Y-111342957D01*
X88342690Y-111288295D01*
X88290114Y-111185110D01*
X88289029Y-111183617D01*
X88279702Y-111170778D01*
X88256222Y-111104972D01*
X88272048Y-111036918D01*
X88322154Y-110988223D01*
X88390632Y-110974348D01*
X88398492Y-110975276D01*
X88466318Y-110985500D01*
X88728682Y-110985500D01*
X88988115Y-110946396D01*
X89238823Y-110869063D01*
X89475204Y-110755228D01*
X89691979Y-110607433D01*
X89884305Y-110428981D01*
X90047886Y-110223857D01*
X90179068Y-109996643D01*
X90274920Y-109752416D01*
X90333302Y-109496630D01*
X90352908Y-109235000D01*
X90333302Y-108973370D01*
X90274920Y-108717584D01*
X90179068Y-108473357D01*
X90047886Y-108246143D01*
X89884305Y-108041019D01*
X89884304Y-108041018D01*
X89884301Y-108041014D01*
X89691979Y-107862567D01*
X89475204Y-107714772D01*
X89475201Y-107714771D01*
X89475199Y-107714769D01*
X89268198Y-107615083D01*
X89216339Y-107568261D01*
X89198000Y-107503363D01*
X89198000Y-106694995D01*
X93192092Y-106694995D01*
X93192092Y-106695004D01*
X93211696Y-106956620D01*
X93211697Y-106956625D01*
X93270076Y-107212402D01*
X93270078Y-107212411D01*
X93270080Y-107212416D01*
X93365932Y-107456643D01*
X93497114Y-107683857D01*
X93629236Y-107849533D01*
X93660698Y-107888985D01*
X93824548Y-108041014D01*
X93853021Y-108067433D01*
X94069796Y-108215228D01*
X94069801Y-108215230D01*
X94069802Y-108215231D01*
X94069803Y-108215232D01*
X94195343Y-108275688D01*
X94306173Y-108329061D01*
X94306174Y-108329061D01*
X94306177Y-108329063D01*
X94556885Y-108406396D01*
X94816318Y-108445500D01*
X95078682Y-108445500D01*
X95338115Y-108406396D01*
X95588823Y-108329063D01*
X95825204Y-108215228D01*
X96041979Y-108067433D01*
X96234305Y-107888981D01*
X96397886Y-107683857D01*
X96529068Y-107456643D01*
X96624920Y-107212416D01*
X96670550Y-107012498D01*
X100627032Y-107012498D01*
X100627032Y-107012501D01*
X100646864Y-107239186D01*
X100646866Y-107239197D01*
X100705758Y-107458988D01*
X100705761Y-107458997D01*
X100801931Y-107665232D01*
X100801932Y-107665234D01*
X100932454Y-107851641D01*
X101093358Y-108012545D01*
X101093361Y-108012547D01*
X101279766Y-108143068D01*
X101486004Y-108239239D01*
X101705808Y-108298135D01*
X101867730Y-108312301D01*
X101932498Y-108317968D01*
X101932500Y-108317968D01*
X101932502Y-108317968D01*
X101989173Y-108313009D01*
X102159192Y-108298135D01*
X102378996Y-108239239D01*
X102585234Y-108143068D01*
X102771639Y-108012547D01*
X102932547Y-107851639D01*
X103063068Y-107665234D01*
X103159239Y-107458996D01*
X103218135Y-107239192D01*
X103237968Y-107012500D01*
X103218135Y-106785808D01*
X103159239Y-106566004D01*
X103063068Y-106359766D01*
X102932547Y-106173361D01*
X102932545Y-106173358D01*
X102771641Y-106012454D01*
X102585234Y-105881932D01*
X102585232Y-105881931D01*
X102378997Y-105785761D01*
X102378988Y-105785758D01*
X102159197Y-105726866D01*
X102159193Y-105726865D01*
X102159192Y-105726865D01*
X102159191Y-105726864D01*
X102159186Y-105726864D01*
X101932502Y-105707032D01*
X101932498Y-105707032D01*
X101705813Y-105726864D01*
X101705802Y-105726866D01*
X101486011Y-105785758D01*
X101486002Y-105785761D01*
X101279767Y-105881931D01*
X101279765Y-105881932D01*
X101093358Y-106012454D01*
X100932454Y-106173358D01*
X100801932Y-106359765D01*
X100801931Y-106359767D01*
X100705761Y-106566002D01*
X100705758Y-106566011D01*
X100646866Y-106785802D01*
X100646864Y-106785813D01*
X100627032Y-107012498D01*
X96670550Y-107012498D01*
X96683302Y-106956630D01*
X96696103Y-106785808D01*
X96702908Y-106695004D01*
X96702908Y-106694995D01*
X96683303Y-106433379D01*
X96683302Y-106433374D01*
X96683302Y-106433370D01*
X96624920Y-106177584D01*
X96529068Y-105933357D01*
X96397886Y-105706143D01*
X96234305Y-105501019D01*
X96234304Y-105501018D01*
X96234301Y-105501014D01*
X96041979Y-105322567D01*
X95825204Y-105174772D01*
X95825200Y-105174770D01*
X95825197Y-105174768D01*
X95825196Y-105174767D01*
X95588825Y-105060938D01*
X95588827Y-105060938D01*
X95338123Y-104983606D01*
X95338119Y-104983605D01*
X95338115Y-104983604D01*
X95213323Y-104964794D01*
X95078687Y-104944500D01*
X95078682Y-104944500D01*
X94816318Y-104944500D01*
X94816312Y-104944500D01*
X94654747Y-104968853D01*
X94556885Y-104983604D01*
X94556882Y-104983605D01*
X94556876Y-104983606D01*
X94306173Y-105060938D01*
X94069803Y-105174767D01*
X94069802Y-105174768D01*
X93853020Y-105322567D01*
X93660698Y-105501014D01*
X93497114Y-105706143D01*
X93365932Y-105933356D01*
X93270082Y-106177578D01*
X93270076Y-106177597D01*
X93211697Y-106433374D01*
X93211696Y-106433379D01*
X93192092Y-106694995D01*
X89198000Y-106694995D01*
X89198000Y-103354412D01*
X89217685Y-103287373D01*
X89270489Y-103241618D01*
X89339647Y-103231674D01*
X89387971Y-103249418D01*
X89429380Y-103275437D01*
X89533457Y-103340834D01*
X89703727Y-103400414D01*
X89703732Y-103400415D01*
X89882978Y-103420611D01*
X89882982Y-103420611D01*
X89882986Y-103420611D01*
X90062231Y-103400415D01*
X90062234Y-103400414D01*
X90062237Y-103400414D01*
X90232504Y-103340835D01*
X90385244Y-103244862D01*
X90512798Y-103117308D01*
X90608771Y-102964568D01*
X90668350Y-102794301D01*
X90668351Y-102794295D01*
X90688547Y-102615049D01*
X90688547Y-102615042D01*
X90668351Y-102435796D01*
X90668350Y-102435791D01*
X90660684Y-102413882D01*
X90608771Y-102265524D01*
X90512798Y-102112784D01*
X90512796Y-102112782D01*
X90512795Y-102112780D01*
X90510532Y-102109942D01*
X90509641Y-102107761D01*
X90509093Y-102106888D01*
X90509246Y-102106791D01*
X90484126Y-102045255D01*
X90483482Y-102032633D01*
X90483482Y-101455027D01*
X90503167Y-101387988D01*
X90555971Y-101342233D01*
X90625129Y-101332289D01*
X90688685Y-101361314D01*
X90724524Y-101414073D01*
X90742192Y-101464567D01*
X90787070Y-101535989D01*
X90838166Y-101617308D01*
X90965720Y-101744862D01*
X91118460Y-101840835D01*
X91288727Y-101900414D01*
X91375651Y-101910207D01*
X91440062Y-101937272D01*
X91449446Y-101945745D01*
X94001804Y-104498104D01*
X94001806Y-104498105D01*
X94001810Y-104498108D01*
X94138729Y-104577157D01*
X94138736Y-104577161D01*
X94291463Y-104618085D01*
X94291465Y-104618085D01*
X94457174Y-104618085D01*
X94457190Y-104618084D01*
X104195932Y-104618084D01*
X104262971Y-104637769D01*
X104283613Y-104654403D01*
X106216798Y-106587588D01*
X106250283Y-106648911D01*
X106252337Y-106661385D01*
X106262130Y-106748304D01*
X106321710Y-106918576D01*
X106380727Y-107012500D01*
X106417684Y-107071317D01*
X106545238Y-107198871D01*
X106697978Y-107294844D01*
X106868245Y-107354423D01*
X106936884Y-107362156D01*
X107001296Y-107389221D01*
X107040852Y-107446815D01*
X107047000Y-107485376D01*
X107047000Y-107503363D01*
X107027315Y-107570402D01*
X106976802Y-107615083D01*
X106769800Y-107714769D01*
X106553020Y-107862567D01*
X106360698Y-108041014D01*
X106197114Y-108246143D01*
X106065932Y-108473356D01*
X105970082Y-108717578D01*
X105970076Y-108717597D01*
X105911697Y-108973374D01*
X105911696Y-108973379D01*
X105892092Y-109234995D01*
X105892092Y-109235004D01*
X105911696Y-109496620D01*
X105911697Y-109496625D01*
X105970076Y-109752402D01*
X105970078Y-109752411D01*
X105970080Y-109752416D01*
X106065932Y-109996643D01*
X106197114Y-110223857D01*
X106248233Y-110287958D01*
X106360697Y-110428984D01*
X106366877Y-110434717D01*
X106402633Y-110494744D01*
X106400260Y-110564574D01*
X106360511Y-110622035D01*
X106296006Y-110648884D01*
X106292288Y-110649234D01*
X106288928Y-110649498D01*
X106113943Y-110677214D01*
X105945460Y-110731956D01*
X105945457Y-110731957D01*
X105787609Y-110812386D01*
X105709604Y-110869061D01*
X105644286Y-110916517D01*
X105644284Y-110916519D01*
X105644283Y-110916519D01*
X105519019Y-111041783D01*
X105519019Y-111041784D01*
X105519017Y-111041786D01*
X105474296Y-111103338D01*
X105414886Y-111185109D01*
X105334457Y-111342957D01*
X105334456Y-111342960D01*
X105279714Y-111511443D01*
X105252000Y-111686421D01*
X105252000Y-111863578D01*
X105279714Y-112038556D01*
X105334456Y-112207039D01*
X105334457Y-112207042D01*
X105414886Y-112364890D01*
X105519017Y-112508214D01*
X105644286Y-112633483D01*
X105787610Y-112737614D01*
X105856077Y-112772500D01*
X105945457Y-112818042D01*
X105945460Y-112818043D01*
X106029701Y-112845414D01*
X106113945Y-112872786D01*
X106288921Y-112900500D01*
X106288922Y-112900500D01*
X106466078Y-112900500D01*
X106466079Y-112900500D01*
X106641055Y-112872786D01*
X106809542Y-112818042D01*
X106967390Y-112737614D01*
X107110714Y-112633483D01*
X107235983Y-112508214D01*
X107340114Y-112364890D01*
X107420542Y-112207042D01*
X107475286Y-112038555D01*
X107503000Y-111863579D01*
X107503000Y-111686421D01*
X107493665Y-111627486D01*
X109207000Y-111627486D01*
X109207000Y-111922513D01*
X109222278Y-112038555D01*
X109245507Y-112214993D01*
X109321861Y-112499951D01*
X109321864Y-112499961D01*
X109434754Y-112772500D01*
X109434758Y-112772510D01*
X109582261Y-113027993D01*
X109761852Y-113262040D01*
X109761858Y-113262047D01*
X109970452Y-113470641D01*
X109970459Y-113470647D01*
X110204506Y-113650238D01*
X110459989Y-113797741D01*
X110459990Y-113797741D01*
X110459993Y-113797743D01*
X110732548Y-113910639D01*
X111017507Y-113986993D01*
X111309994Y-114025500D01*
X111310001Y-114025500D01*
X111604999Y-114025500D01*
X111605006Y-114025500D01*
X111897493Y-113986993D01*
X112182452Y-113910639D01*
X112455007Y-113797743D01*
X112477711Y-113784635D01*
X119682000Y-113784635D01*
X119682000Y-115480370D01*
X119682001Y-115480376D01*
X119688408Y-115539983D01*
X119738702Y-115674828D01*
X119738706Y-115674835D01*
X119824952Y-115790044D01*
X119824955Y-115790047D01*
X119940164Y-115876293D01*
X119940171Y-115876297D01*
X120075017Y-115926591D01*
X120075016Y-115926591D01*
X120081944Y-115927335D01*
X120134627Y-115933000D01*
X121830372Y-115932999D01*
X121889983Y-115926591D01*
X122024831Y-115876296D01*
X122140046Y-115790046D01*
X122226296Y-115674831D01*
X122276591Y-115539983D01*
X122283000Y-115480373D01*
X122282999Y-113784628D01*
X122276591Y-113725017D01*
X122260911Y-113682978D01*
X122226297Y-113590171D01*
X122226293Y-113590164D01*
X122140047Y-113474955D01*
X122140044Y-113474952D01*
X122024835Y-113388706D01*
X122024828Y-113388702D01*
X121889982Y-113338408D01*
X121889983Y-113338408D01*
X121830383Y-113332001D01*
X121830381Y-113332000D01*
X121830373Y-113332000D01*
X121830364Y-113332000D01*
X120134629Y-113332000D01*
X120134623Y-113332001D01*
X120075016Y-113338408D01*
X119940171Y-113388702D01*
X119940164Y-113388706D01*
X119824955Y-113474952D01*
X119824952Y-113474955D01*
X119738706Y-113590164D01*
X119738702Y-113590171D01*
X119688408Y-113725017D01*
X119682001Y-113784616D01*
X119682001Y-113784623D01*
X119682000Y-113784635D01*
X112477711Y-113784635D01*
X112710494Y-113650238D01*
X112944542Y-113470646D01*
X113153146Y-113262042D01*
X113332738Y-113027994D01*
X113480243Y-112772507D01*
X113593139Y-112499952D01*
X113669493Y-112214993D01*
X113708000Y-111922506D01*
X113708000Y-111686421D01*
X115412000Y-111686421D01*
X115412000Y-111863578D01*
X115439714Y-112038556D01*
X115494456Y-112207039D01*
X115494457Y-112207042D01*
X115574886Y-112364890D01*
X115679017Y-112508214D01*
X115804286Y-112633483D01*
X115947610Y-112737614D01*
X116016077Y-112772500D01*
X116105457Y-112818042D01*
X116105460Y-112818043D01*
X116189701Y-112845414D01*
X116273945Y-112872786D01*
X116448921Y-112900500D01*
X116448922Y-112900500D01*
X116626078Y-112900500D01*
X116626079Y-112900500D01*
X116801055Y-112872786D01*
X116969542Y-112818042D01*
X117127390Y-112737614D01*
X117270714Y-112633483D01*
X117395983Y-112508214D01*
X117500114Y-112364890D01*
X117580542Y-112207042D01*
X117635286Y-112038555D01*
X117663000Y-111863579D01*
X117663000Y-111686421D01*
X117635286Y-111511445D01*
X117580542Y-111342958D01*
X117580542Y-111342957D01*
X117500113Y-111185109D01*
X117489701Y-111170778D01*
X117395983Y-111041786D01*
X117270714Y-110916517D01*
X117127390Y-110812386D01*
X116969542Y-110731957D01*
X116969539Y-110731956D01*
X116801056Y-110677214D01*
X116713567Y-110663357D01*
X116626079Y-110649500D01*
X116448921Y-110649500D01*
X116390595Y-110658738D01*
X116273943Y-110677214D01*
X116105460Y-110731956D01*
X116105457Y-110731957D01*
X115947609Y-110812386D01*
X115869604Y-110869061D01*
X115804286Y-110916517D01*
X115804284Y-110916519D01*
X115804283Y-110916519D01*
X115679019Y-111041783D01*
X115679019Y-111041784D01*
X115679017Y-111041786D01*
X115634296Y-111103338D01*
X115574886Y-111185109D01*
X115494457Y-111342957D01*
X115494456Y-111342960D01*
X115439714Y-111511443D01*
X115412000Y-111686421D01*
X113708000Y-111686421D01*
X113708000Y-111627494D01*
X113669493Y-111335007D01*
X113593139Y-111050048D01*
X113480243Y-110777493D01*
X113467388Y-110755228D01*
X113332738Y-110522006D01*
X113153147Y-110287959D01*
X113153141Y-110287952D01*
X112944547Y-110079358D01*
X112944540Y-110079352D01*
X112710493Y-109899761D01*
X112455010Y-109752258D01*
X112455000Y-109752254D01*
X112182461Y-109639364D01*
X112182454Y-109639362D01*
X112182452Y-109639361D01*
X111897493Y-109563007D01*
X111848613Y-109556571D01*
X111605013Y-109524500D01*
X111605006Y-109524500D01*
X111309994Y-109524500D01*
X111309986Y-109524500D01*
X111031585Y-109561153D01*
X111017507Y-109563007D01*
X110732548Y-109639361D01*
X110732538Y-109639364D01*
X110459999Y-109752254D01*
X110459989Y-109752258D01*
X110204506Y-109899761D01*
X109970459Y-110079352D01*
X109970452Y-110079358D01*
X109761858Y-110287952D01*
X109761852Y-110287959D01*
X109582261Y-110522006D01*
X109434758Y-110777489D01*
X109434754Y-110777499D01*
X109321864Y-111050038D01*
X109321861Y-111050048D01*
X109285672Y-111185110D01*
X109245508Y-111335004D01*
X109245506Y-111335015D01*
X109207000Y-111627486D01*
X107493665Y-111627486D01*
X107475286Y-111511445D01*
X107420542Y-111342958D01*
X107420542Y-111342957D01*
X107392690Y-111288295D01*
X107340114Y-111185110D01*
X107339029Y-111183617D01*
X107329702Y-111170778D01*
X107306222Y-111104972D01*
X107322048Y-111036918D01*
X107372154Y-110988223D01*
X107440632Y-110974348D01*
X107448492Y-110975276D01*
X107516318Y-110985500D01*
X107778682Y-110985500D01*
X108038115Y-110946396D01*
X108288823Y-110869063D01*
X108525204Y-110755228D01*
X108741979Y-110607433D01*
X108934305Y-110428981D01*
X109097886Y-110223857D01*
X109229068Y-109996643D01*
X109324920Y-109752416D01*
X109383302Y-109496630D01*
X109402908Y-109235000D01*
X109383302Y-108973370D01*
X109324920Y-108717584D01*
X109229068Y-108473357D01*
X109097886Y-108246143D01*
X108934305Y-108041019D01*
X108934304Y-108041018D01*
X108934301Y-108041014D01*
X108741979Y-107862567D01*
X108525204Y-107714772D01*
X108525201Y-107714771D01*
X108525199Y-107714769D01*
X108318198Y-107615083D01*
X108266339Y-107568261D01*
X108248000Y-107503363D01*
X108248000Y-106694995D01*
X112242092Y-106694995D01*
X112242092Y-106695004D01*
X112261696Y-106956620D01*
X112261697Y-106956625D01*
X112320076Y-107212402D01*
X112320078Y-107212411D01*
X112320080Y-107212416D01*
X112415932Y-107456643D01*
X112547114Y-107683857D01*
X112679236Y-107849533D01*
X112710698Y-107888985D01*
X112874548Y-108041014D01*
X112903021Y-108067433D01*
X113119796Y-108215228D01*
X113119801Y-108215230D01*
X113119802Y-108215231D01*
X113119803Y-108215232D01*
X113245343Y-108275688D01*
X113356173Y-108329061D01*
X113356174Y-108329061D01*
X113356177Y-108329063D01*
X113606885Y-108406396D01*
X113866318Y-108445500D01*
X114128682Y-108445500D01*
X114388115Y-108406396D01*
X114638823Y-108329063D01*
X114875204Y-108215228D01*
X115091979Y-108067433D01*
X115284305Y-107888981D01*
X115447886Y-107683857D01*
X115579068Y-107456643D01*
X115674920Y-107212416D01*
X115720550Y-107012498D01*
X119677032Y-107012498D01*
X119677032Y-107012501D01*
X119696864Y-107239186D01*
X119696866Y-107239197D01*
X119755758Y-107458988D01*
X119755761Y-107458997D01*
X119851931Y-107665232D01*
X119851932Y-107665234D01*
X119982454Y-107851641D01*
X120143358Y-108012545D01*
X120143361Y-108012547D01*
X120329766Y-108143068D01*
X120536004Y-108239239D01*
X120755808Y-108298135D01*
X120917730Y-108312301D01*
X120982498Y-108317968D01*
X120982500Y-108317968D01*
X120982502Y-108317968D01*
X121039173Y-108313009D01*
X121209192Y-108298135D01*
X121428996Y-108239239D01*
X121635234Y-108143068D01*
X121821639Y-108012547D01*
X121982547Y-107851639D01*
X122113068Y-107665234D01*
X122209239Y-107458996D01*
X122268135Y-107239192D01*
X122287968Y-107012500D01*
X122268135Y-106785808D01*
X122209239Y-106566004D01*
X122113068Y-106359766D01*
X121982547Y-106173361D01*
X121982545Y-106173358D01*
X121821641Y-106012454D01*
X121635234Y-105881932D01*
X121635232Y-105881931D01*
X121428997Y-105785761D01*
X121428988Y-105785758D01*
X121209197Y-105726866D01*
X121209193Y-105726865D01*
X121209192Y-105726865D01*
X121209191Y-105726864D01*
X121209186Y-105726864D01*
X120982502Y-105707032D01*
X120982498Y-105707032D01*
X120755813Y-105726864D01*
X120755802Y-105726866D01*
X120536011Y-105785758D01*
X120536002Y-105785761D01*
X120329767Y-105881931D01*
X120329765Y-105881932D01*
X120143358Y-106012454D01*
X119982454Y-106173358D01*
X119851932Y-106359765D01*
X119851931Y-106359767D01*
X119755761Y-106566002D01*
X119755758Y-106566011D01*
X119696866Y-106785802D01*
X119696864Y-106785813D01*
X119677032Y-107012498D01*
X115720550Y-107012498D01*
X115733302Y-106956630D01*
X115746103Y-106785808D01*
X115752908Y-106695004D01*
X115752908Y-106694995D01*
X115733303Y-106433379D01*
X115733302Y-106433374D01*
X115733302Y-106433370D01*
X115674920Y-106177584D01*
X115579068Y-105933357D01*
X115447886Y-105706143D01*
X115284305Y-105501019D01*
X115284304Y-105501018D01*
X115284301Y-105501014D01*
X115091979Y-105322567D01*
X114875204Y-105174772D01*
X114875200Y-105174770D01*
X114875197Y-105174768D01*
X114875196Y-105174767D01*
X114638825Y-105060938D01*
X114638827Y-105060938D01*
X114388123Y-104983606D01*
X114388119Y-104983605D01*
X114388115Y-104983604D01*
X114263323Y-104964794D01*
X114128687Y-104944500D01*
X114128682Y-104944500D01*
X113866318Y-104944500D01*
X113866312Y-104944500D01*
X113704747Y-104968853D01*
X113606885Y-104983604D01*
X113606882Y-104983605D01*
X113606876Y-104983606D01*
X113356173Y-105060938D01*
X113119803Y-105174767D01*
X113119802Y-105174768D01*
X112903020Y-105322567D01*
X112710698Y-105501014D01*
X112547114Y-105706143D01*
X112415932Y-105933356D01*
X112320082Y-106177578D01*
X112320076Y-106177597D01*
X112261697Y-106433374D01*
X112261696Y-106433379D01*
X112242092Y-106694995D01*
X108248000Y-106694995D01*
X108248000Y-92577486D01*
X109207000Y-92577486D01*
X109207000Y-92872513D01*
X109222278Y-92988555D01*
X109245507Y-93164993D01*
X109289634Y-93329677D01*
X109321861Y-93449951D01*
X109321864Y-93449961D01*
X109434754Y-93722500D01*
X109434758Y-93722510D01*
X109582261Y-93977993D01*
X109761852Y-94212040D01*
X109761858Y-94212047D01*
X109970452Y-94420641D01*
X109970459Y-94420647D01*
X110204506Y-94600238D01*
X110459989Y-94747741D01*
X110459990Y-94747741D01*
X110459993Y-94747743D01*
X110732548Y-94860639D01*
X111017507Y-94936993D01*
X111309994Y-94975500D01*
X111310001Y-94975500D01*
X111604999Y-94975500D01*
X111605006Y-94975500D01*
X111897493Y-94936993D01*
X112182452Y-94860639D01*
X112455007Y-94747743D01*
X112477711Y-94734635D01*
X119682000Y-94734635D01*
X119682000Y-96430370D01*
X119682001Y-96430376D01*
X119688408Y-96489983D01*
X119738702Y-96624828D01*
X119738706Y-96624835D01*
X119824952Y-96740044D01*
X119824955Y-96740047D01*
X119940164Y-96826293D01*
X119940171Y-96826297D01*
X120075017Y-96876591D01*
X120075016Y-96876591D01*
X120081944Y-96877335D01*
X120134627Y-96883000D01*
X121830372Y-96882999D01*
X121889983Y-96876591D01*
X122024831Y-96826296D01*
X122140046Y-96740046D01*
X122226296Y-96624831D01*
X122276591Y-96489983D01*
X122283000Y-96430373D01*
X122282999Y-94734628D01*
X122276591Y-94675017D01*
X122256124Y-94620143D01*
X122226297Y-94540171D01*
X122226293Y-94540164D01*
X122140047Y-94424955D01*
X122140044Y-94424952D01*
X122024835Y-94338706D01*
X122024828Y-94338702D01*
X121889982Y-94288408D01*
X121889983Y-94288408D01*
X121830383Y-94282001D01*
X121830381Y-94282000D01*
X121830373Y-94282000D01*
X121830364Y-94282000D01*
X120134629Y-94282000D01*
X120134623Y-94282001D01*
X120075016Y-94288408D01*
X119940171Y-94338702D01*
X119940164Y-94338706D01*
X119824955Y-94424952D01*
X119824952Y-94424955D01*
X119738706Y-94540164D01*
X119738702Y-94540171D01*
X119688408Y-94675017D01*
X119685996Y-94697458D01*
X119682001Y-94734623D01*
X119682000Y-94734635D01*
X112477711Y-94734635D01*
X112710494Y-94600238D01*
X112944542Y-94420646D01*
X113153146Y-94212042D01*
X113332738Y-93977994D01*
X113480243Y-93722507D01*
X113593139Y-93449952D01*
X113669493Y-93164993D01*
X113708000Y-92872506D01*
X113708000Y-92636421D01*
X115412000Y-92636421D01*
X115412000Y-92813578D01*
X115439714Y-92988556D01*
X115494456Y-93157039D01*
X115494457Y-93157042D01*
X115572130Y-93309481D01*
X115574886Y-93314890D01*
X115679017Y-93458214D01*
X115804286Y-93583483D01*
X115947610Y-93687614D01*
X116016077Y-93722500D01*
X116105457Y-93768042D01*
X116105460Y-93768043D01*
X116189701Y-93795414D01*
X116273945Y-93822786D01*
X116448921Y-93850500D01*
X116448922Y-93850500D01*
X116626078Y-93850500D01*
X116626079Y-93850500D01*
X116801055Y-93822786D01*
X116969542Y-93768042D01*
X117127390Y-93687614D01*
X117270714Y-93583483D01*
X117395983Y-93458214D01*
X117500114Y-93314890D01*
X117580542Y-93157042D01*
X117635286Y-92988555D01*
X117663000Y-92813579D01*
X117663000Y-92636421D01*
X117635286Y-92461445D01*
X117580542Y-92292958D01*
X117580542Y-92292957D01*
X117500113Y-92135109D01*
X117395983Y-91991786D01*
X117270714Y-91866517D01*
X117127390Y-91762386D01*
X116969542Y-91681957D01*
X116969539Y-91681956D01*
X116801056Y-91627214D01*
X116713567Y-91613357D01*
X116626079Y-91599500D01*
X116448921Y-91599500D01*
X116390595Y-91608738D01*
X116273943Y-91627214D01*
X116105460Y-91681956D01*
X116105457Y-91681957D01*
X115947609Y-91762386D01*
X115889072Y-91804916D01*
X115804286Y-91866517D01*
X115804284Y-91866519D01*
X115804283Y-91866519D01*
X115679019Y-91991783D01*
X115679019Y-91991784D01*
X115679017Y-91991786D01*
X115634296Y-92053338D01*
X115574886Y-92135109D01*
X115494457Y-92292957D01*
X115494456Y-92292960D01*
X115439714Y-92461443D01*
X115412000Y-92636421D01*
X113708000Y-92636421D01*
X113708000Y-92577494D01*
X113669493Y-92285007D01*
X113593139Y-92000048D01*
X113480243Y-91727493D01*
X113467388Y-91705228D01*
X113332738Y-91472006D01*
X113153147Y-91237959D01*
X113153141Y-91237952D01*
X112944547Y-91029358D01*
X112944540Y-91029352D01*
X112710493Y-90849761D01*
X112455010Y-90702258D01*
X112455000Y-90702254D01*
X112182461Y-90589364D01*
X112182454Y-90589362D01*
X112182452Y-90589361D01*
X111897493Y-90513007D01*
X111848613Y-90506571D01*
X111605013Y-90474500D01*
X111605006Y-90474500D01*
X111309994Y-90474500D01*
X111309986Y-90474500D01*
X111031585Y-90511153D01*
X111017507Y-90513007D01*
X110732548Y-90589361D01*
X110732538Y-90589364D01*
X110459999Y-90702254D01*
X110459989Y-90702258D01*
X110204506Y-90849761D01*
X109970459Y-91029352D01*
X109970452Y-91029358D01*
X109761858Y-91237952D01*
X109761852Y-91237959D01*
X109582261Y-91472006D01*
X109434758Y-91727489D01*
X109434754Y-91727499D01*
X109321864Y-92000038D01*
X109321861Y-92000048D01*
X109285672Y-92135110D01*
X109245508Y-92285004D01*
X109245506Y-92285015D01*
X109207000Y-92577486D01*
X108248000Y-92577486D01*
X108248000Y-91916636D01*
X108267685Y-91849597D01*
X108318198Y-91804916D01*
X108525204Y-91705228D01*
X108741979Y-91557433D01*
X108934305Y-91378981D01*
X109097886Y-91173857D01*
X109229068Y-90946643D01*
X109324920Y-90702416D01*
X109383302Y-90446630D01*
X109383303Y-90446620D01*
X109402908Y-90185004D01*
X109402908Y-90184995D01*
X109383303Y-89923379D01*
X109383302Y-89923374D01*
X109383302Y-89923370D01*
X109324920Y-89667584D01*
X109229068Y-89423357D01*
X109097886Y-89196143D01*
X108934305Y-88991019D01*
X108934304Y-88991018D01*
X108934301Y-88991014D01*
X108741979Y-88812567D01*
X108525204Y-88664772D01*
X108525201Y-88664771D01*
X108525199Y-88664769D01*
X108318198Y-88565083D01*
X108266339Y-88518261D01*
X108248000Y-88453363D01*
X108248000Y-87644995D01*
X112242092Y-87644995D01*
X112242092Y-87645004D01*
X112261696Y-87906620D01*
X112261697Y-87906625D01*
X112320076Y-88162402D01*
X112320078Y-88162411D01*
X112320080Y-88162416D01*
X112415932Y-88406643D01*
X112547114Y-88633857D01*
X112679236Y-88799533D01*
X112710698Y-88838985D01*
X112874548Y-88991014D01*
X112903021Y-89017433D01*
X113119796Y-89165228D01*
X113119801Y-89165230D01*
X113119802Y-89165231D01*
X113119803Y-89165232D01*
X113245343Y-89225688D01*
X113356173Y-89279061D01*
X113356174Y-89279061D01*
X113356177Y-89279063D01*
X113606885Y-89356396D01*
X113866318Y-89395500D01*
X114128682Y-89395500D01*
X114388115Y-89356396D01*
X114638823Y-89279063D01*
X114875204Y-89165228D01*
X115091979Y-89017433D01*
X115284305Y-88838981D01*
X115447886Y-88633857D01*
X115579068Y-88406643D01*
X115674920Y-88162416D01*
X115720550Y-87962498D01*
X119677032Y-87962498D01*
X119677032Y-87962501D01*
X119696864Y-88189186D01*
X119696866Y-88189197D01*
X119755758Y-88408988D01*
X119755761Y-88408997D01*
X119851931Y-88615232D01*
X119851932Y-88615234D01*
X119982454Y-88801641D01*
X120143358Y-88962545D01*
X120143361Y-88962547D01*
X120329766Y-89093068D01*
X120536004Y-89189239D01*
X120755808Y-89248135D01*
X120917730Y-89262301D01*
X120982498Y-89267968D01*
X120982500Y-89267968D01*
X120982502Y-89267968D01*
X121039173Y-89263009D01*
X121209192Y-89248135D01*
X121428996Y-89189239D01*
X121635234Y-89093068D01*
X121821639Y-88962547D01*
X121982547Y-88801639D01*
X122113068Y-88615234D01*
X122209239Y-88408996D01*
X122268135Y-88189192D01*
X122287968Y-87962500D01*
X122268135Y-87735808D01*
X122209239Y-87516004D01*
X122113068Y-87309766D01*
X121982547Y-87123361D01*
X121982545Y-87123358D01*
X121821641Y-86962454D01*
X121635234Y-86831932D01*
X121635232Y-86831931D01*
X121428997Y-86735761D01*
X121428988Y-86735758D01*
X121209197Y-86676866D01*
X121209193Y-86676865D01*
X121209192Y-86676865D01*
X121209191Y-86676864D01*
X121209186Y-86676864D01*
X120982502Y-86657032D01*
X120982498Y-86657032D01*
X120755813Y-86676864D01*
X120755802Y-86676866D01*
X120536011Y-86735758D01*
X120536002Y-86735761D01*
X120329767Y-86831931D01*
X120329765Y-86831932D01*
X120143358Y-86962454D01*
X119982454Y-87123358D01*
X119851932Y-87309765D01*
X119851931Y-87309767D01*
X119755761Y-87516002D01*
X119755758Y-87516011D01*
X119696866Y-87735802D01*
X119696864Y-87735813D01*
X119677032Y-87962498D01*
X115720550Y-87962498D01*
X115733302Y-87906630D01*
X115746103Y-87735808D01*
X115752908Y-87645004D01*
X115752908Y-87644995D01*
X115733303Y-87383379D01*
X115733302Y-87383374D01*
X115733302Y-87383370D01*
X115674920Y-87127584D01*
X115579068Y-86883357D01*
X115447886Y-86656143D01*
X115284305Y-86451019D01*
X115284304Y-86451018D01*
X115284301Y-86451014D01*
X115091979Y-86272567D01*
X114875204Y-86124772D01*
X114875200Y-86124770D01*
X114875197Y-86124768D01*
X114875196Y-86124767D01*
X114638825Y-86010938D01*
X114638827Y-86010938D01*
X114388123Y-85933606D01*
X114388119Y-85933605D01*
X114388115Y-85933604D01*
X114263323Y-85914794D01*
X114128687Y-85894500D01*
X114128682Y-85894500D01*
X113866318Y-85894500D01*
X113866312Y-85894500D01*
X113704747Y-85918853D01*
X113606885Y-85933604D01*
X113606882Y-85933605D01*
X113606876Y-85933606D01*
X113356173Y-86010938D01*
X113119803Y-86124767D01*
X113119802Y-86124768D01*
X112903020Y-86272567D01*
X112710698Y-86451014D01*
X112547114Y-86656143D01*
X112415932Y-86883356D01*
X112320082Y-87127578D01*
X112320076Y-87127597D01*
X112261697Y-87383374D01*
X112261696Y-87383379D01*
X112242092Y-87644995D01*
X108248000Y-87644995D01*
X108248000Y-73527486D01*
X109207000Y-73527486D01*
X109207000Y-73822513D01*
X109222278Y-73938555D01*
X109245507Y-74114993D01*
X109321861Y-74399951D01*
X109321864Y-74399961D01*
X109434754Y-74672500D01*
X109434758Y-74672510D01*
X109582261Y-74927993D01*
X109761852Y-75162040D01*
X109761858Y-75162047D01*
X109970452Y-75370641D01*
X109970459Y-75370647D01*
X110204506Y-75550238D01*
X110459989Y-75697741D01*
X110459990Y-75697741D01*
X110459993Y-75697743D01*
X110732548Y-75810639D01*
X111017507Y-75886993D01*
X111309994Y-75925500D01*
X111310001Y-75925500D01*
X111604999Y-75925500D01*
X111605006Y-75925500D01*
X111897493Y-75886993D01*
X112182452Y-75810639D01*
X112455007Y-75697743D01*
X112477711Y-75684635D01*
X119682000Y-75684635D01*
X119682000Y-77380370D01*
X119682001Y-77380376D01*
X119688408Y-77439983D01*
X119738702Y-77574828D01*
X119738706Y-77574835D01*
X119824952Y-77690044D01*
X119824955Y-77690047D01*
X119940164Y-77776293D01*
X119940171Y-77776297D01*
X120075017Y-77826591D01*
X120075016Y-77826591D01*
X120081944Y-77827335D01*
X120134627Y-77833000D01*
X121830372Y-77832999D01*
X121889983Y-77826591D01*
X122024831Y-77776296D01*
X122140046Y-77690046D01*
X122226296Y-77574831D01*
X122276591Y-77439983D01*
X122283000Y-77380373D01*
X122282999Y-75684628D01*
X122276591Y-75625017D01*
X122248700Y-75550238D01*
X122226297Y-75490171D01*
X122226293Y-75490164D01*
X122140047Y-75374955D01*
X122140044Y-75374952D01*
X122024835Y-75288706D01*
X122024828Y-75288702D01*
X121889982Y-75238408D01*
X121889983Y-75238408D01*
X121830383Y-75232001D01*
X121830381Y-75232000D01*
X121830373Y-75232000D01*
X121830364Y-75232000D01*
X120134629Y-75232000D01*
X120134623Y-75232001D01*
X120075016Y-75238408D01*
X119940171Y-75288702D01*
X119940164Y-75288706D01*
X119824955Y-75374952D01*
X119824952Y-75374955D01*
X119738706Y-75490164D01*
X119738702Y-75490171D01*
X119688408Y-75625017D01*
X119682001Y-75684616D01*
X119682001Y-75684623D01*
X119682000Y-75684635D01*
X112477711Y-75684635D01*
X112710494Y-75550238D01*
X112944542Y-75370646D01*
X113153146Y-75162042D01*
X113332738Y-74927994D01*
X113480243Y-74672507D01*
X113593139Y-74399952D01*
X113669493Y-74114993D01*
X113708000Y-73822506D01*
X113708000Y-73586421D01*
X115412000Y-73586421D01*
X115412000Y-73763578D01*
X115439714Y-73938556D01*
X115494456Y-74107039D01*
X115494457Y-74107042D01*
X115574886Y-74264890D01*
X115679017Y-74408214D01*
X115804286Y-74533483D01*
X115947610Y-74637614D01*
X116016077Y-74672500D01*
X116105457Y-74718042D01*
X116105460Y-74718043D01*
X116189701Y-74745414D01*
X116273945Y-74772786D01*
X116448921Y-74800500D01*
X116448922Y-74800500D01*
X116626078Y-74800500D01*
X116626079Y-74800500D01*
X116801055Y-74772786D01*
X116969542Y-74718042D01*
X117127390Y-74637614D01*
X117270714Y-74533483D01*
X117395983Y-74408214D01*
X117500114Y-74264890D01*
X117580542Y-74107042D01*
X117635286Y-73938555D01*
X117663000Y-73763579D01*
X117663000Y-73586421D01*
X117635286Y-73411445D01*
X117580542Y-73242958D01*
X117580542Y-73242957D01*
X117500113Y-73085109D01*
X117395983Y-72941786D01*
X117270714Y-72816517D01*
X117127390Y-72712386D01*
X117112227Y-72704660D01*
X116969542Y-72631957D01*
X116969539Y-72631956D01*
X116801056Y-72577214D01*
X116713567Y-72563357D01*
X116626079Y-72549500D01*
X116448921Y-72549500D01*
X116390595Y-72558738D01*
X116273943Y-72577214D01*
X116105460Y-72631956D01*
X116105457Y-72631957D01*
X115947609Y-72712386D01*
X115889072Y-72754916D01*
X115804286Y-72816517D01*
X115804284Y-72816519D01*
X115804283Y-72816519D01*
X115679019Y-72941783D01*
X115679019Y-72941784D01*
X115679017Y-72941786D01*
X115647550Y-72985097D01*
X115574886Y-73085109D01*
X115494457Y-73242957D01*
X115494456Y-73242960D01*
X115439714Y-73411443D01*
X115412000Y-73586421D01*
X113708000Y-73586421D01*
X113708000Y-73527494D01*
X113669493Y-73235007D01*
X113593139Y-72950048D01*
X113593132Y-72950032D01*
X113537829Y-72816519D01*
X113480243Y-72677493D01*
X113467388Y-72655228D01*
X113332738Y-72422006D01*
X113153147Y-72187959D01*
X113153141Y-72187952D01*
X112944547Y-71979358D01*
X112944540Y-71979352D01*
X112710493Y-71799761D01*
X112455010Y-71652258D01*
X112455000Y-71652254D01*
X112182461Y-71539364D01*
X112182454Y-71539362D01*
X112182452Y-71539361D01*
X111897493Y-71463007D01*
X111848613Y-71456571D01*
X111605013Y-71424500D01*
X111605006Y-71424500D01*
X111309994Y-71424500D01*
X111309986Y-71424500D01*
X111031585Y-71461153D01*
X111017507Y-71463007D01*
X110753347Y-71533788D01*
X110732548Y-71539361D01*
X110732538Y-71539364D01*
X110459999Y-71652254D01*
X110459989Y-71652258D01*
X110204506Y-71799761D01*
X109970459Y-71979352D01*
X109970452Y-71979358D01*
X109761858Y-72187952D01*
X109761852Y-72187959D01*
X109582261Y-72422006D01*
X109434758Y-72677489D01*
X109434754Y-72677499D01*
X109321864Y-72950038D01*
X109321861Y-72950048D01*
X109285672Y-73085110D01*
X109245508Y-73235004D01*
X109245506Y-73235015D01*
X109207000Y-73527486D01*
X108248000Y-73527486D01*
X108248000Y-72866636D01*
X108267685Y-72799597D01*
X108318198Y-72754916D01*
X108525204Y-72655228D01*
X108741979Y-72507433D01*
X108934305Y-72328981D01*
X109097886Y-72123857D01*
X109229068Y-71896643D01*
X109324920Y-71652416D01*
X109383302Y-71396630D01*
X109402908Y-71135000D01*
X109383302Y-70873370D01*
X109324920Y-70617584D01*
X109229068Y-70373357D01*
X109097886Y-70146143D01*
X108934305Y-69941019D01*
X108934304Y-69941018D01*
X108934301Y-69941014D01*
X108741979Y-69762567D01*
X108525204Y-69614772D01*
X108525200Y-69614770D01*
X108525197Y-69614768D01*
X108525196Y-69614767D01*
X108288825Y-69500938D01*
X108288827Y-69500938D01*
X108038123Y-69423606D01*
X108038119Y-69423605D01*
X108038115Y-69423604D01*
X107913323Y-69404794D01*
X107778687Y-69384500D01*
X107778682Y-69384500D01*
X107516318Y-69384500D01*
X107516312Y-69384500D01*
X107354747Y-69408853D01*
X107256885Y-69423604D01*
X107256882Y-69423605D01*
X107256876Y-69423606D01*
X107006173Y-69500938D01*
X106769803Y-69614767D01*
X106769802Y-69614768D01*
X106553020Y-69762567D01*
X106360698Y-69941014D01*
X106197114Y-70146143D01*
X106065932Y-70373356D01*
X105970082Y-70617578D01*
X105970076Y-70617597D01*
X105911697Y-70873374D01*
X105911696Y-70873379D01*
X105892092Y-71134995D01*
X105892092Y-71135004D01*
X105911696Y-71396620D01*
X105911697Y-71396625D01*
X105970076Y-71652402D01*
X105970078Y-71652411D01*
X105970080Y-71652416D01*
X106065932Y-71896643D01*
X106197114Y-72123857D01*
X106248233Y-72187958D01*
X106360697Y-72328984D01*
X106366877Y-72334717D01*
X106402633Y-72394744D01*
X106400260Y-72464574D01*
X106360511Y-72522035D01*
X106296006Y-72548884D01*
X106292288Y-72549234D01*
X106288928Y-72549498D01*
X106113943Y-72577214D01*
X105945460Y-72631956D01*
X105945457Y-72631957D01*
X105787609Y-72712386D01*
X105729072Y-72754916D01*
X105644286Y-72816517D01*
X105644284Y-72816519D01*
X105644283Y-72816519D01*
X105519019Y-72941783D01*
X105519019Y-72941784D01*
X105519017Y-72941786D01*
X105487550Y-72985097D01*
X105414886Y-73085109D01*
X105334457Y-73242957D01*
X105334456Y-73242960D01*
X105279714Y-73411443D01*
X105252000Y-73586421D01*
X105252000Y-73763578D01*
X105279714Y-73938556D01*
X105334456Y-74107039D01*
X105334457Y-74107042D01*
X105414886Y-74264890D01*
X105519017Y-74408214D01*
X105644286Y-74533483D01*
X105787610Y-74637614D01*
X105856077Y-74672500D01*
X105945457Y-74718042D01*
X105945460Y-74718043D01*
X106029701Y-74745414D01*
X106113945Y-74772786D01*
X106288921Y-74800500D01*
X106288922Y-74800500D01*
X106466078Y-74800500D01*
X106466079Y-74800500D01*
X106641055Y-74772786D01*
X106809542Y-74718042D01*
X106866705Y-74688915D01*
X106935373Y-74676019D01*
X107000113Y-74702294D01*
X107040371Y-74759400D01*
X107047000Y-74799400D01*
X107047000Y-88453363D01*
X107027315Y-88520402D01*
X106976802Y-88565083D01*
X106769800Y-88664769D01*
X106553020Y-88812567D01*
X106360698Y-88991014D01*
X106197114Y-89196143D01*
X106065932Y-89423356D01*
X105970082Y-89667578D01*
X105970076Y-89667597D01*
X105911697Y-89923374D01*
X105911696Y-89923379D01*
X105892092Y-90184995D01*
X105892092Y-90185004D01*
X105911696Y-90446620D01*
X105911697Y-90446625D01*
X105970076Y-90702402D01*
X105970078Y-90702411D01*
X105970080Y-90702416D01*
X106065932Y-90946643D01*
X106197114Y-91173857D01*
X106248233Y-91237958D01*
X106360697Y-91378984D01*
X106366877Y-91384717D01*
X106402633Y-91444744D01*
X106400260Y-91514574D01*
X106360511Y-91572035D01*
X106296006Y-91598884D01*
X106292288Y-91599234D01*
X106288928Y-91599498D01*
X106113943Y-91627214D01*
X105945460Y-91681956D01*
X105945457Y-91681957D01*
X105787609Y-91762386D01*
X105729072Y-91804916D01*
X105644286Y-91866517D01*
X105644284Y-91866519D01*
X105644283Y-91866519D01*
X105519019Y-91991783D01*
X105519019Y-91991784D01*
X105519017Y-91991786D01*
X105474296Y-92053338D01*
X105414886Y-92135109D01*
X105334457Y-92292957D01*
X105334456Y-92292960D01*
X105279714Y-92461443D01*
X105252000Y-92636421D01*
X105252000Y-92813578D01*
X105279714Y-92988556D01*
X105334456Y-93157039D01*
X105334457Y-93157042D01*
X105412130Y-93309481D01*
X105414886Y-93314890D01*
X105519017Y-93458214D01*
X105644286Y-93583483D01*
X105787610Y-93687614D01*
X105856077Y-93722500D01*
X105945457Y-93768042D01*
X105945460Y-93768043D01*
X106029701Y-93795414D01*
X106113945Y-93822786D01*
X106288921Y-93850500D01*
X106288922Y-93850500D01*
X106466078Y-93850500D01*
X106466079Y-93850500D01*
X106641055Y-93822786D01*
X106809542Y-93768042D01*
X106866705Y-93738915D01*
X106935373Y-93726019D01*
X107000113Y-93752294D01*
X107040371Y-93809400D01*
X107047000Y-93849400D01*
X107047000Y-100130467D01*
X107027315Y-100197506D01*
X106974511Y-100243261D01*
X106905353Y-100253205D01*
X106841797Y-100224180D01*
X106835319Y-100218148D01*
X104019801Y-97402630D01*
X103986316Y-97341307D01*
X103983482Y-97314949D01*
X103983482Y-94697458D01*
X104003167Y-94630419D01*
X104010537Y-94620143D01*
X104012792Y-94617313D01*
X104012798Y-94617308D01*
X104108771Y-94464568D01*
X104168350Y-94294301D01*
X104169736Y-94282000D01*
X104188547Y-94115049D01*
X104188547Y-94115042D01*
X104168351Y-93935796D01*
X104168350Y-93935791D01*
X104138120Y-93849400D01*
X104108771Y-93765524D01*
X104081743Y-93722510D01*
X104012797Y-93612783D01*
X103885244Y-93485230D01*
X103732505Y-93389257D01*
X103562236Y-93329677D01*
X103562231Y-93329676D01*
X103382986Y-93309481D01*
X103382978Y-93309481D01*
X103203732Y-93329676D01*
X103203727Y-93329677D01*
X103033458Y-93389257D01*
X102880719Y-93485230D01*
X102753166Y-93612783D01*
X102657193Y-93765522D01*
X102597613Y-93935791D01*
X102597612Y-93935796D01*
X102577417Y-94115043D01*
X102577417Y-94115049D01*
X102580692Y-94144117D01*
X102568637Y-94212939D01*
X102521288Y-94264318D01*
X102457472Y-94282000D01*
X101084629Y-94282000D01*
X101084623Y-94282001D01*
X101025016Y-94288408D01*
X100890171Y-94338702D01*
X100890164Y-94338706D01*
X100774955Y-94424952D01*
X100774952Y-94424955D01*
X100688706Y-94540164D01*
X100688702Y-94540171D01*
X100638408Y-94675017D01*
X100635996Y-94697458D01*
X100632001Y-94734623D01*
X100632000Y-94734635D01*
X100632000Y-96430370D01*
X100632001Y-96430376D01*
X100638408Y-96489983D01*
X100688702Y-96624828D01*
X100688706Y-96624835D01*
X100774952Y-96740044D01*
X100774955Y-96740047D01*
X100890164Y-96826293D01*
X100890171Y-96826297D01*
X101025017Y-96876591D01*
X101025016Y-96876591D01*
X101031944Y-96877335D01*
X101084627Y-96883000D01*
X102658482Y-96882999D01*
X102725521Y-96902684D01*
X102771276Y-96955487D01*
X102782482Y-97006999D01*
X102782482Y-97528376D01*
X102782481Y-97528394D01*
X102782481Y-97694100D01*
X102782480Y-97694100D01*
X102823405Y-97846831D01*
X102852340Y-97896946D01*
X102852341Y-97896950D01*
X102852342Y-97896950D01*
X102902461Y-97983760D01*
X102902463Y-97983763D01*
X103021331Y-98102631D01*
X103021337Y-98102636D01*
X106052280Y-101133579D01*
X106085765Y-101194902D01*
X106087819Y-101207376D01*
X106097612Y-101294295D01*
X106157192Y-101464567D01*
X106202070Y-101535989D01*
X106253166Y-101617308D01*
X106380720Y-101744862D01*
X106425557Y-101773035D01*
X106498375Y-101818790D01*
X106533460Y-101840835D01*
X106670493Y-101888785D01*
X106703727Y-101900414D01*
X106703732Y-101900415D01*
X106882979Y-101920611D01*
X106882981Y-101920611D01*
X106882981Y-101920610D01*
X106882982Y-101920611D01*
X106909115Y-101917666D01*
X106977936Y-101929719D01*
X107029316Y-101977067D01*
X107047000Y-102040886D01*
X107047000Y-105419958D01*
X107027315Y-105486997D01*
X106974511Y-105532752D01*
X106905353Y-105542696D01*
X106841797Y-105513671D01*
X106835319Y-105507639D01*
X104983619Y-103655939D01*
X104983617Y-103655936D01*
X104864746Y-103537065D01*
X104864745Y-103537064D01*
X104777933Y-103486944D01*
X104777933Y-103486943D01*
X104777929Y-103486942D01*
X104727814Y-103458007D01*
X104575086Y-103417083D01*
X104416972Y-103417083D01*
X104409376Y-103417083D01*
X104409360Y-103417084D01*
X95512384Y-103417084D01*
X95445345Y-103397399D01*
X95399590Y-103344595D01*
X95389646Y-103275437D01*
X95418671Y-103211881D01*
X95424703Y-103205403D01*
X95448533Y-103181573D01*
X95512798Y-103117308D01*
X95608771Y-102964568D01*
X95668350Y-102794301D01*
X95668351Y-102794295D01*
X95688547Y-102615049D01*
X95688547Y-102615042D01*
X95668351Y-102435796D01*
X95668350Y-102435791D01*
X95660684Y-102413882D01*
X95608771Y-102265524D01*
X95512798Y-102112784D01*
X95512796Y-102112782D01*
X95512795Y-102112780D01*
X95510532Y-102109942D01*
X95509641Y-102107761D01*
X95509093Y-102106888D01*
X95509246Y-102106791D01*
X95484126Y-102045255D01*
X95483482Y-102032633D01*
X95483482Y-101535992D01*
X95483482Y-101535989D01*
X95465071Y-101467276D01*
X95442559Y-101383261D01*
X95396603Y-101303664D01*
X95391197Y-101294301D01*
X95363503Y-101246332D01*
X95363502Y-101246330D01*
X95251698Y-101134526D01*
X95251697Y-101134525D01*
X95247367Y-101130195D01*
X95247356Y-101130185D01*
X95232217Y-101115046D01*
X100277533Y-101115046D01*
X100297299Y-101366197D01*
X100356108Y-101611156D01*
X100452515Y-101843905D01*
X100584142Y-102058699D01*
X100584143Y-102058702D01*
X100630330Y-102112780D01*
X100747758Y-102250270D01*
X100866105Y-102351348D01*
X100939325Y-102413884D01*
X100939328Y-102413885D01*
X101154122Y-102545512D01*
X101322001Y-102615049D01*
X101386871Y-102641919D01*
X101631834Y-102700729D01*
X101882982Y-102720495D01*
X102134130Y-102700729D01*
X102379093Y-102641919D01*
X102611841Y-102545512D01*
X102826641Y-102413882D01*
X103018206Y-102250270D01*
X103181818Y-102058705D01*
X103313448Y-101843905D01*
X103409855Y-101611157D01*
X103468665Y-101366194D01*
X103488431Y-101115046D01*
X103468665Y-100863898D01*
X103409855Y-100618935D01*
X103358462Y-100494861D01*
X103313448Y-100386186D01*
X103181821Y-100171392D01*
X103181820Y-100171389D01*
X103144857Y-100128112D01*
X103018206Y-99979822D01*
X102891553Y-99871650D01*
X102826638Y-99816207D01*
X102826635Y-99816206D01*
X102611841Y-99684579D01*
X102379092Y-99588172D01*
X102134133Y-99529363D01*
X101882982Y-99509597D01*
X101631830Y-99529363D01*
X101386871Y-99588172D01*
X101154122Y-99684579D01*
X100939328Y-99816206D01*
X100939325Y-99816207D01*
X100747758Y-99979822D01*
X100584143Y-100171389D01*
X100584142Y-100171392D01*
X100452515Y-100386186D01*
X100356108Y-100618935D01*
X100297299Y-100863894D01*
X100277533Y-101115046D01*
X95232217Y-101115046D01*
X91713682Y-97596511D01*
X91680197Y-97535188D01*
X91678145Y-97522732D01*
X91668350Y-97435791D01*
X91608771Y-97265524D01*
X91512798Y-97112784D01*
X91385244Y-96985230D01*
X91232505Y-96889257D01*
X91062236Y-96829677D01*
X91062231Y-96829676D01*
X90882986Y-96809481D01*
X90882978Y-96809481D01*
X90703732Y-96829676D01*
X90703727Y-96829677D01*
X90533458Y-96889257D01*
X90380719Y-96985230D01*
X90253166Y-97112783D01*
X90157193Y-97265522D01*
X90097613Y-97435791D01*
X90097612Y-97435796D01*
X90077417Y-97615042D01*
X90077417Y-97615049D01*
X90097612Y-97794295D01*
X90097613Y-97794300D01*
X90157193Y-97964569D01*
X90239505Y-98095567D01*
X90253166Y-98117308D01*
X90380720Y-98244862D01*
X90533460Y-98340835D01*
X90703727Y-98400414D01*
X90790651Y-98410207D01*
X90855062Y-98437272D01*
X90864447Y-98445746D01*
X94246163Y-101827462D01*
X94279648Y-101888785D01*
X94282482Y-101915143D01*
X94282482Y-102032633D01*
X94262797Y-102099672D01*
X94255432Y-102109942D01*
X94253168Y-102112780D01*
X94157193Y-102265522D01*
X94097613Y-102435791D01*
X94097612Y-102435795D01*
X94079897Y-102593027D01*
X94052830Y-102657441D01*
X93995235Y-102696996D01*
X93925399Y-102699133D01*
X93868996Y-102666824D01*
X92298682Y-101096511D01*
X92265197Y-101035188D01*
X92263145Y-101022732D01*
X92253350Y-100935791D01*
X92193771Y-100765524D01*
X92097798Y-100612784D01*
X91970244Y-100485230D01*
X91910815Y-100447888D01*
X91817505Y-100389257D01*
X91647236Y-100329677D01*
X91647231Y-100329676D01*
X91467986Y-100309481D01*
X91467978Y-100309481D01*
X91288732Y-100329676D01*
X91288727Y-100329677D01*
X91118458Y-100389257D01*
X90965719Y-100485230D01*
X90838166Y-100612783D01*
X90742193Y-100765523D01*
X90724524Y-100816019D01*
X90683802Y-100872795D01*
X90618849Y-100898542D01*
X90550287Y-100885086D01*
X90499885Y-100836698D01*
X90483482Y-100775064D01*
X90483482Y-99704106D01*
X90483483Y-99704093D01*
X90483483Y-99535990D01*
X90483483Y-99535989D01*
X90442559Y-99383262D01*
X90442555Y-99383255D01*
X90363506Y-99246336D01*
X90363504Y-99246333D01*
X90363503Y-99246332D01*
X90363502Y-99246330D01*
X90213680Y-99096509D01*
X90180197Y-99035188D01*
X90178145Y-99022732D01*
X90168350Y-98935791D01*
X90108771Y-98765524D01*
X90012798Y-98612784D01*
X89885244Y-98485230D01*
X89822406Y-98445746D01*
X89732505Y-98389257D01*
X89562236Y-98329677D01*
X89562231Y-98329676D01*
X89382986Y-98309481D01*
X89382978Y-98309481D01*
X89335883Y-98314787D01*
X89267061Y-98302732D01*
X89215682Y-98255383D01*
X89198000Y-98191567D01*
X89198000Y-92577486D01*
X90157000Y-92577486D01*
X90157000Y-92872513D01*
X90172278Y-92988555D01*
X90195507Y-93164993D01*
X90239634Y-93329677D01*
X90271861Y-93449951D01*
X90271864Y-93449961D01*
X90384754Y-93722500D01*
X90384758Y-93722510D01*
X90532261Y-93977993D01*
X90711852Y-94212040D01*
X90711858Y-94212047D01*
X90920452Y-94420641D01*
X90920459Y-94420647D01*
X91154506Y-94600238D01*
X91409989Y-94747741D01*
X91409990Y-94747741D01*
X91409993Y-94747743D01*
X91682548Y-94860639D01*
X91967507Y-94936993D01*
X92259994Y-94975500D01*
X92260001Y-94975500D01*
X92554999Y-94975500D01*
X92555006Y-94975500D01*
X92847493Y-94936993D01*
X93132452Y-94860639D01*
X93405007Y-94747743D01*
X93660494Y-94600238D01*
X93894542Y-94420646D01*
X94103146Y-94212042D01*
X94282738Y-93977994D01*
X94430243Y-93722507D01*
X94543139Y-93449952D01*
X94619493Y-93164993D01*
X94658000Y-92872506D01*
X94658000Y-92636421D01*
X96362000Y-92636421D01*
X96362000Y-92813578D01*
X96389714Y-92988556D01*
X96444456Y-93157039D01*
X96444457Y-93157042D01*
X96522130Y-93309481D01*
X96524886Y-93314890D01*
X96629017Y-93458214D01*
X96754286Y-93583483D01*
X96897610Y-93687614D01*
X96966077Y-93722500D01*
X97055457Y-93768042D01*
X97055460Y-93768043D01*
X97139701Y-93795414D01*
X97223945Y-93822786D01*
X97398921Y-93850500D01*
X97398922Y-93850500D01*
X97576078Y-93850500D01*
X97576079Y-93850500D01*
X97751055Y-93822786D01*
X97919542Y-93768042D01*
X98077390Y-93687614D01*
X98220714Y-93583483D01*
X98345983Y-93458214D01*
X98450114Y-93314890D01*
X98530542Y-93157042D01*
X98585286Y-92988555D01*
X98613000Y-92813579D01*
X98613000Y-92636421D01*
X98585286Y-92461445D01*
X98530542Y-92292958D01*
X98530542Y-92292957D01*
X98450113Y-92135109D01*
X98345983Y-91991786D01*
X98220714Y-91866517D01*
X98077390Y-91762386D01*
X97919542Y-91681957D01*
X97919539Y-91681956D01*
X97751056Y-91627214D01*
X97663567Y-91613357D01*
X97576079Y-91599500D01*
X97398921Y-91599500D01*
X97340595Y-91608738D01*
X97223943Y-91627214D01*
X97055460Y-91681956D01*
X97055457Y-91681957D01*
X96897609Y-91762386D01*
X96839072Y-91804916D01*
X96754286Y-91866517D01*
X96754284Y-91866519D01*
X96754283Y-91866519D01*
X96629019Y-91991783D01*
X96629019Y-91991784D01*
X96629017Y-91991786D01*
X96584296Y-92053338D01*
X96524886Y-92135109D01*
X96444457Y-92292957D01*
X96444456Y-92292960D01*
X96389714Y-92461443D01*
X96362000Y-92636421D01*
X94658000Y-92636421D01*
X94658000Y-92577494D01*
X94619493Y-92285007D01*
X94543139Y-92000048D01*
X94430243Y-91727493D01*
X94417388Y-91705228D01*
X94282738Y-91472006D01*
X94103147Y-91237959D01*
X94103141Y-91237952D01*
X93894547Y-91029358D01*
X93894540Y-91029352D01*
X93660493Y-90849761D01*
X93405010Y-90702258D01*
X93405000Y-90702254D01*
X93132461Y-90589364D01*
X93132454Y-90589362D01*
X93132452Y-90589361D01*
X92847493Y-90513007D01*
X92798613Y-90506571D01*
X92555013Y-90474500D01*
X92555006Y-90474500D01*
X92259994Y-90474500D01*
X92259986Y-90474500D01*
X91981585Y-90511153D01*
X91967507Y-90513007D01*
X91682548Y-90589361D01*
X91682538Y-90589364D01*
X91409999Y-90702254D01*
X91409989Y-90702258D01*
X91154506Y-90849761D01*
X90920459Y-91029352D01*
X90920452Y-91029358D01*
X90711858Y-91237952D01*
X90711852Y-91237959D01*
X90532261Y-91472006D01*
X90384758Y-91727489D01*
X90384754Y-91727499D01*
X90271864Y-92000038D01*
X90271861Y-92000048D01*
X90235672Y-92135110D01*
X90195508Y-92285004D01*
X90195506Y-92285015D01*
X90157000Y-92577486D01*
X89198000Y-92577486D01*
X89198000Y-91916636D01*
X89217685Y-91849597D01*
X89268198Y-91804916D01*
X89475204Y-91705228D01*
X89691979Y-91557433D01*
X89884305Y-91378981D01*
X90047886Y-91173857D01*
X90179068Y-90946643D01*
X90274920Y-90702416D01*
X90333302Y-90446630D01*
X90333303Y-90446620D01*
X90352908Y-90185004D01*
X90352908Y-90184995D01*
X90333303Y-89923379D01*
X90333302Y-89923374D01*
X90333302Y-89923370D01*
X90274920Y-89667584D01*
X90179068Y-89423357D01*
X90047886Y-89196143D01*
X89884305Y-88991019D01*
X89884304Y-88991018D01*
X89884301Y-88991014D01*
X89691979Y-88812567D01*
X89475204Y-88664772D01*
X89475201Y-88664771D01*
X89475199Y-88664769D01*
X89268198Y-88565083D01*
X89216339Y-88518261D01*
X89198000Y-88453363D01*
X89198000Y-87644995D01*
X93192092Y-87644995D01*
X93192092Y-87645004D01*
X93211696Y-87906620D01*
X93211697Y-87906625D01*
X93270076Y-88162402D01*
X93270078Y-88162411D01*
X93270080Y-88162416D01*
X93365932Y-88406643D01*
X93497114Y-88633857D01*
X93629236Y-88799533D01*
X93660698Y-88838985D01*
X93824548Y-88991014D01*
X93853021Y-89017433D01*
X94069796Y-89165228D01*
X94069801Y-89165230D01*
X94069802Y-89165231D01*
X94069803Y-89165232D01*
X94195343Y-89225688D01*
X94306173Y-89279061D01*
X94306174Y-89279061D01*
X94306177Y-89279063D01*
X94556885Y-89356396D01*
X94816318Y-89395500D01*
X95078682Y-89395500D01*
X95338115Y-89356396D01*
X95588823Y-89279063D01*
X95825204Y-89165228D01*
X96041979Y-89017433D01*
X96234305Y-88838981D01*
X96397886Y-88633857D01*
X96529068Y-88406643D01*
X96624920Y-88162416D01*
X96670550Y-87962498D01*
X100627032Y-87962498D01*
X100627032Y-87962501D01*
X100646864Y-88189186D01*
X100646866Y-88189197D01*
X100705758Y-88408988D01*
X100705761Y-88408997D01*
X100801931Y-88615232D01*
X100801932Y-88615234D01*
X100932454Y-88801641D01*
X101093358Y-88962545D01*
X101093361Y-88962547D01*
X101279766Y-89093068D01*
X101486004Y-89189239D01*
X101705808Y-89248135D01*
X101867730Y-89262301D01*
X101932498Y-89267968D01*
X101932500Y-89267968D01*
X101932502Y-89267968D01*
X101989173Y-89263009D01*
X102159192Y-89248135D01*
X102378996Y-89189239D01*
X102585234Y-89093068D01*
X102771639Y-88962547D01*
X102932547Y-88801639D01*
X103063068Y-88615234D01*
X103159239Y-88408996D01*
X103218135Y-88189192D01*
X103237968Y-87962500D01*
X103218135Y-87735808D01*
X103159239Y-87516004D01*
X103063068Y-87309766D01*
X102932547Y-87123361D01*
X102932545Y-87123358D01*
X102771641Y-86962454D01*
X102585234Y-86831932D01*
X102585232Y-86831931D01*
X102378997Y-86735761D01*
X102378988Y-86735758D01*
X102159197Y-86676866D01*
X102159193Y-86676865D01*
X102159192Y-86676865D01*
X102159191Y-86676864D01*
X102159186Y-86676864D01*
X101932502Y-86657032D01*
X101932498Y-86657032D01*
X101705813Y-86676864D01*
X101705802Y-86676866D01*
X101486011Y-86735758D01*
X101486002Y-86735761D01*
X101279767Y-86831931D01*
X101279765Y-86831932D01*
X101093358Y-86962454D01*
X100932454Y-87123358D01*
X100801932Y-87309765D01*
X100801931Y-87309767D01*
X100705761Y-87516002D01*
X100705758Y-87516011D01*
X100646866Y-87735802D01*
X100646864Y-87735813D01*
X100627032Y-87962498D01*
X96670550Y-87962498D01*
X96683302Y-87906630D01*
X96696103Y-87735808D01*
X96702908Y-87645004D01*
X96702908Y-87644995D01*
X96683303Y-87383379D01*
X96683302Y-87383374D01*
X96683302Y-87383370D01*
X96624920Y-87127584D01*
X96529068Y-86883357D01*
X96397886Y-86656143D01*
X96234305Y-86451019D01*
X96234304Y-86451018D01*
X96234301Y-86451014D01*
X96041979Y-86272567D01*
X95825204Y-86124772D01*
X95825200Y-86124770D01*
X95825197Y-86124768D01*
X95825196Y-86124767D01*
X95588825Y-86010938D01*
X95588827Y-86010938D01*
X95338123Y-85933606D01*
X95338119Y-85933605D01*
X95338115Y-85933604D01*
X95213323Y-85914794D01*
X95078687Y-85894500D01*
X95078682Y-85894500D01*
X94816318Y-85894500D01*
X94816312Y-85894500D01*
X94654747Y-85918853D01*
X94556885Y-85933604D01*
X94556882Y-85933605D01*
X94556876Y-85933606D01*
X94306173Y-86010938D01*
X94069803Y-86124767D01*
X94069802Y-86124768D01*
X93853020Y-86272567D01*
X93660698Y-86451014D01*
X93497114Y-86656143D01*
X93365932Y-86883356D01*
X93270082Y-87127578D01*
X93270076Y-87127597D01*
X93211697Y-87383374D01*
X93211696Y-87383379D01*
X93192092Y-87644995D01*
X89198000Y-87644995D01*
X89198000Y-73527486D01*
X90157000Y-73527486D01*
X90157000Y-73822513D01*
X90172278Y-73938555D01*
X90195507Y-74114993D01*
X90271861Y-74399951D01*
X90271864Y-74399961D01*
X90384754Y-74672500D01*
X90384758Y-74672510D01*
X90532261Y-74927993D01*
X90711852Y-75162040D01*
X90711858Y-75162047D01*
X90920452Y-75370641D01*
X90920459Y-75370647D01*
X91154506Y-75550238D01*
X91409989Y-75697741D01*
X91409990Y-75697741D01*
X91409993Y-75697743D01*
X91682548Y-75810639D01*
X91967507Y-75886993D01*
X92259994Y-75925500D01*
X92260001Y-75925500D01*
X92554999Y-75925500D01*
X92555006Y-75925500D01*
X92847493Y-75886993D01*
X93132452Y-75810639D01*
X93405007Y-75697743D01*
X93660494Y-75550238D01*
X93894542Y-75370646D01*
X94103146Y-75162042D01*
X94282738Y-74927994D01*
X94430243Y-74672507D01*
X94543139Y-74399952D01*
X94619493Y-74114993D01*
X94658000Y-73822506D01*
X94658000Y-73586421D01*
X96362000Y-73586421D01*
X96362000Y-73763578D01*
X96389714Y-73938556D01*
X96444456Y-74107039D01*
X96444457Y-74107042D01*
X96524886Y-74264890D01*
X96629017Y-74408214D01*
X96754286Y-74533483D01*
X96897610Y-74637614D01*
X96966077Y-74672500D01*
X97055457Y-74718042D01*
X97055460Y-74718043D01*
X97139701Y-74745414D01*
X97223945Y-74772786D01*
X97398921Y-74800500D01*
X97398922Y-74800500D01*
X97576078Y-74800500D01*
X97576079Y-74800500D01*
X97751055Y-74772786D01*
X97919542Y-74718042D01*
X98077390Y-74637614D01*
X98220714Y-74533483D01*
X98345983Y-74408214D01*
X98450114Y-74264890D01*
X98530542Y-74107042D01*
X98585286Y-73938555D01*
X98613000Y-73763579D01*
X98613000Y-73586421D01*
X98585286Y-73411445D01*
X98530542Y-73242958D01*
X98530542Y-73242957D01*
X98450113Y-73085109D01*
X98345983Y-72941786D01*
X98220714Y-72816517D01*
X98077390Y-72712386D01*
X98062227Y-72704660D01*
X97919542Y-72631957D01*
X97919539Y-72631956D01*
X97751056Y-72577214D01*
X97663567Y-72563357D01*
X97576079Y-72549500D01*
X97398921Y-72549500D01*
X97340595Y-72558738D01*
X97223943Y-72577214D01*
X97055460Y-72631956D01*
X97055457Y-72631957D01*
X96897609Y-72712386D01*
X96839072Y-72754916D01*
X96754286Y-72816517D01*
X96754284Y-72816519D01*
X96754283Y-72816519D01*
X96629019Y-72941783D01*
X96629019Y-72941784D01*
X96629017Y-72941786D01*
X96597550Y-72985097D01*
X96524886Y-73085109D01*
X96444457Y-73242957D01*
X96444456Y-73242960D01*
X96389714Y-73411443D01*
X96362000Y-73586421D01*
X94658000Y-73586421D01*
X94658000Y-73527494D01*
X94619493Y-73235007D01*
X94543139Y-72950048D01*
X94543132Y-72950032D01*
X94487829Y-72816519D01*
X94430243Y-72677493D01*
X94417388Y-72655228D01*
X94282738Y-72422006D01*
X94103147Y-72187959D01*
X94103141Y-72187952D01*
X93894547Y-71979358D01*
X93894540Y-71979352D01*
X93660493Y-71799761D01*
X93405010Y-71652258D01*
X93405000Y-71652254D01*
X93132461Y-71539364D01*
X93132454Y-71539362D01*
X93132452Y-71539361D01*
X92847493Y-71463007D01*
X92798613Y-71456571D01*
X92555013Y-71424500D01*
X92555006Y-71424500D01*
X92259994Y-71424500D01*
X92259986Y-71424500D01*
X91981585Y-71461153D01*
X91967507Y-71463007D01*
X91703347Y-71533788D01*
X91682548Y-71539361D01*
X91682538Y-71539364D01*
X91409999Y-71652254D01*
X91409989Y-71652258D01*
X91154506Y-71799761D01*
X90920459Y-71979352D01*
X90920452Y-71979358D01*
X90711858Y-72187952D01*
X90711852Y-72187959D01*
X90532261Y-72422006D01*
X90384758Y-72677489D01*
X90384754Y-72677499D01*
X90271864Y-72950038D01*
X90271861Y-72950048D01*
X90235672Y-73085110D01*
X90195508Y-73235004D01*
X90195506Y-73235015D01*
X90157000Y-73527486D01*
X89198000Y-73527486D01*
X89198000Y-72866636D01*
X89217685Y-72799597D01*
X89268198Y-72754916D01*
X89475204Y-72655228D01*
X89691979Y-72507433D01*
X89884305Y-72328981D01*
X90047886Y-72123857D01*
X90179068Y-71896643D01*
X90274920Y-71652416D01*
X90333302Y-71396630D01*
X90352908Y-71135000D01*
X90333302Y-70873370D01*
X90274920Y-70617584D01*
X90179068Y-70373357D01*
X90047886Y-70146143D01*
X89884305Y-69941019D01*
X89884304Y-69941018D01*
X89884301Y-69941014D01*
X89691979Y-69762567D01*
X89475204Y-69614772D01*
X89475200Y-69614770D01*
X89475197Y-69614768D01*
X89475196Y-69614767D01*
X89238825Y-69500938D01*
X89238827Y-69500938D01*
X88988123Y-69423606D01*
X88988119Y-69423605D01*
X88988115Y-69423604D01*
X88863323Y-69404794D01*
X88728687Y-69384500D01*
X88728682Y-69384500D01*
X88466318Y-69384500D01*
X88466312Y-69384500D01*
X88304747Y-69408853D01*
X88206885Y-69423604D01*
X88206882Y-69423605D01*
X88206876Y-69423606D01*
X87956173Y-69500938D01*
X87719803Y-69614767D01*
X87719802Y-69614768D01*
X87503020Y-69762567D01*
X87310698Y-69941014D01*
X87147114Y-70146143D01*
X87015932Y-70373356D01*
X86920082Y-70617578D01*
X86920076Y-70617597D01*
X86861697Y-70873374D01*
X86861696Y-70873379D01*
X86842092Y-71134995D01*
X86842092Y-71135004D01*
X86861696Y-71396620D01*
X86861697Y-71396625D01*
X86920076Y-71652402D01*
X86920078Y-71652411D01*
X86920080Y-71652416D01*
X87015932Y-71896643D01*
X87147114Y-72123857D01*
X87198233Y-72187958D01*
X87310697Y-72328984D01*
X87316877Y-72334717D01*
X87352633Y-72394744D01*
X87350260Y-72464574D01*
X87310511Y-72522035D01*
X87246006Y-72548884D01*
X87242288Y-72549234D01*
X87238928Y-72549498D01*
X87063943Y-72577214D01*
X86895460Y-72631956D01*
X86895457Y-72631957D01*
X86737609Y-72712386D01*
X86679072Y-72754916D01*
X86594286Y-72816517D01*
X86594284Y-72816519D01*
X86594283Y-72816519D01*
X86469019Y-72941783D01*
X86469019Y-72941784D01*
X86469017Y-72941786D01*
X86437550Y-72985097D01*
X86364886Y-73085109D01*
X86284457Y-73242957D01*
X86284456Y-73242960D01*
X86229714Y-73411443D01*
X86202000Y-73586421D01*
X83483000Y-73586421D01*
X83483000Y-71954695D01*
X83483000Y-71954693D01*
X83442077Y-71801966D01*
X83440804Y-71799761D01*
X83363024Y-71665040D01*
X83363021Y-71665036D01*
X83363020Y-71665034D01*
X83251216Y-71553230D01*
X83251215Y-71553229D01*
X83246885Y-71548899D01*
X83246874Y-71548889D01*
X80610483Y-68912498D01*
X81577032Y-68912498D01*
X81577032Y-68912501D01*
X81596864Y-69139186D01*
X81596866Y-69139197D01*
X81655758Y-69358988D01*
X81655761Y-69358997D01*
X81751931Y-69565232D01*
X81751932Y-69565234D01*
X81882454Y-69751641D01*
X82043358Y-69912545D01*
X82084016Y-69941014D01*
X82229766Y-70043068D01*
X82436004Y-70139239D01*
X82655808Y-70198135D01*
X82817730Y-70212301D01*
X82882498Y-70217968D01*
X82882500Y-70217968D01*
X82882502Y-70217968D01*
X82939173Y-70213009D01*
X83109192Y-70198135D01*
X83328996Y-70139239D01*
X83535234Y-70043068D01*
X83721639Y-69912547D01*
X83882547Y-69751639D01*
X84013068Y-69565234D01*
X84109239Y-69358996D01*
X84168135Y-69139192D01*
X84187968Y-68912500D01*
X84168135Y-68685808D01*
X84143802Y-68594995D01*
X93192092Y-68594995D01*
X93192092Y-68595004D01*
X93211696Y-68856620D01*
X93211697Y-68856625D01*
X93270076Y-69112402D01*
X93270078Y-69112411D01*
X93270080Y-69112416D01*
X93365932Y-69356643D01*
X93497114Y-69583857D01*
X93585035Y-69694106D01*
X93660698Y-69788985D01*
X93824548Y-69941014D01*
X93853021Y-69967433D01*
X94069796Y-70115228D01*
X94069801Y-70115230D01*
X94069802Y-70115231D01*
X94069803Y-70115232D01*
X94195343Y-70175688D01*
X94306173Y-70229061D01*
X94306174Y-70229061D01*
X94306177Y-70229063D01*
X94556885Y-70306396D01*
X94816318Y-70345500D01*
X95078682Y-70345500D01*
X95338115Y-70306396D01*
X95588823Y-70229063D01*
X95825204Y-70115228D01*
X96041979Y-69967433D01*
X96234305Y-69788981D01*
X96397886Y-69583857D01*
X96529068Y-69356643D01*
X96624920Y-69112416D01*
X96683302Y-68856630D01*
X96696103Y-68685808D01*
X96702908Y-68595004D01*
X96702908Y-68594995D01*
X96683303Y-68333379D01*
X96683302Y-68333374D01*
X96683302Y-68333370D01*
X96624920Y-68077584D01*
X96529068Y-67833357D01*
X96397886Y-67606143D01*
X96234305Y-67401019D01*
X96234304Y-67401018D01*
X96234301Y-67401014D01*
X96041979Y-67222567D01*
X95825204Y-67074772D01*
X95825200Y-67074770D01*
X95825197Y-67074768D01*
X95825196Y-67074767D01*
X95588825Y-66960938D01*
X95588827Y-66960938D01*
X95338123Y-66883606D01*
X95338119Y-66883605D01*
X95338115Y-66883604D01*
X95213323Y-66864794D01*
X95078687Y-66844500D01*
X95078682Y-66844500D01*
X94816318Y-66844500D01*
X94816312Y-66844500D01*
X94654747Y-66868853D01*
X94556885Y-66883604D01*
X94556882Y-66883605D01*
X94556876Y-66883606D01*
X94306173Y-66960938D01*
X94069803Y-67074767D01*
X94069802Y-67074768D01*
X93853020Y-67222567D01*
X93660698Y-67401014D01*
X93497114Y-67606143D01*
X93365932Y-67833356D01*
X93270082Y-68077578D01*
X93270076Y-68077597D01*
X93211697Y-68333374D01*
X93211696Y-68333379D01*
X93192092Y-68594995D01*
X84143802Y-68594995D01*
X84109239Y-68466004D01*
X84013068Y-68259766D01*
X83882547Y-68073361D01*
X83882545Y-68073358D01*
X83721641Y-67912454D01*
X83535234Y-67781932D01*
X83535232Y-67781931D01*
X83328997Y-67685761D01*
X83328988Y-67685758D01*
X83109197Y-67626866D01*
X83109193Y-67626865D01*
X83109192Y-67626865D01*
X83109191Y-67626864D01*
X83109186Y-67626864D01*
X82882502Y-67607032D01*
X82882498Y-67607032D01*
X82655813Y-67626864D01*
X82655802Y-67626866D01*
X82436011Y-67685758D01*
X82436002Y-67685761D01*
X82229767Y-67781931D01*
X82229765Y-67781932D01*
X82043358Y-67912454D01*
X81882454Y-68073358D01*
X81751932Y-68259765D01*
X81751931Y-68259767D01*
X81655761Y-68466002D01*
X81655758Y-68466011D01*
X81596866Y-68685802D01*
X81596864Y-68685813D01*
X81577032Y-68912498D01*
X80610483Y-68912498D01*
X74400485Y-62702500D01*
X84845801Y-62702500D01*
X84865567Y-62953651D01*
X84924376Y-63198610D01*
X85020783Y-63431359D01*
X85152410Y-63646153D01*
X85152411Y-63646156D01*
X85152414Y-63646159D01*
X85316026Y-63837724D01*
X85390510Y-63901339D01*
X85507593Y-64001338D01*
X85507596Y-64001339D01*
X85722390Y-64132966D01*
X85955139Y-64229373D01*
X86200102Y-64288183D01*
X86451250Y-64307949D01*
X86702398Y-64288183D01*
X86947361Y-64229373D01*
X87180109Y-64132966D01*
X87394909Y-64001336D01*
X87586474Y-63837724D01*
X87750086Y-63646159D01*
X87881716Y-63431359D01*
X87978123Y-63198611D01*
X88036933Y-62953648D01*
X88056699Y-62702500D01*
X88036933Y-62451352D01*
X87978123Y-62206389D01*
X87881716Y-61973641D01*
X87881716Y-61973640D01*
X87750089Y-61758846D01*
X87750088Y-61758843D01*
X87664682Y-61658846D01*
X87586474Y-61567276D01*
X87459821Y-61459104D01*
X87394906Y-61403661D01*
X87394903Y-61403660D01*
X87180109Y-61272033D01*
X86947360Y-61175626D01*
X86702401Y-61116817D01*
X86451250Y-61097051D01*
X86200098Y-61116817D01*
X85955139Y-61175626D01*
X85722390Y-61272033D01*
X85507596Y-61403660D01*
X85507593Y-61403661D01*
X85316026Y-61567276D01*
X85152411Y-61758843D01*
X85152410Y-61758846D01*
X85020783Y-61973640D01*
X84924376Y-62206389D01*
X84865567Y-62451348D01*
X84845801Y-62702500D01*
X74400485Y-62702500D01*
X70194198Y-58496213D01*
X72102000Y-58496213D01*
X72102000Y-58708786D01*
X72135253Y-58918739D01*
X72200944Y-59120914D01*
X72297451Y-59310320D01*
X72422390Y-59482286D01*
X72572713Y-59632609D01*
X72744679Y-59757548D01*
X72744681Y-59757549D01*
X72744684Y-59757551D01*
X72934088Y-59854057D01*
X73136257Y-59919746D01*
X73346213Y-59953000D01*
X73346214Y-59953000D01*
X73558786Y-59953000D01*
X73558787Y-59953000D01*
X73768743Y-59919746D01*
X73970912Y-59854057D01*
X74160316Y-59757551D01*
X74182289Y-59741586D01*
X74332286Y-59632609D01*
X74332288Y-59632606D01*
X74332292Y-59632604D01*
X74482604Y-59482292D01*
X74482606Y-59482288D01*
X74482609Y-59482286D01*
X74607548Y-59310320D01*
X74607547Y-59310320D01*
X74607551Y-59310316D01*
X74704057Y-59120912D01*
X74769746Y-58918743D01*
X74803000Y-58708787D01*
X74803000Y-58496213D01*
X74769746Y-58286257D01*
X74704057Y-58084088D01*
X74607551Y-57894684D01*
X74607549Y-57894681D01*
X74607548Y-57894679D01*
X74482609Y-57722713D01*
X74332286Y-57572390D01*
X74160320Y-57447451D01*
X73970914Y-57350944D01*
X73970913Y-57350943D01*
X73970912Y-57350943D01*
X73768743Y-57285254D01*
X73768741Y-57285253D01*
X73768740Y-57285253D01*
X73607457Y-57259708D01*
X73558787Y-57252000D01*
X73346213Y-57252000D01*
X73297542Y-57259708D01*
X73136260Y-57285253D01*
X72934085Y-57350944D01*
X72744679Y-57447451D01*
X72572713Y-57572390D01*
X72422390Y-57722713D01*
X72297451Y-57894679D01*
X72200944Y-58084085D01*
X72135253Y-58286260D01*
X72102000Y-58496213D01*
X70194198Y-58496213D01*
X64469319Y-52771334D01*
X64435834Y-52710011D01*
X64433000Y-52683653D01*
X64433000Y-52032596D01*
X64452685Y-51965557D01*
X64469314Y-51944920D01*
X74548915Y-41865318D01*
X74610236Y-41831835D01*
X74679928Y-41836819D01*
X74735861Y-41878691D01*
X74747078Y-41896705D01*
X74762974Y-41927902D01*
X74762976Y-41927905D01*
X74878672Y-42087146D01*
X75017854Y-42226328D01*
X75177095Y-42342024D01*
X75300492Y-42404897D01*
X75353713Y-42432015D01*
X75404509Y-42479989D01*
X75421304Y-42547810D01*
X75398767Y-42613945D01*
X75353713Y-42652985D01*
X75177094Y-42742976D01*
X75113396Y-42789256D01*
X75017854Y-42858672D01*
X75017852Y-42858674D01*
X75017851Y-42858674D01*
X74878674Y-42997851D01*
X74878674Y-42997852D01*
X74878672Y-42997854D01*
X74867825Y-43012784D01*
X74762976Y-43157094D01*
X74673617Y-43332470D01*
X74612790Y-43519673D01*
X74582000Y-43714077D01*
X74582000Y-43910922D01*
X74612790Y-44105326D01*
X74673617Y-44292529D01*
X74709458Y-44362870D01*
X74762976Y-44467905D01*
X74878672Y-44627146D01*
X75017854Y-44766328D01*
X75177095Y-44882024D01*
X75300492Y-44944897D01*
X75353713Y-44972015D01*
X75404509Y-45019989D01*
X75421304Y-45087810D01*
X75398767Y-45153945D01*
X75353713Y-45192985D01*
X75177094Y-45282976D01*
X75086241Y-45348985D01*
X75017854Y-45398672D01*
X75017852Y-45398674D01*
X75017851Y-45398674D01*
X74878674Y-45537851D01*
X74878674Y-45537852D01*
X74878672Y-45537854D01*
X74838939Y-45592541D01*
X74762976Y-45697094D01*
X74673617Y-45872470D01*
X74612790Y-46059673D01*
X74582000Y-46254077D01*
X74582000Y-46450922D01*
X74612790Y-46645326D01*
X74673617Y-46832529D01*
X74755984Y-46994182D01*
X74762976Y-47007905D01*
X74878672Y-47167146D01*
X75017854Y-47306328D01*
X75177095Y-47422024D01*
X75285626Y-47477323D01*
X75353713Y-47512015D01*
X75404509Y-47559989D01*
X75421304Y-47627810D01*
X75398767Y-47693945D01*
X75353713Y-47732985D01*
X75177094Y-47822976D01*
X75100278Y-47878787D01*
X75017854Y-47938672D01*
X75017852Y-47938674D01*
X75017851Y-47938674D01*
X74878674Y-48077851D01*
X74878674Y-48077852D01*
X74878672Y-48077854D01*
X74851648Y-48115049D01*
X74762976Y-48237094D01*
X74673617Y-48412470D01*
X74612790Y-48599673D01*
X74582000Y-48794077D01*
X74582000Y-48990922D01*
X74612790Y-49185326D01*
X74673617Y-49372529D01*
X74762976Y-49547905D01*
X74878672Y-49707146D01*
X75017854Y-49846328D01*
X75177095Y-49962024D01*
X75300492Y-50024897D01*
X75353713Y-50052015D01*
X75404509Y-50099989D01*
X75421304Y-50167810D01*
X75398767Y-50233945D01*
X75353713Y-50272985D01*
X75177094Y-50362976D01*
X75086241Y-50428985D01*
X75017854Y-50478672D01*
X75017852Y-50478674D01*
X75017851Y-50478674D01*
X74878674Y-50617851D01*
X74878674Y-50617852D01*
X74878672Y-50617854D01*
X74849862Y-50657507D01*
X74762976Y-50777094D01*
X74673617Y-50952470D01*
X74612790Y-51139673D01*
X74582000Y-51334077D01*
X74582000Y-51530922D01*
X74612790Y-51725326D01*
X74673617Y-51912529D01*
X74708625Y-51981235D01*
X74762976Y-52087905D01*
X74878672Y-52247146D01*
X74878674Y-52247148D01*
X74934391Y-52302865D01*
X74967876Y-52364188D01*
X74962892Y-52433880D01*
X74921020Y-52489813D01*
X74855556Y-52514230D01*
X74846710Y-52514546D01*
X67465394Y-52514546D01*
X67398355Y-52494861D01*
X67388079Y-52487491D01*
X67385245Y-52485231D01*
X67385244Y-52485230D01*
X67303521Y-52433880D01*
X67232505Y-52389257D01*
X67062236Y-52329677D01*
X67062231Y-52329676D01*
X66882986Y-52309481D01*
X66882978Y-52309481D01*
X66703732Y-52329676D01*
X66703727Y-52329677D01*
X66533458Y-52389257D01*
X66380719Y-52485230D01*
X66253166Y-52612783D01*
X66157193Y-52765522D01*
X66097613Y-52935791D01*
X66097612Y-52935796D01*
X66077417Y-53115042D01*
X66077417Y-53115049D01*
X66097612Y-53294295D01*
X66097613Y-53294300D01*
X66157193Y-53464569D01*
X66174728Y-53492475D01*
X66253166Y-53617308D01*
X66380720Y-53744862D01*
X66533460Y-53840835D01*
X66703727Y-53900414D01*
X66703732Y-53900415D01*
X66882978Y-53920611D01*
X66882982Y-53920611D01*
X66882986Y-53920611D01*
X67062231Y-53900415D01*
X67062234Y-53900414D01*
X67062237Y-53900414D01*
X67232504Y-53840835D01*
X67385244Y-53744862D01*
X67385249Y-53744856D01*
X67388079Y-53742601D01*
X67390257Y-53741711D01*
X67391140Y-53741157D01*
X67391237Y-53741311D01*
X67452765Y-53716191D01*
X67465394Y-53715546D01*
X74461924Y-53715546D01*
X74528963Y-53735231D01*
X74574718Y-53788035D01*
X74584662Y-53857193D01*
X74584397Y-53858943D01*
X74582000Y-53874077D01*
X74582000Y-54070922D01*
X74612790Y-54265326D01*
X74673617Y-54452529D01*
X74747603Y-54597733D01*
X74762976Y-54627905D01*
X74878672Y-54787146D01*
X75017854Y-54926328D01*
X75177095Y-55042024D01*
X75300492Y-55104897D01*
X75353713Y-55132015D01*
X75404509Y-55179989D01*
X75421304Y-55247810D01*
X75398767Y-55313945D01*
X75353713Y-55352985D01*
X75177094Y-55442976D01*
X75086241Y-55508985D01*
X75017854Y-55558672D01*
X75017852Y-55558674D01*
X75017851Y-55558674D01*
X74878674Y-55697851D01*
X74878674Y-55697852D01*
X74878672Y-55697854D01*
X74843448Y-55746336D01*
X74762976Y-55857094D01*
X74673617Y-56032470D01*
X74612790Y-56219673D01*
X74582000Y-56414077D01*
X74582000Y-56610922D01*
X74612790Y-56805326D01*
X74673617Y-56992529D01*
X74744282Y-57131216D01*
X74762976Y-57167905D01*
X74878672Y-57327146D01*
X75017854Y-57466328D01*
X75177095Y-57582024D01*
X75233801Y-57610917D01*
X75352470Y-57671382D01*
X75352472Y-57671382D01*
X75352475Y-57671384D01*
X75452817Y-57703987D01*
X75539673Y-57732209D01*
X75734078Y-57763000D01*
X75734083Y-57763000D01*
X76930922Y-57763000D01*
X77125326Y-57732209D01*
X77312525Y-57671384D01*
X77487905Y-57582024D01*
X77647146Y-57466328D01*
X77786328Y-57327146D01*
X77897682Y-57173880D01*
X77953012Y-57131216D01*
X78022626Y-57125237D01*
X78084421Y-57157843D01*
X78118778Y-57218682D01*
X78122000Y-57246767D01*
X78122000Y-57610922D01*
X78152790Y-57805326D01*
X78213617Y-57992529D01*
X78260269Y-58084088D01*
X78302976Y-58167905D01*
X78418672Y-58327146D01*
X78557854Y-58466328D01*
X78717095Y-58582024D01*
X78799955Y-58624243D01*
X78892470Y-58671382D01*
X78892472Y-58671382D01*
X78892475Y-58671384D01*
X78992817Y-58703987D01*
X79079673Y-58732209D01*
X79274078Y-58763000D01*
X79274083Y-58763000D01*
X79470922Y-58763000D01*
X79665326Y-58732209D01*
X79852525Y-58671384D01*
X80027905Y-58582024D01*
X80187146Y-58466328D01*
X80326328Y-58327146D01*
X80442024Y-58167905D01*
X80531384Y-57992525D01*
X80532015Y-57991287D01*
X80579989Y-57940490D01*
X80647810Y-57923695D01*
X80713945Y-57946232D01*
X80752985Y-57991287D01*
X80842974Y-58167903D01*
X80877734Y-58215746D01*
X80958672Y-58327146D01*
X81097854Y-58466328D01*
X81257095Y-58582024D01*
X81339955Y-58624243D01*
X81432470Y-58671382D01*
X81432472Y-58671382D01*
X81432475Y-58671384D01*
X81532817Y-58703987D01*
X81619673Y-58732209D01*
X81814078Y-58763000D01*
X81814083Y-58763000D01*
X82010922Y-58763000D01*
X82205326Y-58732209D01*
X82392525Y-58671384D01*
X82567905Y-58582024D01*
X82727146Y-58466328D01*
X82866328Y-58327146D01*
X82982024Y-58167905D01*
X83071384Y-57992525D01*
X83072015Y-57991287D01*
X83119989Y-57940490D01*
X83187810Y-57923695D01*
X83253945Y-57946232D01*
X83292985Y-57991287D01*
X83382974Y-58167903D01*
X83417734Y-58215746D01*
X83498672Y-58327146D01*
X83637854Y-58466328D01*
X83797095Y-58582024D01*
X83879955Y-58624243D01*
X83972470Y-58671382D01*
X83972472Y-58671382D01*
X83972475Y-58671384D01*
X84072817Y-58703987D01*
X84159673Y-58732209D01*
X84354078Y-58763000D01*
X84354083Y-58763000D01*
X84550922Y-58763000D01*
X84745326Y-58732209D01*
X84932525Y-58671384D01*
X85107905Y-58582024D01*
X85267146Y-58466328D01*
X85406328Y-58327146D01*
X85522024Y-58167905D01*
X85611384Y-57992525D01*
X85612015Y-57991287D01*
X85659989Y-57940490D01*
X85727810Y-57923695D01*
X85793945Y-57946232D01*
X85832985Y-57991287D01*
X85922974Y-58167903D01*
X85957734Y-58215746D01*
X86038672Y-58327146D01*
X86177854Y-58466328D01*
X86337095Y-58582024D01*
X86419955Y-58624243D01*
X86512470Y-58671382D01*
X86512472Y-58671382D01*
X86512475Y-58671384D01*
X86612817Y-58703987D01*
X86699673Y-58732209D01*
X86894078Y-58763000D01*
X86894083Y-58763000D01*
X87090922Y-58763000D01*
X87285326Y-58732209D01*
X87472525Y-58671384D01*
X87647905Y-58582024D01*
X87807146Y-58466328D01*
X87946328Y-58327146D01*
X88062024Y-58167905D01*
X88151384Y-57992525D01*
X88152015Y-57991287D01*
X88199989Y-57940490D01*
X88267810Y-57923695D01*
X88333945Y-57946232D01*
X88372985Y-57991287D01*
X88462974Y-58167903D01*
X88497734Y-58215746D01*
X88578672Y-58327146D01*
X88717854Y-58466328D01*
X88877095Y-58582024D01*
X88959955Y-58624243D01*
X89052470Y-58671382D01*
X89052472Y-58671382D01*
X89052475Y-58671384D01*
X89152817Y-58703987D01*
X89239673Y-58732209D01*
X89434078Y-58763000D01*
X89434083Y-58763000D01*
X89630922Y-58763000D01*
X89825326Y-58732209D01*
X90012525Y-58671384D01*
X90187905Y-58582024D01*
X90306013Y-58496213D01*
X94102000Y-58496213D01*
X94102000Y-58708786D01*
X94135253Y-58918739D01*
X94200944Y-59120914D01*
X94297451Y-59310320D01*
X94422390Y-59482286D01*
X94572713Y-59632609D01*
X94744679Y-59757548D01*
X94744681Y-59757549D01*
X94744684Y-59757551D01*
X94934088Y-59854057D01*
X95136257Y-59919746D01*
X95346213Y-59953000D01*
X95346214Y-59953000D01*
X95558786Y-59953000D01*
X95558787Y-59953000D01*
X95768743Y-59919746D01*
X95970912Y-59854057D01*
X96160316Y-59757551D01*
X96182289Y-59741586D01*
X96332286Y-59632609D01*
X96332288Y-59632606D01*
X96332292Y-59632604D01*
X96482604Y-59482292D01*
X96482606Y-59482288D01*
X96482609Y-59482286D01*
X96607548Y-59310320D01*
X96607547Y-59310320D01*
X96607551Y-59310316D01*
X96704057Y-59120912D01*
X96769746Y-58918743D01*
X96803000Y-58708787D01*
X96803000Y-58496213D01*
X96769746Y-58286257D01*
X96704057Y-58084088D01*
X96607551Y-57894684D01*
X96607549Y-57894681D01*
X96607548Y-57894679D01*
X96482609Y-57722713D01*
X96332286Y-57572390D01*
X96160320Y-57447451D01*
X95970914Y-57350944D01*
X95970913Y-57350943D01*
X95970912Y-57350943D01*
X95768743Y-57285254D01*
X95768741Y-57285253D01*
X95768740Y-57285253D01*
X95607457Y-57259708D01*
X95558787Y-57252000D01*
X95346213Y-57252000D01*
X95297542Y-57259708D01*
X95136260Y-57285253D01*
X94934085Y-57350944D01*
X94744679Y-57447451D01*
X94572713Y-57572390D01*
X94422390Y-57722713D01*
X94297451Y-57894679D01*
X94200944Y-58084085D01*
X94135253Y-58286260D01*
X94102000Y-58496213D01*
X90306013Y-58496213D01*
X90347146Y-58466328D01*
X90486328Y-58327146D01*
X90602024Y-58167905D01*
X90691384Y-57992525D01*
X90752209Y-57805326D01*
X90758913Y-57763000D01*
X90783000Y-57610922D01*
X90783000Y-57246767D01*
X90802685Y-57179728D01*
X90855489Y-57133973D01*
X90924647Y-57124029D01*
X90988203Y-57153054D01*
X91007317Y-57173880D01*
X91118672Y-57327146D01*
X91257854Y-57466328D01*
X91417095Y-57582024D01*
X91473801Y-57610917D01*
X91592470Y-57671382D01*
X91592472Y-57671382D01*
X91592475Y-57671384D01*
X91692817Y-57703987D01*
X91779673Y-57732209D01*
X91974078Y-57763000D01*
X91974083Y-57763000D01*
X93170922Y-57763000D01*
X93365326Y-57732209D01*
X93552525Y-57671384D01*
X93727905Y-57582024D01*
X93887146Y-57466328D01*
X94026328Y-57327146D01*
X94142024Y-57167905D01*
X94231384Y-56992525D01*
X94292209Y-56805326D01*
X94323000Y-56610922D01*
X94323000Y-56414077D01*
X94292209Y-56219673D01*
X94232526Y-56035991D01*
X94231384Y-56032475D01*
X94231382Y-56032472D01*
X94231382Y-56032470D01*
X94184243Y-55939955D01*
X94142024Y-55857095D01*
X94026328Y-55697854D01*
X93887146Y-55558672D01*
X93731718Y-55445746D01*
X93727903Y-55442974D01*
X93551287Y-55352985D01*
X93500490Y-55305011D01*
X93483695Y-55237190D01*
X93506232Y-55171055D01*
X93551287Y-55132015D01*
X93727903Y-55042025D01*
X93727902Y-55042025D01*
X93727905Y-55042024D01*
X93887146Y-54926328D01*
X94026328Y-54787146D01*
X94142024Y-54627905D01*
X94142024Y-54627903D01*
X94144778Y-54624114D01*
X94200108Y-54581449D01*
X94245096Y-54573000D01*
X97961866Y-54573000D01*
X98028905Y-54592685D01*
X98074660Y-54645489D01*
X98085086Y-54683117D01*
X98097612Y-54794295D01*
X98097613Y-54794300D01*
X98157193Y-54964569D01*
X98253166Y-55117308D01*
X98380720Y-55244862D01*
X98533460Y-55340835D01*
X98703727Y-55400414D01*
X98790651Y-55410207D01*
X98855062Y-55437272D01*
X98864447Y-55445746D01*
X99746163Y-56327462D01*
X99779648Y-56388785D01*
X99782482Y-56415143D01*
X99782482Y-80814948D01*
X99762797Y-80881987D01*
X99746163Y-80902629D01*
X98902463Y-81746328D01*
X98902461Y-81746331D01*
X98852343Y-81833140D01*
X98852341Y-81833142D01*
X98823407Y-81883255D01*
X98823406Y-81883256D01*
X98823405Y-81883261D01*
X98782481Y-82035989D01*
X98782481Y-82035991D01*
X98782481Y-82204092D01*
X98782482Y-82204105D01*
X98782482Y-84032633D01*
X98762797Y-84099672D01*
X98755432Y-84109942D01*
X98753168Y-84112780D01*
X98657193Y-84265522D01*
X98597613Y-84435791D01*
X98597612Y-84435796D01*
X98577417Y-84615042D01*
X98577417Y-84615049D01*
X98597612Y-84794295D01*
X98597613Y-84794300D01*
X98657193Y-84964569D01*
X98753166Y-85117308D01*
X98880720Y-85244862D01*
X99033460Y-85340835D01*
X99203727Y-85400414D01*
X99203732Y-85400415D01*
X99382978Y-85420611D01*
X99382982Y-85420611D01*
X99382986Y-85420611D01*
X99562231Y-85400415D01*
X99562234Y-85400414D01*
X99562237Y-85400414D01*
X99732504Y-85340835D01*
X99885244Y-85244862D01*
X100012798Y-85117308D01*
X100108771Y-84964568D01*
X100168350Y-84794301D01*
X100188547Y-84615046D01*
X100168350Y-84435791D01*
X100108771Y-84265524D01*
X100012798Y-84112784D01*
X100012796Y-84112782D01*
X100012795Y-84112780D01*
X100010532Y-84109942D01*
X100009641Y-84107761D01*
X100009093Y-84106888D01*
X100009246Y-84106791D01*
X99984126Y-84045255D01*
X99983482Y-84032633D01*
X99983482Y-82415143D01*
X100003167Y-82348104D01*
X100019801Y-82327462D01*
X100311274Y-82035989D01*
X100863502Y-81483762D01*
X100942559Y-81346830D01*
X100983483Y-81194103D01*
X100983483Y-81035988D01*
X100983483Y-81028393D01*
X100983482Y-81028375D01*
X100983482Y-77956999D01*
X101003167Y-77889960D01*
X101055971Y-77844205D01*
X101107477Y-77832999D01*
X102780372Y-77832999D01*
X102839983Y-77826591D01*
X102974831Y-77776296D01*
X103090046Y-77690046D01*
X103176296Y-77574831D01*
X103226591Y-77439983D01*
X103233000Y-77380373D01*
X103232999Y-75684628D01*
X103226591Y-75625017D01*
X103198700Y-75550238D01*
X103176297Y-75490171D01*
X103176293Y-75490164D01*
X103090047Y-75374955D01*
X103090044Y-75374952D01*
X102974835Y-75288706D01*
X102974828Y-75288702D01*
X102839982Y-75238408D01*
X102839983Y-75238408D01*
X102780383Y-75232001D01*
X102780381Y-75232000D01*
X102780373Y-75232000D01*
X102780365Y-75232000D01*
X101107482Y-75232000D01*
X101040443Y-75212315D01*
X100994688Y-75159511D01*
X100983482Y-75108000D01*
X100983482Y-70073809D01*
X101003167Y-70006770D01*
X101055971Y-69961015D01*
X101125129Y-69951071D01*
X101178601Y-69972232D01*
X101279766Y-70043068D01*
X101486004Y-70139239D01*
X101705808Y-70198135D01*
X101867730Y-70212301D01*
X101932498Y-70217968D01*
X101932500Y-70217968D01*
X101932502Y-70217968D01*
X101989173Y-70213009D01*
X102159192Y-70198135D01*
X102378996Y-70139239D01*
X102585234Y-70043068D01*
X102771639Y-69912547D01*
X102932547Y-69751639D01*
X103063068Y-69565234D01*
X103159239Y-69358996D01*
X103218135Y-69139192D01*
X103237968Y-68912500D01*
X103218135Y-68685808D01*
X103193802Y-68594995D01*
X112242092Y-68594995D01*
X112242092Y-68595004D01*
X112261696Y-68856620D01*
X112261697Y-68856625D01*
X112320076Y-69112402D01*
X112320078Y-69112411D01*
X112320080Y-69112416D01*
X112415932Y-69356643D01*
X112547114Y-69583857D01*
X112635035Y-69694106D01*
X112710698Y-69788985D01*
X112874548Y-69941014D01*
X112903021Y-69967433D01*
X113119796Y-70115228D01*
X113119801Y-70115230D01*
X113119802Y-70115231D01*
X113119803Y-70115232D01*
X113245343Y-70175688D01*
X113356173Y-70229061D01*
X113356174Y-70229061D01*
X113356177Y-70229063D01*
X113606885Y-70306396D01*
X113866318Y-70345500D01*
X114128682Y-70345500D01*
X114388115Y-70306396D01*
X114638823Y-70229063D01*
X114875204Y-70115228D01*
X115091979Y-69967433D01*
X115284305Y-69788981D01*
X115447886Y-69583857D01*
X115579068Y-69356643D01*
X115674920Y-69112416D01*
X115720550Y-68912498D01*
X119677032Y-68912498D01*
X119677032Y-68912501D01*
X119696864Y-69139186D01*
X119696866Y-69139197D01*
X119755758Y-69358988D01*
X119755761Y-69358997D01*
X119851931Y-69565232D01*
X119851932Y-69565234D01*
X119982454Y-69751641D01*
X120143358Y-69912545D01*
X120184016Y-69941014D01*
X120329766Y-70043068D01*
X120536004Y-70139239D01*
X120755808Y-70198135D01*
X120917730Y-70212301D01*
X120982498Y-70217968D01*
X120982500Y-70217968D01*
X120982502Y-70217968D01*
X121039173Y-70213009D01*
X121209192Y-70198135D01*
X121428996Y-70139239D01*
X121635234Y-70043068D01*
X121821639Y-69912547D01*
X121982547Y-69751639D01*
X122113068Y-69565234D01*
X122209239Y-69358996D01*
X122268135Y-69139192D01*
X122287968Y-68912500D01*
X122268135Y-68685808D01*
X122209239Y-68466004D01*
X122113068Y-68259766D01*
X121982547Y-68073361D01*
X121982545Y-68073358D01*
X121821641Y-67912454D01*
X121635234Y-67781932D01*
X121635232Y-67781931D01*
X121428997Y-67685761D01*
X121428988Y-67685758D01*
X121209197Y-67626866D01*
X121209193Y-67626865D01*
X121209192Y-67626865D01*
X121209191Y-67626864D01*
X121209186Y-67626864D01*
X120982502Y-67607032D01*
X120982498Y-67607032D01*
X120755813Y-67626864D01*
X120755802Y-67626866D01*
X120536011Y-67685758D01*
X120536002Y-67685761D01*
X120329767Y-67781931D01*
X120329765Y-67781932D01*
X120143358Y-67912454D01*
X119982454Y-68073358D01*
X119851932Y-68259765D01*
X119851931Y-68259767D01*
X119755761Y-68466002D01*
X119755758Y-68466011D01*
X119696866Y-68685802D01*
X119696864Y-68685813D01*
X119677032Y-68912498D01*
X115720550Y-68912498D01*
X115733302Y-68856630D01*
X115746103Y-68685808D01*
X115752908Y-68595004D01*
X115752908Y-68594995D01*
X115733303Y-68333379D01*
X115733302Y-68333374D01*
X115733302Y-68333370D01*
X115674920Y-68077584D01*
X115579068Y-67833357D01*
X115447886Y-67606143D01*
X115284305Y-67401019D01*
X115284304Y-67401018D01*
X115284301Y-67401014D01*
X115091979Y-67222567D01*
X114875204Y-67074772D01*
X114875200Y-67074770D01*
X114875197Y-67074768D01*
X114875196Y-67074767D01*
X114638825Y-66960938D01*
X114638827Y-66960938D01*
X114388123Y-66883606D01*
X114388119Y-66883605D01*
X114388115Y-66883604D01*
X114263323Y-66864794D01*
X114128687Y-66844500D01*
X114128682Y-66844500D01*
X113866318Y-66844500D01*
X113866312Y-66844500D01*
X113704747Y-66868853D01*
X113606885Y-66883604D01*
X113606882Y-66883605D01*
X113606876Y-66883606D01*
X113356173Y-66960938D01*
X113119803Y-67074767D01*
X113119802Y-67074768D01*
X112903020Y-67222567D01*
X112710698Y-67401014D01*
X112547114Y-67606143D01*
X112415932Y-67833356D01*
X112320082Y-68077578D01*
X112320076Y-68077597D01*
X112261697Y-68333374D01*
X112261696Y-68333379D01*
X112242092Y-68594995D01*
X103193802Y-68594995D01*
X103159239Y-68466004D01*
X103063068Y-68259766D01*
X102932547Y-68073361D01*
X102932545Y-68073358D01*
X102771641Y-67912454D01*
X102585234Y-67781932D01*
X102585232Y-67781931D01*
X102378997Y-67685761D01*
X102378988Y-67685758D01*
X102159197Y-67626866D01*
X102159193Y-67626865D01*
X102159192Y-67626865D01*
X102159191Y-67626864D01*
X102159186Y-67626864D01*
X101932502Y-67607032D01*
X101932498Y-67607032D01*
X101705813Y-67626864D01*
X101705802Y-67626866D01*
X101486011Y-67685758D01*
X101486002Y-67685761D01*
X101279767Y-67781931D01*
X101279765Y-67781932D01*
X101178605Y-67852765D01*
X101112398Y-67875092D01*
X101044631Y-67858081D01*
X100996819Y-67807133D01*
X100983482Y-67751190D01*
X100983482Y-63684481D01*
X101003167Y-63617442D01*
X101055971Y-63571687D01*
X101125129Y-63561743D01*
X101188685Y-63590768D01*
X101201772Y-63603950D01*
X101237819Y-63646156D01*
X101316026Y-63737724D01*
X101430965Y-63835891D01*
X101507593Y-63901338D01*
X101507596Y-63901339D01*
X101722390Y-64032966D01*
X101955139Y-64129373D01*
X102200102Y-64188183D01*
X102451250Y-64207949D01*
X102702398Y-64188183D01*
X102947361Y-64129373D01*
X103180109Y-64032966D01*
X103394909Y-63901336D01*
X103586474Y-63737724D01*
X103750086Y-63546159D01*
X103881716Y-63331359D01*
X103978123Y-63098611D01*
X104036933Y-62853648D01*
X104056699Y-62602500D01*
X104036933Y-62351352D01*
X103978123Y-62106389D01*
X103911946Y-61946622D01*
X103881716Y-61873640D01*
X103750089Y-61658846D01*
X103750088Y-61658843D01*
X103647767Y-61539041D01*
X103586474Y-61467276D01*
X103459821Y-61359104D01*
X103394906Y-61303661D01*
X103394903Y-61303660D01*
X103180109Y-61172033D01*
X102947360Y-61075626D01*
X102702401Y-61016817D01*
X102451250Y-60997051D01*
X102200098Y-61016817D01*
X101955139Y-61075626D01*
X101722390Y-61172033D01*
X101507596Y-61303660D01*
X101507593Y-61303661D01*
X101316026Y-61467276D01*
X101201772Y-61601050D01*
X101143265Y-61639243D01*
X101073397Y-61639741D01*
X101014351Y-61602387D01*
X100984873Y-61539041D01*
X100983482Y-61520518D01*
X100983482Y-56035991D01*
X100983481Y-56035987D01*
X100982544Y-56032491D01*
X100982544Y-56032473D01*
X100982540Y-56032475D01*
X100972516Y-55995065D01*
X100942558Y-55883260D01*
X100942555Y-55883255D01*
X100863506Y-55746336D01*
X100863503Y-55746332D01*
X100863502Y-55746330D01*
X100751698Y-55634526D01*
X100751697Y-55634525D01*
X100747367Y-55630195D01*
X100747356Y-55630185D01*
X99901852Y-54784681D01*
X99868367Y-54723358D01*
X99873351Y-54653666D01*
X99915223Y-54597733D01*
X99980687Y-54573316D01*
X99989533Y-54573000D01*
X113938859Y-54573000D01*
X113938875Y-54573001D01*
X113946471Y-54573001D01*
X114104582Y-54573001D01*
X114104585Y-54573001D01*
X114257313Y-54532077D01*
X114307432Y-54503139D01*
X114394244Y-54453020D01*
X114506048Y-54341216D01*
X114506048Y-54341214D01*
X114516256Y-54331007D01*
X114516258Y-54331004D01*
X115741488Y-53105774D01*
X115741493Y-53105770D01*
X115751696Y-53095566D01*
X115751698Y-53095566D01*
X115863502Y-52983762D01*
X115928922Y-52870451D01*
X115942559Y-52846831D01*
X115983483Y-52694103D01*
X115983483Y-52535989D01*
X115983483Y-52528394D01*
X115983482Y-52528376D01*
X115983482Y-50724546D01*
X116003167Y-50657507D01*
X116055971Y-50611752D01*
X116087070Y-50602237D01*
X116252596Y-50574617D01*
X116487792Y-50493874D01*
X116706491Y-50375520D01*
X116902726Y-50222784D01*
X117071146Y-50039831D01*
X117207155Y-49831653D01*
X117307045Y-49603927D01*
X117368090Y-49362867D01*
X117377434Y-49250100D01*
X117388625Y-49115051D01*
X117388625Y-49115040D01*
X117368091Y-48867233D01*
X117368089Y-48867221D01*
X117307045Y-48626164D01*
X117207155Y-48398439D01*
X117071148Y-48190263D01*
X117047211Y-48164261D01*
X116902726Y-48007308D01*
X116706491Y-47854572D01*
X116706489Y-47854571D01*
X116706488Y-47854570D01*
X116487793Y-47736218D01*
X116487784Y-47736215D01*
X116252598Y-47655475D01*
X116007317Y-47614546D01*
X115758647Y-47614546D01*
X115513365Y-47655475D01*
X115278179Y-47736215D01*
X115278170Y-47736218D01*
X115059475Y-47854570D01*
X114863239Y-48007307D01*
X114694815Y-48190263D01*
X114558808Y-48398439D01*
X114458918Y-48626164D01*
X114397874Y-48867221D01*
X114397872Y-48867233D01*
X114377339Y-49115040D01*
X114377339Y-49115051D01*
X114397872Y-49362858D01*
X114397874Y-49362870D01*
X114458918Y-49603927D01*
X114558808Y-49831652D01*
X114694818Y-50039832D01*
X114749711Y-50099461D01*
X114780634Y-50162115D01*
X114782482Y-50183444D01*
X114782482Y-52314949D01*
X114762797Y-52381988D01*
X114746163Y-52402630D01*
X113813112Y-53335681D01*
X113751789Y-53369166D01*
X113725431Y-53372000D01*
X111107482Y-53372000D01*
X111040443Y-53352315D01*
X110994688Y-53299511D01*
X110983482Y-53248000D01*
X110983481Y-51167175D01*
X110983480Y-51167169D01*
X110983479Y-51167162D01*
X110977073Y-51107563D01*
X110926778Y-50972715D01*
X110926777Y-50972714D01*
X110926775Y-50972710D01*
X110840529Y-50857501D01*
X110840526Y-50857498D01*
X110725317Y-50771252D01*
X110725310Y-50771248D01*
X110590464Y-50720954D01*
X110590465Y-50720954D01*
X110530865Y-50714547D01*
X110530863Y-50714546D01*
X110530855Y-50714546D01*
X110530846Y-50714546D01*
X107235111Y-50714546D01*
X107235105Y-50714547D01*
X107175498Y-50720954D01*
X107040653Y-50771248D01*
X107040646Y-50771252D01*
X106925437Y-50857498D01*
X106925434Y-50857501D01*
X106839188Y-50972710D01*
X106839184Y-50972717D01*
X106788890Y-51107563D01*
X106782483Y-51167162D01*
X106782483Y-51167169D01*
X106782482Y-51167181D01*
X106782483Y-53248000D01*
X106762798Y-53315039D01*
X106709995Y-53360794D01*
X106658483Y-53372000D01*
X94245096Y-53372000D01*
X94178057Y-53352315D01*
X94144778Y-53320886D01*
X94125462Y-53294300D01*
X94026328Y-53157854D01*
X93887146Y-53018672D01*
X93773071Y-52935791D01*
X93727903Y-52902974D01*
X93551287Y-52812985D01*
X93500490Y-52765011D01*
X93483695Y-52697190D01*
X93506232Y-52631055D01*
X93551287Y-52592015D01*
X93727903Y-52502025D01*
X93727902Y-52502025D01*
X93727905Y-52502024D01*
X93887146Y-52386328D01*
X94026328Y-52247146D01*
X94142024Y-52087905D01*
X94231384Y-51912525D01*
X94292209Y-51725326D01*
X94323000Y-51530922D01*
X94323000Y-51334077D01*
X94292209Y-51139673D01*
X94237960Y-50972715D01*
X94231384Y-50952475D01*
X94231382Y-50952472D01*
X94231382Y-50952470D01*
X94142023Y-50777094D01*
X94026328Y-50617854D01*
X93969034Y-50560560D01*
X93935550Y-50499236D01*
X93940535Y-50429544D01*
X93969033Y-50385200D01*
X96465240Y-47888994D01*
X96465245Y-47888990D01*
X96475448Y-47878786D01*
X96475450Y-47878786D01*
X96587254Y-47766982D01*
X96666311Y-47630050D01*
X96700708Y-47501678D01*
X96707234Y-47477324D01*
X96707234Y-47319209D01*
X96707234Y-47087895D01*
X96726919Y-47020856D01*
X96779723Y-46975101D01*
X96848881Y-46965157D01*
X96912437Y-46994182D01*
X96918915Y-47000214D01*
X98052280Y-48133579D01*
X98085765Y-48194902D01*
X98087819Y-48207376D01*
X98097612Y-48294295D01*
X98097613Y-48294300D01*
X98097614Y-48294301D01*
X98105520Y-48316895D01*
X98157192Y-48464567D01*
X98242085Y-48599673D01*
X98253166Y-48617308D01*
X98380720Y-48744862D01*
X98533460Y-48840835D01*
X98703727Y-48900414D01*
X98703732Y-48900415D01*
X98882978Y-48920611D01*
X98882982Y-48920611D01*
X98882986Y-48920611D01*
X99062231Y-48900415D01*
X99062234Y-48900414D01*
X99062237Y-48900414D01*
X99232504Y-48840835D01*
X99385244Y-48744862D01*
X99512798Y-48617308D01*
X99608771Y-48464568D01*
X99668350Y-48294301D01*
X99671281Y-48268291D01*
X99688547Y-48115049D01*
X99688547Y-48115042D01*
X99668351Y-47935796D01*
X99668350Y-47935791D01*
X99639930Y-47854572D01*
X99608771Y-47765524D01*
X99512798Y-47612784D01*
X99385244Y-47485230D01*
X99284654Y-47422025D01*
X99232503Y-47389256D01*
X99062231Y-47329676D01*
X98975312Y-47319883D01*
X98910898Y-47292816D01*
X98901515Y-47284344D01*
X97592083Y-45974912D01*
X97558598Y-45913589D01*
X97555764Y-45887231D01*
X97555764Y-45855611D01*
X97575449Y-45788572D01*
X97628253Y-45742817D01*
X97697411Y-45732873D01*
X97760967Y-45761898D01*
X97767442Y-45767927D01*
X98832534Y-46833020D01*
X98832536Y-46833021D01*
X98832540Y-46833024D01*
X98884236Y-46862870D01*
X98969466Y-46912077D01*
X99122193Y-46953001D01*
X99122195Y-46953001D01*
X99287904Y-46953001D01*
X99287920Y-46953000D01*
X99824186Y-46953000D01*
X99891225Y-46972685D01*
X99936980Y-47025489D01*
X99944392Y-47046560D01*
X99958919Y-47103927D01*
X100058808Y-47331652D01*
X100194815Y-47539828D01*
X100194818Y-47539831D01*
X100363238Y-47722784D01*
X100420294Y-47767193D01*
X100461107Y-47823903D01*
X100464782Y-47893676D01*
X100430151Y-47954359D01*
X100420299Y-47962894D01*
X100380265Y-47994054D01*
X100363239Y-48007307D01*
X100194815Y-48190263D01*
X100058808Y-48398439D01*
X99958918Y-48626164D01*
X99897874Y-48867221D01*
X99897872Y-48867233D01*
X99877339Y-49115040D01*
X99877339Y-49115051D01*
X99897872Y-49362858D01*
X99897874Y-49362870D01*
X99958918Y-49603927D01*
X100058808Y-49831652D01*
X100194815Y-50039828D01*
X100194818Y-50039831D01*
X100363238Y-50222784D01*
X100559473Y-50375520D01*
X100778172Y-50493874D01*
X101013368Y-50574617D01*
X101258647Y-50615546D01*
X101507317Y-50615546D01*
X101752596Y-50574617D01*
X101987792Y-50493874D01*
X102206491Y-50375520D01*
X102402726Y-50222784D01*
X102571146Y-50039831D01*
X102707155Y-49831653D01*
X102807045Y-49603927D01*
X102868090Y-49362867D01*
X102877434Y-49250100D01*
X102888625Y-49115051D01*
X102888625Y-49115040D01*
X102868091Y-48867233D01*
X102868089Y-48867221D01*
X102807045Y-48626164D01*
X102707155Y-48398439D01*
X102571148Y-48190263D01*
X102542082Y-48158689D01*
X102402726Y-48007308D01*
X102345667Y-47962897D01*
X102304856Y-47906189D01*
X102301181Y-47836416D01*
X102335812Y-47775733D01*
X102345657Y-47767202D01*
X102402726Y-47722784D01*
X102571146Y-47539831D01*
X102707155Y-47331653D01*
X102807045Y-47103927D01*
X102868090Y-46862867D01*
X102870563Y-46833020D01*
X102888625Y-46615051D01*
X102888625Y-46615040D01*
X102868091Y-46367233D01*
X102868089Y-46367221D01*
X102807045Y-46126164D01*
X102707155Y-45898439D01*
X102594898Y-45726616D01*
X102574711Y-45659727D01*
X102593891Y-45592541D01*
X102624396Y-45559528D01*
X102625311Y-45558842D01*
X102625313Y-45558842D01*
X102740528Y-45472592D01*
X102826778Y-45357377D01*
X102877073Y-45222529D01*
X102883482Y-45162919D01*
X102883481Y-43067174D01*
X102877073Y-43007563D01*
X102841050Y-42910981D01*
X102826779Y-42872717D01*
X102826775Y-42872710D01*
X102740529Y-42757501D01*
X102740526Y-42757498D01*
X102625317Y-42671252D01*
X102625310Y-42671248D01*
X102490464Y-42620954D01*
X102490465Y-42620954D01*
X102430865Y-42614547D01*
X102430863Y-42614546D01*
X102430855Y-42614546D01*
X102430846Y-42614546D01*
X100335111Y-42614546D01*
X100335105Y-42614547D01*
X100275498Y-42620954D01*
X100140653Y-42671248D01*
X100140646Y-42671252D01*
X100025437Y-42757498D01*
X100025434Y-42757501D01*
X99939188Y-42872710D01*
X99939184Y-42872717D01*
X99888890Y-43007563D01*
X99882854Y-43063709D01*
X99882483Y-43067169D01*
X99882482Y-43067181D01*
X99882482Y-45162916D01*
X99882483Y-45162922D01*
X99888890Y-45222529D01*
X99939184Y-45357374D01*
X99939188Y-45357381D01*
X100025434Y-45472590D01*
X100025437Y-45472593D01*
X100100431Y-45528734D01*
X100142302Y-45584668D01*
X100147286Y-45654359D01*
X100113800Y-45715682D01*
X100052477Y-45749166D01*
X100026120Y-45752000D01*
X99501348Y-45752000D01*
X99434309Y-45732315D01*
X99413667Y-45715681D01*
X98192083Y-44494097D01*
X98158598Y-44432774D01*
X98155764Y-44406416D01*
X98155764Y-43231825D01*
X98155765Y-43231812D01*
X98155765Y-43063709D01*
X98155765Y-43063708D01*
X98114841Y-42910981D01*
X98099974Y-42885230D01*
X98035788Y-42774055D01*
X98035782Y-42774047D01*
X96827061Y-41565326D01*
X95523104Y-40261370D01*
X95489620Y-40200048D01*
X95494604Y-40130356D01*
X95536476Y-40074423D01*
X95601940Y-40050006D01*
X95651741Y-40056649D01*
X95826689Y-40117866D01*
X95826695Y-40117867D01*
X95826697Y-40117868D01*
X95826698Y-40117868D01*
X95826702Y-40117869D01*
X95937537Y-40130356D01*
X95964635Y-40133409D01*
X96012752Y-40149241D01*
X96056714Y-40174623D01*
X96162529Y-40202976D01*
X96162528Y-40202976D01*
X96175098Y-40206343D01*
X96209440Y-40215546D01*
X96209441Y-40215546D01*
X97300570Y-40215546D01*
X97367609Y-40235231D01*
X97377885Y-40242601D01*
X97380718Y-40244860D01*
X97380720Y-40244862D01*
X97533460Y-40340835D01*
X97703727Y-40400414D01*
X97703732Y-40400415D01*
X97882978Y-40420611D01*
X97882982Y-40420611D01*
X97882986Y-40420611D01*
X98062231Y-40400415D01*
X98062234Y-40400414D01*
X98062237Y-40400414D01*
X98232504Y-40340835D01*
X98385244Y-40244862D01*
X98512798Y-40117308D01*
X98607129Y-39967181D01*
X106782482Y-39967181D01*
X106782482Y-42062916D01*
X106782483Y-42062922D01*
X106788890Y-42122529D01*
X106839184Y-42257374D01*
X106839188Y-42257381D01*
X106925434Y-42372590D01*
X106925437Y-42372593D01*
X107040646Y-42458839D01*
X107040653Y-42458843D01*
X107175499Y-42509137D01*
X107175498Y-42509137D01*
X107182426Y-42509881D01*
X107235109Y-42515546D01*
X110530854Y-42515545D01*
X110590465Y-42509137D01*
X110725313Y-42458842D01*
X110840528Y-42372592D01*
X110926778Y-42257377D01*
X110977073Y-42122529D01*
X110983482Y-42062919D01*
X110983481Y-39967174D01*
X110977073Y-39907563D01*
X110942678Y-39815346D01*
X110926779Y-39772717D01*
X110926775Y-39772710D01*
X110840529Y-39657501D01*
X110840526Y-39657498D01*
X110725317Y-39571252D01*
X110725310Y-39571248D01*
X110590464Y-39520954D01*
X110590465Y-39520954D01*
X110530865Y-39514547D01*
X110530863Y-39514546D01*
X110530855Y-39514546D01*
X110530846Y-39514546D01*
X107235111Y-39514546D01*
X107235105Y-39514547D01*
X107175498Y-39520954D01*
X107040653Y-39571248D01*
X107040646Y-39571252D01*
X106925437Y-39657498D01*
X106925434Y-39657501D01*
X106839188Y-39772710D01*
X106839184Y-39772717D01*
X106788890Y-39907563D01*
X106783004Y-39962316D01*
X106782483Y-39967169D01*
X106782482Y-39967181D01*
X98607129Y-39967181D01*
X98608771Y-39964568D01*
X98668350Y-39794301D01*
X98670783Y-39772710D01*
X98688547Y-39615049D01*
X98688547Y-39615042D01*
X98668351Y-39435796D01*
X98668350Y-39435791D01*
X98647119Y-39375117D01*
X98608771Y-39265524D01*
X98593439Y-39241124D01*
X98538221Y-39153245D01*
X98512798Y-39112784D01*
X98385244Y-38985230D01*
X98339549Y-38956518D01*
X98232498Y-38889253D01*
X98231389Y-38888719D01*
X98230795Y-38888183D01*
X98226608Y-38885552D01*
X98227068Y-38884818D01*
X98179530Y-38841896D01*
X98161218Y-38774469D01*
X98182267Y-38707845D01*
X98235994Y-38663178D01*
X98285192Y-38653000D01*
X98914581Y-38653000D01*
X98914597Y-38653001D01*
X98922193Y-38653001D01*
X99080304Y-38653001D01*
X99080307Y-38653001D01*
X99233035Y-38612077D01*
X99283154Y-38583139D01*
X99369966Y-38533020D01*
X99481770Y-38421216D01*
X99481770Y-38421214D01*
X99491978Y-38411007D01*
X99491979Y-38411004D01*
X100663667Y-37239319D01*
X100724990Y-37205834D01*
X100751348Y-37203000D01*
X114151153Y-37203000D01*
X114218192Y-37222685D01*
X114238834Y-37239319D01*
X114628181Y-37628666D01*
X114661666Y-37689989D01*
X114664500Y-37716347D01*
X114664500Y-43199749D01*
X114644815Y-43266788D01*
X114644309Y-43267570D01*
X114558808Y-43398439D01*
X114458918Y-43626164D01*
X114397874Y-43867221D01*
X114397872Y-43867233D01*
X114377339Y-44115040D01*
X114377339Y-44115051D01*
X114397872Y-44362858D01*
X114397874Y-44362870D01*
X114458918Y-44603927D01*
X114558808Y-44831652D01*
X114694815Y-45039828D01*
X114727227Y-45075037D01*
X114863238Y-45222784D01*
X115059473Y-45375520D01*
X115278172Y-45493874D01*
X115513368Y-45574617D01*
X115758647Y-45615546D01*
X116007317Y-45615546D01*
X116252596Y-45574617D01*
X116487792Y-45493874D01*
X116706491Y-45375520D01*
X116902726Y-45222784D01*
X117071146Y-45039831D01*
X117207155Y-44831653D01*
X117307045Y-44603927D01*
X117368090Y-44362867D01*
X117369523Y-44345574D01*
X117388625Y-44115051D01*
X117388625Y-44115040D01*
X117368091Y-43867233D01*
X117368089Y-43867221D01*
X117307045Y-43626164D01*
X117207155Y-43398439D01*
X117071148Y-43190263D01*
X117048374Y-43165524D01*
X116902726Y-43007308D01*
X116706491Y-42854572D01*
X116706489Y-42854571D01*
X116706488Y-42854570D01*
X116487793Y-42736218D01*
X116487784Y-42736215D01*
X116252598Y-42655475D01*
X116007317Y-42614546D01*
X115989500Y-42614546D01*
X115922461Y-42594861D01*
X115876706Y-42542057D01*
X115865500Y-42490546D01*
X115865500Y-37602500D01*
X119745801Y-37602500D01*
X119765567Y-37853651D01*
X119824376Y-38098610D01*
X119920783Y-38331359D01*
X120052410Y-38546153D01*
X120052411Y-38546156D01*
X120052414Y-38546159D01*
X120216026Y-38737724D01*
X120324346Y-38830238D01*
X120407593Y-38901338D01*
X120407596Y-38901339D01*
X120622390Y-39032966D01*
X120815087Y-39112783D01*
X120855139Y-39129373D01*
X121100102Y-39188183D01*
X121351250Y-39207949D01*
X121602398Y-39188183D01*
X121847361Y-39129373D01*
X122080109Y-39032966D01*
X122294909Y-38901336D01*
X122486474Y-38737724D01*
X122650086Y-38546159D01*
X122781716Y-38331359D01*
X122878123Y-38098611D01*
X122936933Y-37853648D01*
X122956699Y-37602500D01*
X122936933Y-37351352D01*
X122878123Y-37106389D01*
X122843759Y-37023427D01*
X122781716Y-36873640D01*
X122650089Y-36658846D01*
X122650088Y-36658843D01*
X122589906Y-36588379D01*
X122486474Y-36467276D01*
X122315404Y-36321168D01*
X122294906Y-36303661D01*
X122294903Y-36303660D01*
X122080109Y-36172033D01*
X121847360Y-36075626D01*
X121602401Y-36016817D01*
X121351250Y-35997051D01*
X121100098Y-36016817D01*
X120855139Y-36075626D01*
X120622390Y-36172033D01*
X120407596Y-36303660D01*
X120407593Y-36303661D01*
X120216026Y-36467276D01*
X120052411Y-36658843D01*
X120052410Y-36658846D01*
X119920783Y-36873640D01*
X119824376Y-37106389D01*
X119765567Y-37351348D01*
X119745801Y-37602500D01*
X115865500Y-37602500D01*
X115865500Y-37337194D01*
X115865499Y-37337188D01*
X115858309Y-37310353D01*
X115858299Y-37310316D01*
X115824577Y-37184465D01*
X115787884Y-37120912D01*
X115745520Y-37047534D01*
X115633716Y-36935730D01*
X115633715Y-36935729D01*
X115629385Y-36931399D01*
X115629374Y-36931389D01*
X114938840Y-36240855D01*
X114938838Y-36240852D01*
X114819967Y-36121981D01*
X114819966Y-36121980D01*
X114733154Y-36071860D01*
X114733154Y-36071859D01*
X114733150Y-36071858D01*
X114683035Y-36042923D01*
X114530307Y-36001999D01*
X114372193Y-36001999D01*
X114364597Y-36001999D01*
X114364581Y-36002000D01*
X100537920Y-36002000D01*
X100537904Y-36001999D01*
X100530308Y-36001999D01*
X100372193Y-36001999D01*
X100316893Y-36016817D01*
X100219464Y-36042923D01*
X100219459Y-36042926D01*
X100082540Y-36121975D01*
X100082532Y-36121981D01*
X98788834Y-37415681D01*
X98727511Y-37449166D01*
X98701153Y-37452000D01*
X96737709Y-37452000D01*
X96670670Y-37432315D01*
X96624915Y-37379511D01*
X96614971Y-37310353D01*
X96627224Y-37271705D01*
X96704057Y-37120912D01*
X96711230Y-37098835D01*
X96769746Y-36918743D01*
X96803000Y-36708787D01*
X96803000Y-36496213D01*
X96801673Y-36487837D01*
X96810624Y-36418547D01*
X96855617Y-36365092D01*
X96922367Y-36344449D01*
X96965101Y-36351395D01*
X96990740Y-36360367D01*
X96990750Y-36360369D01*
X97169996Y-36380565D01*
X97170000Y-36380565D01*
X97170004Y-36380565D01*
X97349249Y-36360369D01*
X97349252Y-36360368D01*
X97349255Y-36360368D01*
X97519522Y-36300789D01*
X97672262Y-36204816D01*
X97799816Y-36077262D01*
X97895789Y-35924522D01*
X97955368Y-35754255D01*
X97958922Y-35722713D01*
X97975565Y-35575003D01*
X97975565Y-35574996D01*
X97955369Y-35395750D01*
X97955368Y-35395745D01*
X97939691Y-35350943D01*
X97895789Y-35225478D01*
X97799816Y-35072738D01*
X97672262Y-34945184D01*
X97607839Y-34904704D01*
X97519521Y-34849210D01*
X97349249Y-34789630D01*
X97262330Y-34779837D01*
X97197916Y-34752770D01*
X97188533Y-34744298D01*
X97131090Y-34686855D01*
X97131088Y-34686852D01*
X97012217Y-34567981D01*
X97012216Y-34567980D01*
X96925404Y-34517860D01*
X96925404Y-34517859D01*
X96925400Y-34517858D01*
X96875285Y-34488923D01*
X96722557Y-34447999D01*
X96564443Y-34447999D01*
X96556847Y-34447999D01*
X96556831Y-34448000D01*
X86855557Y-34448000D01*
X86697443Y-34448000D01*
X86544715Y-34488923D01*
X86544714Y-34488923D01*
X86544712Y-34488924D01*
X86544709Y-34488925D01*
X86494596Y-34517859D01*
X86494595Y-34517860D01*
X86451189Y-34542920D01*
X86407785Y-34567979D01*
X86407782Y-34567981D01*
X86295980Y-34679784D01*
X86295978Y-34679786D01*
X86200784Y-34774980D01*
X86127647Y-34848117D01*
X86066324Y-34881601D01*
X86007874Y-34880210D01*
X85941179Y-34862340D01*
X85941176Y-34862339D01*
X85941174Y-34862339D01*
X85831837Y-34852773D01*
X85722502Y-34843208D01*
X85722498Y-34843208D01*
X85503831Y-34862338D01*
X85503824Y-34862339D01*
X85381402Y-34895142D01*
X85291797Y-34919153D01*
X85291795Y-34919153D01*
X85291791Y-34919155D01*
X85092857Y-35011919D01*
X85092849Y-35011923D01*
X84913047Y-35137822D01*
X84913041Y-35137827D01*
X84757827Y-35293041D01*
X84757822Y-35293047D01*
X84631923Y-35472849D01*
X84631919Y-35472857D01*
X84564882Y-35616620D01*
X84518710Y-35669060D01*
X84451517Y-35688212D01*
X84384635Y-35667996D01*
X84340118Y-35616620D01*
X84303034Y-35537094D01*
X84273079Y-35472854D01*
X84273077Y-35472851D01*
X84273076Y-35472849D01*
X84147177Y-35293047D01*
X84147172Y-35293041D01*
X83991958Y-35137827D01*
X83991952Y-35137822D01*
X83812150Y-35011923D01*
X83812142Y-35011919D01*
X83613208Y-34919155D01*
X83613206Y-34919154D01*
X83613203Y-34919153D01*
X83462385Y-34878740D01*
X83401175Y-34862339D01*
X83401168Y-34862338D01*
X83182502Y-34843208D01*
X83182498Y-34843208D01*
X82963831Y-34862338D01*
X82963824Y-34862339D01*
X82841402Y-34895142D01*
X82751797Y-34919153D01*
X82751795Y-34919153D01*
X82751791Y-34919155D01*
X82552857Y-35011919D01*
X82552849Y-35011923D01*
X82373047Y-35137822D01*
X82373041Y-35137827D01*
X82217827Y-35293041D01*
X82217826Y-35293043D01*
X82122574Y-35429077D01*
X82067997Y-35472701D01*
X81998498Y-35479894D01*
X81936144Y-35448372D01*
X81900730Y-35388142D01*
X81896999Y-35357953D01*
X81896999Y-35300629D01*
X81896998Y-35300623D01*
X81896997Y-35300616D01*
X81890591Y-35241017D01*
X81889716Y-35238672D01*
X81840297Y-35106171D01*
X81840293Y-35106164D01*
X81754047Y-34990955D01*
X81754044Y-34990952D01*
X81638835Y-34904706D01*
X81638828Y-34904702D01*
X81503982Y-34854408D01*
X81503983Y-34854408D01*
X81444383Y-34848001D01*
X81444381Y-34848000D01*
X81444373Y-34848000D01*
X81444364Y-34848000D01*
X79840629Y-34848000D01*
X79840623Y-34848001D01*
X79781016Y-34854408D01*
X79646171Y-34904702D01*
X79646164Y-34904706D01*
X79530955Y-34990952D01*
X79530952Y-34990955D01*
X79444706Y-35106164D01*
X79444702Y-35106171D01*
X79394408Y-35241017D01*
X79388815Y-35293043D01*
X79388001Y-35300623D01*
X79388000Y-35300635D01*
X79388000Y-36904370D01*
X79388001Y-36904376D01*
X79394408Y-36963983D01*
X79444702Y-37098828D01*
X79444706Y-37098835D01*
X79530952Y-37214044D01*
X79530955Y-37214047D01*
X79646164Y-37300293D01*
X79646171Y-37300297D01*
X79781017Y-37350591D01*
X79781016Y-37350591D01*
X79787944Y-37351335D01*
X79840627Y-37357000D01*
X80996401Y-37356999D01*
X81063440Y-37376684D01*
X81084082Y-37393318D01*
X82903784Y-39213020D01*
X82903786Y-39213021D01*
X82903790Y-39213024D01*
X82994721Y-39265522D01*
X83040716Y-39292077D01*
X83193443Y-39333001D01*
X83193445Y-39333001D01*
X83359154Y-39333001D01*
X83359170Y-39333000D01*
X90899904Y-39333000D01*
X90966943Y-39352685D01*
X91000222Y-39384114D01*
X91002975Y-39387903D01*
X91002976Y-39387905D01*
X91118672Y-39547146D01*
X91257854Y-39686328D01*
X91417095Y-39802024D01*
X91540492Y-39864897D01*
X91593713Y-39892015D01*
X91644509Y-39939989D01*
X91661304Y-40007810D01*
X91638767Y-40073945D01*
X91593713Y-40112985D01*
X91417094Y-40202976D01*
X91359444Y-40244862D01*
X91257854Y-40318672D01*
X91257852Y-40318674D01*
X91257851Y-40318674D01*
X91118674Y-40457851D01*
X91118674Y-40457852D01*
X91118672Y-40457854D01*
X91068985Y-40526241D01*
X91002976Y-40617094D01*
X90913617Y-40792470D01*
X90852790Y-40979673D01*
X90822000Y-41174077D01*
X90822000Y-41370922D01*
X90852790Y-41565326D01*
X90913617Y-41752529D01*
X90977900Y-41878691D01*
X91002976Y-41927905D01*
X91118672Y-42087146D01*
X91257854Y-42226328D01*
X91417095Y-42342024D01*
X91540492Y-42404897D01*
X91593713Y-42432015D01*
X91644509Y-42479989D01*
X91661304Y-42547810D01*
X91638767Y-42613945D01*
X91593713Y-42652985D01*
X91417094Y-42742976D01*
X91353396Y-42789256D01*
X91257854Y-42858672D01*
X91257852Y-42858674D01*
X91257851Y-42858674D01*
X91118674Y-42997851D01*
X91118674Y-42997852D01*
X91118672Y-42997854D01*
X91107825Y-43012784D01*
X91002976Y-43157094D01*
X90913617Y-43332470D01*
X90852790Y-43519673D01*
X90822000Y-43714077D01*
X90822000Y-43910922D01*
X90852790Y-44105326D01*
X90913617Y-44292529D01*
X90949458Y-44362870D01*
X91002976Y-44467905D01*
X91118672Y-44627146D01*
X91257854Y-44766328D01*
X91417095Y-44882024D01*
X91540492Y-44944897D01*
X91593713Y-44972015D01*
X91644509Y-45019989D01*
X91661304Y-45087810D01*
X91638767Y-45153945D01*
X91593713Y-45192985D01*
X91417094Y-45282976D01*
X91326241Y-45348985D01*
X91257854Y-45398672D01*
X91257852Y-45398674D01*
X91257851Y-45398674D01*
X91118674Y-45537851D01*
X91118674Y-45537852D01*
X91118672Y-45537854D01*
X91078939Y-45592541D01*
X91002976Y-45697094D01*
X90913617Y-45872470D01*
X90852790Y-46059673D01*
X90822000Y-46254077D01*
X90822000Y-46450922D01*
X90852790Y-46645326D01*
X90913617Y-46832529D01*
X90995984Y-46994182D01*
X91002976Y-47007905D01*
X91118672Y-47167146D01*
X91257854Y-47306328D01*
X91417095Y-47422024D01*
X91525626Y-47477323D01*
X91593713Y-47512015D01*
X91644509Y-47559989D01*
X91661304Y-47627810D01*
X91638767Y-47693945D01*
X91593713Y-47732985D01*
X91417094Y-47822976D01*
X91340278Y-47878787D01*
X91257854Y-47938672D01*
X91257852Y-47938674D01*
X91257851Y-47938674D01*
X91118674Y-48077851D01*
X91118674Y-48077852D01*
X91118672Y-48077854D01*
X91091648Y-48115049D01*
X91002976Y-48237094D01*
X90913617Y-48412470D01*
X90852790Y-48599673D01*
X90822000Y-48794077D01*
X90822000Y-48990922D01*
X90852790Y-49185326D01*
X90913617Y-49372529D01*
X91002976Y-49547905D01*
X91118672Y-49707146D01*
X91257854Y-49846328D01*
X91417095Y-49962024D01*
X91540492Y-50024897D01*
X91593713Y-50052015D01*
X91644509Y-50099989D01*
X91661304Y-50167810D01*
X91638767Y-50233945D01*
X91593713Y-50272985D01*
X91417094Y-50362976D01*
X91326241Y-50428985D01*
X91257854Y-50478672D01*
X91257852Y-50478674D01*
X91257851Y-50478674D01*
X91118674Y-50617851D01*
X91118674Y-50617852D01*
X91118672Y-50617854D01*
X91089862Y-50657507D01*
X91002976Y-50777094D01*
X90913617Y-50952470D01*
X90852790Y-51139673D01*
X90822000Y-51334077D01*
X90822000Y-51530922D01*
X90852790Y-51725326D01*
X90913617Y-51912529D01*
X90948625Y-51981235D01*
X91002976Y-52087905D01*
X91118672Y-52247146D01*
X91257854Y-52386328D01*
X91417095Y-52502024D01*
X91540492Y-52564897D01*
X91593713Y-52592015D01*
X91644509Y-52639989D01*
X91661304Y-52707810D01*
X91638767Y-52773945D01*
X91593713Y-52812985D01*
X91417094Y-52902976D01*
X91371929Y-52935791D01*
X91257854Y-53018672D01*
X91257852Y-53018674D01*
X91257851Y-53018674D01*
X91118674Y-53157851D01*
X91118674Y-53157852D01*
X91118672Y-53157854D01*
X91068985Y-53226241D01*
X91002976Y-53317094D01*
X90913617Y-53492470D01*
X90852790Y-53679673D01*
X90822000Y-53874077D01*
X90822000Y-54070922D01*
X90852790Y-54265326D01*
X90913617Y-54452529D01*
X90987603Y-54597733D01*
X91002976Y-54627905D01*
X91118672Y-54787146D01*
X91257854Y-54926328D01*
X91417095Y-55042024D01*
X91540492Y-55104897D01*
X91593713Y-55132015D01*
X91644509Y-55179989D01*
X91661304Y-55247810D01*
X91638767Y-55313945D01*
X91593713Y-55352985D01*
X91417094Y-55442976D01*
X91326241Y-55508985D01*
X91257854Y-55558672D01*
X91257852Y-55558674D01*
X91257851Y-55558674D01*
X91118674Y-55697851D01*
X91118674Y-55697852D01*
X91118672Y-55697854D01*
X91083448Y-55746336D01*
X91002976Y-55857094D01*
X90912985Y-56033713D01*
X90865011Y-56084509D01*
X90797190Y-56101304D01*
X90731055Y-56078767D01*
X90692015Y-56033713D01*
X90664897Y-55980492D01*
X90602024Y-55857095D01*
X90486328Y-55697854D01*
X90347146Y-55558672D01*
X90187905Y-55442976D01*
X90176710Y-55437272D01*
X90012529Y-55353617D01*
X89825326Y-55292790D01*
X89630922Y-55262000D01*
X89630917Y-55262000D01*
X89434083Y-55262000D01*
X89434078Y-55262000D01*
X89239673Y-55292790D01*
X89052470Y-55353617D01*
X88877094Y-55442976D01*
X88786241Y-55508985D01*
X88717854Y-55558672D01*
X88717852Y-55558674D01*
X88717851Y-55558674D01*
X88578674Y-55697851D01*
X88578674Y-55697852D01*
X88578672Y-55697854D01*
X88543448Y-55746336D01*
X88462976Y-55857094D01*
X88372985Y-56033713D01*
X88325011Y-56084509D01*
X88257190Y-56101304D01*
X88191055Y-56078767D01*
X88152015Y-56033713D01*
X88124897Y-55980492D01*
X88062024Y-55857095D01*
X87946328Y-55697854D01*
X87807146Y-55558672D01*
X87647905Y-55442976D01*
X87636710Y-55437272D01*
X87472529Y-55353617D01*
X87285326Y-55292790D01*
X87090922Y-55262000D01*
X87090917Y-55262000D01*
X86894083Y-55262000D01*
X86894078Y-55262000D01*
X86699673Y-55292790D01*
X86512470Y-55353617D01*
X86337094Y-55442976D01*
X86246241Y-55508985D01*
X86177854Y-55558672D01*
X86177852Y-55558674D01*
X86177851Y-55558674D01*
X86038674Y-55697851D01*
X86038674Y-55697852D01*
X86038672Y-55697854D01*
X86003448Y-55746336D01*
X85922976Y-55857094D01*
X85832985Y-56033713D01*
X85785011Y-56084509D01*
X85717190Y-56101304D01*
X85651055Y-56078767D01*
X85612015Y-56033713D01*
X85584897Y-55980492D01*
X85522024Y-55857095D01*
X85406328Y-55697854D01*
X85267146Y-55558672D01*
X85107905Y-55442976D01*
X85096710Y-55437272D01*
X84932529Y-55353617D01*
X84745326Y-55292790D01*
X84550922Y-55262000D01*
X84550917Y-55262000D01*
X84354083Y-55262000D01*
X84354078Y-55262000D01*
X84159673Y-55292790D01*
X83972470Y-55353617D01*
X83797094Y-55442976D01*
X83706241Y-55508985D01*
X83637854Y-55558672D01*
X83637852Y-55558674D01*
X83637851Y-55558674D01*
X83498674Y-55697851D01*
X83498674Y-55697852D01*
X83498672Y-55697854D01*
X83463448Y-55746336D01*
X83382976Y-55857094D01*
X83292985Y-56033713D01*
X83245011Y-56084509D01*
X83177190Y-56101304D01*
X83111055Y-56078767D01*
X83072015Y-56033713D01*
X83044897Y-55980492D01*
X82982024Y-55857095D01*
X82866328Y-55697854D01*
X82727146Y-55558672D01*
X82567905Y-55442976D01*
X82556710Y-55437272D01*
X82392529Y-55353617D01*
X82205326Y-55292790D01*
X82010922Y-55262000D01*
X82010917Y-55262000D01*
X81814083Y-55262000D01*
X81814078Y-55262000D01*
X81619673Y-55292790D01*
X81432470Y-55353617D01*
X81257094Y-55442976D01*
X81166241Y-55508985D01*
X81097854Y-55558672D01*
X81097852Y-55558674D01*
X81097851Y-55558674D01*
X80958674Y-55697851D01*
X80958674Y-55697852D01*
X80958672Y-55697854D01*
X80923448Y-55746336D01*
X80842976Y-55857094D01*
X80752985Y-56033713D01*
X80705011Y-56084509D01*
X80637190Y-56101304D01*
X80571055Y-56078767D01*
X80532015Y-56033713D01*
X80504897Y-55980492D01*
X80442024Y-55857095D01*
X80326328Y-55697854D01*
X80187146Y-55558672D01*
X80027905Y-55442976D01*
X80016710Y-55437272D01*
X79852529Y-55353617D01*
X79665326Y-55292790D01*
X79470922Y-55262000D01*
X79470917Y-55262000D01*
X79274083Y-55262000D01*
X79274078Y-55262000D01*
X79079673Y-55292790D01*
X78892470Y-55353617D01*
X78717094Y-55442976D01*
X78626241Y-55508985D01*
X78557854Y-55558672D01*
X78557852Y-55558674D01*
X78557851Y-55558674D01*
X78418674Y-55697851D01*
X78418674Y-55697852D01*
X78418672Y-55697854D01*
X78383448Y-55746336D01*
X78302976Y-55857094D01*
X78212985Y-56033713D01*
X78165011Y-56084509D01*
X78097190Y-56101304D01*
X78031055Y-56078767D01*
X77992015Y-56033713D01*
X77964897Y-55980492D01*
X77902024Y-55857095D01*
X77786328Y-55697854D01*
X77647146Y-55558672D01*
X77491718Y-55445746D01*
X77487903Y-55442974D01*
X77311287Y-55352985D01*
X77260490Y-55305011D01*
X77243695Y-55237190D01*
X77266232Y-55171055D01*
X77311287Y-55132015D01*
X77487903Y-55042025D01*
X77487902Y-55042025D01*
X77487905Y-55042024D01*
X77647146Y-54926328D01*
X77786328Y-54787146D01*
X77902024Y-54627905D01*
X77991384Y-54452525D01*
X78052209Y-54265326D01*
X78056357Y-54239134D01*
X78083000Y-54070922D01*
X78083000Y-53874077D01*
X78052209Y-53679673D01*
X77991382Y-53492470D01*
X77928555Y-53369166D01*
X77902024Y-53317095D01*
X77786328Y-53157854D01*
X77647146Y-53018672D01*
X77533071Y-52935791D01*
X77487903Y-52902974D01*
X77311287Y-52812985D01*
X77260490Y-52765011D01*
X77243695Y-52697190D01*
X77266232Y-52631055D01*
X77311287Y-52592015D01*
X77487903Y-52502025D01*
X77487902Y-52502025D01*
X77487905Y-52502024D01*
X77647146Y-52386328D01*
X77786328Y-52247146D01*
X77902024Y-52087905D01*
X77991384Y-51912525D01*
X78052209Y-51725326D01*
X78083000Y-51530922D01*
X78083000Y-51334077D01*
X78052209Y-51139673D01*
X77997960Y-50972715D01*
X77991384Y-50952475D01*
X77991382Y-50952472D01*
X77991382Y-50952470D01*
X77902023Y-50777094D01*
X77786328Y-50617854D01*
X77647146Y-50478672D01*
X77567525Y-50420824D01*
X77487903Y-50362974D01*
X77311287Y-50272985D01*
X77260490Y-50225011D01*
X77243695Y-50157190D01*
X77266232Y-50091055D01*
X77311287Y-50052015D01*
X77487903Y-49962025D01*
X77487902Y-49962025D01*
X77487905Y-49962024D01*
X77647146Y-49846328D01*
X77786328Y-49707146D01*
X77902024Y-49547905D01*
X77991384Y-49372525D01*
X78052209Y-49185326D01*
X78083000Y-48990922D01*
X78083000Y-48794077D01*
X78052209Y-48599673D01*
X78008310Y-48464567D01*
X77991384Y-48412475D01*
X77991382Y-48412472D01*
X77991382Y-48412470D01*
X77931169Y-48294295D01*
X77902024Y-48237095D01*
X77786328Y-48077854D01*
X77647146Y-47938672D01*
X77531393Y-47854572D01*
X77487903Y-47822974D01*
X77311287Y-47732985D01*
X77260490Y-47685011D01*
X77243695Y-47617190D01*
X77266232Y-47551055D01*
X77311287Y-47512015D01*
X77487903Y-47422025D01*
X77487902Y-47422025D01*
X77487905Y-47422024D01*
X77647146Y-47306328D01*
X77786328Y-47167146D01*
X77902024Y-47007905D01*
X77991384Y-46832525D01*
X78052209Y-46645326D01*
X78059623Y-46598516D01*
X78083000Y-46450922D01*
X78083000Y-46254077D01*
X78052209Y-46059673D01*
X77999820Y-45898439D01*
X77991384Y-45872475D01*
X77991382Y-45872472D01*
X77991382Y-45872470D01*
X77938116Y-45767930D01*
X77902024Y-45697095D01*
X77786328Y-45537854D01*
X77647146Y-45398672D01*
X77567525Y-45340824D01*
X77487903Y-45282974D01*
X77311287Y-45192985D01*
X77260490Y-45145011D01*
X77243695Y-45077190D01*
X77266232Y-45011055D01*
X77311287Y-44972015D01*
X77487903Y-44882025D01*
X77487902Y-44882025D01*
X77487905Y-44882024D01*
X77647146Y-44766328D01*
X77786328Y-44627146D01*
X77902024Y-44467905D01*
X77991384Y-44292525D01*
X78052209Y-44105326D01*
X78083000Y-43910922D01*
X78083000Y-43714078D01*
X78063171Y-43588886D01*
X78052209Y-43519674D01*
X78052207Y-43519668D01*
X78051475Y-43515046D01*
X78060429Y-43445752D01*
X78086264Y-43407969D01*
X78878506Y-42615728D01*
X78878511Y-42615724D01*
X78888714Y-42605520D01*
X78888716Y-42605520D01*
X79000520Y-42493716D01*
X79079577Y-42356784D01*
X79120500Y-42204057D01*
X79120500Y-38458450D01*
X79120501Y-38458437D01*
X79120501Y-38290334D01*
X79120501Y-38290333D01*
X79079577Y-38137606D01*
X79076340Y-38132000D01*
X79000524Y-38000680D01*
X79000518Y-38000672D01*
X78481846Y-37482000D01*
X77947407Y-36947562D01*
X77913923Y-36886240D01*
X77918907Y-36816548D01*
X77924597Y-36803601D01*
X77991384Y-36672525D01*
X78052209Y-36485326D01*
X78062786Y-36418547D01*
X78083000Y-36290922D01*
X78083000Y-36094077D01*
X78052209Y-35899673D01*
X78016784Y-35790647D01*
X77991384Y-35712475D01*
X77991382Y-35712472D01*
X77991382Y-35712470D01*
X77921335Y-35574996D01*
X77902024Y-35537095D01*
X77786328Y-35377854D01*
X77647146Y-35238672D01*
X77487905Y-35122976D01*
X77312529Y-35033617D01*
X77125326Y-34972790D01*
X76930922Y-34942000D01*
X76930917Y-34942000D01*
X75734083Y-34942000D01*
X75734078Y-34942000D01*
X75539673Y-34972790D01*
X75352470Y-35033617D01*
X75177094Y-35122976D01*
X75156654Y-35137827D01*
X75017854Y-35238672D01*
X75017852Y-35238674D01*
X75017851Y-35238674D01*
X74878674Y-35377851D01*
X74878674Y-35377852D01*
X74878672Y-35377854D01*
X74865670Y-35395750D01*
X74762976Y-35537094D01*
X74683170Y-35693722D01*
X74635195Y-35744518D01*
X74567374Y-35761313D01*
X74501239Y-35738775D01*
X74485004Y-35725108D01*
X74332286Y-35572390D01*
X74160320Y-35447451D01*
X73970914Y-35350944D01*
X73970913Y-35350943D01*
X73970912Y-35350943D01*
X73768743Y-35285254D01*
X73768741Y-35285253D01*
X73768740Y-35285253D01*
X73607457Y-35259708D01*
X73558787Y-35252000D01*
X73346213Y-35252000D01*
X73297542Y-35259708D01*
X73136260Y-35285253D01*
X72934085Y-35350944D01*
X72744679Y-35447451D01*
X72572713Y-35572390D01*
X72422390Y-35722713D01*
X72297451Y-35894679D01*
X72200944Y-36084085D01*
X72135253Y-36286260D01*
X72102000Y-36496213D01*
X72102000Y-36708786D01*
X72134468Y-36913784D01*
X72135254Y-36918743D01*
X72167451Y-37017834D01*
X72200943Y-37120912D01*
X72297450Y-37310318D01*
X72422390Y-37482286D01*
X72572713Y-37632609D01*
X72744679Y-37757548D01*
X72744681Y-37757549D01*
X72744684Y-37757551D01*
X72934088Y-37854057D01*
X73136257Y-37919746D01*
X73346213Y-37953000D01*
X73346214Y-37953000D01*
X73412791Y-37953000D01*
X73479830Y-37972685D01*
X73525585Y-38025489D01*
X73535529Y-38094647D01*
X73506504Y-38158203D01*
X73500472Y-38164681D01*
X62663786Y-49001368D01*
X62551981Y-49113172D01*
X62551979Y-49113175D01*
X62550899Y-49115046D01*
X62510324Y-49185326D01*
X62501861Y-49199984D01*
X62501859Y-49199986D01*
X62472925Y-49250099D01*
X62472924Y-49250100D01*
X62472923Y-49250105D01*
X62431999Y-49402833D01*
X62431999Y-49402835D01*
X62431999Y-49570936D01*
X62432000Y-49570949D01*
X62432000Y-110097080D01*
X62431999Y-110097098D01*
X62431999Y-110262804D01*
X62431998Y-110262804D01*
X60951750Y-110262804D01*
X60951750Y-37602500D01*
X62845801Y-37602500D01*
X62865567Y-37853651D01*
X62924376Y-38098610D01*
X63020783Y-38331359D01*
X63152410Y-38546153D01*
X63152411Y-38546156D01*
X63152414Y-38546159D01*
X63316026Y-38737724D01*
X63424346Y-38830238D01*
X63507593Y-38901338D01*
X63507596Y-38901339D01*
X63722390Y-39032966D01*
X63915087Y-39112783D01*
X63955139Y-39129373D01*
X64200102Y-39188183D01*
X64451250Y-39207949D01*
X64702398Y-39188183D01*
X64947361Y-39129373D01*
X65180109Y-39032966D01*
X65394909Y-38901336D01*
X65586474Y-38737724D01*
X65750086Y-38546159D01*
X65881716Y-38331359D01*
X65978123Y-38098611D01*
X66036933Y-37853648D01*
X66056699Y-37602500D01*
X66036933Y-37351352D01*
X65978123Y-37106389D01*
X65943759Y-37023427D01*
X65881716Y-36873640D01*
X65750089Y-36658846D01*
X65750088Y-36658843D01*
X65689906Y-36588379D01*
X65586474Y-36467276D01*
X65415404Y-36321168D01*
X65394906Y-36303661D01*
X65394903Y-36303660D01*
X65180109Y-36172033D01*
X64947360Y-36075626D01*
X64702401Y-36016817D01*
X64451250Y-35997051D01*
X64200098Y-36016817D01*
X63955139Y-36075626D01*
X63722390Y-36172033D01*
X63507596Y-36303660D01*
X63507593Y-36303661D01*
X63316026Y-36467276D01*
X63152411Y-36658843D01*
X63152410Y-36658846D01*
X63020783Y-36873640D01*
X62924376Y-37106389D01*
X62865567Y-37351348D01*
X62845801Y-37602500D01*
X60951750Y-37602500D01*
X60951750Y-34227000D01*
X60971435Y-34159961D01*
X61024239Y-34114206D01*
X61075750Y-34103000D01*
X123826750Y-34103000D01*
X123893789Y-34122685D01*
G37*
%TD.AperFunction*%
%TA.AperFunction,NonConductor*%
G36*
X94118152Y-37017834D02*
G01*
X94174086Y-37059705D01*
X94192749Y-37095695D01*
X94200943Y-37120912D01*
X94297448Y-37310315D01*
X94423463Y-37483761D01*
X94446942Y-37549568D01*
X94431116Y-37617621D01*
X94410827Y-37644325D01*
X94371372Y-37683782D01*
X94169495Y-37885659D01*
X94108172Y-37919144D01*
X94038480Y-37914160D01*
X93994133Y-37885659D01*
X93887148Y-37778674D01*
X93887146Y-37778672D01*
X93807525Y-37720824D01*
X93727903Y-37662974D01*
X93551287Y-37572985D01*
X93500490Y-37525011D01*
X93483695Y-37457190D01*
X93506232Y-37391055D01*
X93551287Y-37352015D01*
X93727903Y-37262025D01*
X93727902Y-37262025D01*
X93727905Y-37262024D01*
X93887146Y-37146328D01*
X93987141Y-37046332D01*
X94048460Y-37012850D01*
X94118152Y-37017834D01*
G37*
%TD.AperFunction*%
%TA.AperFunction,NonConductor*%
G36*
X90830608Y-35668685D02*
G01*
X90876363Y-35721489D01*
X90886307Y-35790647D01*
X90881501Y-35811313D01*
X90873063Y-35837282D01*
X90852790Y-35899673D01*
X90822000Y-36094077D01*
X90822000Y-36290922D01*
X90852790Y-36485326D01*
X90913617Y-36672529D01*
X90943994Y-36732146D01*
X91002976Y-36847905D01*
X91118672Y-37007146D01*
X91257854Y-37146328D01*
X91417095Y-37262024D01*
X91497025Y-37302750D01*
X91593713Y-37352015D01*
X91644509Y-37399989D01*
X91661304Y-37467810D01*
X91638767Y-37533945D01*
X91593713Y-37572985D01*
X91417094Y-37662976D01*
X91326241Y-37728985D01*
X91257854Y-37778672D01*
X91257852Y-37778674D01*
X91257851Y-37778674D01*
X91118674Y-37917851D01*
X91118674Y-37917852D01*
X91118672Y-37917854D01*
X91002976Y-38077095D01*
X91000222Y-38080886D01*
X90944892Y-38123551D01*
X90899904Y-38132000D01*
X83572598Y-38132000D01*
X83505559Y-38112315D01*
X83484917Y-38095681D01*
X82950561Y-37561325D01*
X82917076Y-37500002D01*
X82922060Y-37430310D01*
X82963932Y-37374377D01*
X83029396Y-37349960D01*
X83049038Y-37350115D01*
X83171142Y-37360798D01*
X83182499Y-37361792D01*
X83182500Y-37361792D01*
X83182502Y-37361792D01*
X83237297Y-37356998D01*
X83401174Y-37342661D01*
X83613203Y-37285847D01*
X83812146Y-37193079D01*
X83991957Y-37067174D01*
X84147174Y-36911957D01*
X84273079Y-36732146D01*
X84340118Y-36588378D01*
X84386290Y-36535939D01*
X84453483Y-36516787D01*
X84520364Y-36537002D01*
X84564881Y-36588378D01*
X84597741Y-36658846D01*
X84631919Y-36732142D01*
X84631923Y-36732150D01*
X84757822Y-36911952D01*
X84757827Y-36911958D01*
X84913041Y-37067172D01*
X84913047Y-37067177D01*
X85092849Y-37193076D01*
X85092851Y-37193077D01*
X85092854Y-37193079D01*
X85291797Y-37285847D01*
X85503826Y-37342661D01*
X85660021Y-37356326D01*
X85722498Y-37361792D01*
X85722500Y-37361792D01*
X85722502Y-37361792D01*
X85777297Y-37356998D01*
X85941174Y-37342661D01*
X86153203Y-37285847D01*
X86352146Y-37193079D01*
X86531957Y-37067174D01*
X86687174Y-36911957D01*
X86813079Y-36732146D01*
X86880118Y-36588378D01*
X86926290Y-36535939D01*
X86993483Y-36516787D01*
X87060364Y-36537002D01*
X87104881Y-36588378D01*
X87137741Y-36658846D01*
X87171919Y-36732142D01*
X87171923Y-36732150D01*
X87297822Y-36911952D01*
X87297827Y-36911958D01*
X87453041Y-37067172D01*
X87453047Y-37067177D01*
X87632849Y-37193076D01*
X87632851Y-37193077D01*
X87632854Y-37193079D01*
X87831797Y-37285847D01*
X88043826Y-37342661D01*
X88200021Y-37356326D01*
X88262498Y-37361792D01*
X88262500Y-37361792D01*
X88262502Y-37361792D01*
X88317297Y-37356998D01*
X88481174Y-37342661D01*
X88693203Y-37285847D01*
X88892146Y-37193079D01*
X89071957Y-37067174D01*
X89227174Y-36911957D01*
X89353079Y-36732146D01*
X89445847Y-36533203D01*
X89502661Y-36321174D01*
X89521792Y-36102500D01*
X89519111Y-36071860D01*
X89513000Y-36002000D01*
X89502661Y-35883826D01*
X89481564Y-35805092D01*
X89483227Y-35735244D01*
X89522389Y-35677382D01*
X89586617Y-35649877D01*
X89601339Y-35649000D01*
X90763569Y-35649000D01*
X90830608Y-35668685D01*
G37*
%TD.AperFunction*%
%TA.AperFunction,NonConductor*%
G36*
X97547811Y-38672685D02*
G01*
X97593566Y-38725489D01*
X97603510Y-38794647D01*
X97574485Y-38858203D01*
X97539148Y-38885221D01*
X97539356Y-38885552D01*
X97535770Y-38887805D01*
X97534575Y-38888719D01*
X97533465Y-38889253D01*
X97380718Y-38985231D01*
X97377885Y-38987491D01*
X97375706Y-38988380D01*
X97374824Y-38988935D01*
X97374726Y-38988780D01*
X97313199Y-39013901D01*
X97300570Y-39014546D01*
X96820109Y-39014546D01*
X96753070Y-38994861D01*
X96715115Y-38956518D01*
X96672852Y-38889257D01*
X96643768Y-38842971D01*
X96624769Y-38775735D01*
X96645137Y-38708900D01*
X96698404Y-38663686D01*
X96748763Y-38653000D01*
X97480772Y-38653000D01*
X97547811Y-38672685D01*
G37*
%TD.AperFunction*%
%TA.AperFunction,NonConductor*%
G36*
X95330180Y-38672685D02*
G01*
X95375935Y-38725489D01*
X95385879Y-38794647D01*
X95368135Y-38842970D01*
X95341841Y-38884818D01*
X95280163Y-38982977D01*
X95220583Y-39153245D01*
X95220582Y-39153250D01*
X95200387Y-39332496D01*
X95200387Y-39332503D01*
X95220582Y-39511749D01*
X95220584Y-39511757D01*
X95281803Y-39686711D01*
X95285364Y-39756489D01*
X95250635Y-39817117D01*
X95188642Y-39849344D01*
X95119066Y-39842939D01*
X95077080Y-39815346D01*
X94595361Y-39333626D01*
X94561876Y-39272303D01*
X94566860Y-39202611D01*
X94595357Y-39158268D01*
X94652410Y-39101216D01*
X94652411Y-39101213D01*
X95064306Y-38689319D01*
X95125629Y-38655834D01*
X95151987Y-38653000D01*
X95263141Y-38653000D01*
X95330180Y-38672685D01*
G37*
%TD.AperFunction*%
%TA.AperFunction,NonConductor*%
G36*
X94492739Y-40934033D02*
G01*
X94514878Y-40951615D01*
X94910180Y-41346917D01*
X95455943Y-41892680D01*
X95489427Y-41954001D01*
X95484443Y-42023692D01*
X95473255Y-42046331D01*
X95380945Y-42193240D01*
X95321365Y-42363509D01*
X95321364Y-42363514D01*
X95301169Y-42542760D01*
X95301169Y-42542768D01*
X95306859Y-42593274D01*
X95294804Y-42662096D01*
X95247454Y-42713474D01*
X95210069Y-42726138D01*
X95210523Y-42728126D01*
X95203735Y-42729675D01*
X95033460Y-42789256D01*
X94880719Y-42885230D01*
X94753166Y-43012783D01*
X94657192Y-43165524D01*
X94597612Y-43335796D01*
X94587819Y-43422712D01*
X94560752Y-43487126D01*
X94552281Y-43496508D01*
X94507200Y-43541590D01*
X94507193Y-43541598D01*
X94493390Y-43555401D01*
X94432067Y-43588886D01*
X94362375Y-43583902D01*
X94306442Y-43542030D01*
X94287778Y-43506038D01*
X94231384Y-43332475D01*
X94142024Y-43157095D01*
X94026328Y-42997854D01*
X93887146Y-42858672D01*
X93791604Y-42789256D01*
X93727903Y-42742974D01*
X93551287Y-42652985D01*
X93500490Y-42605011D01*
X93483695Y-42537190D01*
X93506232Y-42471055D01*
X93551287Y-42432015D01*
X93727903Y-42342025D01*
X93727902Y-42342025D01*
X93727905Y-42342024D01*
X93887146Y-42226328D01*
X94026328Y-42087146D01*
X94142024Y-41927905D01*
X94231384Y-41752525D01*
X94292209Y-41565326D01*
X94323000Y-41370922D01*
X94323000Y-41174078D01*
X94312216Y-41105999D01*
X94304724Y-41058693D01*
X94313678Y-40989401D01*
X94358674Y-40935949D01*
X94425425Y-40915309D01*
X94492739Y-40934033D01*
G37*
%TD.AperFunction*%
%TA.AperFunction,NonConductor*%
G36*
X95425568Y-46491180D02*
G01*
X95481501Y-46533052D01*
X95505918Y-46598516D01*
X95506234Y-46607362D01*
X95506234Y-47098168D01*
X95486549Y-47165207D01*
X95469915Y-47185849D01*
X94356085Y-48299678D01*
X94294762Y-48333163D01*
X94225070Y-48328179D01*
X94169137Y-48286307D01*
X94157919Y-48268291D01*
X94142025Y-48237096D01*
X94089107Y-48164261D01*
X94026328Y-48077854D01*
X93969034Y-48020560D01*
X93935550Y-47959236D01*
X93940535Y-47889544D01*
X93969033Y-47845200D01*
X95294554Y-46519679D01*
X95355876Y-46486196D01*
X95425568Y-46491180D01*
G37*
%TD.AperFunction*%
%TA.AperFunction,NonConductor*%
G36*
X74698579Y-39333245D02*
G01*
X74754512Y-39375117D01*
X74760967Y-39384629D01*
X74762968Y-39387894D01*
X74762976Y-39387905D01*
X74878672Y-39547146D01*
X74878674Y-39547148D01*
X74935964Y-39604438D01*
X74969449Y-39665761D01*
X74964465Y-39735453D01*
X74935964Y-39779800D01*
X64244681Y-50471083D01*
X64183358Y-50504568D01*
X64113666Y-50499584D01*
X64057733Y-50457712D01*
X64033316Y-50392248D01*
X64033000Y-50383402D01*
X64033000Y-49947673D01*
X64052685Y-49880634D01*
X64069319Y-49859992D01*
X69302165Y-44627146D01*
X74567566Y-39361744D01*
X74628887Y-39328261D01*
X74698579Y-39333245D01*
G37*
%TD.AperFunction*%
M02*
