M48
; DRILL file {KiCad 8.0.8} date 2025-12-19T19:18:50+0000
; FORMAT={-:-/ absolute / metric / decimal}
; #@! TF.CreationDate,2025-12-19T19:18:50+00:00
; #@! TF.GenerationSoftware,Kicad,Pcbnew,8.0.8
; #@! TF.FileFunction,NonPlated,1,2,NPTH
FMAT,2
METRIC
; #@! TA.AperFunction,NonPlated,NPTH,ComponentDrill
T1C1.750
; #@! TA.AperFunction,NonPlated,NPTH,ComponentDrill
T2C2.200
; #@! TA.AperFunction,NonPlated,NPTH,ComponentDrill
T3C4.000
%
G90
G05
T1
X68.278Y-73.675
X68.278Y-92.725
X68.278Y-111.775
X78.438Y-73.675
X78.438Y-92.725
X78.438Y-111.775
X87.328Y-73.675
X87.328Y-92.725
X87.328Y-111.775
X97.487Y-73.675
X97.487Y-92.725
X97.487Y-111.775
X106.377Y-73.675
X106.377Y-92.725
X106.377Y-111.775
X116.537Y-73.675
X116.537Y-92.725
X116.537Y-111.775
T2
X73.453Y-36.602
X73.453Y-58.602
X95.453Y-36.602
X95.453Y-58.602
T3
X73.358Y-73.675
X73.358Y-92.725
X73.358Y-111.775
X92.407Y-73.675
X92.407Y-92.725
X92.407Y-111.775
X111.457Y-73.675
X111.457Y-92.725
X111.457Y-111.775
M30
