M48
; DRILL file {KiCad 8.0.8} date 2025-12-19T19:18:50+0000
; FORMAT={-:-/ absolute / metric / decimal}
; #@! TF.CreationDate,2025-12-19T19:18:50+00:00
; #@! TF.GenerationSoftware,Kicad,Pcbnew,8.0.8
; #@! TF.FileFunction,Plated,1,2,PTH
FMAT,2
METRIC
; #@! TA.AperFunction,Plated,PTH,ViaDrill
T1C0.300
; #@! TA.AperFunction,Plated,PTH,ComponentDrill
T2C0.800
; #@! TA.AperFunction,Plated,PTH,ComponentDrill
T3C1.000
; #@! TA.AperFunction,Plated,PTH,ComponentDrill
T4C1.500
%
G90
G05
T1
X66.883Y-53.115
X70.783Y-101.115
X72.553Y-101.115
X89.383Y-99.115
X89.883Y-102.615
X90.883Y-97.615
X91.468Y-101.115
X94.883Y-45.115
X94.883Y-102.615
X95.383Y-43.515
X96.006Y-39.332
X96.107Y-42.543
X96.955Y-43.391
X97.17Y-35.575
X97.883Y-39.615
X98.883Y-48.115
X98.883Y-54.615
X99.383Y-84.615
X103.383Y-94.115
X104.383Y-114.032
X106.883Y-101.115
X107.047Y-106.569
X107.383Y-121.115
T2
X82.882Y-68.912
X82.882Y-76.532
X82.882Y-87.962
X82.882Y-95.582
X82.882Y-107.012
X82.882Y-114.632
X101.932Y-68.912
X101.932Y-76.532
X101.932Y-87.962
X101.932Y-95.582
X101.932Y-107.012
X101.932Y-114.632
X120.982Y-68.912
X120.982Y-76.532
X120.982Y-87.962
X120.982Y-95.582
X120.982Y-107.012
X120.982Y-114.632
T3
X76.832Y-36.192
X76.832Y-38.733
X76.832Y-41.273
X76.832Y-43.812
X76.832Y-46.352
X76.832Y-48.892
X76.832Y-51.432
X76.832Y-53.972
X76.832Y-56.512
X79.373Y-56.512
X80.642Y-36.102
X81.912Y-56.512
X83.182Y-36.102
X84.453Y-56.512
X85.722Y-36.102
X86.992Y-56.512
X88.263Y-36.102
X89.532Y-56.512
X92.072Y-36.192
X92.072Y-38.733
X92.072Y-41.273
X92.072Y-43.812
X92.072Y-46.352
X92.072Y-48.892
X92.072Y-51.432
X92.072Y-53.972
X92.072Y-56.512
X101.383Y-44.115
X101.383Y-46.615
X101.383Y-49.115
X115.883Y-44.115
X115.883Y-49.115
T4
X69.547Y-71.135
X69.547Y-90.185
X69.547Y-109.235
X75.897Y-68.595
X75.897Y-87.645
X75.897Y-106.695
X88.597Y-71.135
X88.597Y-90.185
X88.597Y-109.235
X94.947Y-68.595
X94.947Y-87.645
X94.947Y-106.695
X107.647Y-71.135
X107.647Y-90.185
X107.647Y-109.235
X113.997Y-68.595
X113.997Y-87.645
X113.997Y-106.695
T4
G00X108.233Y-41.015
M15
G01X109.533Y-41.015
M16
G05
G00X108.233Y-52.215
M15
G01X109.533Y-52.215
M16
G05
M30
