%TF.GenerationSoftware,KiCad,Pcbnew,8.0.8*%
%TF.CreationDate,2025-12-19T19:11:15+00:00*%
%TF.ProjectId,MACRO,4d414352-4f2e-46b6-9963-61645f706362,rev?*%
%TF.SameCoordinates,Original*%
%TF.FileFunction,Drillmap*%
%TF.FilePolarity,Positive*%
%FSLAX45Y45*%
G04 Gerber Fmt 4.5, Leading zero omitted, Abs format (unit mm)*
G04 Created by KiCad (PCBNEW 8.0.8) date 2025-12-19 19:11:15*
%MOMM*%
%LPD*%
G01*
G04 APERTURE LIST*
%ADD10C,0.050000*%
%ADD11C,0.200000*%
%ADD12C,0.175000*%
%ADD13C,0.220000*%
%ADD14C,0.400000*%
G04 APERTURE END LIST*
D10*
X8755125Y-6270250D02*
G75*
G02*
X8535125Y-6270250I-110000J0D01*
G01*
X8535125Y-6270250D02*
G75*
G02*
X8755125Y-6270250I110000J0D01*
G01*
X10298298Y-10111505D02*
G75*
G02*
X10078298Y-10111505I-110000J0D01*
G01*
X10078298Y-10111505D02*
G75*
G02*
X10298298Y-10111505I110000J0D01*
G01*
X6525125Y-12160250D02*
G75*
G02*
X6305125Y-12160250I-110000J0D01*
G01*
X6305125Y-12160250D02*
G75*
G02*
X6525125Y-12160250I110000J0D01*
G01*
X12155125Y-12160250D02*
G75*
G02*
X11935125Y-12160250I-110000J0D01*
G01*
X11935125Y-12160250D02*
G75*
G02*
X12155125Y-12160250I110000J0D01*
G01*
X8355125Y-10260250D02*
G75*
G02*
X8135125Y-10260250I-110000J0D01*
G01*
X8135125Y-10260250D02*
G75*
G02*
X8355125Y-10260250I110000J0D01*
G01*
X6555125Y-3760250D02*
G75*
G02*
X6335125Y-3760250I-110000J0D01*
G01*
X6335125Y-3760250D02*
G75*
G02*
X6555125Y-3760250I110000J0D01*
G01*
X12245125Y-3760250D02*
G75*
G02*
X12025125Y-3760250I-110000J0D01*
G01*
X12025125Y-3760250D02*
G75*
G02*
X12245125Y-3760250I110000J0D01*
G01*
X6045125Y-3360250D02*
X12445125Y-3360250D01*
X12445125Y-12460250D01*
X6045125Y-12460250D01*
X6045125Y-3360250D01*
X10355125Y-6260250D02*
G75*
G02*
X10135125Y-6260250I-110000J0D01*
G01*
X10135125Y-6260250D02*
G75*
G02*
X10355125Y-6260250I110000J0D01*
G01*
D11*
D12*
X6740250Y-7280000D02*
X6915250Y-7455000D01*
X6915250Y-7280000D02*
X6740250Y-7455000D01*
X6740250Y-9185000D02*
X6915250Y-9360000D01*
X6915250Y-9185000D02*
X6740250Y-9360000D01*
X6740250Y-11090000D02*
X6915250Y-11265000D01*
X6915250Y-11090000D02*
X6740250Y-11265000D01*
X7756250Y-7280000D02*
X7931250Y-7455000D01*
X7931250Y-7280000D02*
X7756250Y-7455000D01*
X7756250Y-9185000D02*
X7931250Y-9360000D01*
X7931250Y-9185000D02*
X7756250Y-9360000D01*
X7756250Y-11090000D02*
X7931250Y-11265000D01*
X7931250Y-11090000D02*
X7756250Y-11265000D01*
X8645250Y-7280000D02*
X8820250Y-7455000D01*
X8820250Y-7280000D02*
X8645250Y-7455000D01*
X8645250Y-9185000D02*
X8820250Y-9360000D01*
X8820250Y-9185000D02*
X8645250Y-9360000D01*
X8645250Y-11090000D02*
X8820250Y-11265000D01*
X8820250Y-11090000D02*
X8645250Y-11265000D01*
X9661250Y-7280000D02*
X9836250Y-7455000D01*
X9836250Y-7280000D02*
X9661250Y-7455000D01*
X9661250Y-9185000D02*
X9836250Y-9360000D01*
X9836250Y-9185000D02*
X9661250Y-9360000D01*
X9661250Y-11090000D02*
X9836250Y-11265000D01*
X9836250Y-11090000D02*
X9661250Y-11265000D01*
X10550250Y-7280000D02*
X10725250Y-7455000D01*
X10725250Y-7280000D02*
X10550250Y-7455000D01*
X10550250Y-9185000D02*
X10725250Y-9360000D01*
X10725250Y-9185000D02*
X10550250Y-9360000D01*
X10550250Y-11090000D02*
X10725250Y-11265000D01*
X10725250Y-11090000D02*
X10550250Y-11265000D01*
X11566250Y-7280000D02*
X11741250Y-7455000D01*
X11741250Y-7280000D02*
X11566250Y-7455000D01*
X11566250Y-9185000D02*
X11741250Y-9360000D01*
X11741250Y-9185000D02*
X11566250Y-9360000D01*
X11566250Y-11090000D02*
X11741250Y-11265000D01*
X11741250Y-11090000D02*
X11566250Y-11265000D01*
D13*
X7455250Y-3660250D02*
G75*
G02*
X7235250Y-3660250I-110000J0D01*
G01*
X7235250Y-3660250D02*
G75*
G02*
X7455250Y-3660250I110000J0D01*
G01*
X7455250Y-5860250D02*
G75*
G02*
X7235250Y-5860250I-110000J0D01*
G01*
X7235250Y-5860250D02*
G75*
G02*
X7455250Y-5860250I110000J0D01*
G01*
X9655250Y-3660250D02*
G75*
G02*
X9435250Y-3660250I-110000J0D01*
G01*
X9435250Y-3660250D02*
G75*
G02*
X9655250Y-3660250I110000J0D01*
G01*
X9655250Y-5860250D02*
G75*
G02*
X9435250Y-5860250I-110000J0D01*
G01*
X9435250Y-5860250D02*
G75*
G02*
X9655250Y-5860250I110000J0D01*
G01*
D14*
X7335750Y-7167500D02*
X7335750Y-7567500D01*
X7135750Y-7367500D02*
X7535750Y-7367500D01*
X7335750Y-9072500D02*
X7335750Y-9472500D01*
X7135750Y-9272500D02*
X7535750Y-9272500D01*
X7335750Y-10977500D02*
X7335750Y-11377500D01*
X7135750Y-11177500D02*
X7535750Y-11177500D01*
X9240750Y-7167500D02*
X9240750Y-7567500D01*
X9040750Y-7367500D02*
X9440750Y-7367500D01*
X9240750Y-9072500D02*
X9240750Y-9472500D01*
X9040750Y-9272500D02*
X9440750Y-9272500D01*
X9240750Y-10977500D02*
X9240750Y-11377500D01*
X9040750Y-11177500D02*
X9440750Y-11177500D01*
X11145750Y-7167500D02*
X11145750Y-7567500D01*
X10945750Y-7367500D02*
X11345750Y-7367500D01*
X11145750Y-9072500D02*
X11145750Y-9472500D01*
X10945750Y-9272500D02*
X11345750Y-9272500D01*
X11145750Y-10977500D02*
X11145750Y-11377500D01*
X10945750Y-11177500D02*
X11345750Y-11177500D01*
D11*
X6303402Y-12774234D02*
X6303402Y-12574234D01*
X6303402Y-12574234D02*
X6351021Y-12574234D01*
X6351021Y-12574234D02*
X6379592Y-12583758D01*
X6379592Y-12583758D02*
X6398640Y-12602805D01*
X6398640Y-12602805D02*
X6408164Y-12621853D01*
X6408164Y-12621853D02*
X6417687Y-12659948D01*
X6417687Y-12659948D02*
X6417687Y-12688519D01*
X6417687Y-12688519D02*
X6408164Y-12726615D01*
X6408164Y-12726615D02*
X6398640Y-12745662D01*
X6398640Y-12745662D02*
X6379592Y-12764710D01*
X6379592Y-12764710D02*
X6351021Y-12774234D01*
X6351021Y-12774234D02*
X6303402Y-12774234D01*
X6503402Y-12774234D02*
X6503402Y-12640900D01*
X6503402Y-12678996D02*
X6512926Y-12659948D01*
X6512926Y-12659948D02*
X6522449Y-12650424D01*
X6522449Y-12650424D02*
X6541497Y-12640900D01*
X6541497Y-12640900D02*
X6560545Y-12640900D01*
X6627211Y-12774234D02*
X6627211Y-12640900D01*
X6627211Y-12574234D02*
X6617687Y-12583758D01*
X6617687Y-12583758D02*
X6627211Y-12593281D01*
X6627211Y-12593281D02*
X6636735Y-12583758D01*
X6636735Y-12583758D02*
X6627211Y-12574234D01*
X6627211Y-12574234D02*
X6627211Y-12593281D01*
X6751021Y-12774234D02*
X6731973Y-12764710D01*
X6731973Y-12764710D02*
X6722449Y-12745662D01*
X6722449Y-12745662D02*
X6722449Y-12574234D01*
X6855783Y-12774234D02*
X6836735Y-12764710D01*
X6836735Y-12764710D02*
X6827211Y-12745662D01*
X6827211Y-12745662D02*
X6827211Y-12574234D01*
X7084354Y-12774234D02*
X7084354Y-12574234D01*
X7084354Y-12574234D02*
X7151021Y-12717091D01*
X7151021Y-12717091D02*
X7217687Y-12574234D01*
X7217687Y-12574234D02*
X7217687Y-12774234D01*
X7398640Y-12774234D02*
X7398640Y-12669472D01*
X7398640Y-12669472D02*
X7389116Y-12650424D01*
X7389116Y-12650424D02*
X7370068Y-12640900D01*
X7370068Y-12640900D02*
X7331973Y-12640900D01*
X7331973Y-12640900D02*
X7312926Y-12650424D01*
X7398640Y-12764710D02*
X7379592Y-12774234D01*
X7379592Y-12774234D02*
X7331973Y-12774234D01*
X7331973Y-12774234D02*
X7312926Y-12764710D01*
X7312926Y-12764710D02*
X7303402Y-12745662D01*
X7303402Y-12745662D02*
X7303402Y-12726615D01*
X7303402Y-12726615D02*
X7312926Y-12707567D01*
X7312926Y-12707567D02*
X7331973Y-12698043D01*
X7331973Y-12698043D02*
X7379592Y-12698043D01*
X7379592Y-12698043D02*
X7398640Y-12688519D01*
X7493878Y-12640900D02*
X7493878Y-12840900D01*
X7493878Y-12650424D02*
X7512926Y-12640900D01*
X7512926Y-12640900D02*
X7551021Y-12640900D01*
X7551021Y-12640900D02*
X7570068Y-12650424D01*
X7570068Y-12650424D02*
X7579592Y-12659948D01*
X7579592Y-12659948D02*
X7589116Y-12678996D01*
X7589116Y-12678996D02*
X7589116Y-12736138D01*
X7589116Y-12736138D02*
X7579592Y-12755186D01*
X7579592Y-12755186D02*
X7570068Y-12764710D01*
X7570068Y-12764710D02*
X7551021Y-12774234D01*
X7551021Y-12774234D02*
X7512926Y-12774234D01*
X7512926Y-12774234D02*
X7493878Y-12764710D01*
X7674830Y-12755186D02*
X7684354Y-12764710D01*
X7684354Y-12764710D02*
X7674830Y-12774234D01*
X7674830Y-12774234D02*
X7665307Y-12764710D01*
X7665307Y-12764710D02*
X7674830Y-12755186D01*
X7674830Y-12755186D02*
X7674830Y-12774234D01*
X7674830Y-12650424D02*
X7684354Y-12659948D01*
X7684354Y-12659948D02*
X7674830Y-12669472D01*
X7674830Y-12669472D02*
X7665307Y-12659948D01*
X7665307Y-12659948D02*
X7674830Y-12650424D01*
X7674830Y-12650424D02*
X7674830Y-12669472D01*
D12*
X5867625Y-13015250D02*
X6042625Y-13190250D01*
X6042625Y-13015250D02*
X5867625Y-13190250D01*
D11*
X6408164Y-13194234D02*
X6293878Y-13194234D01*
X6351021Y-13194234D02*
X6351021Y-12994234D01*
X6351021Y-12994234D02*
X6331973Y-13022805D01*
X6331973Y-13022805D02*
X6312926Y-13041853D01*
X6312926Y-13041853D02*
X6293878Y-13051377D01*
X6493878Y-13175186D02*
X6503402Y-13184710D01*
X6503402Y-13184710D02*
X6493878Y-13194234D01*
X6493878Y-13194234D02*
X6484354Y-13184710D01*
X6484354Y-13184710D02*
X6493878Y-13175186D01*
X6493878Y-13175186D02*
X6493878Y-13194234D01*
X6570068Y-12994234D02*
X6703402Y-12994234D01*
X6703402Y-12994234D02*
X6617687Y-13194234D01*
X6874830Y-12994234D02*
X6779592Y-12994234D01*
X6779592Y-12994234D02*
X6770068Y-13089472D01*
X6770068Y-13089472D02*
X6779592Y-13079948D01*
X6779592Y-13079948D02*
X6798640Y-13070424D01*
X6798640Y-13070424D02*
X6846259Y-13070424D01*
X6846259Y-13070424D02*
X6865307Y-13079948D01*
X6865307Y-13079948D02*
X6874830Y-13089472D01*
X6874830Y-13089472D02*
X6884354Y-13108519D01*
X6884354Y-13108519D02*
X6884354Y-13156138D01*
X6884354Y-13156138D02*
X6874830Y-13175186D01*
X6874830Y-13175186D02*
X6865307Y-13184710D01*
X6865307Y-13184710D02*
X6846259Y-13194234D01*
X6846259Y-13194234D02*
X6798640Y-13194234D01*
X6798640Y-13194234D02*
X6779592Y-13184710D01*
X6779592Y-13184710D02*
X6770068Y-13175186D01*
X7008164Y-12994234D02*
X7027211Y-12994234D01*
X7027211Y-12994234D02*
X7046259Y-13003758D01*
X7046259Y-13003758D02*
X7055783Y-13013281D01*
X7055783Y-13013281D02*
X7065307Y-13032329D01*
X7065307Y-13032329D02*
X7074830Y-13070424D01*
X7074830Y-13070424D02*
X7074830Y-13118043D01*
X7074830Y-13118043D02*
X7065307Y-13156138D01*
X7065307Y-13156138D02*
X7055783Y-13175186D01*
X7055783Y-13175186D02*
X7046259Y-13184710D01*
X7046259Y-13184710D02*
X7027211Y-13194234D01*
X7027211Y-13194234D02*
X7008164Y-13194234D01*
X7008164Y-13194234D02*
X6989116Y-13184710D01*
X6989116Y-13184710D02*
X6979592Y-13175186D01*
X6979592Y-13175186D02*
X6970068Y-13156138D01*
X6970068Y-13156138D02*
X6960545Y-13118043D01*
X6960545Y-13118043D02*
X6960545Y-13070424D01*
X6960545Y-13070424D02*
X6970068Y-13032329D01*
X6970068Y-13032329D02*
X6979592Y-13013281D01*
X6979592Y-13013281D02*
X6989116Y-13003758D01*
X6989116Y-13003758D02*
X7008164Y-12994234D01*
X7160545Y-13194234D02*
X7160545Y-13060900D01*
X7160545Y-13079948D02*
X7170068Y-13070424D01*
X7170068Y-13070424D02*
X7189116Y-13060900D01*
X7189116Y-13060900D02*
X7217688Y-13060900D01*
X7217688Y-13060900D02*
X7236735Y-13070424D01*
X7236735Y-13070424D02*
X7246259Y-13089472D01*
X7246259Y-13089472D02*
X7246259Y-13194234D01*
X7246259Y-13089472D02*
X7255783Y-13070424D01*
X7255783Y-13070424D02*
X7274830Y-13060900D01*
X7274830Y-13060900D02*
X7303402Y-13060900D01*
X7303402Y-13060900D02*
X7322449Y-13070424D01*
X7322449Y-13070424D02*
X7331973Y-13089472D01*
X7331973Y-13089472D02*
X7331973Y-13194234D01*
X7427211Y-13194234D02*
X7427211Y-13060900D01*
X7427211Y-13079948D02*
X7436735Y-13070424D01*
X7436735Y-13070424D02*
X7455783Y-13060900D01*
X7455783Y-13060900D02*
X7484354Y-13060900D01*
X7484354Y-13060900D02*
X7503402Y-13070424D01*
X7503402Y-13070424D02*
X7512926Y-13089472D01*
X7512926Y-13089472D02*
X7512926Y-13194234D01*
X7512926Y-13089472D02*
X7522449Y-13070424D01*
X7522449Y-13070424D02*
X7541497Y-13060900D01*
X7541497Y-13060900D02*
X7570068Y-13060900D01*
X7570068Y-13060900D02*
X7589116Y-13070424D01*
X7589116Y-13070424D02*
X7598640Y-13089472D01*
X7598640Y-13089472D02*
X7598640Y-13194234D01*
X7989116Y-12984710D02*
X7817688Y-13241853D01*
X8246259Y-12994234D02*
X8265307Y-12994234D01*
X8265307Y-12994234D02*
X8284354Y-13003758D01*
X8284354Y-13003758D02*
X8293878Y-13013281D01*
X8293878Y-13013281D02*
X8303402Y-13032329D01*
X8303402Y-13032329D02*
X8312926Y-13070424D01*
X8312926Y-13070424D02*
X8312926Y-13118043D01*
X8312926Y-13118043D02*
X8303402Y-13156138D01*
X8303402Y-13156138D02*
X8293878Y-13175186D01*
X8293878Y-13175186D02*
X8284354Y-13184710D01*
X8284354Y-13184710D02*
X8265307Y-13194234D01*
X8265307Y-13194234D02*
X8246259Y-13194234D01*
X8246259Y-13194234D02*
X8227211Y-13184710D01*
X8227211Y-13184710D02*
X8217688Y-13175186D01*
X8217688Y-13175186D02*
X8208164Y-13156138D01*
X8208164Y-13156138D02*
X8198640Y-13118043D01*
X8198640Y-13118043D02*
X8198640Y-13070424D01*
X8198640Y-13070424D02*
X8208164Y-13032329D01*
X8208164Y-13032329D02*
X8217688Y-13013281D01*
X8217688Y-13013281D02*
X8227211Y-13003758D01*
X8227211Y-13003758D02*
X8246259Y-12994234D01*
X8398640Y-13175186D02*
X8408164Y-13184710D01*
X8408164Y-13184710D02*
X8398640Y-13194234D01*
X8398640Y-13194234D02*
X8389116Y-13184710D01*
X8389116Y-13184710D02*
X8398640Y-13175186D01*
X8398640Y-13175186D02*
X8398640Y-13194234D01*
X8531973Y-12994234D02*
X8551021Y-12994234D01*
X8551021Y-12994234D02*
X8570069Y-13003758D01*
X8570069Y-13003758D02*
X8579593Y-13013281D01*
X8579593Y-13013281D02*
X8589116Y-13032329D01*
X8589116Y-13032329D02*
X8598640Y-13070424D01*
X8598640Y-13070424D02*
X8598640Y-13118043D01*
X8598640Y-13118043D02*
X8589116Y-13156138D01*
X8589116Y-13156138D02*
X8579593Y-13175186D01*
X8579593Y-13175186D02*
X8570069Y-13184710D01*
X8570069Y-13184710D02*
X8551021Y-13194234D01*
X8551021Y-13194234D02*
X8531973Y-13194234D01*
X8531973Y-13194234D02*
X8512926Y-13184710D01*
X8512926Y-13184710D02*
X8503402Y-13175186D01*
X8503402Y-13175186D02*
X8493878Y-13156138D01*
X8493878Y-13156138D02*
X8484354Y-13118043D01*
X8484354Y-13118043D02*
X8484354Y-13070424D01*
X8484354Y-13070424D02*
X8493878Y-13032329D01*
X8493878Y-13032329D02*
X8503402Y-13013281D01*
X8503402Y-13013281D02*
X8512926Y-13003758D01*
X8512926Y-13003758D02*
X8531973Y-12994234D01*
X8770069Y-12994234D02*
X8731973Y-12994234D01*
X8731973Y-12994234D02*
X8712926Y-13003758D01*
X8712926Y-13003758D02*
X8703402Y-13013281D01*
X8703402Y-13013281D02*
X8684354Y-13041853D01*
X8684354Y-13041853D02*
X8674831Y-13079948D01*
X8674831Y-13079948D02*
X8674831Y-13156138D01*
X8674831Y-13156138D02*
X8684354Y-13175186D01*
X8684354Y-13175186D02*
X8693878Y-13184710D01*
X8693878Y-13184710D02*
X8712926Y-13194234D01*
X8712926Y-13194234D02*
X8751021Y-13194234D01*
X8751021Y-13194234D02*
X8770069Y-13184710D01*
X8770069Y-13184710D02*
X8779593Y-13175186D01*
X8779593Y-13175186D02*
X8789116Y-13156138D01*
X8789116Y-13156138D02*
X8789116Y-13108519D01*
X8789116Y-13108519D02*
X8779593Y-13089472D01*
X8779593Y-13089472D02*
X8770069Y-13079948D01*
X8770069Y-13079948D02*
X8751021Y-13070424D01*
X8751021Y-13070424D02*
X8712926Y-13070424D01*
X8712926Y-13070424D02*
X8693878Y-13079948D01*
X8693878Y-13079948D02*
X8684354Y-13089472D01*
X8684354Y-13089472D02*
X8674831Y-13108519D01*
X8903402Y-13079948D02*
X8884354Y-13070424D01*
X8884354Y-13070424D02*
X8874831Y-13060900D01*
X8874831Y-13060900D02*
X8865307Y-13041853D01*
X8865307Y-13041853D02*
X8865307Y-13032329D01*
X8865307Y-13032329D02*
X8874831Y-13013281D01*
X8874831Y-13013281D02*
X8884354Y-13003758D01*
X8884354Y-13003758D02*
X8903402Y-12994234D01*
X8903402Y-12994234D02*
X8941497Y-12994234D01*
X8941497Y-12994234D02*
X8960545Y-13003758D01*
X8960545Y-13003758D02*
X8970069Y-13013281D01*
X8970069Y-13013281D02*
X8979593Y-13032329D01*
X8979593Y-13032329D02*
X8979593Y-13041853D01*
X8979593Y-13041853D02*
X8970069Y-13060900D01*
X8970069Y-13060900D02*
X8960545Y-13070424D01*
X8960545Y-13070424D02*
X8941497Y-13079948D01*
X8941497Y-13079948D02*
X8903402Y-13079948D01*
X8903402Y-13079948D02*
X8884354Y-13089472D01*
X8884354Y-13089472D02*
X8874831Y-13098996D01*
X8874831Y-13098996D02*
X8865307Y-13118043D01*
X8865307Y-13118043D02*
X8865307Y-13156138D01*
X8865307Y-13156138D02*
X8874831Y-13175186D01*
X8874831Y-13175186D02*
X8884354Y-13184710D01*
X8884354Y-13184710D02*
X8903402Y-13194234D01*
X8903402Y-13194234D02*
X8941497Y-13194234D01*
X8941497Y-13194234D02*
X8960545Y-13184710D01*
X8960545Y-13184710D02*
X8970069Y-13175186D01*
X8970069Y-13175186D02*
X8979593Y-13156138D01*
X8979593Y-13156138D02*
X8979593Y-13118043D01*
X8979593Y-13118043D02*
X8970069Y-13098996D01*
X8970069Y-13098996D02*
X8960545Y-13089472D01*
X8960545Y-13089472D02*
X8941497Y-13079948D01*
X9074831Y-13194234D02*
X9112926Y-13194234D01*
X9112926Y-13194234D02*
X9131974Y-13184710D01*
X9131974Y-13184710D02*
X9141497Y-13175186D01*
X9141497Y-13175186D02*
X9160545Y-13146615D01*
X9160545Y-13146615D02*
X9170069Y-13108519D01*
X9170069Y-13108519D02*
X9170069Y-13032329D01*
X9170069Y-13032329D02*
X9160545Y-13013281D01*
X9160545Y-13013281D02*
X9151021Y-13003758D01*
X9151021Y-13003758D02*
X9131974Y-12994234D01*
X9131974Y-12994234D02*
X9093878Y-12994234D01*
X9093878Y-12994234D02*
X9074831Y-13003758D01*
X9074831Y-13003758D02*
X9065307Y-13013281D01*
X9065307Y-13013281D02*
X9055783Y-13032329D01*
X9055783Y-13032329D02*
X9055783Y-13079948D01*
X9055783Y-13079948D02*
X9065307Y-13098996D01*
X9065307Y-13098996D02*
X9074831Y-13108519D01*
X9074831Y-13108519D02*
X9093878Y-13118043D01*
X9093878Y-13118043D02*
X9131974Y-13118043D01*
X9131974Y-13118043D02*
X9151021Y-13108519D01*
X9151021Y-13108519D02*
X9160545Y-13098996D01*
X9160545Y-13098996D02*
X9170069Y-13079948D01*
X9246259Y-12994234D02*
X9246259Y-13032329D01*
X9322450Y-12994234D02*
X9322450Y-13032329D01*
X9617688Y-13270424D02*
X9608164Y-13260900D01*
X9608164Y-13260900D02*
X9589116Y-13232329D01*
X9589116Y-13232329D02*
X9579593Y-13213281D01*
X9579593Y-13213281D02*
X9570069Y-13184710D01*
X9570069Y-13184710D02*
X9560545Y-13137091D01*
X9560545Y-13137091D02*
X9560545Y-13098996D01*
X9560545Y-13098996D02*
X9570069Y-13051377D01*
X9570069Y-13051377D02*
X9579593Y-13022805D01*
X9579593Y-13022805D02*
X9589116Y-13003758D01*
X9589116Y-13003758D02*
X9608164Y-12975186D01*
X9608164Y-12975186D02*
X9617688Y-12965662D01*
X9798640Y-13194234D02*
X9684355Y-13194234D01*
X9741497Y-13194234D02*
X9741497Y-12994234D01*
X9741497Y-12994234D02*
X9722450Y-13022805D01*
X9722450Y-13022805D02*
X9703402Y-13041853D01*
X9703402Y-13041853D02*
X9684355Y-13051377D01*
X9912926Y-13079948D02*
X9893878Y-13070424D01*
X9893878Y-13070424D02*
X9884355Y-13060900D01*
X9884355Y-13060900D02*
X9874831Y-13041853D01*
X9874831Y-13041853D02*
X9874831Y-13032329D01*
X9874831Y-13032329D02*
X9884355Y-13013281D01*
X9884355Y-13013281D02*
X9893878Y-13003758D01*
X9893878Y-13003758D02*
X9912926Y-12994234D01*
X9912926Y-12994234D02*
X9951021Y-12994234D01*
X9951021Y-12994234D02*
X9970069Y-13003758D01*
X9970069Y-13003758D02*
X9979593Y-13013281D01*
X9979593Y-13013281D02*
X9989116Y-13032329D01*
X9989116Y-13032329D02*
X9989116Y-13041853D01*
X9989116Y-13041853D02*
X9979593Y-13060900D01*
X9979593Y-13060900D02*
X9970069Y-13070424D01*
X9970069Y-13070424D02*
X9951021Y-13079948D01*
X9951021Y-13079948D02*
X9912926Y-13079948D01*
X9912926Y-13079948D02*
X9893878Y-13089472D01*
X9893878Y-13089472D02*
X9884355Y-13098996D01*
X9884355Y-13098996D02*
X9874831Y-13118043D01*
X9874831Y-13118043D02*
X9874831Y-13156138D01*
X9874831Y-13156138D02*
X9884355Y-13175186D01*
X9884355Y-13175186D02*
X9893878Y-13184710D01*
X9893878Y-13184710D02*
X9912926Y-13194234D01*
X9912926Y-13194234D02*
X9951021Y-13194234D01*
X9951021Y-13194234D02*
X9970069Y-13184710D01*
X9970069Y-13184710D02*
X9979593Y-13175186D01*
X9979593Y-13175186D02*
X9989116Y-13156138D01*
X9989116Y-13156138D02*
X9989116Y-13118043D01*
X9989116Y-13118043D02*
X9979593Y-13098996D01*
X9979593Y-13098996D02*
X9970069Y-13089472D01*
X9970069Y-13089472D02*
X9951021Y-13079948D01*
X10227212Y-13194234D02*
X10227212Y-12994234D01*
X10312926Y-13194234D02*
X10312926Y-13089472D01*
X10312926Y-13089472D02*
X10303402Y-13070424D01*
X10303402Y-13070424D02*
X10284355Y-13060900D01*
X10284355Y-13060900D02*
X10255783Y-13060900D01*
X10255783Y-13060900D02*
X10236736Y-13070424D01*
X10236736Y-13070424D02*
X10227212Y-13079948D01*
X10436736Y-13194234D02*
X10417688Y-13184710D01*
X10417688Y-13184710D02*
X10408164Y-13175186D01*
X10408164Y-13175186D02*
X10398640Y-13156138D01*
X10398640Y-13156138D02*
X10398640Y-13098996D01*
X10398640Y-13098996D02*
X10408164Y-13079948D01*
X10408164Y-13079948D02*
X10417688Y-13070424D01*
X10417688Y-13070424D02*
X10436736Y-13060900D01*
X10436736Y-13060900D02*
X10465307Y-13060900D01*
X10465307Y-13060900D02*
X10484355Y-13070424D01*
X10484355Y-13070424D02*
X10493878Y-13079948D01*
X10493878Y-13079948D02*
X10503402Y-13098996D01*
X10503402Y-13098996D02*
X10503402Y-13156138D01*
X10503402Y-13156138D02*
X10493878Y-13175186D01*
X10493878Y-13175186D02*
X10484355Y-13184710D01*
X10484355Y-13184710D02*
X10465307Y-13194234D01*
X10465307Y-13194234D02*
X10436736Y-13194234D01*
X10617688Y-13194234D02*
X10598640Y-13184710D01*
X10598640Y-13184710D02*
X10589117Y-13165662D01*
X10589117Y-13165662D02*
X10589117Y-12994234D01*
X10770069Y-13184710D02*
X10751021Y-13194234D01*
X10751021Y-13194234D02*
X10712926Y-13194234D01*
X10712926Y-13194234D02*
X10693878Y-13184710D01*
X10693878Y-13184710D02*
X10684355Y-13165662D01*
X10684355Y-13165662D02*
X10684355Y-13089472D01*
X10684355Y-13089472D02*
X10693878Y-13070424D01*
X10693878Y-13070424D02*
X10712926Y-13060900D01*
X10712926Y-13060900D02*
X10751021Y-13060900D01*
X10751021Y-13060900D02*
X10770069Y-13070424D01*
X10770069Y-13070424D02*
X10779593Y-13089472D01*
X10779593Y-13089472D02*
X10779593Y-13108519D01*
X10779593Y-13108519D02*
X10684355Y-13127567D01*
X10855783Y-13184710D02*
X10874831Y-13194234D01*
X10874831Y-13194234D02*
X10912926Y-13194234D01*
X10912926Y-13194234D02*
X10931974Y-13184710D01*
X10931974Y-13184710D02*
X10941498Y-13165662D01*
X10941498Y-13165662D02*
X10941498Y-13156138D01*
X10941498Y-13156138D02*
X10931974Y-13137091D01*
X10931974Y-13137091D02*
X10912926Y-13127567D01*
X10912926Y-13127567D02*
X10884355Y-13127567D01*
X10884355Y-13127567D02*
X10865307Y-13118043D01*
X10865307Y-13118043D02*
X10855783Y-13098996D01*
X10855783Y-13098996D02*
X10855783Y-13089472D01*
X10855783Y-13089472D02*
X10865307Y-13070424D01*
X10865307Y-13070424D02*
X10884355Y-13060900D01*
X10884355Y-13060900D02*
X10912926Y-13060900D01*
X10912926Y-13060900D02*
X10931974Y-13070424D01*
X11008164Y-13270424D02*
X11017688Y-13260900D01*
X11017688Y-13260900D02*
X11036736Y-13232329D01*
X11036736Y-13232329D02*
X11046259Y-13213281D01*
X11046259Y-13213281D02*
X11055783Y-13184710D01*
X11055783Y-13184710D02*
X11065307Y-13137091D01*
X11065307Y-13137091D02*
X11065307Y-13098996D01*
X11065307Y-13098996D02*
X11055783Y-13051377D01*
X11055783Y-13051377D02*
X11046259Y-13022805D01*
X11046259Y-13022805D02*
X11036736Y-13003758D01*
X11036736Y-13003758D02*
X11017688Y-12975186D01*
X11017688Y-12975186D02*
X11008164Y-12965662D01*
X11370069Y-13270424D02*
X11360545Y-13260900D01*
X11360545Y-13260900D02*
X11341497Y-13232329D01*
X11341497Y-13232329D02*
X11331974Y-13213281D01*
X11331974Y-13213281D02*
X11322450Y-13184710D01*
X11322450Y-13184710D02*
X11312926Y-13137091D01*
X11312926Y-13137091D02*
X11312926Y-13098996D01*
X11312926Y-13098996D02*
X11322450Y-13051377D01*
X11322450Y-13051377D02*
X11331974Y-13022805D01*
X11331974Y-13022805D02*
X11341497Y-13003758D01*
X11341497Y-13003758D02*
X11360545Y-12975186D01*
X11360545Y-12975186D02*
X11370069Y-12965662D01*
X11446259Y-13060900D02*
X11446259Y-13194234D01*
X11446259Y-13079948D02*
X11455783Y-13070424D01*
X11455783Y-13070424D02*
X11474831Y-13060900D01*
X11474831Y-13060900D02*
X11503402Y-13060900D01*
X11503402Y-13060900D02*
X11522450Y-13070424D01*
X11522450Y-13070424D02*
X11531974Y-13089472D01*
X11531974Y-13089472D02*
X11531974Y-13194234D01*
X11655783Y-13194234D02*
X11636736Y-13184710D01*
X11636736Y-13184710D02*
X11627212Y-13175186D01*
X11627212Y-13175186D02*
X11617688Y-13156138D01*
X11617688Y-13156138D02*
X11617688Y-13098996D01*
X11617688Y-13098996D02*
X11627212Y-13079948D01*
X11627212Y-13079948D02*
X11636736Y-13070424D01*
X11636736Y-13070424D02*
X11655783Y-13060900D01*
X11655783Y-13060900D02*
X11684355Y-13060900D01*
X11684355Y-13060900D02*
X11703402Y-13070424D01*
X11703402Y-13070424D02*
X11712926Y-13079948D01*
X11712926Y-13079948D02*
X11722450Y-13098996D01*
X11722450Y-13098996D02*
X11722450Y-13156138D01*
X11722450Y-13156138D02*
X11712926Y-13175186D01*
X11712926Y-13175186D02*
X11703402Y-13184710D01*
X11703402Y-13184710D02*
X11684355Y-13194234D01*
X11684355Y-13194234D02*
X11655783Y-13194234D01*
X11779593Y-13060900D02*
X11855783Y-13060900D01*
X11808164Y-12994234D02*
X11808164Y-13165662D01*
X11808164Y-13165662D02*
X11817688Y-13184710D01*
X11817688Y-13184710D02*
X11836736Y-13194234D01*
X11836736Y-13194234D02*
X11855783Y-13194234D01*
X12074831Y-13060900D02*
X12074831Y-13260900D01*
X12074831Y-13070424D02*
X12093878Y-13060900D01*
X12093878Y-13060900D02*
X12131974Y-13060900D01*
X12131974Y-13060900D02*
X12151021Y-13070424D01*
X12151021Y-13070424D02*
X12160545Y-13079948D01*
X12160545Y-13079948D02*
X12170069Y-13098996D01*
X12170069Y-13098996D02*
X12170069Y-13156138D01*
X12170069Y-13156138D02*
X12160545Y-13175186D01*
X12160545Y-13175186D02*
X12151021Y-13184710D01*
X12151021Y-13184710D02*
X12131974Y-13194234D01*
X12131974Y-13194234D02*
X12093878Y-13194234D01*
X12093878Y-13194234D02*
X12074831Y-13184710D01*
X12284355Y-13194234D02*
X12265307Y-13184710D01*
X12265307Y-13184710D02*
X12255783Y-13165662D01*
X12255783Y-13165662D02*
X12255783Y-12994234D01*
X12446259Y-13194234D02*
X12446259Y-13089472D01*
X12446259Y-13089472D02*
X12436736Y-13070424D01*
X12436736Y-13070424D02*
X12417688Y-13060900D01*
X12417688Y-13060900D02*
X12379593Y-13060900D01*
X12379593Y-13060900D02*
X12360545Y-13070424D01*
X12446259Y-13184710D02*
X12427212Y-13194234D01*
X12427212Y-13194234D02*
X12379593Y-13194234D01*
X12379593Y-13194234D02*
X12360545Y-13184710D01*
X12360545Y-13184710D02*
X12351021Y-13165662D01*
X12351021Y-13165662D02*
X12351021Y-13146615D01*
X12351021Y-13146615D02*
X12360545Y-13127567D01*
X12360545Y-13127567D02*
X12379593Y-13118043D01*
X12379593Y-13118043D02*
X12427212Y-13118043D01*
X12427212Y-13118043D02*
X12446259Y-13108519D01*
X12512926Y-13060900D02*
X12589117Y-13060900D01*
X12541498Y-12994234D02*
X12541498Y-13165662D01*
X12541498Y-13165662D02*
X12551021Y-13184710D01*
X12551021Y-13184710D02*
X12570069Y-13194234D01*
X12570069Y-13194234D02*
X12589117Y-13194234D01*
X12731974Y-13184710D02*
X12712926Y-13194234D01*
X12712926Y-13194234D02*
X12674831Y-13194234D01*
X12674831Y-13194234D02*
X12655783Y-13184710D01*
X12655783Y-13184710D02*
X12646259Y-13165662D01*
X12646259Y-13165662D02*
X12646259Y-13089472D01*
X12646259Y-13089472D02*
X12655783Y-13070424D01*
X12655783Y-13070424D02*
X12674831Y-13060900D01*
X12674831Y-13060900D02*
X12712926Y-13060900D01*
X12712926Y-13060900D02*
X12731974Y-13070424D01*
X12731974Y-13070424D02*
X12741498Y-13089472D01*
X12741498Y-13089472D02*
X12741498Y-13108519D01*
X12741498Y-13108519D02*
X12646259Y-13127567D01*
X12912926Y-13194234D02*
X12912926Y-12994234D01*
X12912926Y-13184710D02*
X12893879Y-13194234D01*
X12893879Y-13194234D02*
X12855783Y-13194234D01*
X12855783Y-13194234D02*
X12836736Y-13184710D01*
X12836736Y-13184710D02*
X12827212Y-13175186D01*
X12827212Y-13175186D02*
X12817688Y-13156138D01*
X12817688Y-13156138D02*
X12817688Y-13098996D01*
X12817688Y-13098996D02*
X12827212Y-13079948D01*
X12827212Y-13079948D02*
X12836736Y-13070424D01*
X12836736Y-13070424D02*
X12855783Y-13060900D01*
X12855783Y-13060900D02*
X12893879Y-13060900D01*
X12893879Y-13060900D02*
X12912926Y-13070424D01*
X12989117Y-13270424D02*
X12998640Y-13260900D01*
X12998640Y-13260900D02*
X13017688Y-13232329D01*
X13017688Y-13232329D02*
X13027212Y-13213281D01*
X13027212Y-13213281D02*
X13036736Y-13184710D01*
X13036736Y-13184710D02*
X13046259Y-13137091D01*
X13046259Y-13137091D02*
X13046259Y-13098996D01*
X13046259Y-13098996D02*
X13036736Y-13051377D01*
X13036736Y-13051377D02*
X13027212Y-13022805D01*
X13027212Y-13022805D02*
X13017688Y-13003758D01*
X13017688Y-13003758D02*
X12998640Y-12975186D01*
X12998640Y-12975186D02*
X12989117Y-12965662D01*
X6042625Y-13397750D02*
G75*
G02*
X5842625Y-13397750I-100000J0D01*
G01*
X5842625Y-13397750D02*
G75*
G02*
X6042625Y-13397750I100000J0D01*
G01*
X6293878Y-13308281D02*
X6303402Y-13298758D01*
X6303402Y-13298758D02*
X6322449Y-13289234D01*
X6322449Y-13289234D02*
X6370068Y-13289234D01*
X6370068Y-13289234D02*
X6389116Y-13298758D01*
X6389116Y-13298758D02*
X6398640Y-13308281D01*
X6398640Y-13308281D02*
X6408164Y-13327329D01*
X6408164Y-13327329D02*
X6408164Y-13346377D01*
X6408164Y-13346377D02*
X6398640Y-13374948D01*
X6398640Y-13374948D02*
X6284354Y-13489234D01*
X6284354Y-13489234D02*
X6408164Y-13489234D01*
X6493878Y-13470186D02*
X6503402Y-13479710D01*
X6503402Y-13479710D02*
X6493878Y-13489234D01*
X6493878Y-13489234D02*
X6484354Y-13479710D01*
X6484354Y-13479710D02*
X6493878Y-13470186D01*
X6493878Y-13470186D02*
X6493878Y-13489234D01*
X6579592Y-13308281D02*
X6589116Y-13298758D01*
X6589116Y-13298758D02*
X6608164Y-13289234D01*
X6608164Y-13289234D02*
X6655783Y-13289234D01*
X6655783Y-13289234D02*
X6674830Y-13298758D01*
X6674830Y-13298758D02*
X6684354Y-13308281D01*
X6684354Y-13308281D02*
X6693878Y-13327329D01*
X6693878Y-13327329D02*
X6693878Y-13346377D01*
X6693878Y-13346377D02*
X6684354Y-13374948D01*
X6684354Y-13374948D02*
X6570068Y-13489234D01*
X6570068Y-13489234D02*
X6693878Y-13489234D01*
X6817687Y-13289234D02*
X6836735Y-13289234D01*
X6836735Y-13289234D02*
X6855783Y-13298758D01*
X6855783Y-13298758D02*
X6865307Y-13308281D01*
X6865307Y-13308281D02*
X6874830Y-13327329D01*
X6874830Y-13327329D02*
X6884354Y-13365424D01*
X6884354Y-13365424D02*
X6884354Y-13413043D01*
X6884354Y-13413043D02*
X6874830Y-13451138D01*
X6874830Y-13451138D02*
X6865307Y-13470186D01*
X6865307Y-13470186D02*
X6855783Y-13479710D01*
X6855783Y-13479710D02*
X6836735Y-13489234D01*
X6836735Y-13489234D02*
X6817687Y-13489234D01*
X6817687Y-13489234D02*
X6798640Y-13479710D01*
X6798640Y-13479710D02*
X6789116Y-13470186D01*
X6789116Y-13470186D02*
X6779592Y-13451138D01*
X6779592Y-13451138D02*
X6770068Y-13413043D01*
X6770068Y-13413043D02*
X6770068Y-13365424D01*
X6770068Y-13365424D02*
X6779592Y-13327329D01*
X6779592Y-13327329D02*
X6789116Y-13308281D01*
X6789116Y-13308281D02*
X6798640Y-13298758D01*
X6798640Y-13298758D02*
X6817687Y-13289234D01*
X7008164Y-13289234D02*
X7027211Y-13289234D01*
X7027211Y-13289234D02*
X7046259Y-13298758D01*
X7046259Y-13298758D02*
X7055783Y-13308281D01*
X7055783Y-13308281D02*
X7065307Y-13327329D01*
X7065307Y-13327329D02*
X7074830Y-13365424D01*
X7074830Y-13365424D02*
X7074830Y-13413043D01*
X7074830Y-13413043D02*
X7065307Y-13451138D01*
X7065307Y-13451138D02*
X7055783Y-13470186D01*
X7055783Y-13470186D02*
X7046259Y-13479710D01*
X7046259Y-13479710D02*
X7027211Y-13489234D01*
X7027211Y-13489234D02*
X7008164Y-13489234D01*
X7008164Y-13489234D02*
X6989116Y-13479710D01*
X6989116Y-13479710D02*
X6979592Y-13470186D01*
X6979592Y-13470186D02*
X6970068Y-13451138D01*
X6970068Y-13451138D02*
X6960545Y-13413043D01*
X6960545Y-13413043D02*
X6960545Y-13365424D01*
X6960545Y-13365424D02*
X6970068Y-13327329D01*
X6970068Y-13327329D02*
X6979592Y-13308281D01*
X6979592Y-13308281D02*
X6989116Y-13298758D01*
X6989116Y-13298758D02*
X7008164Y-13289234D01*
X7160545Y-13489234D02*
X7160545Y-13355900D01*
X7160545Y-13374948D02*
X7170068Y-13365424D01*
X7170068Y-13365424D02*
X7189116Y-13355900D01*
X7189116Y-13355900D02*
X7217688Y-13355900D01*
X7217688Y-13355900D02*
X7236735Y-13365424D01*
X7236735Y-13365424D02*
X7246259Y-13384472D01*
X7246259Y-13384472D02*
X7246259Y-13489234D01*
X7246259Y-13384472D02*
X7255783Y-13365424D01*
X7255783Y-13365424D02*
X7274830Y-13355900D01*
X7274830Y-13355900D02*
X7303402Y-13355900D01*
X7303402Y-13355900D02*
X7322449Y-13365424D01*
X7322449Y-13365424D02*
X7331973Y-13384472D01*
X7331973Y-13384472D02*
X7331973Y-13489234D01*
X7427211Y-13489234D02*
X7427211Y-13355900D01*
X7427211Y-13374948D02*
X7436735Y-13365424D01*
X7436735Y-13365424D02*
X7455783Y-13355900D01*
X7455783Y-13355900D02*
X7484354Y-13355900D01*
X7484354Y-13355900D02*
X7503402Y-13365424D01*
X7503402Y-13365424D02*
X7512926Y-13384472D01*
X7512926Y-13384472D02*
X7512926Y-13489234D01*
X7512926Y-13384472D02*
X7522449Y-13365424D01*
X7522449Y-13365424D02*
X7541497Y-13355900D01*
X7541497Y-13355900D02*
X7570068Y-13355900D01*
X7570068Y-13355900D02*
X7589116Y-13365424D01*
X7589116Y-13365424D02*
X7598640Y-13384472D01*
X7598640Y-13384472D02*
X7598640Y-13489234D01*
X7989116Y-13279710D02*
X7817688Y-13536853D01*
X8246259Y-13289234D02*
X8265307Y-13289234D01*
X8265307Y-13289234D02*
X8284354Y-13298758D01*
X8284354Y-13298758D02*
X8293878Y-13308281D01*
X8293878Y-13308281D02*
X8303402Y-13327329D01*
X8303402Y-13327329D02*
X8312926Y-13365424D01*
X8312926Y-13365424D02*
X8312926Y-13413043D01*
X8312926Y-13413043D02*
X8303402Y-13451138D01*
X8303402Y-13451138D02*
X8293878Y-13470186D01*
X8293878Y-13470186D02*
X8284354Y-13479710D01*
X8284354Y-13479710D02*
X8265307Y-13489234D01*
X8265307Y-13489234D02*
X8246259Y-13489234D01*
X8246259Y-13489234D02*
X8227211Y-13479710D01*
X8227211Y-13479710D02*
X8217688Y-13470186D01*
X8217688Y-13470186D02*
X8208164Y-13451138D01*
X8208164Y-13451138D02*
X8198640Y-13413043D01*
X8198640Y-13413043D02*
X8198640Y-13365424D01*
X8198640Y-13365424D02*
X8208164Y-13327329D01*
X8208164Y-13327329D02*
X8217688Y-13308281D01*
X8217688Y-13308281D02*
X8227211Y-13298758D01*
X8227211Y-13298758D02*
X8246259Y-13289234D01*
X8398640Y-13470186D02*
X8408164Y-13479710D01*
X8408164Y-13479710D02*
X8398640Y-13489234D01*
X8398640Y-13489234D02*
X8389116Y-13479710D01*
X8389116Y-13479710D02*
X8398640Y-13470186D01*
X8398640Y-13470186D02*
X8398640Y-13489234D01*
X8531973Y-13289234D02*
X8551021Y-13289234D01*
X8551021Y-13289234D02*
X8570069Y-13298758D01*
X8570069Y-13298758D02*
X8579593Y-13308281D01*
X8579593Y-13308281D02*
X8589116Y-13327329D01*
X8589116Y-13327329D02*
X8598640Y-13365424D01*
X8598640Y-13365424D02*
X8598640Y-13413043D01*
X8598640Y-13413043D02*
X8589116Y-13451138D01*
X8589116Y-13451138D02*
X8579593Y-13470186D01*
X8579593Y-13470186D02*
X8570069Y-13479710D01*
X8570069Y-13479710D02*
X8551021Y-13489234D01*
X8551021Y-13489234D02*
X8531973Y-13489234D01*
X8531973Y-13489234D02*
X8512926Y-13479710D01*
X8512926Y-13479710D02*
X8503402Y-13470186D01*
X8503402Y-13470186D02*
X8493878Y-13451138D01*
X8493878Y-13451138D02*
X8484354Y-13413043D01*
X8484354Y-13413043D02*
X8484354Y-13365424D01*
X8484354Y-13365424D02*
X8493878Y-13327329D01*
X8493878Y-13327329D02*
X8503402Y-13308281D01*
X8503402Y-13308281D02*
X8512926Y-13298758D01*
X8512926Y-13298758D02*
X8531973Y-13289234D01*
X8712926Y-13374948D02*
X8693878Y-13365424D01*
X8693878Y-13365424D02*
X8684354Y-13355900D01*
X8684354Y-13355900D02*
X8674831Y-13336853D01*
X8674831Y-13336853D02*
X8674831Y-13327329D01*
X8674831Y-13327329D02*
X8684354Y-13308281D01*
X8684354Y-13308281D02*
X8693878Y-13298758D01*
X8693878Y-13298758D02*
X8712926Y-13289234D01*
X8712926Y-13289234D02*
X8751021Y-13289234D01*
X8751021Y-13289234D02*
X8770069Y-13298758D01*
X8770069Y-13298758D02*
X8779593Y-13308281D01*
X8779593Y-13308281D02*
X8789116Y-13327329D01*
X8789116Y-13327329D02*
X8789116Y-13336853D01*
X8789116Y-13336853D02*
X8779593Y-13355900D01*
X8779593Y-13355900D02*
X8770069Y-13365424D01*
X8770069Y-13365424D02*
X8751021Y-13374948D01*
X8751021Y-13374948D02*
X8712926Y-13374948D01*
X8712926Y-13374948D02*
X8693878Y-13384472D01*
X8693878Y-13384472D02*
X8684354Y-13393996D01*
X8684354Y-13393996D02*
X8674831Y-13413043D01*
X8674831Y-13413043D02*
X8674831Y-13451138D01*
X8674831Y-13451138D02*
X8684354Y-13470186D01*
X8684354Y-13470186D02*
X8693878Y-13479710D01*
X8693878Y-13479710D02*
X8712926Y-13489234D01*
X8712926Y-13489234D02*
X8751021Y-13489234D01*
X8751021Y-13489234D02*
X8770069Y-13479710D01*
X8770069Y-13479710D02*
X8779593Y-13470186D01*
X8779593Y-13470186D02*
X8789116Y-13451138D01*
X8789116Y-13451138D02*
X8789116Y-13413043D01*
X8789116Y-13413043D02*
X8779593Y-13393996D01*
X8779593Y-13393996D02*
X8770069Y-13384472D01*
X8770069Y-13384472D02*
X8751021Y-13374948D01*
X8960545Y-13289234D02*
X8922450Y-13289234D01*
X8922450Y-13289234D02*
X8903402Y-13298758D01*
X8903402Y-13298758D02*
X8893878Y-13308281D01*
X8893878Y-13308281D02*
X8874831Y-13336853D01*
X8874831Y-13336853D02*
X8865307Y-13374948D01*
X8865307Y-13374948D02*
X8865307Y-13451138D01*
X8865307Y-13451138D02*
X8874831Y-13470186D01*
X8874831Y-13470186D02*
X8884354Y-13479710D01*
X8884354Y-13479710D02*
X8903402Y-13489234D01*
X8903402Y-13489234D02*
X8941497Y-13489234D01*
X8941497Y-13489234D02*
X8960545Y-13479710D01*
X8960545Y-13479710D02*
X8970069Y-13470186D01*
X8970069Y-13470186D02*
X8979593Y-13451138D01*
X8979593Y-13451138D02*
X8979593Y-13403519D01*
X8979593Y-13403519D02*
X8970069Y-13384472D01*
X8970069Y-13384472D02*
X8960545Y-13374948D01*
X8960545Y-13374948D02*
X8941497Y-13365424D01*
X8941497Y-13365424D02*
X8903402Y-13365424D01*
X8903402Y-13365424D02*
X8884354Y-13374948D01*
X8884354Y-13374948D02*
X8874831Y-13384472D01*
X8874831Y-13384472D02*
X8865307Y-13403519D01*
X9151021Y-13289234D02*
X9112926Y-13289234D01*
X9112926Y-13289234D02*
X9093878Y-13298758D01*
X9093878Y-13298758D02*
X9084354Y-13308281D01*
X9084354Y-13308281D02*
X9065307Y-13336853D01*
X9065307Y-13336853D02*
X9055783Y-13374948D01*
X9055783Y-13374948D02*
X9055783Y-13451138D01*
X9055783Y-13451138D02*
X9065307Y-13470186D01*
X9065307Y-13470186D02*
X9074831Y-13479710D01*
X9074831Y-13479710D02*
X9093878Y-13489234D01*
X9093878Y-13489234D02*
X9131974Y-13489234D01*
X9131974Y-13489234D02*
X9151021Y-13479710D01*
X9151021Y-13479710D02*
X9160545Y-13470186D01*
X9160545Y-13470186D02*
X9170069Y-13451138D01*
X9170069Y-13451138D02*
X9170069Y-13403519D01*
X9170069Y-13403519D02*
X9160545Y-13384472D01*
X9160545Y-13384472D02*
X9151021Y-13374948D01*
X9151021Y-13374948D02*
X9131974Y-13365424D01*
X9131974Y-13365424D02*
X9093878Y-13365424D01*
X9093878Y-13365424D02*
X9074831Y-13374948D01*
X9074831Y-13374948D02*
X9065307Y-13384472D01*
X9065307Y-13384472D02*
X9055783Y-13403519D01*
X9246259Y-13289234D02*
X9246259Y-13327329D01*
X9322450Y-13289234D02*
X9322450Y-13327329D01*
X9617688Y-13565424D02*
X9608164Y-13555900D01*
X9608164Y-13555900D02*
X9589116Y-13527329D01*
X9589116Y-13527329D02*
X9579593Y-13508281D01*
X9579593Y-13508281D02*
X9570069Y-13479710D01*
X9570069Y-13479710D02*
X9560545Y-13432091D01*
X9560545Y-13432091D02*
X9560545Y-13393996D01*
X9560545Y-13393996D02*
X9570069Y-13346377D01*
X9570069Y-13346377D02*
X9579593Y-13317805D01*
X9579593Y-13317805D02*
X9589116Y-13298758D01*
X9589116Y-13298758D02*
X9608164Y-13270186D01*
X9608164Y-13270186D02*
X9617688Y-13260662D01*
X9779593Y-13355900D02*
X9779593Y-13489234D01*
X9731974Y-13279710D02*
X9684355Y-13422567D01*
X9684355Y-13422567D02*
X9808164Y-13422567D01*
X10036736Y-13489234D02*
X10036736Y-13289234D01*
X10122450Y-13489234D02*
X10122450Y-13384472D01*
X10122450Y-13384472D02*
X10112926Y-13365424D01*
X10112926Y-13365424D02*
X10093878Y-13355900D01*
X10093878Y-13355900D02*
X10065307Y-13355900D01*
X10065307Y-13355900D02*
X10046259Y-13365424D01*
X10046259Y-13365424D02*
X10036736Y-13374948D01*
X10246259Y-13489234D02*
X10227212Y-13479710D01*
X10227212Y-13479710D02*
X10217688Y-13470186D01*
X10217688Y-13470186D02*
X10208164Y-13451138D01*
X10208164Y-13451138D02*
X10208164Y-13393996D01*
X10208164Y-13393996D02*
X10217688Y-13374948D01*
X10217688Y-13374948D02*
X10227212Y-13365424D01*
X10227212Y-13365424D02*
X10246259Y-13355900D01*
X10246259Y-13355900D02*
X10274831Y-13355900D01*
X10274831Y-13355900D02*
X10293878Y-13365424D01*
X10293878Y-13365424D02*
X10303402Y-13374948D01*
X10303402Y-13374948D02*
X10312926Y-13393996D01*
X10312926Y-13393996D02*
X10312926Y-13451138D01*
X10312926Y-13451138D02*
X10303402Y-13470186D01*
X10303402Y-13470186D02*
X10293878Y-13479710D01*
X10293878Y-13479710D02*
X10274831Y-13489234D01*
X10274831Y-13489234D02*
X10246259Y-13489234D01*
X10427212Y-13489234D02*
X10408164Y-13479710D01*
X10408164Y-13479710D02*
X10398640Y-13460662D01*
X10398640Y-13460662D02*
X10398640Y-13289234D01*
X10579593Y-13479710D02*
X10560545Y-13489234D01*
X10560545Y-13489234D02*
X10522450Y-13489234D01*
X10522450Y-13489234D02*
X10503402Y-13479710D01*
X10503402Y-13479710D02*
X10493878Y-13460662D01*
X10493878Y-13460662D02*
X10493878Y-13384472D01*
X10493878Y-13384472D02*
X10503402Y-13365424D01*
X10503402Y-13365424D02*
X10522450Y-13355900D01*
X10522450Y-13355900D02*
X10560545Y-13355900D01*
X10560545Y-13355900D02*
X10579593Y-13365424D01*
X10579593Y-13365424D02*
X10589117Y-13384472D01*
X10589117Y-13384472D02*
X10589117Y-13403519D01*
X10589117Y-13403519D02*
X10493878Y-13422567D01*
X10665307Y-13479710D02*
X10684355Y-13489234D01*
X10684355Y-13489234D02*
X10722450Y-13489234D01*
X10722450Y-13489234D02*
X10741498Y-13479710D01*
X10741498Y-13479710D02*
X10751021Y-13460662D01*
X10751021Y-13460662D02*
X10751021Y-13451138D01*
X10751021Y-13451138D02*
X10741498Y-13432091D01*
X10741498Y-13432091D02*
X10722450Y-13422567D01*
X10722450Y-13422567D02*
X10693878Y-13422567D01*
X10693878Y-13422567D02*
X10674831Y-13413043D01*
X10674831Y-13413043D02*
X10665307Y-13393996D01*
X10665307Y-13393996D02*
X10665307Y-13384472D01*
X10665307Y-13384472D02*
X10674831Y-13365424D01*
X10674831Y-13365424D02*
X10693878Y-13355900D01*
X10693878Y-13355900D02*
X10722450Y-13355900D01*
X10722450Y-13355900D02*
X10741498Y-13365424D01*
X10817688Y-13565424D02*
X10827212Y-13555900D01*
X10827212Y-13555900D02*
X10846259Y-13527329D01*
X10846259Y-13527329D02*
X10855783Y-13508281D01*
X10855783Y-13508281D02*
X10865307Y-13479710D01*
X10865307Y-13479710D02*
X10874831Y-13432091D01*
X10874831Y-13432091D02*
X10874831Y-13393996D01*
X10874831Y-13393996D02*
X10865307Y-13346377D01*
X10865307Y-13346377D02*
X10855783Y-13317805D01*
X10855783Y-13317805D02*
X10846259Y-13298758D01*
X10846259Y-13298758D02*
X10827212Y-13270186D01*
X10827212Y-13270186D02*
X10817688Y-13260662D01*
X11179593Y-13565424D02*
X11170069Y-13555900D01*
X11170069Y-13555900D02*
X11151021Y-13527329D01*
X11151021Y-13527329D02*
X11141498Y-13508281D01*
X11141498Y-13508281D02*
X11131974Y-13479710D01*
X11131974Y-13479710D02*
X11122450Y-13432091D01*
X11122450Y-13432091D02*
X11122450Y-13393996D01*
X11122450Y-13393996D02*
X11131974Y-13346377D01*
X11131974Y-13346377D02*
X11141498Y-13317805D01*
X11141498Y-13317805D02*
X11151021Y-13298758D01*
X11151021Y-13298758D02*
X11170069Y-13270186D01*
X11170069Y-13270186D02*
X11179593Y-13260662D01*
X11255783Y-13355900D02*
X11255783Y-13489234D01*
X11255783Y-13374948D02*
X11265307Y-13365424D01*
X11265307Y-13365424D02*
X11284355Y-13355900D01*
X11284355Y-13355900D02*
X11312926Y-13355900D01*
X11312926Y-13355900D02*
X11331974Y-13365424D01*
X11331974Y-13365424D02*
X11341497Y-13384472D01*
X11341497Y-13384472D02*
X11341497Y-13489234D01*
X11465307Y-13489234D02*
X11446259Y-13479710D01*
X11446259Y-13479710D02*
X11436736Y-13470186D01*
X11436736Y-13470186D02*
X11427212Y-13451138D01*
X11427212Y-13451138D02*
X11427212Y-13393996D01*
X11427212Y-13393996D02*
X11436736Y-13374948D01*
X11436736Y-13374948D02*
X11446259Y-13365424D01*
X11446259Y-13365424D02*
X11465307Y-13355900D01*
X11465307Y-13355900D02*
X11493878Y-13355900D01*
X11493878Y-13355900D02*
X11512926Y-13365424D01*
X11512926Y-13365424D02*
X11522450Y-13374948D01*
X11522450Y-13374948D02*
X11531974Y-13393996D01*
X11531974Y-13393996D02*
X11531974Y-13451138D01*
X11531974Y-13451138D02*
X11522450Y-13470186D01*
X11522450Y-13470186D02*
X11512926Y-13479710D01*
X11512926Y-13479710D02*
X11493878Y-13489234D01*
X11493878Y-13489234D02*
X11465307Y-13489234D01*
X11589117Y-13355900D02*
X11665307Y-13355900D01*
X11617688Y-13289234D02*
X11617688Y-13460662D01*
X11617688Y-13460662D02*
X11627212Y-13479710D01*
X11627212Y-13479710D02*
X11646259Y-13489234D01*
X11646259Y-13489234D02*
X11665307Y-13489234D01*
X11884355Y-13355900D02*
X11884355Y-13555900D01*
X11884355Y-13365424D02*
X11903402Y-13355900D01*
X11903402Y-13355900D02*
X11941498Y-13355900D01*
X11941498Y-13355900D02*
X11960545Y-13365424D01*
X11960545Y-13365424D02*
X11970069Y-13374948D01*
X11970069Y-13374948D02*
X11979593Y-13393996D01*
X11979593Y-13393996D02*
X11979593Y-13451138D01*
X11979593Y-13451138D02*
X11970069Y-13470186D01*
X11970069Y-13470186D02*
X11960545Y-13479710D01*
X11960545Y-13479710D02*
X11941498Y-13489234D01*
X11941498Y-13489234D02*
X11903402Y-13489234D01*
X11903402Y-13489234D02*
X11884355Y-13479710D01*
X12093878Y-13489234D02*
X12074831Y-13479710D01*
X12074831Y-13479710D02*
X12065307Y-13460662D01*
X12065307Y-13460662D02*
X12065307Y-13289234D01*
X12255783Y-13489234D02*
X12255783Y-13384472D01*
X12255783Y-13384472D02*
X12246259Y-13365424D01*
X12246259Y-13365424D02*
X12227212Y-13355900D01*
X12227212Y-13355900D02*
X12189117Y-13355900D01*
X12189117Y-13355900D02*
X12170069Y-13365424D01*
X12255783Y-13479710D02*
X12236736Y-13489234D01*
X12236736Y-13489234D02*
X12189117Y-13489234D01*
X12189117Y-13489234D02*
X12170069Y-13479710D01*
X12170069Y-13479710D02*
X12160545Y-13460662D01*
X12160545Y-13460662D02*
X12160545Y-13441615D01*
X12160545Y-13441615D02*
X12170069Y-13422567D01*
X12170069Y-13422567D02*
X12189117Y-13413043D01*
X12189117Y-13413043D02*
X12236736Y-13413043D01*
X12236736Y-13413043D02*
X12255783Y-13403519D01*
X12322450Y-13355900D02*
X12398640Y-13355900D01*
X12351021Y-13289234D02*
X12351021Y-13460662D01*
X12351021Y-13460662D02*
X12360545Y-13479710D01*
X12360545Y-13479710D02*
X12379593Y-13489234D01*
X12379593Y-13489234D02*
X12398640Y-13489234D01*
X12541498Y-13479710D02*
X12522450Y-13489234D01*
X12522450Y-13489234D02*
X12484355Y-13489234D01*
X12484355Y-13489234D02*
X12465307Y-13479710D01*
X12465307Y-13479710D02*
X12455783Y-13460662D01*
X12455783Y-13460662D02*
X12455783Y-13384472D01*
X12455783Y-13384472D02*
X12465307Y-13365424D01*
X12465307Y-13365424D02*
X12484355Y-13355900D01*
X12484355Y-13355900D02*
X12522450Y-13355900D01*
X12522450Y-13355900D02*
X12541498Y-13365424D01*
X12541498Y-13365424D02*
X12551021Y-13384472D01*
X12551021Y-13384472D02*
X12551021Y-13403519D01*
X12551021Y-13403519D02*
X12455783Y-13422567D01*
X12722450Y-13489234D02*
X12722450Y-13289234D01*
X12722450Y-13479710D02*
X12703402Y-13489234D01*
X12703402Y-13489234D02*
X12665307Y-13489234D01*
X12665307Y-13489234D02*
X12646259Y-13479710D01*
X12646259Y-13479710D02*
X12636736Y-13470186D01*
X12636736Y-13470186D02*
X12627212Y-13451138D01*
X12627212Y-13451138D02*
X12627212Y-13393996D01*
X12627212Y-13393996D02*
X12636736Y-13374948D01*
X12636736Y-13374948D02*
X12646259Y-13365424D01*
X12646259Y-13365424D02*
X12665307Y-13355900D01*
X12665307Y-13355900D02*
X12703402Y-13355900D01*
X12703402Y-13355900D02*
X12722450Y-13365424D01*
X12798640Y-13565424D02*
X12808164Y-13555900D01*
X12808164Y-13555900D02*
X12827212Y-13527329D01*
X12827212Y-13527329D02*
X12836736Y-13508281D01*
X12836736Y-13508281D02*
X12846259Y-13479710D01*
X12846259Y-13479710D02*
X12855783Y-13432091D01*
X12855783Y-13432091D02*
X12855783Y-13393996D01*
X12855783Y-13393996D02*
X12846259Y-13346377D01*
X12846259Y-13346377D02*
X12836736Y-13317805D01*
X12836736Y-13317805D02*
X12827212Y-13298758D01*
X12827212Y-13298758D02*
X12808164Y-13270186D01*
X12808164Y-13270186D02*
X12798640Y-13260662D01*
X5942625Y-13617750D02*
X5942625Y-13817750D01*
X5842625Y-13717750D02*
X6042625Y-13717750D01*
X6389116Y-13675900D02*
X6389116Y-13809234D01*
X6341497Y-13599710D02*
X6293878Y-13742567D01*
X6293878Y-13742567D02*
X6417687Y-13742567D01*
X6493878Y-13790186D02*
X6503402Y-13799710D01*
X6503402Y-13799710D02*
X6493878Y-13809234D01*
X6493878Y-13809234D02*
X6484354Y-13799710D01*
X6484354Y-13799710D02*
X6493878Y-13790186D01*
X6493878Y-13790186D02*
X6493878Y-13809234D01*
X6627211Y-13609234D02*
X6646259Y-13609234D01*
X6646259Y-13609234D02*
X6665307Y-13618758D01*
X6665307Y-13618758D02*
X6674830Y-13628281D01*
X6674830Y-13628281D02*
X6684354Y-13647329D01*
X6684354Y-13647329D02*
X6693878Y-13685424D01*
X6693878Y-13685424D02*
X6693878Y-13733043D01*
X6693878Y-13733043D02*
X6684354Y-13771138D01*
X6684354Y-13771138D02*
X6674830Y-13790186D01*
X6674830Y-13790186D02*
X6665307Y-13799710D01*
X6665307Y-13799710D02*
X6646259Y-13809234D01*
X6646259Y-13809234D02*
X6627211Y-13809234D01*
X6627211Y-13809234D02*
X6608164Y-13799710D01*
X6608164Y-13799710D02*
X6598640Y-13790186D01*
X6598640Y-13790186D02*
X6589116Y-13771138D01*
X6589116Y-13771138D02*
X6579592Y-13733043D01*
X6579592Y-13733043D02*
X6579592Y-13685424D01*
X6579592Y-13685424D02*
X6589116Y-13647329D01*
X6589116Y-13647329D02*
X6598640Y-13628281D01*
X6598640Y-13628281D02*
X6608164Y-13618758D01*
X6608164Y-13618758D02*
X6627211Y-13609234D01*
X6817687Y-13609234D02*
X6836735Y-13609234D01*
X6836735Y-13609234D02*
X6855783Y-13618758D01*
X6855783Y-13618758D02*
X6865307Y-13628281D01*
X6865307Y-13628281D02*
X6874830Y-13647329D01*
X6874830Y-13647329D02*
X6884354Y-13685424D01*
X6884354Y-13685424D02*
X6884354Y-13733043D01*
X6884354Y-13733043D02*
X6874830Y-13771138D01*
X6874830Y-13771138D02*
X6865307Y-13790186D01*
X6865307Y-13790186D02*
X6855783Y-13799710D01*
X6855783Y-13799710D02*
X6836735Y-13809234D01*
X6836735Y-13809234D02*
X6817687Y-13809234D01*
X6817687Y-13809234D02*
X6798640Y-13799710D01*
X6798640Y-13799710D02*
X6789116Y-13790186D01*
X6789116Y-13790186D02*
X6779592Y-13771138D01*
X6779592Y-13771138D02*
X6770068Y-13733043D01*
X6770068Y-13733043D02*
X6770068Y-13685424D01*
X6770068Y-13685424D02*
X6779592Y-13647329D01*
X6779592Y-13647329D02*
X6789116Y-13628281D01*
X6789116Y-13628281D02*
X6798640Y-13618758D01*
X6798640Y-13618758D02*
X6817687Y-13609234D01*
X7008164Y-13609234D02*
X7027211Y-13609234D01*
X7027211Y-13609234D02*
X7046259Y-13618758D01*
X7046259Y-13618758D02*
X7055783Y-13628281D01*
X7055783Y-13628281D02*
X7065307Y-13647329D01*
X7065307Y-13647329D02*
X7074830Y-13685424D01*
X7074830Y-13685424D02*
X7074830Y-13733043D01*
X7074830Y-13733043D02*
X7065307Y-13771138D01*
X7065307Y-13771138D02*
X7055783Y-13790186D01*
X7055783Y-13790186D02*
X7046259Y-13799710D01*
X7046259Y-13799710D02*
X7027211Y-13809234D01*
X7027211Y-13809234D02*
X7008164Y-13809234D01*
X7008164Y-13809234D02*
X6989116Y-13799710D01*
X6989116Y-13799710D02*
X6979592Y-13790186D01*
X6979592Y-13790186D02*
X6970068Y-13771138D01*
X6970068Y-13771138D02*
X6960545Y-13733043D01*
X6960545Y-13733043D02*
X6960545Y-13685424D01*
X6960545Y-13685424D02*
X6970068Y-13647329D01*
X6970068Y-13647329D02*
X6979592Y-13628281D01*
X6979592Y-13628281D02*
X6989116Y-13618758D01*
X6989116Y-13618758D02*
X7008164Y-13609234D01*
X7160545Y-13809234D02*
X7160545Y-13675900D01*
X7160545Y-13694948D02*
X7170068Y-13685424D01*
X7170068Y-13685424D02*
X7189116Y-13675900D01*
X7189116Y-13675900D02*
X7217688Y-13675900D01*
X7217688Y-13675900D02*
X7236735Y-13685424D01*
X7236735Y-13685424D02*
X7246259Y-13704472D01*
X7246259Y-13704472D02*
X7246259Y-13809234D01*
X7246259Y-13704472D02*
X7255783Y-13685424D01*
X7255783Y-13685424D02*
X7274830Y-13675900D01*
X7274830Y-13675900D02*
X7303402Y-13675900D01*
X7303402Y-13675900D02*
X7322449Y-13685424D01*
X7322449Y-13685424D02*
X7331973Y-13704472D01*
X7331973Y-13704472D02*
X7331973Y-13809234D01*
X7427211Y-13809234D02*
X7427211Y-13675900D01*
X7427211Y-13694948D02*
X7436735Y-13685424D01*
X7436735Y-13685424D02*
X7455783Y-13675900D01*
X7455783Y-13675900D02*
X7484354Y-13675900D01*
X7484354Y-13675900D02*
X7503402Y-13685424D01*
X7503402Y-13685424D02*
X7512926Y-13704472D01*
X7512926Y-13704472D02*
X7512926Y-13809234D01*
X7512926Y-13704472D02*
X7522449Y-13685424D01*
X7522449Y-13685424D02*
X7541497Y-13675900D01*
X7541497Y-13675900D02*
X7570068Y-13675900D01*
X7570068Y-13675900D02*
X7589116Y-13685424D01*
X7589116Y-13685424D02*
X7598640Y-13704472D01*
X7598640Y-13704472D02*
X7598640Y-13809234D01*
X7989116Y-13599710D02*
X7817688Y-13856853D01*
X8246259Y-13609234D02*
X8265307Y-13609234D01*
X8265307Y-13609234D02*
X8284354Y-13618758D01*
X8284354Y-13618758D02*
X8293878Y-13628281D01*
X8293878Y-13628281D02*
X8303402Y-13647329D01*
X8303402Y-13647329D02*
X8312926Y-13685424D01*
X8312926Y-13685424D02*
X8312926Y-13733043D01*
X8312926Y-13733043D02*
X8303402Y-13771138D01*
X8303402Y-13771138D02*
X8293878Y-13790186D01*
X8293878Y-13790186D02*
X8284354Y-13799710D01*
X8284354Y-13799710D02*
X8265307Y-13809234D01*
X8265307Y-13809234D02*
X8246259Y-13809234D01*
X8246259Y-13809234D02*
X8227211Y-13799710D01*
X8227211Y-13799710D02*
X8217688Y-13790186D01*
X8217688Y-13790186D02*
X8208164Y-13771138D01*
X8208164Y-13771138D02*
X8198640Y-13733043D01*
X8198640Y-13733043D02*
X8198640Y-13685424D01*
X8198640Y-13685424D02*
X8208164Y-13647329D01*
X8208164Y-13647329D02*
X8217688Y-13628281D01*
X8217688Y-13628281D02*
X8227211Y-13618758D01*
X8227211Y-13618758D02*
X8246259Y-13609234D01*
X8398640Y-13790186D02*
X8408164Y-13799710D01*
X8408164Y-13799710D02*
X8398640Y-13809234D01*
X8398640Y-13809234D02*
X8389116Y-13799710D01*
X8389116Y-13799710D02*
X8398640Y-13790186D01*
X8398640Y-13790186D02*
X8398640Y-13809234D01*
X8598640Y-13809234D02*
X8484354Y-13809234D01*
X8541497Y-13809234D02*
X8541497Y-13609234D01*
X8541497Y-13609234D02*
X8522450Y-13637805D01*
X8522450Y-13637805D02*
X8503402Y-13656853D01*
X8503402Y-13656853D02*
X8484354Y-13666377D01*
X8779593Y-13609234D02*
X8684354Y-13609234D01*
X8684354Y-13609234D02*
X8674831Y-13704472D01*
X8674831Y-13704472D02*
X8684354Y-13694948D01*
X8684354Y-13694948D02*
X8703402Y-13685424D01*
X8703402Y-13685424D02*
X8751021Y-13685424D01*
X8751021Y-13685424D02*
X8770069Y-13694948D01*
X8770069Y-13694948D02*
X8779593Y-13704472D01*
X8779593Y-13704472D02*
X8789116Y-13723519D01*
X8789116Y-13723519D02*
X8789116Y-13771138D01*
X8789116Y-13771138D02*
X8779593Y-13790186D01*
X8779593Y-13790186D02*
X8770069Y-13799710D01*
X8770069Y-13799710D02*
X8751021Y-13809234D01*
X8751021Y-13809234D02*
X8703402Y-13809234D01*
X8703402Y-13809234D02*
X8684354Y-13799710D01*
X8684354Y-13799710D02*
X8674831Y-13790186D01*
X8855783Y-13609234D02*
X8989116Y-13609234D01*
X8989116Y-13609234D02*
X8903402Y-13809234D01*
X9160545Y-13609234D02*
X9065307Y-13609234D01*
X9065307Y-13609234D02*
X9055783Y-13704472D01*
X9055783Y-13704472D02*
X9065307Y-13694948D01*
X9065307Y-13694948D02*
X9084354Y-13685424D01*
X9084354Y-13685424D02*
X9131974Y-13685424D01*
X9131974Y-13685424D02*
X9151021Y-13694948D01*
X9151021Y-13694948D02*
X9160545Y-13704472D01*
X9160545Y-13704472D02*
X9170069Y-13723519D01*
X9170069Y-13723519D02*
X9170069Y-13771138D01*
X9170069Y-13771138D02*
X9160545Y-13790186D01*
X9160545Y-13790186D02*
X9151021Y-13799710D01*
X9151021Y-13799710D02*
X9131974Y-13809234D01*
X9131974Y-13809234D02*
X9084354Y-13809234D01*
X9084354Y-13809234D02*
X9065307Y-13799710D01*
X9065307Y-13799710D02*
X9055783Y-13790186D01*
X9246259Y-13609234D02*
X9246259Y-13647329D01*
X9322450Y-13609234D02*
X9322450Y-13647329D01*
X9617688Y-13885424D02*
X9608164Y-13875900D01*
X9608164Y-13875900D02*
X9589116Y-13847329D01*
X9589116Y-13847329D02*
X9579593Y-13828281D01*
X9579593Y-13828281D02*
X9570069Y-13799710D01*
X9570069Y-13799710D02*
X9560545Y-13752091D01*
X9560545Y-13752091D02*
X9560545Y-13713996D01*
X9560545Y-13713996D02*
X9570069Y-13666377D01*
X9570069Y-13666377D02*
X9579593Y-13637805D01*
X9579593Y-13637805D02*
X9589116Y-13618758D01*
X9589116Y-13618758D02*
X9608164Y-13590186D01*
X9608164Y-13590186D02*
X9617688Y-13580662D01*
X9703402Y-13809234D02*
X9741497Y-13809234D01*
X9741497Y-13809234D02*
X9760545Y-13799710D01*
X9760545Y-13799710D02*
X9770069Y-13790186D01*
X9770069Y-13790186D02*
X9789116Y-13761615D01*
X9789116Y-13761615D02*
X9798640Y-13723519D01*
X9798640Y-13723519D02*
X9798640Y-13647329D01*
X9798640Y-13647329D02*
X9789116Y-13628281D01*
X9789116Y-13628281D02*
X9779593Y-13618758D01*
X9779593Y-13618758D02*
X9760545Y-13609234D01*
X9760545Y-13609234D02*
X9722450Y-13609234D01*
X9722450Y-13609234D02*
X9703402Y-13618758D01*
X9703402Y-13618758D02*
X9693878Y-13628281D01*
X9693878Y-13628281D02*
X9684355Y-13647329D01*
X9684355Y-13647329D02*
X9684355Y-13694948D01*
X9684355Y-13694948D02*
X9693878Y-13713996D01*
X9693878Y-13713996D02*
X9703402Y-13723519D01*
X9703402Y-13723519D02*
X9722450Y-13733043D01*
X9722450Y-13733043D02*
X9760545Y-13733043D01*
X9760545Y-13733043D02*
X9779593Y-13723519D01*
X9779593Y-13723519D02*
X9789116Y-13713996D01*
X9789116Y-13713996D02*
X9798640Y-13694948D01*
X10036736Y-13809234D02*
X10036736Y-13609234D01*
X10122450Y-13809234D02*
X10122450Y-13704472D01*
X10122450Y-13704472D02*
X10112926Y-13685424D01*
X10112926Y-13685424D02*
X10093878Y-13675900D01*
X10093878Y-13675900D02*
X10065307Y-13675900D01*
X10065307Y-13675900D02*
X10046259Y-13685424D01*
X10046259Y-13685424D02*
X10036736Y-13694948D01*
X10246259Y-13809234D02*
X10227212Y-13799710D01*
X10227212Y-13799710D02*
X10217688Y-13790186D01*
X10217688Y-13790186D02*
X10208164Y-13771138D01*
X10208164Y-13771138D02*
X10208164Y-13713996D01*
X10208164Y-13713996D02*
X10217688Y-13694948D01*
X10217688Y-13694948D02*
X10227212Y-13685424D01*
X10227212Y-13685424D02*
X10246259Y-13675900D01*
X10246259Y-13675900D02*
X10274831Y-13675900D01*
X10274831Y-13675900D02*
X10293878Y-13685424D01*
X10293878Y-13685424D02*
X10303402Y-13694948D01*
X10303402Y-13694948D02*
X10312926Y-13713996D01*
X10312926Y-13713996D02*
X10312926Y-13771138D01*
X10312926Y-13771138D02*
X10303402Y-13790186D01*
X10303402Y-13790186D02*
X10293878Y-13799710D01*
X10293878Y-13799710D02*
X10274831Y-13809234D01*
X10274831Y-13809234D02*
X10246259Y-13809234D01*
X10427212Y-13809234D02*
X10408164Y-13799710D01*
X10408164Y-13799710D02*
X10398640Y-13780662D01*
X10398640Y-13780662D02*
X10398640Y-13609234D01*
X10579593Y-13799710D02*
X10560545Y-13809234D01*
X10560545Y-13809234D02*
X10522450Y-13809234D01*
X10522450Y-13809234D02*
X10503402Y-13799710D01*
X10503402Y-13799710D02*
X10493878Y-13780662D01*
X10493878Y-13780662D02*
X10493878Y-13704472D01*
X10493878Y-13704472D02*
X10503402Y-13685424D01*
X10503402Y-13685424D02*
X10522450Y-13675900D01*
X10522450Y-13675900D02*
X10560545Y-13675900D01*
X10560545Y-13675900D02*
X10579593Y-13685424D01*
X10579593Y-13685424D02*
X10589117Y-13704472D01*
X10589117Y-13704472D02*
X10589117Y-13723519D01*
X10589117Y-13723519D02*
X10493878Y-13742567D01*
X10665307Y-13799710D02*
X10684355Y-13809234D01*
X10684355Y-13809234D02*
X10722450Y-13809234D01*
X10722450Y-13809234D02*
X10741498Y-13799710D01*
X10741498Y-13799710D02*
X10751021Y-13780662D01*
X10751021Y-13780662D02*
X10751021Y-13771138D01*
X10751021Y-13771138D02*
X10741498Y-13752091D01*
X10741498Y-13752091D02*
X10722450Y-13742567D01*
X10722450Y-13742567D02*
X10693878Y-13742567D01*
X10693878Y-13742567D02*
X10674831Y-13733043D01*
X10674831Y-13733043D02*
X10665307Y-13713996D01*
X10665307Y-13713996D02*
X10665307Y-13704472D01*
X10665307Y-13704472D02*
X10674831Y-13685424D01*
X10674831Y-13685424D02*
X10693878Y-13675900D01*
X10693878Y-13675900D02*
X10722450Y-13675900D01*
X10722450Y-13675900D02*
X10741498Y-13685424D01*
X10817688Y-13885424D02*
X10827212Y-13875900D01*
X10827212Y-13875900D02*
X10846259Y-13847329D01*
X10846259Y-13847329D02*
X10855783Y-13828281D01*
X10855783Y-13828281D02*
X10865307Y-13799710D01*
X10865307Y-13799710D02*
X10874831Y-13752091D01*
X10874831Y-13752091D02*
X10874831Y-13713996D01*
X10874831Y-13713996D02*
X10865307Y-13666377D01*
X10865307Y-13666377D02*
X10855783Y-13637805D01*
X10855783Y-13637805D02*
X10846259Y-13618758D01*
X10846259Y-13618758D02*
X10827212Y-13590186D01*
X10827212Y-13590186D02*
X10817688Y-13580662D01*
X11179593Y-13885424D02*
X11170069Y-13875900D01*
X11170069Y-13875900D02*
X11151021Y-13847329D01*
X11151021Y-13847329D02*
X11141498Y-13828281D01*
X11141498Y-13828281D02*
X11131974Y-13799710D01*
X11131974Y-13799710D02*
X11122450Y-13752091D01*
X11122450Y-13752091D02*
X11122450Y-13713996D01*
X11122450Y-13713996D02*
X11131974Y-13666377D01*
X11131974Y-13666377D02*
X11141498Y-13637805D01*
X11141498Y-13637805D02*
X11151021Y-13618758D01*
X11151021Y-13618758D02*
X11170069Y-13590186D01*
X11170069Y-13590186D02*
X11179593Y-13580662D01*
X11255783Y-13675900D02*
X11255783Y-13809234D01*
X11255783Y-13694948D02*
X11265307Y-13685424D01*
X11265307Y-13685424D02*
X11284355Y-13675900D01*
X11284355Y-13675900D02*
X11312926Y-13675900D01*
X11312926Y-13675900D02*
X11331974Y-13685424D01*
X11331974Y-13685424D02*
X11341497Y-13704472D01*
X11341497Y-13704472D02*
X11341497Y-13809234D01*
X11465307Y-13809234D02*
X11446259Y-13799710D01*
X11446259Y-13799710D02*
X11436736Y-13790186D01*
X11436736Y-13790186D02*
X11427212Y-13771138D01*
X11427212Y-13771138D02*
X11427212Y-13713996D01*
X11427212Y-13713996D02*
X11436736Y-13694948D01*
X11436736Y-13694948D02*
X11446259Y-13685424D01*
X11446259Y-13685424D02*
X11465307Y-13675900D01*
X11465307Y-13675900D02*
X11493878Y-13675900D01*
X11493878Y-13675900D02*
X11512926Y-13685424D01*
X11512926Y-13685424D02*
X11522450Y-13694948D01*
X11522450Y-13694948D02*
X11531974Y-13713996D01*
X11531974Y-13713996D02*
X11531974Y-13771138D01*
X11531974Y-13771138D02*
X11522450Y-13790186D01*
X11522450Y-13790186D02*
X11512926Y-13799710D01*
X11512926Y-13799710D02*
X11493878Y-13809234D01*
X11493878Y-13809234D02*
X11465307Y-13809234D01*
X11589117Y-13675900D02*
X11665307Y-13675900D01*
X11617688Y-13609234D02*
X11617688Y-13780662D01*
X11617688Y-13780662D02*
X11627212Y-13799710D01*
X11627212Y-13799710D02*
X11646259Y-13809234D01*
X11646259Y-13809234D02*
X11665307Y-13809234D01*
X11884355Y-13675900D02*
X11884355Y-13875900D01*
X11884355Y-13685424D02*
X11903402Y-13675900D01*
X11903402Y-13675900D02*
X11941498Y-13675900D01*
X11941498Y-13675900D02*
X11960545Y-13685424D01*
X11960545Y-13685424D02*
X11970069Y-13694948D01*
X11970069Y-13694948D02*
X11979593Y-13713996D01*
X11979593Y-13713996D02*
X11979593Y-13771138D01*
X11979593Y-13771138D02*
X11970069Y-13790186D01*
X11970069Y-13790186D02*
X11960545Y-13799710D01*
X11960545Y-13799710D02*
X11941498Y-13809234D01*
X11941498Y-13809234D02*
X11903402Y-13809234D01*
X11903402Y-13809234D02*
X11884355Y-13799710D01*
X12093878Y-13809234D02*
X12074831Y-13799710D01*
X12074831Y-13799710D02*
X12065307Y-13780662D01*
X12065307Y-13780662D02*
X12065307Y-13609234D01*
X12255783Y-13809234D02*
X12255783Y-13704472D01*
X12255783Y-13704472D02*
X12246259Y-13685424D01*
X12246259Y-13685424D02*
X12227212Y-13675900D01*
X12227212Y-13675900D02*
X12189117Y-13675900D01*
X12189117Y-13675900D02*
X12170069Y-13685424D01*
X12255783Y-13799710D02*
X12236736Y-13809234D01*
X12236736Y-13809234D02*
X12189117Y-13809234D01*
X12189117Y-13809234D02*
X12170069Y-13799710D01*
X12170069Y-13799710D02*
X12160545Y-13780662D01*
X12160545Y-13780662D02*
X12160545Y-13761615D01*
X12160545Y-13761615D02*
X12170069Y-13742567D01*
X12170069Y-13742567D02*
X12189117Y-13733043D01*
X12189117Y-13733043D02*
X12236736Y-13733043D01*
X12236736Y-13733043D02*
X12255783Y-13723519D01*
X12322450Y-13675900D02*
X12398640Y-13675900D01*
X12351021Y-13609234D02*
X12351021Y-13780662D01*
X12351021Y-13780662D02*
X12360545Y-13799710D01*
X12360545Y-13799710D02*
X12379593Y-13809234D01*
X12379593Y-13809234D02*
X12398640Y-13809234D01*
X12541498Y-13799710D02*
X12522450Y-13809234D01*
X12522450Y-13809234D02*
X12484355Y-13809234D01*
X12484355Y-13809234D02*
X12465307Y-13799710D01*
X12465307Y-13799710D02*
X12455783Y-13780662D01*
X12455783Y-13780662D02*
X12455783Y-13704472D01*
X12455783Y-13704472D02*
X12465307Y-13685424D01*
X12465307Y-13685424D02*
X12484355Y-13675900D01*
X12484355Y-13675900D02*
X12522450Y-13675900D01*
X12522450Y-13675900D02*
X12541498Y-13685424D01*
X12541498Y-13685424D02*
X12551021Y-13704472D01*
X12551021Y-13704472D02*
X12551021Y-13723519D01*
X12551021Y-13723519D02*
X12455783Y-13742567D01*
X12722450Y-13809234D02*
X12722450Y-13609234D01*
X12722450Y-13799710D02*
X12703402Y-13809234D01*
X12703402Y-13809234D02*
X12665307Y-13809234D01*
X12665307Y-13809234D02*
X12646259Y-13799710D01*
X12646259Y-13799710D02*
X12636736Y-13790186D01*
X12636736Y-13790186D02*
X12627212Y-13771138D01*
X12627212Y-13771138D02*
X12627212Y-13713996D01*
X12627212Y-13713996D02*
X12636736Y-13694948D01*
X12636736Y-13694948D02*
X12646259Y-13685424D01*
X12646259Y-13685424D02*
X12665307Y-13675900D01*
X12665307Y-13675900D02*
X12703402Y-13675900D01*
X12703402Y-13675900D02*
X12722450Y-13685424D01*
X12798640Y-13885424D02*
X12808164Y-13875900D01*
X12808164Y-13875900D02*
X12827212Y-13847329D01*
X12827212Y-13847329D02*
X12836736Y-13828281D01*
X12836736Y-13828281D02*
X12846259Y-13799710D01*
X12846259Y-13799710D02*
X12855783Y-13752091D01*
X12855783Y-13752091D02*
X12855783Y-13713996D01*
X12855783Y-13713996D02*
X12846259Y-13666377D01*
X12846259Y-13666377D02*
X12836736Y-13637805D01*
X12836736Y-13637805D02*
X12827212Y-13618758D01*
X12827212Y-13618758D02*
X12808164Y-13590186D01*
X12808164Y-13590186D02*
X12798640Y-13580662D01*
M02*
