%TF.GenerationSoftware,KiCad,Pcbnew,8.0.8*%
%TF.CreationDate,2025-12-19T19:11:15+00:00*%
%TF.ProjectId,MACRO,4d414352-4f2e-46b6-9963-61645f706362,rev?*%
%TF.SameCoordinates,Original*%
%TF.FileFunction,Drillmap*%
%TF.FilePolarity,Positive*%
%FSLAX45Y45*%
G04 Gerber Fmt 4.5, Leading zero omitted, Abs format (unit mm)*
G04 Created by KiCad (PCBNEW 8.0.8) date 2025-12-19 19:11:15*
%MOMM*%
%LPD*%
G01*
G04 APERTURE LIST*
%ADD10C,0.050000*%
%ADD11C,0.200000*%
%ADD12C,0.100000*%
%ADD13C,0.150000*%
G04 APERTURE END LIST*
D10*
X8755125Y-6270250D02*
G75*
G02*
X8535125Y-6270250I-110000J0D01*
G01*
X8535125Y-6270250D02*
G75*
G02*
X8755125Y-6270250I110000J0D01*
G01*
X10298298Y-10111505D02*
G75*
G02*
X10078298Y-10111505I-110000J0D01*
G01*
X10078298Y-10111505D02*
G75*
G02*
X10298298Y-10111505I110000J0D01*
G01*
X6525125Y-12160250D02*
G75*
G02*
X6305125Y-12160250I-110000J0D01*
G01*
X6305125Y-12160250D02*
G75*
G02*
X6525125Y-12160250I110000J0D01*
G01*
X12155125Y-12160250D02*
G75*
G02*
X11935125Y-12160250I-110000J0D01*
G01*
X11935125Y-12160250D02*
G75*
G02*
X12155125Y-12160250I110000J0D01*
G01*
X8355125Y-10260250D02*
G75*
G02*
X8135125Y-10260250I-110000J0D01*
G01*
X8135125Y-10260250D02*
G75*
G02*
X8355125Y-10260250I110000J0D01*
G01*
X6555125Y-3760250D02*
G75*
G02*
X6335125Y-3760250I-110000J0D01*
G01*
X6335125Y-3760250D02*
G75*
G02*
X6555125Y-3760250I110000J0D01*
G01*
X12245125Y-3760250D02*
G75*
G02*
X12025125Y-3760250I-110000J0D01*
G01*
X12025125Y-3760250D02*
G75*
G02*
X12245125Y-3760250I110000J0D01*
G01*
X6045125Y-3360250D02*
X12445125Y-3360250D01*
X12445125Y-12460250D01*
X6045125Y-12460250D01*
X6045125Y-3360250D01*
X10355125Y-6260250D02*
G75*
G02*
X10135125Y-6260250I-110000J0D01*
G01*
X10135125Y-6260250D02*
G75*
G02*
X10355125Y-6260250I110000J0D01*
G01*
D11*
D12*
X6673298Y-5296505D02*
X6703298Y-5326505D01*
X6703298Y-5296505D02*
X6673298Y-5326505D01*
X7063298Y-10096505D02*
X7093298Y-10126505D01*
X7093298Y-10096505D02*
X7063298Y-10126505D01*
X7240298Y-10096505D02*
X7270298Y-10126505D01*
X7270298Y-10096505D02*
X7240298Y-10126505D01*
X8923298Y-9896505D02*
X8953298Y-9926505D01*
X8953298Y-9896505D02*
X8923298Y-9926505D01*
X8973298Y-10246505D02*
X9003298Y-10276505D01*
X9003298Y-10246505D02*
X8973298Y-10276505D01*
X9073298Y-9746505D02*
X9103298Y-9776505D01*
X9103298Y-9746505D02*
X9073298Y-9776505D01*
X9131798Y-10096505D02*
X9161798Y-10126505D01*
X9161798Y-10096505D02*
X9131798Y-10126505D01*
X9473298Y-4496505D02*
X9503298Y-4526505D01*
X9503298Y-4496505D02*
X9473298Y-4526505D01*
X9473298Y-10246505D02*
X9503298Y-10276505D01*
X9503298Y-10246505D02*
X9473298Y-10276505D01*
X9523298Y-4336505D02*
X9553298Y-4366505D01*
X9553298Y-4336505D02*
X9523298Y-4366505D01*
X9585595Y-3918250D02*
X9615595Y-3948250D01*
X9615595Y-3918250D02*
X9585595Y-3948250D01*
X9595673Y-4239276D02*
X9625673Y-4269276D01*
X9625673Y-4239276D02*
X9595673Y-4269276D01*
X9680526Y-4324129D02*
X9710526Y-4354129D01*
X9710526Y-4324129D02*
X9680526Y-4354129D01*
X9702000Y-3542500D02*
X9732000Y-3572500D01*
X9732000Y-3542500D02*
X9702000Y-3572500D01*
X9773298Y-3946505D02*
X9803298Y-3976505D01*
X9803298Y-3946505D02*
X9773298Y-3976505D01*
X9873298Y-4796505D02*
X9903298Y-4826505D01*
X9903298Y-4796505D02*
X9873298Y-4826505D01*
X9873298Y-5446505D02*
X9903298Y-5476505D01*
X9903298Y-5446505D02*
X9873298Y-5476505D01*
X9923298Y-8446505D02*
X9953298Y-8476505D01*
X9953298Y-8446505D02*
X9923298Y-8476505D01*
X10323298Y-9396505D02*
X10353298Y-9426505D01*
X10353298Y-9396505D02*
X10323298Y-9426505D01*
X10423298Y-11388250D02*
X10453298Y-11418250D01*
X10453298Y-11388250D02*
X10423298Y-11418250D01*
X10673298Y-10096505D02*
X10703298Y-10126505D01*
X10703298Y-10096505D02*
X10673298Y-10126505D01*
X10689750Y-10641906D02*
X10719750Y-10671906D01*
X10719750Y-10641906D02*
X10689750Y-10671906D01*
X10723298Y-12096505D02*
X10753298Y-12126505D01*
X10753298Y-12096505D02*
X10723298Y-12126505D01*
X8328250Y-6891250D02*
G75*
G02*
X8248250Y-6891250I-40000J0D01*
G01*
X8248250Y-6891250D02*
G75*
G02*
X8328250Y-6891250I40000J0D01*
G01*
X8328250Y-7653250D02*
G75*
G02*
X8248250Y-7653250I-40000J0D01*
G01*
X8248250Y-7653250D02*
G75*
G02*
X8328250Y-7653250I40000J0D01*
G01*
X8328250Y-8796250D02*
G75*
G02*
X8248250Y-8796250I-40000J0D01*
G01*
X8248250Y-8796250D02*
G75*
G02*
X8328250Y-8796250I40000J0D01*
G01*
X8328250Y-9558250D02*
G75*
G02*
X8248250Y-9558250I-40000J0D01*
G01*
X8248250Y-9558250D02*
G75*
G02*
X8328250Y-9558250I40000J0D01*
G01*
X8328250Y-10701250D02*
G75*
G02*
X8248250Y-10701250I-40000J0D01*
G01*
X8248250Y-10701250D02*
G75*
G02*
X8328250Y-10701250I40000J0D01*
G01*
X8328250Y-11463250D02*
G75*
G02*
X8248250Y-11463250I-40000J0D01*
G01*
X8248250Y-11463250D02*
G75*
G02*
X8328250Y-11463250I40000J0D01*
G01*
X10233250Y-6891250D02*
G75*
G02*
X10153250Y-6891250I-40000J0D01*
G01*
X10153250Y-6891250D02*
G75*
G02*
X10233250Y-6891250I40000J0D01*
G01*
X10233250Y-7653250D02*
G75*
G02*
X10153250Y-7653250I-40000J0D01*
G01*
X10153250Y-7653250D02*
G75*
G02*
X10233250Y-7653250I40000J0D01*
G01*
X10233250Y-8796250D02*
G75*
G02*
X10153250Y-8796250I-40000J0D01*
G01*
X10153250Y-8796250D02*
G75*
G02*
X10233250Y-8796250I40000J0D01*
G01*
X10233250Y-9558250D02*
G75*
G02*
X10153250Y-9558250I-40000J0D01*
G01*
X10153250Y-9558250D02*
G75*
G02*
X10233250Y-9558250I40000J0D01*
G01*
X10233250Y-10701250D02*
G75*
G02*
X10153250Y-10701250I-40000J0D01*
G01*
X10153250Y-10701250D02*
G75*
G02*
X10233250Y-10701250I40000J0D01*
G01*
X10233250Y-11463250D02*
G75*
G02*
X10153250Y-11463250I-40000J0D01*
G01*
X10153250Y-11463250D02*
G75*
G02*
X10233250Y-11463250I40000J0D01*
G01*
X12138250Y-6891250D02*
G75*
G02*
X12058250Y-6891250I-40000J0D01*
G01*
X12058250Y-6891250D02*
G75*
G02*
X12138250Y-6891250I40000J0D01*
G01*
X12138250Y-7653250D02*
G75*
G02*
X12058250Y-7653250I-40000J0D01*
G01*
X12058250Y-7653250D02*
G75*
G02*
X12138250Y-7653250I40000J0D01*
G01*
X12138250Y-8796250D02*
G75*
G02*
X12058250Y-8796250I-40000J0D01*
G01*
X12058250Y-8796250D02*
G75*
G02*
X12138250Y-8796250I40000J0D01*
G01*
X12138250Y-9558250D02*
G75*
G02*
X12058250Y-9558250I-40000J0D01*
G01*
X12058250Y-9558250D02*
G75*
G02*
X12138250Y-9558250I40000J0D01*
G01*
X12138250Y-10701250D02*
G75*
G02*
X12058250Y-10701250I-40000J0D01*
G01*
X12058250Y-10701250D02*
G75*
G02*
X12138250Y-10701250I40000J0D01*
G01*
X12138250Y-11463250D02*
G75*
G02*
X12058250Y-11463250I-40000J0D01*
G01*
X12058250Y-11463250D02*
G75*
G02*
X12138250Y-11463250I40000J0D01*
G01*
X7683250Y-3569250D02*
X7683250Y-3669250D01*
X7633250Y-3619250D02*
X7733250Y-3619250D01*
X7683250Y-3823250D02*
X7683250Y-3923250D01*
X7633250Y-3873250D02*
X7733250Y-3873250D01*
X7683250Y-4077250D02*
X7683250Y-4177250D01*
X7633250Y-4127250D02*
X7733250Y-4127250D01*
X7683250Y-4331250D02*
X7683250Y-4431250D01*
X7633250Y-4381250D02*
X7733250Y-4381250D01*
X7683250Y-4585250D02*
X7683250Y-4685250D01*
X7633250Y-4635250D02*
X7733250Y-4635250D01*
X7683250Y-4839250D02*
X7683250Y-4939250D01*
X7633250Y-4889250D02*
X7733250Y-4889250D01*
X7683250Y-5093250D02*
X7683250Y-5193250D01*
X7633250Y-5143250D02*
X7733250Y-5143250D01*
X7683250Y-5347250D02*
X7683250Y-5447250D01*
X7633250Y-5397250D02*
X7733250Y-5397250D01*
X7683250Y-5601250D02*
X7683250Y-5701250D01*
X7633250Y-5651250D02*
X7733250Y-5651250D01*
X7937250Y-5601250D02*
X7937250Y-5701250D01*
X7887250Y-5651250D02*
X7987250Y-5651250D01*
X8064250Y-3560250D02*
X8064250Y-3660250D01*
X8014250Y-3610250D02*
X8114250Y-3610250D01*
X8191250Y-5601250D02*
X8191250Y-5701250D01*
X8141250Y-5651250D02*
X8241250Y-5651250D01*
X8318250Y-3560250D02*
X8318250Y-3660250D01*
X8268250Y-3610250D02*
X8368250Y-3610250D01*
X8445250Y-5601250D02*
X8445250Y-5701250D01*
X8395250Y-5651250D02*
X8495250Y-5651250D01*
X8572250Y-3560250D02*
X8572250Y-3660250D01*
X8522250Y-3610250D02*
X8622250Y-3610250D01*
X8699250Y-5601250D02*
X8699250Y-5701250D01*
X8649250Y-5651250D02*
X8749250Y-5651250D01*
X8826250Y-3560250D02*
X8826250Y-3660250D01*
X8776250Y-3610250D02*
X8876250Y-3610250D01*
X8953250Y-5601250D02*
X8953250Y-5701250D01*
X8903250Y-5651250D02*
X9003250Y-5651250D01*
X9207250Y-3569250D02*
X9207250Y-3669250D01*
X9157250Y-3619250D02*
X9257250Y-3619250D01*
X9207250Y-3823250D02*
X9207250Y-3923250D01*
X9157250Y-3873250D02*
X9257250Y-3873250D01*
X9207250Y-4077250D02*
X9207250Y-4177250D01*
X9157250Y-4127250D02*
X9257250Y-4127250D01*
X9207250Y-4331250D02*
X9207250Y-4431250D01*
X9157250Y-4381250D02*
X9257250Y-4381250D01*
X9207250Y-4585250D02*
X9207250Y-4685250D01*
X9157250Y-4635250D02*
X9257250Y-4635250D01*
X9207250Y-4839250D02*
X9207250Y-4939250D01*
X9157250Y-4889250D02*
X9257250Y-4889250D01*
X9207250Y-5093250D02*
X9207250Y-5193250D01*
X9157250Y-5143250D02*
X9257250Y-5143250D01*
X9207250Y-5347250D02*
X9207250Y-5447250D01*
X9157250Y-5397250D02*
X9257250Y-5397250D01*
X9207250Y-5601250D02*
X9207250Y-5701250D01*
X9157250Y-5651250D02*
X9257250Y-5651250D01*
X10138298Y-4361505D02*
X10138298Y-4461505D01*
X10088298Y-4411505D02*
X10188298Y-4411505D01*
X10138298Y-4611505D02*
X10138298Y-4711505D01*
X10088298Y-4661505D02*
X10188298Y-4661505D01*
X10138298Y-4861505D02*
X10138298Y-4961505D01*
X10088298Y-4911505D02*
X10188298Y-4911505D01*
X11588298Y-4361505D02*
X11588298Y-4461505D01*
X11538298Y-4411505D02*
X11638298Y-4411505D01*
X11588298Y-4861505D02*
X11588298Y-4961505D01*
X11538298Y-4911505D02*
X11638298Y-4911505D01*
D13*
X7007783Y-7166533D02*
X7007783Y-7060466D01*
X6901716Y-7060466D01*
X6901716Y-7166533D01*
X7007783Y-7166533D01*
X7007783Y-9071534D02*
X7007783Y-8965467D01*
X6901716Y-8965467D01*
X6901716Y-9071534D01*
X7007783Y-9071534D01*
X7007783Y-10976534D02*
X7007783Y-10870467D01*
X6901716Y-10870467D01*
X6901716Y-10976534D01*
X7007783Y-10976534D01*
X7642783Y-6912533D02*
X7642783Y-6806466D01*
X7536716Y-6806466D01*
X7536716Y-6912533D01*
X7642783Y-6912533D01*
X7642783Y-8817534D02*
X7642783Y-8711467D01*
X7536716Y-8711467D01*
X7536716Y-8817534D01*
X7642783Y-8817534D01*
X7642783Y-10722534D02*
X7642783Y-10616467D01*
X7536716Y-10616467D01*
X7536716Y-10722534D01*
X7642783Y-10722534D01*
X8912784Y-7166533D02*
X8912784Y-7060466D01*
X8806717Y-7060466D01*
X8806717Y-7166533D01*
X8912784Y-7166533D01*
X8912784Y-9071534D02*
X8912784Y-8965467D01*
X8806717Y-8965467D01*
X8806717Y-9071534D01*
X8912784Y-9071534D01*
X8912784Y-10976534D02*
X8912784Y-10870467D01*
X8806717Y-10870467D01*
X8806717Y-10976534D01*
X8912784Y-10976534D01*
X9547784Y-6912533D02*
X9547784Y-6806466D01*
X9441717Y-6806466D01*
X9441717Y-6912533D01*
X9547784Y-6912533D01*
X9547784Y-8817534D02*
X9547784Y-8711467D01*
X9441717Y-8711467D01*
X9441717Y-8817534D01*
X9547784Y-8817534D01*
X9547784Y-10722534D02*
X9547784Y-10616467D01*
X9441717Y-10616467D01*
X9441717Y-10722534D01*
X9547784Y-10722534D01*
X10817784Y-7166533D02*
X10817784Y-7060466D01*
X10711717Y-7060466D01*
X10711717Y-7166533D01*
X10817784Y-7166533D01*
X10817784Y-9071534D02*
X10817784Y-8965467D01*
X10711717Y-8965467D01*
X10711717Y-9071534D01*
X10817784Y-9071534D01*
X10817784Y-10976534D02*
X10817784Y-10870467D01*
X10711717Y-10870467D01*
X10711717Y-10976534D01*
X10817784Y-10976534D01*
X10941332Y-4154538D02*
X10941332Y-4048471D01*
X10835265Y-4048471D01*
X10835265Y-4154538D01*
X10941332Y-4154538D01*
D12*
X10823298Y-4176505D02*
X10953298Y-4176505D01*
X10953298Y-4026505D02*
G75*
G02*
X10953298Y-4176505I0J-75000D01*
G01*
X10953298Y-4026505D02*
X10823298Y-4026505D01*
X10823298Y-4026505D02*
G75*
G03*
X10823298Y-4176505I0J-75000D01*
G01*
D13*
X10941332Y-5274538D02*
X10941332Y-5168471D01*
X10835265Y-5168471D01*
X10835265Y-5274538D01*
X10941332Y-5274538D01*
D12*
X10823298Y-5296505D02*
X10953298Y-5296505D01*
X10953298Y-5146505D02*
G75*
G02*
X10953298Y-5296505I0J-75000D01*
G01*
X10953298Y-5146505D02*
X10823298Y-5146505D01*
X10823298Y-5146505D02*
G75*
G03*
X10823298Y-5296505I0J-75000D01*
G01*
D13*
X11452783Y-6912533D02*
X11452783Y-6806466D01*
X11346716Y-6806466D01*
X11346716Y-6912533D01*
X11452783Y-6912533D01*
X11452783Y-8817534D02*
X11452783Y-8711467D01*
X11346716Y-8711467D01*
X11346716Y-8817534D01*
X11452783Y-8817534D01*
X11452783Y-10722534D02*
X11452783Y-10616467D01*
X11346716Y-10616467D01*
X11346716Y-10722534D01*
X11452783Y-10722534D01*
D11*
X6303402Y-12774234D02*
X6303402Y-12574234D01*
X6303402Y-12574234D02*
X6351021Y-12574234D01*
X6351021Y-12574234D02*
X6379592Y-12583758D01*
X6379592Y-12583758D02*
X6398640Y-12602805D01*
X6398640Y-12602805D02*
X6408164Y-12621853D01*
X6408164Y-12621853D02*
X6417687Y-12659948D01*
X6417687Y-12659948D02*
X6417687Y-12688519D01*
X6417687Y-12688519D02*
X6408164Y-12726615D01*
X6408164Y-12726615D02*
X6398640Y-12745662D01*
X6398640Y-12745662D02*
X6379592Y-12764710D01*
X6379592Y-12764710D02*
X6351021Y-12774234D01*
X6351021Y-12774234D02*
X6303402Y-12774234D01*
X6503402Y-12774234D02*
X6503402Y-12640900D01*
X6503402Y-12678996D02*
X6512926Y-12659948D01*
X6512926Y-12659948D02*
X6522449Y-12650424D01*
X6522449Y-12650424D02*
X6541497Y-12640900D01*
X6541497Y-12640900D02*
X6560545Y-12640900D01*
X6627211Y-12774234D02*
X6627211Y-12640900D01*
X6627211Y-12574234D02*
X6617687Y-12583758D01*
X6617687Y-12583758D02*
X6627211Y-12593281D01*
X6627211Y-12593281D02*
X6636735Y-12583758D01*
X6636735Y-12583758D02*
X6627211Y-12574234D01*
X6627211Y-12574234D02*
X6627211Y-12593281D01*
X6751021Y-12774234D02*
X6731973Y-12764710D01*
X6731973Y-12764710D02*
X6722449Y-12745662D01*
X6722449Y-12745662D02*
X6722449Y-12574234D01*
X6855783Y-12774234D02*
X6836735Y-12764710D01*
X6836735Y-12764710D02*
X6827211Y-12745662D01*
X6827211Y-12745662D02*
X6827211Y-12574234D01*
X7084354Y-12774234D02*
X7084354Y-12574234D01*
X7084354Y-12574234D02*
X7151021Y-12717091D01*
X7151021Y-12717091D02*
X7217687Y-12574234D01*
X7217687Y-12574234D02*
X7217687Y-12774234D01*
X7398640Y-12774234D02*
X7398640Y-12669472D01*
X7398640Y-12669472D02*
X7389116Y-12650424D01*
X7389116Y-12650424D02*
X7370068Y-12640900D01*
X7370068Y-12640900D02*
X7331973Y-12640900D01*
X7331973Y-12640900D02*
X7312926Y-12650424D01*
X7398640Y-12764710D02*
X7379592Y-12774234D01*
X7379592Y-12774234D02*
X7331973Y-12774234D01*
X7331973Y-12774234D02*
X7312926Y-12764710D01*
X7312926Y-12764710D02*
X7303402Y-12745662D01*
X7303402Y-12745662D02*
X7303402Y-12726615D01*
X7303402Y-12726615D02*
X7312926Y-12707567D01*
X7312926Y-12707567D02*
X7331973Y-12698043D01*
X7331973Y-12698043D02*
X7379592Y-12698043D01*
X7379592Y-12698043D02*
X7398640Y-12688519D01*
X7493878Y-12640900D02*
X7493878Y-12840900D01*
X7493878Y-12650424D02*
X7512926Y-12640900D01*
X7512926Y-12640900D02*
X7551021Y-12640900D01*
X7551021Y-12640900D02*
X7570068Y-12650424D01*
X7570068Y-12650424D02*
X7579592Y-12659948D01*
X7579592Y-12659948D02*
X7589116Y-12678996D01*
X7589116Y-12678996D02*
X7589116Y-12736138D01*
X7589116Y-12736138D02*
X7579592Y-12755186D01*
X7579592Y-12755186D02*
X7570068Y-12764710D01*
X7570068Y-12764710D02*
X7551021Y-12774234D01*
X7551021Y-12774234D02*
X7512926Y-12774234D01*
X7512926Y-12774234D02*
X7493878Y-12764710D01*
X7674830Y-12755186D02*
X7684354Y-12764710D01*
X7684354Y-12764710D02*
X7674830Y-12774234D01*
X7674830Y-12774234D02*
X7665307Y-12764710D01*
X7665307Y-12764710D02*
X7674830Y-12755186D01*
X7674830Y-12755186D02*
X7674830Y-12774234D01*
X7674830Y-12650424D02*
X7684354Y-12659948D01*
X7684354Y-12659948D02*
X7674830Y-12669472D01*
X7674830Y-12669472D02*
X7665307Y-12659948D01*
X7665307Y-12659948D02*
X7674830Y-12650424D01*
X7674830Y-12650424D02*
X7674830Y-12669472D01*
D12*
X6012625Y-13087750D02*
X6042625Y-13117750D01*
X6042625Y-13087750D02*
X6012625Y-13117750D01*
D11*
X6341497Y-12994234D02*
X6360545Y-12994234D01*
X6360545Y-12994234D02*
X6379592Y-13003758D01*
X6379592Y-13003758D02*
X6389116Y-13013281D01*
X6389116Y-13013281D02*
X6398640Y-13032329D01*
X6398640Y-13032329D02*
X6408164Y-13070424D01*
X6408164Y-13070424D02*
X6408164Y-13118043D01*
X6408164Y-13118043D02*
X6398640Y-13156138D01*
X6398640Y-13156138D02*
X6389116Y-13175186D01*
X6389116Y-13175186D02*
X6379592Y-13184710D01*
X6379592Y-13184710D02*
X6360545Y-13194234D01*
X6360545Y-13194234D02*
X6341497Y-13194234D01*
X6341497Y-13194234D02*
X6322449Y-13184710D01*
X6322449Y-13184710D02*
X6312926Y-13175186D01*
X6312926Y-13175186D02*
X6303402Y-13156138D01*
X6303402Y-13156138D02*
X6293878Y-13118043D01*
X6293878Y-13118043D02*
X6293878Y-13070424D01*
X6293878Y-13070424D02*
X6303402Y-13032329D01*
X6303402Y-13032329D02*
X6312926Y-13013281D01*
X6312926Y-13013281D02*
X6322449Y-13003758D01*
X6322449Y-13003758D02*
X6341497Y-12994234D01*
X6493878Y-13175186D02*
X6503402Y-13184710D01*
X6503402Y-13184710D02*
X6493878Y-13194234D01*
X6493878Y-13194234D02*
X6484354Y-13184710D01*
X6484354Y-13184710D02*
X6493878Y-13175186D01*
X6493878Y-13175186D02*
X6493878Y-13194234D01*
X6570068Y-12994234D02*
X6693878Y-12994234D01*
X6693878Y-12994234D02*
X6627211Y-13070424D01*
X6627211Y-13070424D02*
X6655783Y-13070424D01*
X6655783Y-13070424D02*
X6674830Y-13079948D01*
X6674830Y-13079948D02*
X6684354Y-13089472D01*
X6684354Y-13089472D02*
X6693878Y-13108519D01*
X6693878Y-13108519D02*
X6693878Y-13156138D01*
X6693878Y-13156138D02*
X6684354Y-13175186D01*
X6684354Y-13175186D02*
X6674830Y-13184710D01*
X6674830Y-13184710D02*
X6655783Y-13194234D01*
X6655783Y-13194234D02*
X6598640Y-13194234D01*
X6598640Y-13194234D02*
X6579592Y-13184710D01*
X6579592Y-13184710D02*
X6570068Y-13175186D01*
X6817687Y-12994234D02*
X6836735Y-12994234D01*
X6836735Y-12994234D02*
X6855783Y-13003758D01*
X6855783Y-13003758D02*
X6865307Y-13013281D01*
X6865307Y-13013281D02*
X6874830Y-13032329D01*
X6874830Y-13032329D02*
X6884354Y-13070424D01*
X6884354Y-13070424D02*
X6884354Y-13118043D01*
X6884354Y-13118043D02*
X6874830Y-13156138D01*
X6874830Y-13156138D02*
X6865307Y-13175186D01*
X6865307Y-13175186D02*
X6855783Y-13184710D01*
X6855783Y-13184710D02*
X6836735Y-13194234D01*
X6836735Y-13194234D02*
X6817687Y-13194234D01*
X6817687Y-13194234D02*
X6798640Y-13184710D01*
X6798640Y-13184710D02*
X6789116Y-13175186D01*
X6789116Y-13175186D02*
X6779592Y-13156138D01*
X6779592Y-13156138D02*
X6770068Y-13118043D01*
X6770068Y-13118043D02*
X6770068Y-13070424D01*
X6770068Y-13070424D02*
X6779592Y-13032329D01*
X6779592Y-13032329D02*
X6789116Y-13013281D01*
X6789116Y-13013281D02*
X6798640Y-13003758D01*
X6798640Y-13003758D02*
X6817687Y-12994234D01*
X7008164Y-12994234D02*
X7027211Y-12994234D01*
X7027211Y-12994234D02*
X7046259Y-13003758D01*
X7046259Y-13003758D02*
X7055783Y-13013281D01*
X7055783Y-13013281D02*
X7065307Y-13032329D01*
X7065307Y-13032329D02*
X7074830Y-13070424D01*
X7074830Y-13070424D02*
X7074830Y-13118043D01*
X7074830Y-13118043D02*
X7065307Y-13156138D01*
X7065307Y-13156138D02*
X7055783Y-13175186D01*
X7055783Y-13175186D02*
X7046259Y-13184710D01*
X7046259Y-13184710D02*
X7027211Y-13194234D01*
X7027211Y-13194234D02*
X7008164Y-13194234D01*
X7008164Y-13194234D02*
X6989116Y-13184710D01*
X6989116Y-13184710D02*
X6979592Y-13175186D01*
X6979592Y-13175186D02*
X6970068Y-13156138D01*
X6970068Y-13156138D02*
X6960545Y-13118043D01*
X6960545Y-13118043D02*
X6960545Y-13070424D01*
X6960545Y-13070424D02*
X6970068Y-13032329D01*
X6970068Y-13032329D02*
X6979592Y-13013281D01*
X6979592Y-13013281D02*
X6989116Y-13003758D01*
X6989116Y-13003758D02*
X7008164Y-12994234D01*
X7160545Y-13194234D02*
X7160545Y-13060900D01*
X7160545Y-13079948D02*
X7170068Y-13070424D01*
X7170068Y-13070424D02*
X7189116Y-13060900D01*
X7189116Y-13060900D02*
X7217688Y-13060900D01*
X7217688Y-13060900D02*
X7236735Y-13070424D01*
X7236735Y-13070424D02*
X7246259Y-13089472D01*
X7246259Y-13089472D02*
X7246259Y-13194234D01*
X7246259Y-13089472D02*
X7255783Y-13070424D01*
X7255783Y-13070424D02*
X7274830Y-13060900D01*
X7274830Y-13060900D02*
X7303402Y-13060900D01*
X7303402Y-13060900D02*
X7322449Y-13070424D01*
X7322449Y-13070424D02*
X7331973Y-13089472D01*
X7331973Y-13089472D02*
X7331973Y-13194234D01*
X7427211Y-13194234D02*
X7427211Y-13060900D01*
X7427211Y-13079948D02*
X7436735Y-13070424D01*
X7436735Y-13070424D02*
X7455783Y-13060900D01*
X7455783Y-13060900D02*
X7484354Y-13060900D01*
X7484354Y-13060900D02*
X7503402Y-13070424D01*
X7503402Y-13070424D02*
X7512926Y-13089472D01*
X7512926Y-13089472D02*
X7512926Y-13194234D01*
X7512926Y-13089472D02*
X7522449Y-13070424D01*
X7522449Y-13070424D02*
X7541497Y-13060900D01*
X7541497Y-13060900D02*
X7570068Y-13060900D01*
X7570068Y-13060900D02*
X7589116Y-13070424D01*
X7589116Y-13070424D02*
X7598640Y-13089472D01*
X7598640Y-13089472D02*
X7598640Y-13194234D01*
X7989116Y-12984710D02*
X7817688Y-13241853D01*
X8246259Y-12994234D02*
X8265307Y-12994234D01*
X8265307Y-12994234D02*
X8284354Y-13003758D01*
X8284354Y-13003758D02*
X8293878Y-13013281D01*
X8293878Y-13013281D02*
X8303402Y-13032329D01*
X8303402Y-13032329D02*
X8312926Y-13070424D01*
X8312926Y-13070424D02*
X8312926Y-13118043D01*
X8312926Y-13118043D02*
X8303402Y-13156138D01*
X8303402Y-13156138D02*
X8293878Y-13175186D01*
X8293878Y-13175186D02*
X8284354Y-13184710D01*
X8284354Y-13184710D02*
X8265307Y-13194234D01*
X8265307Y-13194234D02*
X8246259Y-13194234D01*
X8246259Y-13194234D02*
X8227211Y-13184710D01*
X8227211Y-13184710D02*
X8217688Y-13175186D01*
X8217688Y-13175186D02*
X8208164Y-13156138D01*
X8208164Y-13156138D02*
X8198640Y-13118043D01*
X8198640Y-13118043D02*
X8198640Y-13070424D01*
X8198640Y-13070424D02*
X8208164Y-13032329D01*
X8208164Y-13032329D02*
X8217688Y-13013281D01*
X8217688Y-13013281D02*
X8227211Y-13003758D01*
X8227211Y-13003758D02*
X8246259Y-12994234D01*
X8398640Y-13175186D02*
X8408164Y-13184710D01*
X8408164Y-13184710D02*
X8398640Y-13194234D01*
X8398640Y-13194234D02*
X8389116Y-13184710D01*
X8389116Y-13184710D02*
X8398640Y-13175186D01*
X8398640Y-13175186D02*
X8398640Y-13194234D01*
X8531973Y-12994234D02*
X8551021Y-12994234D01*
X8551021Y-12994234D02*
X8570069Y-13003758D01*
X8570069Y-13003758D02*
X8579593Y-13013281D01*
X8579593Y-13013281D02*
X8589116Y-13032329D01*
X8589116Y-13032329D02*
X8598640Y-13070424D01*
X8598640Y-13070424D02*
X8598640Y-13118043D01*
X8598640Y-13118043D02*
X8589116Y-13156138D01*
X8589116Y-13156138D02*
X8579593Y-13175186D01*
X8579593Y-13175186D02*
X8570069Y-13184710D01*
X8570069Y-13184710D02*
X8551021Y-13194234D01*
X8551021Y-13194234D02*
X8531973Y-13194234D01*
X8531973Y-13194234D02*
X8512926Y-13184710D01*
X8512926Y-13184710D02*
X8503402Y-13175186D01*
X8503402Y-13175186D02*
X8493878Y-13156138D01*
X8493878Y-13156138D02*
X8484354Y-13118043D01*
X8484354Y-13118043D02*
X8484354Y-13070424D01*
X8484354Y-13070424D02*
X8493878Y-13032329D01*
X8493878Y-13032329D02*
X8503402Y-13013281D01*
X8503402Y-13013281D02*
X8512926Y-13003758D01*
X8512926Y-13003758D02*
X8531973Y-12994234D01*
X8789116Y-13194234D02*
X8674831Y-13194234D01*
X8731973Y-13194234D02*
X8731973Y-12994234D01*
X8731973Y-12994234D02*
X8712926Y-13022805D01*
X8712926Y-13022805D02*
X8693878Y-13041853D01*
X8693878Y-13041853D02*
X8674831Y-13051377D01*
X8979593Y-13194234D02*
X8865307Y-13194234D01*
X8922450Y-13194234D02*
X8922450Y-12994234D01*
X8922450Y-12994234D02*
X8903402Y-13022805D01*
X8903402Y-13022805D02*
X8884354Y-13041853D01*
X8884354Y-13041853D02*
X8865307Y-13051377D01*
X9093878Y-13079948D02*
X9074831Y-13070424D01*
X9074831Y-13070424D02*
X9065307Y-13060900D01*
X9065307Y-13060900D02*
X9055783Y-13041853D01*
X9055783Y-13041853D02*
X9055783Y-13032329D01*
X9055783Y-13032329D02*
X9065307Y-13013281D01*
X9065307Y-13013281D02*
X9074831Y-13003758D01*
X9074831Y-13003758D02*
X9093878Y-12994234D01*
X9093878Y-12994234D02*
X9131974Y-12994234D01*
X9131974Y-12994234D02*
X9151021Y-13003758D01*
X9151021Y-13003758D02*
X9160545Y-13013281D01*
X9160545Y-13013281D02*
X9170069Y-13032329D01*
X9170069Y-13032329D02*
X9170069Y-13041853D01*
X9170069Y-13041853D02*
X9160545Y-13060900D01*
X9160545Y-13060900D02*
X9151021Y-13070424D01*
X9151021Y-13070424D02*
X9131974Y-13079948D01*
X9131974Y-13079948D02*
X9093878Y-13079948D01*
X9093878Y-13079948D02*
X9074831Y-13089472D01*
X9074831Y-13089472D02*
X9065307Y-13098996D01*
X9065307Y-13098996D02*
X9055783Y-13118043D01*
X9055783Y-13118043D02*
X9055783Y-13156138D01*
X9055783Y-13156138D02*
X9065307Y-13175186D01*
X9065307Y-13175186D02*
X9074831Y-13184710D01*
X9074831Y-13184710D02*
X9093878Y-13194234D01*
X9093878Y-13194234D02*
X9131974Y-13194234D01*
X9131974Y-13194234D02*
X9151021Y-13184710D01*
X9151021Y-13184710D02*
X9160545Y-13175186D01*
X9160545Y-13175186D02*
X9170069Y-13156138D01*
X9170069Y-13156138D02*
X9170069Y-13118043D01*
X9170069Y-13118043D02*
X9160545Y-13098996D01*
X9160545Y-13098996D02*
X9151021Y-13089472D01*
X9151021Y-13089472D02*
X9131974Y-13079948D01*
X9246259Y-12994234D02*
X9246259Y-13032329D01*
X9322450Y-12994234D02*
X9322450Y-13032329D01*
X9617688Y-13270424D02*
X9608164Y-13260900D01*
X9608164Y-13260900D02*
X9589116Y-13232329D01*
X9589116Y-13232329D02*
X9579593Y-13213281D01*
X9579593Y-13213281D02*
X9570069Y-13184710D01*
X9570069Y-13184710D02*
X9560545Y-13137091D01*
X9560545Y-13137091D02*
X9560545Y-13098996D01*
X9560545Y-13098996D02*
X9570069Y-13051377D01*
X9570069Y-13051377D02*
X9579593Y-13022805D01*
X9579593Y-13022805D02*
X9589116Y-13003758D01*
X9589116Y-13003758D02*
X9608164Y-12975186D01*
X9608164Y-12975186D02*
X9617688Y-12965662D01*
X9684355Y-13013281D02*
X9693878Y-13003758D01*
X9693878Y-13003758D02*
X9712926Y-12994234D01*
X9712926Y-12994234D02*
X9760545Y-12994234D01*
X9760545Y-12994234D02*
X9779593Y-13003758D01*
X9779593Y-13003758D02*
X9789116Y-13013281D01*
X9789116Y-13013281D02*
X9798640Y-13032329D01*
X9798640Y-13032329D02*
X9798640Y-13051377D01*
X9798640Y-13051377D02*
X9789116Y-13079948D01*
X9789116Y-13079948D02*
X9674831Y-13194234D01*
X9674831Y-13194234D02*
X9798640Y-13194234D01*
X9865307Y-12994234D02*
X9989116Y-12994234D01*
X9989116Y-12994234D02*
X9922450Y-13070424D01*
X9922450Y-13070424D02*
X9951021Y-13070424D01*
X9951021Y-13070424D02*
X9970069Y-13079948D01*
X9970069Y-13079948D02*
X9979593Y-13089472D01*
X9979593Y-13089472D02*
X9989116Y-13108519D01*
X9989116Y-13108519D02*
X9989116Y-13156138D01*
X9989116Y-13156138D02*
X9979593Y-13175186D01*
X9979593Y-13175186D02*
X9970069Y-13184710D01*
X9970069Y-13184710D02*
X9951021Y-13194234D01*
X9951021Y-13194234D02*
X9893878Y-13194234D01*
X9893878Y-13194234D02*
X9874831Y-13184710D01*
X9874831Y-13184710D02*
X9865307Y-13175186D01*
X10227212Y-13194234D02*
X10227212Y-12994234D01*
X10312926Y-13194234D02*
X10312926Y-13089472D01*
X10312926Y-13089472D02*
X10303402Y-13070424D01*
X10303402Y-13070424D02*
X10284355Y-13060900D01*
X10284355Y-13060900D02*
X10255783Y-13060900D01*
X10255783Y-13060900D02*
X10236736Y-13070424D01*
X10236736Y-13070424D02*
X10227212Y-13079948D01*
X10436736Y-13194234D02*
X10417688Y-13184710D01*
X10417688Y-13184710D02*
X10408164Y-13175186D01*
X10408164Y-13175186D02*
X10398640Y-13156138D01*
X10398640Y-13156138D02*
X10398640Y-13098996D01*
X10398640Y-13098996D02*
X10408164Y-13079948D01*
X10408164Y-13079948D02*
X10417688Y-13070424D01*
X10417688Y-13070424D02*
X10436736Y-13060900D01*
X10436736Y-13060900D02*
X10465307Y-13060900D01*
X10465307Y-13060900D02*
X10484355Y-13070424D01*
X10484355Y-13070424D02*
X10493878Y-13079948D01*
X10493878Y-13079948D02*
X10503402Y-13098996D01*
X10503402Y-13098996D02*
X10503402Y-13156138D01*
X10503402Y-13156138D02*
X10493878Y-13175186D01*
X10493878Y-13175186D02*
X10484355Y-13184710D01*
X10484355Y-13184710D02*
X10465307Y-13194234D01*
X10465307Y-13194234D02*
X10436736Y-13194234D01*
X10617688Y-13194234D02*
X10598640Y-13184710D01*
X10598640Y-13184710D02*
X10589117Y-13165662D01*
X10589117Y-13165662D02*
X10589117Y-12994234D01*
X10770069Y-13184710D02*
X10751021Y-13194234D01*
X10751021Y-13194234D02*
X10712926Y-13194234D01*
X10712926Y-13194234D02*
X10693878Y-13184710D01*
X10693878Y-13184710D02*
X10684355Y-13165662D01*
X10684355Y-13165662D02*
X10684355Y-13089472D01*
X10684355Y-13089472D02*
X10693878Y-13070424D01*
X10693878Y-13070424D02*
X10712926Y-13060900D01*
X10712926Y-13060900D02*
X10751021Y-13060900D01*
X10751021Y-13060900D02*
X10770069Y-13070424D01*
X10770069Y-13070424D02*
X10779593Y-13089472D01*
X10779593Y-13089472D02*
X10779593Y-13108519D01*
X10779593Y-13108519D02*
X10684355Y-13127567D01*
X10855783Y-13184710D02*
X10874831Y-13194234D01*
X10874831Y-13194234D02*
X10912926Y-13194234D01*
X10912926Y-13194234D02*
X10931974Y-13184710D01*
X10931974Y-13184710D02*
X10941498Y-13165662D01*
X10941498Y-13165662D02*
X10941498Y-13156138D01*
X10941498Y-13156138D02*
X10931974Y-13137091D01*
X10931974Y-13137091D02*
X10912926Y-13127567D01*
X10912926Y-13127567D02*
X10884355Y-13127567D01*
X10884355Y-13127567D02*
X10865307Y-13118043D01*
X10865307Y-13118043D02*
X10855783Y-13098996D01*
X10855783Y-13098996D02*
X10855783Y-13089472D01*
X10855783Y-13089472D02*
X10865307Y-13070424D01*
X10865307Y-13070424D02*
X10884355Y-13060900D01*
X10884355Y-13060900D02*
X10912926Y-13060900D01*
X10912926Y-13060900D02*
X10931974Y-13070424D01*
X11008164Y-13270424D02*
X11017688Y-13260900D01*
X11017688Y-13260900D02*
X11036736Y-13232329D01*
X11036736Y-13232329D02*
X11046259Y-13213281D01*
X11046259Y-13213281D02*
X11055783Y-13184710D01*
X11055783Y-13184710D02*
X11065307Y-13137091D01*
X11065307Y-13137091D02*
X11065307Y-13098996D01*
X11065307Y-13098996D02*
X11055783Y-13051377D01*
X11055783Y-13051377D02*
X11046259Y-13022805D01*
X11046259Y-13022805D02*
X11036736Y-13003758D01*
X11036736Y-13003758D02*
X11017688Y-12975186D01*
X11017688Y-12975186D02*
X11008164Y-12965662D01*
D12*
X6042625Y-13366750D02*
G75*
G02*
X5962625Y-13366750I-40000J0D01*
G01*
X5962625Y-13366750D02*
G75*
G02*
X6042625Y-13366750I40000J0D01*
G01*
D11*
X6341497Y-13258234D02*
X6360545Y-13258234D01*
X6360545Y-13258234D02*
X6379592Y-13267758D01*
X6379592Y-13267758D02*
X6389116Y-13277281D01*
X6389116Y-13277281D02*
X6398640Y-13296329D01*
X6398640Y-13296329D02*
X6408164Y-13334424D01*
X6408164Y-13334424D02*
X6408164Y-13382043D01*
X6408164Y-13382043D02*
X6398640Y-13420138D01*
X6398640Y-13420138D02*
X6389116Y-13439186D01*
X6389116Y-13439186D02*
X6379592Y-13448710D01*
X6379592Y-13448710D02*
X6360545Y-13458234D01*
X6360545Y-13458234D02*
X6341497Y-13458234D01*
X6341497Y-13458234D02*
X6322449Y-13448710D01*
X6322449Y-13448710D02*
X6312926Y-13439186D01*
X6312926Y-13439186D02*
X6303402Y-13420138D01*
X6303402Y-13420138D02*
X6293878Y-13382043D01*
X6293878Y-13382043D02*
X6293878Y-13334424D01*
X6293878Y-13334424D02*
X6303402Y-13296329D01*
X6303402Y-13296329D02*
X6312926Y-13277281D01*
X6312926Y-13277281D02*
X6322449Y-13267758D01*
X6322449Y-13267758D02*
X6341497Y-13258234D01*
X6493878Y-13439186D02*
X6503402Y-13448710D01*
X6503402Y-13448710D02*
X6493878Y-13458234D01*
X6493878Y-13458234D02*
X6484354Y-13448710D01*
X6484354Y-13448710D02*
X6493878Y-13439186D01*
X6493878Y-13439186D02*
X6493878Y-13458234D01*
X6617687Y-13343948D02*
X6598640Y-13334424D01*
X6598640Y-13334424D02*
X6589116Y-13324900D01*
X6589116Y-13324900D02*
X6579592Y-13305853D01*
X6579592Y-13305853D02*
X6579592Y-13296329D01*
X6579592Y-13296329D02*
X6589116Y-13277281D01*
X6589116Y-13277281D02*
X6598640Y-13267758D01*
X6598640Y-13267758D02*
X6617687Y-13258234D01*
X6617687Y-13258234D02*
X6655783Y-13258234D01*
X6655783Y-13258234D02*
X6674830Y-13267758D01*
X6674830Y-13267758D02*
X6684354Y-13277281D01*
X6684354Y-13277281D02*
X6693878Y-13296329D01*
X6693878Y-13296329D02*
X6693878Y-13305853D01*
X6693878Y-13305853D02*
X6684354Y-13324900D01*
X6684354Y-13324900D02*
X6674830Y-13334424D01*
X6674830Y-13334424D02*
X6655783Y-13343948D01*
X6655783Y-13343948D02*
X6617687Y-13343948D01*
X6617687Y-13343948D02*
X6598640Y-13353472D01*
X6598640Y-13353472D02*
X6589116Y-13362996D01*
X6589116Y-13362996D02*
X6579592Y-13382043D01*
X6579592Y-13382043D02*
X6579592Y-13420138D01*
X6579592Y-13420138D02*
X6589116Y-13439186D01*
X6589116Y-13439186D02*
X6598640Y-13448710D01*
X6598640Y-13448710D02*
X6617687Y-13458234D01*
X6617687Y-13458234D02*
X6655783Y-13458234D01*
X6655783Y-13458234D02*
X6674830Y-13448710D01*
X6674830Y-13448710D02*
X6684354Y-13439186D01*
X6684354Y-13439186D02*
X6693878Y-13420138D01*
X6693878Y-13420138D02*
X6693878Y-13382043D01*
X6693878Y-13382043D02*
X6684354Y-13362996D01*
X6684354Y-13362996D02*
X6674830Y-13353472D01*
X6674830Y-13353472D02*
X6655783Y-13343948D01*
X6817687Y-13258234D02*
X6836735Y-13258234D01*
X6836735Y-13258234D02*
X6855783Y-13267758D01*
X6855783Y-13267758D02*
X6865307Y-13277281D01*
X6865307Y-13277281D02*
X6874830Y-13296329D01*
X6874830Y-13296329D02*
X6884354Y-13334424D01*
X6884354Y-13334424D02*
X6884354Y-13382043D01*
X6884354Y-13382043D02*
X6874830Y-13420138D01*
X6874830Y-13420138D02*
X6865307Y-13439186D01*
X6865307Y-13439186D02*
X6855783Y-13448710D01*
X6855783Y-13448710D02*
X6836735Y-13458234D01*
X6836735Y-13458234D02*
X6817687Y-13458234D01*
X6817687Y-13458234D02*
X6798640Y-13448710D01*
X6798640Y-13448710D02*
X6789116Y-13439186D01*
X6789116Y-13439186D02*
X6779592Y-13420138D01*
X6779592Y-13420138D02*
X6770068Y-13382043D01*
X6770068Y-13382043D02*
X6770068Y-13334424D01*
X6770068Y-13334424D02*
X6779592Y-13296329D01*
X6779592Y-13296329D02*
X6789116Y-13277281D01*
X6789116Y-13277281D02*
X6798640Y-13267758D01*
X6798640Y-13267758D02*
X6817687Y-13258234D01*
X7008164Y-13258234D02*
X7027211Y-13258234D01*
X7027211Y-13258234D02*
X7046259Y-13267758D01*
X7046259Y-13267758D02*
X7055783Y-13277281D01*
X7055783Y-13277281D02*
X7065307Y-13296329D01*
X7065307Y-13296329D02*
X7074830Y-13334424D01*
X7074830Y-13334424D02*
X7074830Y-13382043D01*
X7074830Y-13382043D02*
X7065307Y-13420138D01*
X7065307Y-13420138D02*
X7055783Y-13439186D01*
X7055783Y-13439186D02*
X7046259Y-13448710D01*
X7046259Y-13448710D02*
X7027211Y-13458234D01*
X7027211Y-13458234D02*
X7008164Y-13458234D01*
X7008164Y-13458234D02*
X6989116Y-13448710D01*
X6989116Y-13448710D02*
X6979592Y-13439186D01*
X6979592Y-13439186D02*
X6970068Y-13420138D01*
X6970068Y-13420138D02*
X6960545Y-13382043D01*
X6960545Y-13382043D02*
X6960545Y-13334424D01*
X6960545Y-13334424D02*
X6970068Y-13296329D01*
X6970068Y-13296329D02*
X6979592Y-13277281D01*
X6979592Y-13277281D02*
X6989116Y-13267758D01*
X6989116Y-13267758D02*
X7008164Y-13258234D01*
X7160545Y-13458234D02*
X7160545Y-13324900D01*
X7160545Y-13343948D02*
X7170068Y-13334424D01*
X7170068Y-13334424D02*
X7189116Y-13324900D01*
X7189116Y-13324900D02*
X7217688Y-13324900D01*
X7217688Y-13324900D02*
X7236735Y-13334424D01*
X7236735Y-13334424D02*
X7246259Y-13353472D01*
X7246259Y-13353472D02*
X7246259Y-13458234D01*
X7246259Y-13353472D02*
X7255783Y-13334424D01*
X7255783Y-13334424D02*
X7274830Y-13324900D01*
X7274830Y-13324900D02*
X7303402Y-13324900D01*
X7303402Y-13324900D02*
X7322449Y-13334424D01*
X7322449Y-13334424D02*
X7331973Y-13353472D01*
X7331973Y-13353472D02*
X7331973Y-13458234D01*
X7427211Y-13458234D02*
X7427211Y-13324900D01*
X7427211Y-13343948D02*
X7436735Y-13334424D01*
X7436735Y-13334424D02*
X7455783Y-13324900D01*
X7455783Y-13324900D02*
X7484354Y-13324900D01*
X7484354Y-13324900D02*
X7503402Y-13334424D01*
X7503402Y-13334424D02*
X7512926Y-13353472D01*
X7512926Y-13353472D02*
X7512926Y-13458234D01*
X7512926Y-13353472D02*
X7522449Y-13334424D01*
X7522449Y-13334424D02*
X7541497Y-13324900D01*
X7541497Y-13324900D02*
X7570068Y-13324900D01*
X7570068Y-13324900D02*
X7589116Y-13334424D01*
X7589116Y-13334424D02*
X7598640Y-13353472D01*
X7598640Y-13353472D02*
X7598640Y-13458234D01*
X7989116Y-13248710D02*
X7817688Y-13505853D01*
X8246259Y-13258234D02*
X8265307Y-13258234D01*
X8265307Y-13258234D02*
X8284354Y-13267758D01*
X8284354Y-13267758D02*
X8293878Y-13277281D01*
X8293878Y-13277281D02*
X8303402Y-13296329D01*
X8303402Y-13296329D02*
X8312926Y-13334424D01*
X8312926Y-13334424D02*
X8312926Y-13382043D01*
X8312926Y-13382043D02*
X8303402Y-13420138D01*
X8303402Y-13420138D02*
X8293878Y-13439186D01*
X8293878Y-13439186D02*
X8284354Y-13448710D01*
X8284354Y-13448710D02*
X8265307Y-13458234D01*
X8265307Y-13458234D02*
X8246259Y-13458234D01*
X8246259Y-13458234D02*
X8227211Y-13448710D01*
X8227211Y-13448710D02*
X8217688Y-13439186D01*
X8217688Y-13439186D02*
X8208164Y-13420138D01*
X8208164Y-13420138D02*
X8198640Y-13382043D01*
X8198640Y-13382043D02*
X8198640Y-13334424D01*
X8198640Y-13334424D02*
X8208164Y-13296329D01*
X8208164Y-13296329D02*
X8217688Y-13277281D01*
X8217688Y-13277281D02*
X8227211Y-13267758D01*
X8227211Y-13267758D02*
X8246259Y-13258234D01*
X8398640Y-13439186D02*
X8408164Y-13448710D01*
X8408164Y-13448710D02*
X8398640Y-13458234D01*
X8398640Y-13458234D02*
X8389116Y-13448710D01*
X8389116Y-13448710D02*
X8398640Y-13439186D01*
X8398640Y-13439186D02*
X8398640Y-13458234D01*
X8531973Y-13258234D02*
X8551021Y-13258234D01*
X8551021Y-13258234D02*
X8570069Y-13267758D01*
X8570069Y-13267758D02*
X8579593Y-13277281D01*
X8579593Y-13277281D02*
X8589116Y-13296329D01*
X8589116Y-13296329D02*
X8598640Y-13334424D01*
X8598640Y-13334424D02*
X8598640Y-13382043D01*
X8598640Y-13382043D02*
X8589116Y-13420138D01*
X8589116Y-13420138D02*
X8579593Y-13439186D01*
X8579593Y-13439186D02*
X8570069Y-13448710D01*
X8570069Y-13448710D02*
X8551021Y-13458234D01*
X8551021Y-13458234D02*
X8531973Y-13458234D01*
X8531973Y-13458234D02*
X8512926Y-13448710D01*
X8512926Y-13448710D02*
X8503402Y-13439186D01*
X8503402Y-13439186D02*
X8493878Y-13420138D01*
X8493878Y-13420138D02*
X8484354Y-13382043D01*
X8484354Y-13382043D02*
X8484354Y-13334424D01*
X8484354Y-13334424D02*
X8493878Y-13296329D01*
X8493878Y-13296329D02*
X8503402Y-13277281D01*
X8503402Y-13277281D02*
X8512926Y-13267758D01*
X8512926Y-13267758D02*
X8531973Y-13258234D01*
X8665307Y-13258234D02*
X8789116Y-13258234D01*
X8789116Y-13258234D02*
X8722450Y-13334424D01*
X8722450Y-13334424D02*
X8751021Y-13334424D01*
X8751021Y-13334424D02*
X8770069Y-13343948D01*
X8770069Y-13343948D02*
X8779593Y-13353472D01*
X8779593Y-13353472D02*
X8789116Y-13372519D01*
X8789116Y-13372519D02*
X8789116Y-13420138D01*
X8789116Y-13420138D02*
X8779593Y-13439186D01*
X8779593Y-13439186D02*
X8770069Y-13448710D01*
X8770069Y-13448710D02*
X8751021Y-13458234D01*
X8751021Y-13458234D02*
X8693878Y-13458234D01*
X8693878Y-13458234D02*
X8674831Y-13448710D01*
X8674831Y-13448710D02*
X8665307Y-13439186D01*
X8979593Y-13458234D02*
X8865307Y-13458234D01*
X8922450Y-13458234D02*
X8922450Y-13258234D01*
X8922450Y-13258234D02*
X8903402Y-13286805D01*
X8903402Y-13286805D02*
X8884354Y-13305853D01*
X8884354Y-13305853D02*
X8865307Y-13315377D01*
X9160545Y-13258234D02*
X9065307Y-13258234D01*
X9065307Y-13258234D02*
X9055783Y-13353472D01*
X9055783Y-13353472D02*
X9065307Y-13343948D01*
X9065307Y-13343948D02*
X9084354Y-13334424D01*
X9084354Y-13334424D02*
X9131974Y-13334424D01*
X9131974Y-13334424D02*
X9151021Y-13343948D01*
X9151021Y-13343948D02*
X9160545Y-13353472D01*
X9160545Y-13353472D02*
X9170069Y-13372519D01*
X9170069Y-13372519D02*
X9170069Y-13420138D01*
X9170069Y-13420138D02*
X9160545Y-13439186D01*
X9160545Y-13439186D02*
X9151021Y-13448710D01*
X9151021Y-13448710D02*
X9131974Y-13458234D01*
X9131974Y-13458234D02*
X9084354Y-13458234D01*
X9084354Y-13458234D02*
X9065307Y-13448710D01*
X9065307Y-13448710D02*
X9055783Y-13439186D01*
X9246259Y-13258234D02*
X9246259Y-13296329D01*
X9322450Y-13258234D02*
X9322450Y-13296329D01*
X9617688Y-13534424D02*
X9608164Y-13524900D01*
X9608164Y-13524900D02*
X9589116Y-13496329D01*
X9589116Y-13496329D02*
X9579593Y-13477281D01*
X9579593Y-13477281D02*
X9570069Y-13448710D01*
X9570069Y-13448710D02*
X9560545Y-13401091D01*
X9560545Y-13401091D02*
X9560545Y-13362996D01*
X9560545Y-13362996D02*
X9570069Y-13315377D01*
X9570069Y-13315377D02*
X9579593Y-13286805D01*
X9579593Y-13286805D02*
X9589116Y-13267758D01*
X9589116Y-13267758D02*
X9608164Y-13239186D01*
X9608164Y-13239186D02*
X9617688Y-13229662D01*
X9798640Y-13458234D02*
X9684355Y-13458234D01*
X9741497Y-13458234D02*
X9741497Y-13258234D01*
X9741497Y-13258234D02*
X9722450Y-13286805D01*
X9722450Y-13286805D02*
X9703402Y-13305853D01*
X9703402Y-13305853D02*
X9684355Y-13315377D01*
X9912926Y-13343948D02*
X9893878Y-13334424D01*
X9893878Y-13334424D02*
X9884355Y-13324900D01*
X9884355Y-13324900D02*
X9874831Y-13305853D01*
X9874831Y-13305853D02*
X9874831Y-13296329D01*
X9874831Y-13296329D02*
X9884355Y-13277281D01*
X9884355Y-13277281D02*
X9893878Y-13267758D01*
X9893878Y-13267758D02*
X9912926Y-13258234D01*
X9912926Y-13258234D02*
X9951021Y-13258234D01*
X9951021Y-13258234D02*
X9970069Y-13267758D01*
X9970069Y-13267758D02*
X9979593Y-13277281D01*
X9979593Y-13277281D02*
X9989116Y-13296329D01*
X9989116Y-13296329D02*
X9989116Y-13305853D01*
X9989116Y-13305853D02*
X9979593Y-13324900D01*
X9979593Y-13324900D02*
X9970069Y-13334424D01*
X9970069Y-13334424D02*
X9951021Y-13343948D01*
X9951021Y-13343948D02*
X9912926Y-13343948D01*
X9912926Y-13343948D02*
X9893878Y-13353472D01*
X9893878Y-13353472D02*
X9884355Y-13362996D01*
X9884355Y-13362996D02*
X9874831Y-13382043D01*
X9874831Y-13382043D02*
X9874831Y-13420138D01*
X9874831Y-13420138D02*
X9884355Y-13439186D01*
X9884355Y-13439186D02*
X9893878Y-13448710D01*
X9893878Y-13448710D02*
X9912926Y-13458234D01*
X9912926Y-13458234D02*
X9951021Y-13458234D01*
X9951021Y-13458234D02*
X9970069Y-13448710D01*
X9970069Y-13448710D02*
X9979593Y-13439186D01*
X9979593Y-13439186D02*
X9989116Y-13420138D01*
X9989116Y-13420138D02*
X9989116Y-13382043D01*
X9989116Y-13382043D02*
X9979593Y-13362996D01*
X9979593Y-13362996D02*
X9970069Y-13353472D01*
X9970069Y-13353472D02*
X9951021Y-13343948D01*
X10227212Y-13458234D02*
X10227212Y-13258234D01*
X10312926Y-13458234D02*
X10312926Y-13353472D01*
X10312926Y-13353472D02*
X10303402Y-13334424D01*
X10303402Y-13334424D02*
X10284355Y-13324900D01*
X10284355Y-13324900D02*
X10255783Y-13324900D01*
X10255783Y-13324900D02*
X10236736Y-13334424D01*
X10236736Y-13334424D02*
X10227212Y-13343948D01*
X10436736Y-13458234D02*
X10417688Y-13448710D01*
X10417688Y-13448710D02*
X10408164Y-13439186D01*
X10408164Y-13439186D02*
X10398640Y-13420138D01*
X10398640Y-13420138D02*
X10398640Y-13362996D01*
X10398640Y-13362996D02*
X10408164Y-13343948D01*
X10408164Y-13343948D02*
X10417688Y-13334424D01*
X10417688Y-13334424D02*
X10436736Y-13324900D01*
X10436736Y-13324900D02*
X10465307Y-13324900D01*
X10465307Y-13324900D02*
X10484355Y-13334424D01*
X10484355Y-13334424D02*
X10493878Y-13343948D01*
X10493878Y-13343948D02*
X10503402Y-13362996D01*
X10503402Y-13362996D02*
X10503402Y-13420138D01*
X10503402Y-13420138D02*
X10493878Y-13439186D01*
X10493878Y-13439186D02*
X10484355Y-13448710D01*
X10484355Y-13448710D02*
X10465307Y-13458234D01*
X10465307Y-13458234D02*
X10436736Y-13458234D01*
X10617688Y-13458234D02*
X10598640Y-13448710D01*
X10598640Y-13448710D02*
X10589117Y-13429662D01*
X10589117Y-13429662D02*
X10589117Y-13258234D01*
X10770069Y-13448710D02*
X10751021Y-13458234D01*
X10751021Y-13458234D02*
X10712926Y-13458234D01*
X10712926Y-13458234D02*
X10693878Y-13448710D01*
X10693878Y-13448710D02*
X10684355Y-13429662D01*
X10684355Y-13429662D02*
X10684355Y-13353472D01*
X10684355Y-13353472D02*
X10693878Y-13334424D01*
X10693878Y-13334424D02*
X10712926Y-13324900D01*
X10712926Y-13324900D02*
X10751021Y-13324900D01*
X10751021Y-13324900D02*
X10770069Y-13334424D01*
X10770069Y-13334424D02*
X10779593Y-13353472D01*
X10779593Y-13353472D02*
X10779593Y-13372519D01*
X10779593Y-13372519D02*
X10684355Y-13391567D01*
X10855783Y-13448710D02*
X10874831Y-13458234D01*
X10874831Y-13458234D02*
X10912926Y-13458234D01*
X10912926Y-13458234D02*
X10931974Y-13448710D01*
X10931974Y-13448710D02*
X10941498Y-13429662D01*
X10941498Y-13429662D02*
X10941498Y-13420138D01*
X10941498Y-13420138D02*
X10931974Y-13401091D01*
X10931974Y-13401091D02*
X10912926Y-13391567D01*
X10912926Y-13391567D02*
X10884355Y-13391567D01*
X10884355Y-13391567D02*
X10865307Y-13382043D01*
X10865307Y-13382043D02*
X10855783Y-13362996D01*
X10855783Y-13362996D02*
X10855783Y-13353472D01*
X10855783Y-13353472D02*
X10865307Y-13334424D01*
X10865307Y-13334424D02*
X10884355Y-13324900D01*
X10884355Y-13324900D02*
X10912926Y-13324900D01*
X10912926Y-13324900D02*
X10931974Y-13334424D01*
X11008164Y-13534424D02*
X11017688Y-13524900D01*
X11017688Y-13524900D02*
X11036736Y-13496329D01*
X11036736Y-13496329D02*
X11046259Y-13477281D01*
X11046259Y-13477281D02*
X11055783Y-13448710D01*
X11055783Y-13448710D02*
X11065307Y-13401091D01*
X11065307Y-13401091D02*
X11065307Y-13362996D01*
X11065307Y-13362996D02*
X11055783Y-13315377D01*
X11055783Y-13315377D02*
X11046259Y-13286805D01*
X11046259Y-13286805D02*
X11036736Y-13267758D01*
X11036736Y-13267758D02*
X11017688Y-13239186D01*
X11017688Y-13239186D02*
X11008164Y-13229662D01*
D12*
X5992625Y-13580750D02*
X5992625Y-13680750D01*
X5942625Y-13630750D02*
X6042625Y-13630750D01*
D11*
X6408164Y-13722234D02*
X6293878Y-13722234D01*
X6351021Y-13722234D02*
X6351021Y-13522234D01*
X6351021Y-13522234D02*
X6331973Y-13550805D01*
X6331973Y-13550805D02*
X6312926Y-13569853D01*
X6312926Y-13569853D02*
X6293878Y-13579377D01*
X6493878Y-13703186D02*
X6503402Y-13712710D01*
X6503402Y-13712710D02*
X6493878Y-13722234D01*
X6493878Y-13722234D02*
X6484354Y-13712710D01*
X6484354Y-13712710D02*
X6493878Y-13703186D01*
X6493878Y-13703186D02*
X6493878Y-13722234D01*
X6627211Y-13522234D02*
X6646259Y-13522234D01*
X6646259Y-13522234D02*
X6665307Y-13531758D01*
X6665307Y-13531758D02*
X6674830Y-13541281D01*
X6674830Y-13541281D02*
X6684354Y-13560329D01*
X6684354Y-13560329D02*
X6693878Y-13598424D01*
X6693878Y-13598424D02*
X6693878Y-13646043D01*
X6693878Y-13646043D02*
X6684354Y-13684138D01*
X6684354Y-13684138D02*
X6674830Y-13703186D01*
X6674830Y-13703186D02*
X6665307Y-13712710D01*
X6665307Y-13712710D02*
X6646259Y-13722234D01*
X6646259Y-13722234D02*
X6627211Y-13722234D01*
X6627211Y-13722234D02*
X6608164Y-13712710D01*
X6608164Y-13712710D02*
X6598640Y-13703186D01*
X6598640Y-13703186D02*
X6589116Y-13684138D01*
X6589116Y-13684138D02*
X6579592Y-13646043D01*
X6579592Y-13646043D02*
X6579592Y-13598424D01*
X6579592Y-13598424D02*
X6589116Y-13560329D01*
X6589116Y-13560329D02*
X6598640Y-13541281D01*
X6598640Y-13541281D02*
X6608164Y-13531758D01*
X6608164Y-13531758D02*
X6627211Y-13522234D01*
X6817687Y-13522234D02*
X6836735Y-13522234D01*
X6836735Y-13522234D02*
X6855783Y-13531758D01*
X6855783Y-13531758D02*
X6865307Y-13541281D01*
X6865307Y-13541281D02*
X6874830Y-13560329D01*
X6874830Y-13560329D02*
X6884354Y-13598424D01*
X6884354Y-13598424D02*
X6884354Y-13646043D01*
X6884354Y-13646043D02*
X6874830Y-13684138D01*
X6874830Y-13684138D02*
X6865307Y-13703186D01*
X6865307Y-13703186D02*
X6855783Y-13712710D01*
X6855783Y-13712710D02*
X6836735Y-13722234D01*
X6836735Y-13722234D02*
X6817687Y-13722234D01*
X6817687Y-13722234D02*
X6798640Y-13712710D01*
X6798640Y-13712710D02*
X6789116Y-13703186D01*
X6789116Y-13703186D02*
X6779592Y-13684138D01*
X6779592Y-13684138D02*
X6770068Y-13646043D01*
X6770068Y-13646043D02*
X6770068Y-13598424D01*
X6770068Y-13598424D02*
X6779592Y-13560329D01*
X6779592Y-13560329D02*
X6789116Y-13541281D01*
X6789116Y-13541281D02*
X6798640Y-13531758D01*
X6798640Y-13531758D02*
X6817687Y-13522234D01*
X7008164Y-13522234D02*
X7027211Y-13522234D01*
X7027211Y-13522234D02*
X7046259Y-13531758D01*
X7046259Y-13531758D02*
X7055783Y-13541281D01*
X7055783Y-13541281D02*
X7065307Y-13560329D01*
X7065307Y-13560329D02*
X7074830Y-13598424D01*
X7074830Y-13598424D02*
X7074830Y-13646043D01*
X7074830Y-13646043D02*
X7065307Y-13684138D01*
X7065307Y-13684138D02*
X7055783Y-13703186D01*
X7055783Y-13703186D02*
X7046259Y-13712710D01*
X7046259Y-13712710D02*
X7027211Y-13722234D01*
X7027211Y-13722234D02*
X7008164Y-13722234D01*
X7008164Y-13722234D02*
X6989116Y-13712710D01*
X6989116Y-13712710D02*
X6979592Y-13703186D01*
X6979592Y-13703186D02*
X6970068Y-13684138D01*
X6970068Y-13684138D02*
X6960545Y-13646043D01*
X6960545Y-13646043D02*
X6960545Y-13598424D01*
X6960545Y-13598424D02*
X6970068Y-13560329D01*
X6970068Y-13560329D02*
X6979592Y-13541281D01*
X6979592Y-13541281D02*
X6989116Y-13531758D01*
X6989116Y-13531758D02*
X7008164Y-13522234D01*
X7160545Y-13722234D02*
X7160545Y-13588900D01*
X7160545Y-13607948D02*
X7170068Y-13598424D01*
X7170068Y-13598424D02*
X7189116Y-13588900D01*
X7189116Y-13588900D02*
X7217688Y-13588900D01*
X7217688Y-13588900D02*
X7236735Y-13598424D01*
X7236735Y-13598424D02*
X7246259Y-13617472D01*
X7246259Y-13617472D02*
X7246259Y-13722234D01*
X7246259Y-13617472D02*
X7255783Y-13598424D01*
X7255783Y-13598424D02*
X7274830Y-13588900D01*
X7274830Y-13588900D02*
X7303402Y-13588900D01*
X7303402Y-13588900D02*
X7322449Y-13598424D01*
X7322449Y-13598424D02*
X7331973Y-13617472D01*
X7331973Y-13617472D02*
X7331973Y-13722234D01*
X7427211Y-13722234D02*
X7427211Y-13588900D01*
X7427211Y-13607948D02*
X7436735Y-13598424D01*
X7436735Y-13598424D02*
X7455783Y-13588900D01*
X7455783Y-13588900D02*
X7484354Y-13588900D01*
X7484354Y-13588900D02*
X7503402Y-13598424D01*
X7503402Y-13598424D02*
X7512926Y-13617472D01*
X7512926Y-13617472D02*
X7512926Y-13722234D01*
X7512926Y-13617472D02*
X7522449Y-13598424D01*
X7522449Y-13598424D02*
X7541497Y-13588900D01*
X7541497Y-13588900D02*
X7570068Y-13588900D01*
X7570068Y-13588900D02*
X7589116Y-13598424D01*
X7589116Y-13598424D02*
X7598640Y-13617472D01*
X7598640Y-13617472D02*
X7598640Y-13722234D01*
X7989116Y-13512710D02*
X7817688Y-13769853D01*
X8246259Y-13522234D02*
X8265307Y-13522234D01*
X8265307Y-13522234D02*
X8284354Y-13531758D01*
X8284354Y-13531758D02*
X8293878Y-13541281D01*
X8293878Y-13541281D02*
X8303402Y-13560329D01*
X8303402Y-13560329D02*
X8312926Y-13598424D01*
X8312926Y-13598424D02*
X8312926Y-13646043D01*
X8312926Y-13646043D02*
X8303402Y-13684138D01*
X8303402Y-13684138D02*
X8293878Y-13703186D01*
X8293878Y-13703186D02*
X8284354Y-13712710D01*
X8284354Y-13712710D02*
X8265307Y-13722234D01*
X8265307Y-13722234D02*
X8246259Y-13722234D01*
X8246259Y-13722234D02*
X8227211Y-13712710D01*
X8227211Y-13712710D02*
X8217688Y-13703186D01*
X8217688Y-13703186D02*
X8208164Y-13684138D01*
X8208164Y-13684138D02*
X8198640Y-13646043D01*
X8198640Y-13646043D02*
X8198640Y-13598424D01*
X8198640Y-13598424D02*
X8208164Y-13560329D01*
X8208164Y-13560329D02*
X8217688Y-13541281D01*
X8217688Y-13541281D02*
X8227211Y-13531758D01*
X8227211Y-13531758D02*
X8246259Y-13522234D01*
X8398640Y-13703186D02*
X8408164Y-13712710D01*
X8408164Y-13712710D02*
X8398640Y-13722234D01*
X8398640Y-13722234D02*
X8389116Y-13712710D01*
X8389116Y-13712710D02*
X8398640Y-13703186D01*
X8398640Y-13703186D02*
X8398640Y-13722234D01*
X8531973Y-13522234D02*
X8551021Y-13522234D01*
X8551021Y-13522234D02*
X8570069Y-13531758D01*
X8570069Y-13531758D02*
X8579593Y-13541281D01*
X8579593Y-13541281D02*
X8589116Y-13560329D01*
X8589116Y-13560329D02*
X8598640Y-13598424D01*
X8598640Y-13598424D02*
X8598640Y-13646043D01*
X8598640Y-13646043D02*
X8589116Y-13684138D01*
X8589116Y-13684138D02*
X8579593Y-13703186D01*
X8579593Y-13703186D02*
X8570069Y-13712710D01*
X8570069Y-13712710D02*
X8551021Y-13722234D01*
X8551021Y-13722234D02*
X8531973Y-13722234D01*
X8531973Y-13722234D02*
X8512926Y-13712710D01*
X8512926Y-13712710D02*
X8503402Y-13703186D01*
X8503402Y-13703186D02*
X8493878Y-13684138D01*
X8493878Y-13684138D02*
X8484354Y-13646043D01*
X8484354Y-13646043D02*
X8484354Y-13598424D01*
X8484354Y-13598424D02*
X8493878Y-13560329D01*
X8493878Y-13560329D02*
X8503402Y-13541281D01*
X8503402Y-13541281D02*
X8512926Y-13531758D01*
X8512926Y-13531758D02*
X8531973Y-13522234D01*
X8665307Y-13522234D02*
X8789116Y-13522234D01*
X8789116Y-13522234D02*
X8722450Y-13598424D01*
X8722450Y-13598424D02*
X8751021Y-13598424D01*
X8751021Y-13598424D02*
X8770069Y-13607948D01*
X8770069Y-13607948D02*
X8779593Y-13617472D01*
X8779593Y-13617472D02*
X8789116Y-13636519D01*
X8789116Y-13636519D02*
X8789116Y-13684138D01*
X8789116Y-13684138D02*
X8779593Y-13703186D01*
X8779593Y-13703186D02*
X8770069Y-13712710D01*
X8770069Y-13712710D02*
X8751021Y-13722234D01*
X8751021Y-13722234D02*
X8693878Y-13722234D01*
X8693878Y-13722234D02*
X8674831Y-13712710D01*
X8674831Y-13712710D02*
X8665307Y-13703186D01*
X8884354Y-13722234D02*
X8922450Y-13722234D01*
X8922450Y-13722234D02*
X8941497Y-13712710D01*
X8941497Y-13712710D02*
X8951021Y-13703186D01*
X8951021Y-13703186D02*
X8970069Y-13674615D01*
X8970069Y-13674615D02*
X8979593Y-13636519D01*
X8979593Y-13636519D02*
X8979593Y-13560329D01*
X8979593Y-13560329D02*
X8970069Y-13541281D01*
X8970069Y-13541281D02*
X8960545Y-13531758D01*
X8960545Y-13531758D02*
X8941497Y-13522234D01*
X8941497Y-13522234D02*
X8903402Y-13522234D01*
X8903402Y-13522234D02*
X8884354Y-13531758D01*
X8884354Y-13531758D02*
X8874831Y-13541281D01*
X8874831Y-13541281D02*
X8865307Y-13560329D01*
X8865307Y-13560329D02*
X8865307Y-13607948D01*
X8865307Y-13607948D02*
X8874831Y-13626996D01*
X8874831Y-13626996D02*
X8884354Y-13636519D01*
X8884354Y-13636519D02*
X8903402Y-13646043D01*
X8903402Y-13646043D02*
X8941497Y-13646043D01*
X8941497Y-13646043D02*
X8960545Y-13636519D01*
X8960545Y-13636519D02*
X8970069Y-13626996D01*
X8970069Y-13626996D02*
X8979593Y-13607948D01*
X9151021Y-13588900D02*
X9151021Y-13722234D01*
X9103402Y-13512710D02*
X9055783Y-13655567D01*
X9055783Y-13655567D02*
X9179593Y-13655567D01*
X9246259Y-13522234D02*
X9246259Y-13560329D01*
X9322450Y-13522234D02*
X9322450Y-13560329D01*
X9617688Y-13798424D02*
X9608164Y-13788900D01*
X9608164Y-13788900D02*
X9589116Y-13760329D01*
X9589116Y-13760329D02*
X9579593Y-13741281D01*
X9579593Y-13741281D02*
X9570069Y-13712710D01*
X9570069Y-13712710D02*
X9560545Y-13665091D01*
X9560545Y-13665091D02*
X9560545Y-13626996D01*
X9560545Y-13626996D02*
X9570069Y-13579377D01*
X9570069Y-13579377D02*
X9579593Y-13550805D01*
X9579593Y-13550805D02*
X9589116Y-13531758D01*
X9589116Y-13531758D02*
X9608164Y-13503186D01*
X9608164Y-13503186D02*
X9617688Y-13493662D01*
X9674831Y-13522234D02*
X9798640Y-13522234D01*
X9798640Y-13522234D02*
X9731974Y-13598424D01*
X9731974Y-13598424D02*
X9760545Y-13598424D01*
X9760545Y-13598424D02*
X9779593Y-13607948D01*
X9779593Y-13607948D02*
X9789116Y-13617472D01*
X9789116Y-13617472D02*
X9798640Y-13636519D01*
X9798640Y-13636519D02*
X9798640Y-13684138D01*
X9798640Y-13684138D02*
X9789116Y-13703186D01*
X9789116Y-13703186D02*
X9779593Y-13712710D01*
X9779593Y-13712710D02*
X9760545Y-13722234D01*
X9760545Y-13722234D02*
X9703402Y-13722234D01*
X9703402Y-13722234D02*
X9684355Y-13712710D01*
X9684355Y-13712710D02*
X9674831Y-13703186D01*
X9874831Y-13541281D02*
X9884355Y-13531758D01*
X9884355Y-13531758D02*
X9903402Y-13522234D01*
X9903402Y-13522234D02*
X9951021Y-13522234D01*
X9951021Y-13522234D02*
X9970069Y-13531758D01*
X9970069Y-13531758D02*
X9979593Y-13541281D01*
X9979593Y-13541281D02*
X9989116Y-13560329D01*
X9989116Y-13560329D02*
X9989116Y-13579377D01*
X9989116Y-13579377D02*
X9979593Y-13607948D01*
X9979593Y-13607948D02*
X9865307Y-13722234D01*
X9865307Y-13722234D02*
X9989116Y-13722234D01*
X10227212Y-13722234D02*
X10227212Y-13522234D01*
X10312926Y-13722234D02*
X10312926Y-13617472D01*
X10312926Y-13617472D02*
X10303402Y-13598424D01*
X10303402Y-13598424D02*
X10284355Y-13588900D01*
X10284355Y-13588900D02*
X10255783Y-13588900D01*
X10255783Y-13588900D02*
X10236736Y-13598424D01*
X10236736Y-13598424D02*
X10227212Y-13607948D01*
X10436736Y-13722234D02*
X10417688Y-13712710D01*
X10417688Y-13712710D02*
X10408164Y-13703186D01*
X10408164Y-13703186D02*
X10398640Y-13684138D01*
X10398640Y-13684138D02*
X10398640Y-13626996D01*
X10398640Y-13626996D02*
X10408164Y-13607948D01*
X10408164Y-13607948D02*
X10417688Y-13598424D01*
X10417688Y-13598424D02*
X10436736Y-13588900D01*
X10436736Y-13588900D02*
X10465307Y-13588900D01*
X10465307Y-13588900D02*
X10484355Y-13598424D01*
X10484355Y-13598424D02*
X10493878Y-13607948D01*
X10493878Y-13607948D02*
X10503402Y-13626996D01*
X10503402Y-13626996D02*
X10503402Y-13684138D01*
X10503402Y-13684138D02*
X10493878Y-13703186D01*
X10493878Y-13703186D02*
X10484355Y-13712710D01*
X10484355Y-13712710D02*
X10465307Y-13722234D01*
X10465307Y-13722234D02*
X10436736Y-13722234D01*
X10617688Y-13722234D02*
X10598640Y-13712710D01*
X10598640Y-13712710D02*
X10589117Y-13693662D01*
X10589117Y-13693662D02*
X10589117Y-13522234D01*
X10770069Y-13712710D02*
X10751021Y-13722234D01*
X10751021Y-13722234D02*
X10712926Y-13722234D01*
X10712926Y-13722234D02*
X10693878Y-13712710D01*
X10693878Y-13712710D02*
X10684355Y-13693662D01*
X10684355Y-13693662D02*
X10684355Y-13617472D01*
X10684355Y-13617472D02*
X10693878Y-13598424D01*
X10693878Y-13598424D02*
X10712926Y-13588900D01*
X10712926Y-13588900D02*
X10751021Y-13588900D01*
X10751021Y-13588900D02*
X10770069Y-13598424D01*
X10770069Y-13598424D02*
X10779593Y-13617472D01*
X10779593Y-13617472D02*
X10779593Y-13636519D01*
X10779593Y-13636519D02*
X10684355Y-13655567D01*
X10855783Y-13712710D02*
X10874831Y-13722234D01*
X10874831Y-13722234D02*
X10912926Y-13722234D01*
X10912926Y-13722234D02*
X10931974Y-13712710D01*
X10931974Y-13712710D02*
X10941498Y-13693662D01*
X10941498Y-13693662D02*
X10941498Y-13684138D01*
X10941498Y-13684138D02*
X10931974Y-13665091D01*
X10931974Y-13665091D02*
X10912926Y-13655567D01*
X10912926Y-13655567D02*
X10884355Y-13655567D01*
X10884355Y-13655567D02*
X10865307Y-13646043D01*
X10865307Y-13646043D02*
X10855783Y-13626996D01*
X10855783Y-13626996D02*
X10855783Y-13617472D01*
X10855783Y-13617472D02*
X10865307Y-13598424D01*
X10865307Y-13598424D02*
X10884355Y-13588900D01*
X10884355Y-13588900D02*
X10912926Y-13588900D01*
X10912926Y-13588900D02*
X10931974Y-13598424D01*
X11008164Y-13798424D02*
X11017688Y-13788900D01*
X11017688Y-13788900D02*
X11036736Y-13760329D01*
X11036736Y-13760329D02*
X11046259Y-13741281D01*
X11046259Y-13741281D02*
X11055783Y-13712710D01*
X11055783Y-13712710D02*
X11065307Y-13665091D01*
X11065307Y-13665091D02*
X11065307Y-13626996D01*
X11065307Y-13626996D02*
X11055783Y-13579377D01*
X11055783Y-13579377D02*
X11046259Y-13550805D01*
X11046259Y-13550805D02*
X11036736Y-13531758D01*
X11036736Y-13531758D02*
X11017688Y-13503186D01*
X11017688Y-13503186D02*
X11008164Y-13493662D01*
D13*
X6020658Y-13947783D02*
X6020658Y-13841716D01*
X5914591Y-13841716D01*
X5914591Y-13947783D01*
X6020658Y-13947783D01*
D11*
X6408164Y-13986234D02*
X6293878Y-13986234D01*
X6351021Y-13986234D02*
X6351021Y-13786234D01*
X6351021Y-13786234D02*
X6331973Y-13814805D01*
X6331973Y-13814805D02*
X6312926Y-13833853D01*
X6312926Y-13833853D02*
X6293878Y-13843377D01*
X6493878Y-13967186D02*
X6503402Y-13976710D01*
X6503402Y-13976710D02*
X6493878Y-13986234D01*
X6493878Y-13986234D02*
X6484354Y-13976710D01*
X6484354Y-13976710D02*
X6493878Y-13967186D01*
X6493878Y-13967186D02*
X6493878Y-13986234D01*
X6684354Y-13786234D02*
X6589116Y-13786234D01*
X6589116Y-13786234D02*
X6579592Y-13881472D01*
X6579592Y-13881472D02*
X6589116Y-13871948D01*
X6589116Y-13871948D02*
X6608164Y-13862424D01*
X6608164Y-13862424D02*
X6655783Y-13862424D01*
X6655783Y-13862424D02*
X6674830Y-13871948D01*
X6674830Y-13871948D02*
X6684354Y-13881472D01*
X6684354Y-13881472D02*
X6693878Y-13900519D01*
X6693878Y-13900519D02*
X6693878Y-13948138D01*
X6693878Y-13948138D02*
X6684354Y-13967186D01*
X6684354Y-13967186D02*
X6674830Y-13976710D01*
X6674830Y-13976710D02*
X6655783Y-13986234D01*
X6655783Y-13986234D02*
X6608164Y-13986234D01*
X6608164Y-13986234D02*
X6589116Y-13976710D01*
X6589116Y-13976710D02*
X6579592Y-13967186D01*
X6817687Y-13786234D02*
X6836735Y-13786234D01*
X6836735Y-13786234D02*
X6855783Y-13795758D01*
X6855783Y-13795758D02*
X6865307Y-13805281D01*
X6865307Y-13805281D02*
X6874830Y-13824329D01*
X6874830Y-13824329D02*
X6884354Y-13862424D01*
X6884354Y-13862424D02*
X6884354Y-13910043D01*
X6884354Y-13910043D02*
X6874830Y-13948138D01*
X6874830Y-13948138D02*
X6865307Y-13967186D01*
X6865307Y-13967186D02*
X6855783Y-13976710D01*
X6855783Y-13976710D02*
X6836735Y-13986234D01*
X6836735Y-13986234D02*
X6817687Y-13986234D01*
X6817687Y-13986234D02*
X6798640Y-13976710D01*
X6798640Y-13976710D02*
X6789116Y-13967186D01*
X6789116Y-13967186D02*
X6779592Y-13948138D01*
X6779592Y-13948138D02*
X6770068Y-13910043D01*
X6770068Y-13910043D02*
X6770068Y-13862424D01*
X6770068Y-13862424D02*
X6779592Y-13824329D01*
X6779592Y-13824329D02*
X6789116Y-13805281D01*
X6789116Y-13805281D02*
X6798640Y-13795758D01*
X6798640Y-13795758D02*
X6817687Y-13786234D01*
X7008164Y-13786234D02*
X7027211Y-13786234D01*
X7027211Y-13786234D02*
X7046259Y-13795758D01*
X7046259Y-13795758D02*
X7055783Y-13805281D01*
X7055783Y-13805281D02*
X7065307Y-13824329D01*
X7065307Y-13824329D02*
X7074830Y-13862424D01*
X7074830Y-13862424D02*
X7074830Y-13910043D01*
X7074830Y-13910043D02*
X7065307Y-13948138D01*
X7065307Y-13948138D02*
X7055783Y-13967186D01*
X7055783Y-13967186D02*
X7046259Y-13976710D01*
X7046259Y-13976710D02*
X7027211Y-13986234D01*
X7027211Y-13986234D02*
X7008164Y-13986234D01*
X7008164Y-13986234D02*
X6989116Y-13976710D01*
X6989116Y-13976710D02*
X6979592Y-13967186D01*
X6979592Y-13967186D02*
X6970068Y-13948138D01*
X6970068Y-13948138D02*
X6960545Y-13910043D01*
X6960545Y-13910043D02*
X6960545Y-13862424D01*
X6960545Y-13862424D02*
X6970068Y-13824329D01*
X6970068Y-13824329D02*
X6979592Y-13805281D01*
X6979592Y-13805281D02*
X6989116Y-13795758D01*
X6989116Y-13795758D02*
X7008164Y-13786234D01*
X7160545Y-13986234D02*
X7160545Y-13852900D01*
X7160545Y-13871948D02*
X7170068Y-13862424D01*
X7170068Y-13862424D02*
X7189116Y-13852900D01*
X7189116Y-13852900D02*
X7217688Y-13852900D01*
X7217688Y-13852900D02*
X7236735Y-13862424D01*
X7236735Y-13862424D02*
X7246259Y-13881472D01*
X7246259Y-13881472D02*
X7246259Y-13986234D01*
X7246259Y-13881472D02*
X7255783Y-13862424D01*
X7255783Y-13862424D02*
X7274830Y-13852900D01*
X7274830Y-13852900D02*
X7303402Y-13852900D01*
X7303402Y-13852900D02*
X7322449Y-13862424D01*
X7322449Y-13862424D02*
X7331973Y-13881472D01*
X7331973Y-13881472D02*
X7331973Y-13986234D01*
X7427211Y-13986234D02*
X7427211Y-13852900D01*
X7427211Y-13871948D02*
X7436735Y-13862424D01*
X7436735Y-13862424D02*
X7455783Y-13852900D01*
X7455783Y-13852900D02*
X7484354Y-13852900D01*
X7484354Y-13852900D02*
X7503402Y-13862424D01*
X7503402Y-13862424D02*
X7512926Y-13881472D01*
X7512926Y-13881472D02*
X7512926Y-13986234D01*
X7512926Y-13881472D02*
X7522449Y-13862424D01*
X7522449Y-13862424D02*
X7541497Y-13852900D01*
X7541497Y-13852900D02*
X7570068Y-13852900D01*
X7570068Y-13852900D02*
X7589116Y-13862424D01*
X7589116Y-13862424D02*
X7598640Y-13881472D01*
X7598640Y-13881472D02*
X7598640Y-13986234D01*
X7989116Y-13776710D02*
X7817688Y-14033853D01*
X8246259Y-13786234D02*
X8265307Y-13786234D01*
X8265307Y-13786234D02*
X8284354Y-13795758D01*
X8284354Y-13795758D02*
X8293878Y-13805281D01*
X8293878Y-13805281D02*
X8303402Y-13824329D01*
X8303402Y-13824329D02*
X8312926Y-13862424D01*
X8312926Y-13862424D02*
X8312926Y-13910043D01*
X8312926Y-13910043D02*
X8303402Y-13948138D01*
X8303402Y-13948138D02*
X8293878Y-13967186D01*
X8293878Y-13967186D02*
X8284354Y-13976710D01*
X8284354Y-13976710D02*
X8265307Y-13986234D01*
X8265307Y-13986234D02*
X8246259Y-13986234D01*
X8246259Y-13986234D02*
X8227211Y-13976710D01*
X8227211Y-13976710D02*
X8217688Y-13967186D01*
X8217688Y-13967186D02*
X8208164Y-13948138D01*
X8208164Y-13948138D02*
X8198640Y-13910043D01*
X8198640Y-13910043D02*
X8198640Y-13862424D01*
X8198640Y-13862424D02*
X8208164Y-13824329D01*
X8208164Y-13824329D02*
X8217688Y-13805281D01*
X8217688Y-13805281D02*
X8227211Y-13795758D01*
X8227211Y-13795758D02*
X8246259Y-13786234D01*
X8398640Y-13967186D02*
X8408164Y-13976710D01*
X8408164Y-13976710D02*
X8398640Y-13986234D01*
X8398640Y-13986234D02*
X8389116Y-13976710D01*
X8389116Y-13976710D02*
X8398640Y-13967186D01*
X8398640Y-13967186D02*
X8398640Y-13986234D01*
X8531973Y-13786234D02*
X8551021Y-13786234D01*
X8551021Y-13786234D02*
X8570069Y-13795758D01*
X8570069Y-13795758D02*
X8579593Y-13805281D01*
X8579593Y-13805281D02*
X8589116Y-13824329D01*
X8589116Y-13824329D02*
X8598640Y-13862424D01*
X8598640Y-13862424D02*
X8598640Y-13910043D01*
X8598640Y-13910043D02*
X8589116Y-13948138D01*
X8589116Y-13948138D02*
X8579593Y-13967186D01*
X8579593Y-13967186D02*
X8570069Y-13976710D01*
X8570069Y-13976710D02*
X8551021Y-13986234D01*
X8551021Y-13986234D02*
X8531973Y-13986234D01*
X8531973Y-13986234D02*
X8512926Y-13976710D01*
X8512926Y-13976710D02*
X8503402Y-13967186D01*
X8503402Y-13967186D02*
X8493878Y-13948138D01*
X8493878Y-13948138D02*
X8484354Y-13910043D01*
X8484354Y-13910043D02*
X8484354Y-13862424D01*
X8484354Y-13862424D02*
X8493878Y-13824329D01*
X8493878Y-13824329D02*
X8503402Y-13805281D01*
X8503402Y-13805281D02*
X8512926Y-13795758D01*
X8512926Y-13795758D02*
X8531973Y-13786234D01*
X8779593Y-13786234D02*
X8684354Y-13786234D01*
X8684354Y-13786234D02*
X8674831Y-13881472D01*
X8674831Y-13881472D02*
X8684354Y-13871948D01*
X8684354Y-13871948D02*
X8703402Y-13862424D01*
X8703402Y-13862424D02*
X8751021Y-13862424D01*
X8751021Y-13862424D02*
X8770069Y-13871948D01*
X8770069Y-13871948D02*
X8779593Y-13881472D01*
X8779593Y-13881472D02*
X8789116Y-13900519D01*
X8789116Y-13900519D02*
X8789116Y-13948138D01*
X8789116Y-13948138D02*
X8779593Y-13967186D01*
X8779593Y-13967186D02*
X8770069Y-13976710D01*
X8770069Y-13976710D02*
X8751021Y-13986234D01*
X8751021Y-13986234D02*
X8703402Y-13986234D01*
X8703402Y-13986234D02*
X8684354Y-13976710D01*
X8684354Y-13976710D02*
X8674831Y-13967186D01*
X8884354Y-13986234D02*
X8922450Y-13986234D01*
X8922450Y-13986234D02*
X8941497Y-13976710D01*
X8941497Y-13976710D02*
X8951021Y-13967186D01*
X8951021Y-13967186D02*
X8970069Y-13938615D01*
X8970069Y-13938615D02*
X8979593Y-13900519D01*
X8979593Y-13900519D02*
X8979593Y-13824329D01*
X8979593Y-13824329D02*
X8970069Y-13805281D01*
X8970069Y-13805281D02*
X8960545Y-13795758D01*
X8960545Y-13795758D02*
X8941497Y-13786234D01*
X8941497Y-13786234D02*
X8903402Y-13786234D01*
X8903402Y-13786234D02*
X8884354Y-13795758D01*
X8884354Y-13795758D02*
X8874831Y-13805281D01*
X8874831Y-13805281D02*
X8865307Y-13824329D01*
X8865307Y-13824329D02*
X8865307Y-13871948D01*
X8865307Y-13871948D02*
X8874831Y-13890996D01*
X8874831Y-13890996D02*
X8884354Y-13900519D01*
X8884354Y-13900519D02*
X8903402Y-13910043D01*
X8903402Y-13910043D02*
X8941497Y-13910043D01*
X8941497Y-13910043D02*
X8960545Y-13900519D01*
X8960545Y-13900519D02*
X8970069Y-13890996D01*
X8970069Y-13890996D02*
X8979593Y-13871948D01*
X9170069Y-13986234D02*
X9055783Y-13986234D01*
X9112926Y-13986234D02*
X9112926Y-13786234D01*
X9112926Y-13786234D02*
X9093878Y-13814805D01*
X9093878Y-13814805D02*
X9074831Y-13833853D01*
X9074831Y-13833853D02*
X9055783Y-13843377D01*
X9246259Y-13786234D02*
X9246259Y-13824329D01*
X9322450Y-13786234D02*
X9322450Y-13824329D01*
X9617688Y-14062424D02*
X9608164Y-14052900D01*
X9608164Y-14052900D02*
X9589116Y-14024329D01*
X9589116Y-14024329D02*
X9579593Y-14005281D01*
X9579593Y-14005281D02*
X9570069Y-13976710D01*
X9570069Y-13976710D02*
X9560545Y-13929091D01*
X9560545Y-13929091D02*
X9560545Y-13890996D01*
X9560545Y-13890996D02*
X9570069Y-13843377D01*
X9570069Y-13843377D02*
X9579593Y-13814805D01*
X9579593Y-13814805D02*
X9589116Y-13795758D01*
X9589116Y-13795758D02*
X9608164Y-13767186D01*
X9608164Y-13767186D02*
X9617688Y-13757662D01*
X9798640Y-13986234D02*
X9684355Y-13986234D01*
X9741497Y-13986234D02*
X9741497Y-13786234D01*
X9741497Y-13786234D02*
X9722450Y-13814805D01*
X9722450Y-13814805D02*
X9703402Y-13833853D01*
X9703402Y-13833853D02*
X9684355Y-13843377D01*
X9912926Y-13871948D02*
X9893878Y-13862424D01*
X9893878Y-13862424D02*
X9884355Y-13852900D01*
X9884355Y-13852900D02*
X9874831Y-13833853D01*
X9874831Y-13833853D02*
X9874831Y-13824329D01*
X9874831Y-13824329D02*
X9884355Y-13805281D01*
X9884355Y-13805281D02*
X9893878Y-13795758D01*
X9893878Y-13795758D02*
X9912926Y-13786234D01*
X9912926Y-13786234D02*
X9951021Y-13786234D01*
X9951021Y-13786234D02*
X9970069Y-13795758D01*
X9970069Y-13795758D02*
X9979593Y-13805281D01*
X9979593Y-13805281D02*
X9989116Y-13824329D01*
X9989116Y-13824329D02*
X9989116Y-13833853D01*
X9989116Y-13833853D02*
X9979593Y-13852900D01*
X9979593Y-13852900D02*
X9970069Y-13862424D01*
X9970069Y-13862424D02*
X9951021Y-13871948D01*
X9951021Y-13871948D02*
X9912926Y-13871948D01*
X9912926Y-13871948D02*
X9893878Y-13881472D01*
X9893878Y-13881472D02*
X9884355Y-13890996D01*
X9884355Y-13890996D02*
X9874831Y-13910043D01*
X9874831Y-13910043D02*
X9874831Y-13948138D01*
X9874831Y-13948138D02*
X9884355Y-13967186D01*
X9884355Y-13967186D02*
X9893878Y-13976710D01*
X9893878Y-13976710D02*
X9912926Y-13986234D01*
X9912926Y-13986234D02*
X9951021Y-13986234D01*
X9951021Y-13986234D02*
X9970069Y-13976710D01*
X9970069Y-13976710D02*
X9979593Y-13967186D01*
X9979593Y-13967186D02*
X9989116Y-13948138D01*
X9989116Y-13948138D02*
X9989116Y-13910043D01*
X9989116Y-13910043D02*
X9979593Y-13890996D01*
X9979593Y-13890996D02*
X9970069Y-13881472D01*
X9970069Y-13881472D02*
X9951021Y-13871948D01*
X10227212Y-13986234D02*
X10227212Y-13786234D01*
X10312926Y-13986234D02*
X10312926Y-13881472D01*
X10312926Y-13881472D02*
X10303402Y-13862424D01*
X10303402Y-13862424D02*
X10284355Y-13852900D01*
X10284355Y-13852900D02*
X10255783Y-13852900D01*
X10255783Y-13852900D02*
X10236736Y-13862424D01*
X10236736Y-13862424D02*
X10227212Y-13871948D01*
X10436736Y-13986234D02*
X10417688Y-13976710D01*
X10417688Y-13976710D02*
X10408164Y-13967186D01*
X10408164Y-13967186D02*
X10398640Y-13948138D01*
X10398640Y-13948138D02*
X10398640Y-13890996D01*
X10398640Y-13890996D02*
X10408164Y-13871948D01*
X10408164Y-13871948D02*
X10417688Y-13862424D01*
X10417688Y-13862424D02*
X10436736Y-13852900D01*
X10436736Y-13852900D02*
X10465307Y-13852900D01*
X10465307Y-13852900D02*
X10484355Y-13862424D01*
X10484355Y-13862424D02*
X10493878Y-13871948D01*
X10493878Y-13871948D02*
X10503402Y-13890996D01*
X10503402Y-13890996D02*
X10503402Y-13948138D01*
X10503402Y-13948138D02*
X10493878Y-13967186D01*
X10493878Y-13967186D02*
X10484355Y-13976710D01*
X10484355Y-13976710D02*
X10465307Y-13986234D01*
X10465307Y-13986234D02*
X10436736Y-13986234D01*
X10617688Y-13986234D02*
X10598640Y-13976710D01*
X10598640Y-13976710D02*
X10589117Y-13957662D01*
X10589117Y-13957662D02*
X10589117Y-13786234D01*
X10770069Y-13976710D02*
X10751021Y-13986234D01*
X10751021Y-13986234D02*
X10712926Y-13986234D01*
X10712926Y-13986234D02*
X10693878Y-13976710D01*
X10693878Y-13976710D02*
X10684355Y-13957662D01*
X10684355Y-13957662D02*
X10684355Y-13881472D01*
X10684355Y-13881472D02*
X10693878Y-13862424D01*
X10693878Y-13862424D02*
X10712926Y-13852900D01*
X10712926Y-13852900D02*
X10751021Y-13852900D01*
X10751021Y-13852900D02*
X10770069Y-13862424D01*
X10770069Y-13862424D02*
X10779593Y-13881472D01*
X10779593Y-13881472D02*
X10779593Y-13900519D01*
X10779593Y-13900519D02*
X10684355Y-13919567D01*
X10855783Y-13976710D02*
X10874831Y-13986234D01*
X10874831Y-13986234D02*
X10912926Y-13986234D01*
X10912926Y-13986234D02*
X10931974Y-13976710D01*
X10931974Y-13976710D02*
X10941498Y-13957662D01*
X10941498Y-13957662D02*
X10941498Y-13948138D01*
X10941498Y-13948138D02*
X10931974Y-13929091D01*
X10931974Y-13929091D02*
X10912926Y-13919567D01*
X10912926Y-13919567D02*
X10884355Y-13919567D01*
X10884355Y-13919567D02*
X10865307Y-13910043D01*
X10865307Y-13910043D02*
X10855783Y-13890996D01*
X10855783Y-13890996D02*
X10855783Y-13881472D01*
X10855783Y-13881472D02*
X10865307Y-13862424D01*
X10865307Y-13862424D02*
X10884355Y-13852900D01*
X10884355Y-13852900D02*
X10912926Y-13852900D01*
X10912926Y-13852900D02*
X10931974Y-13862424D01*
X11179593Y-13910043D02*
X11331974Y-13910043D01*
X11255783Y-13986234D02*
X11255783Y-13833853D01*
X11570069Y-13805281D02*
X11579593Y-13795758D01*
X11579593Y-13795758D02*
X11598640Y-13786234D01*
X11598640Y-13786234D02*
X11646259Y-13786234D01*
X11646259Y-13786234D02*
X11665307Y-13795758D01*
X11665307Y-13795758D02*
X11674831Y-13805281D01*
X11674831Y-13805281D02*
X11684355Y-13824329D01*
X11684355Y-13824329D02*
X11684355Y-13843377D01*
X11684355Y-13843377D02*
X11674831Y-13871948D01*
X11674831Y-13871948D02*
X11560545Y-13986234D01*
X11560545Y-13986234D02*
X11684355Y-13986234D01*
X11912926Y-13976710D02*
X11931974Y-13986234D01*
X11931974Y-13986234D02*
X11970069Y-13986234D01*
X11970069Y-13986234D02*
X11989117Y-13976710D01*
X11989117Y-13976710D02*
X11998640Y-13957662D01*
X11998640Y-13957662D02*
X11998640Y-13948138D01*
X11998640Y-13948138D02*
X11989117Y-13929091D01*
X11989117Y-13929091D02*
X11970069Y-13919567D01*
X11970069Y-13919567D02*
X11941498Y-13919567D01*
X11941498Y-13919567D02*
X11922450Y-13910043D01*
X11922450Y-13910043D02*
X11912926Y-13890996D01*
X11912926Y-13890996D02*
X11912926Y-13881472D01*
X11912926Y-13881472D02*
X11922450Y-13862424D01*
X11922450Y-13862424D02*
X11941498Y-13852900D01*
X11941498Y-13852900D02*
X11970069Y-13852900D01*
X11970069Y-13852900D02*
X11989117Y-13862424D01*
X12112926Y-13986234D02*
X12093879Y-13976710D01*
X12093879Y-13976710D02*
X12084355Y-13957662D01*
X12084355Y-13957662D02*
X12084355Y-13786234D01*
X12217688Y-13986234D02*
X12198640Y-13976710D01*
X12198640Y-13976710D02*
X12189117Y-13967186D01*
X12189117Y-13967186D02*
X12179593Y-13948138D01*
X12179593Y-13948138D02*
X12179593Y-13890996D01*
X12179593Y-13890996D02*
X12189117Y-13871948D01*
X12189117Y-13871948D02*
X12198640Y-13862424D01*
X12198640Y-13862424D02*
X12217688Y-13852900D01*
X12217688Y-13852900D02*
X12246260Y-13852900D01*
X12246260Y-13852900D02*
X12265307Y-13862424D01*
X12265307Y-13862424D02*
X12274831Y-13871948D01*
X12274831Y-13871948D02*
X12284355Y-13890996D01*
X12284355Y-13890996D02*
X12284355Y-13948138D01*
X12284355Y-13948138D02*
X12274831Y-13967186D01*
X12274831Y-13967186D02*
X12265307Y-13976710D01*
X12265307Y-13976710D02*
X12246260Y-13986234D01*
X12246260Y-13986234D02*
X12217688Y-13986234D01*
X12341498Y-13852900D02*
X12417688Y-13852900D01*
X12370069Y-13786234D02*
X12370069Y-13957662D01*
X12370069Y-13957662D02*
X12379593Y-13976710D01*
X12379593Y-13976710D02*
X12398640Y-13986234D01*
X12398640Y-13986234D02*
X12417688Y-13986234D01*
X12474831Y-13976710D02*
X12493879Y-13986234D01*
X12493879Y-13986234D02*
X12531974Y-13986234D01*
X12531974Y-13986234D02*
X12551021Y-13976710D01*
X12551021Y-13976710D02*
X12560545Y-13957662D01*
X12560545Y-13957662D02*
X12560545Y-13948138D01*
X12560545Y-13948138D02*
X12551021Y-13929091D01*
X12551021Y-13929091D02*
X12531974Y-13919567D01*
X12531974Y-13919567D02*
X12503402Y-13919567D01*
X12503402Y-13919567D02*
X12484355Y-13910043D01*
X12484355Y-13910043D02*
X12474831Y-13890996D01*
X12474831Y-13890996D02*
X12474831Y-13881472D01*
X12474831Y-13881472D02*
X12484355Y-13862424D01*
X12484355Y-13862424D02*
X12503402Y-13852900D01*
X12503402Y-13852900D02*
X12531974Y-13852900D01*
X12531974Y-13852900D02*
X12551021Y-13862424D01*
X12627212Y-14062424D02*
X12636736Y-14052900D01*
X12636736Y-14052900D02*
X12655783Y-14024329D01*
X12655783Y-14024329D02*
X12665307Y-14005281D01*
X12665307Y-14005281D02*
X12674831Y-13976710D01*
X12674831Y-13976710D02*
X12684355Y-13929091D01*
X12684355Y-13929091D02*
X12684355Y-13890996D01*
X12684355Y-13890996D02*
X12674831Y-13843377D01*
X12674831Y-13843377D02*
X12665307Y-13814805D01*
X12665307Y-13814805D02*
X12655783Y-13795758D01*
X12655783Y-13795758D02*
X12636736Y-13767186D01*
X12636736Y-13767186D02*
X12627212Y-13757662D01*
M02*
